<svg width="117" height="12" viewBox="0 0 117 12" fill="none" xmlns="http://www.w3.org/2000/svg">
<path d="M18.4642 9.88956C16.2763 9.88956 14.6016 8.21489 14.6016 6C14.6016 3.83913 16.2223 2.11043 18.3831 2.11043C19.4906 2.11043 20.463 2.59663 21.1382 3.2719L22.5428 1.7863C21.5164 0.786899 20.0848 0.165649 18.3831 0.165649C14.8447 0.165649 12.3867 2.73168 12.3867 6C12.3867 9.26831 14.8717 11.8343 18.4101 11.8343C20.49 11.8343 22.1646 10.943 23.1911 9.67347L21.6785 8.32293C21.0302 9.18728 19.9498 9.88956 18.4642 9.88956Z" fill="black"/>
<path d="M30.3747 9.88956C28.1868 9.88956 26.5121 8.21489 26.5121 6C26.5121 3.83913 28.1327 2.11043 30.2936 2.11043C31.4011 2.11043 32.3735 2.59663 33.0487 3.2719L34.4533 1.7863C33.4269 0.786899 31.9953 0.165649 30.2936 0.165649C26.7552 0.165649 24.3242 2.73168 24.3242 6C24.3242 9.26831 26.8092 11.8343 30.3476 11.8343C32.4275 11.8343 34.1021 10.943 35.1286 9.67347L33.616 8.32293C32.9407 9.18728 31.8602 9.88956 30.3747 9.88956Z" fill="black"/>
<path d="M39.559 6.568H43.2865V4.62322H39.559V2.27327H44.4209V0.328491H37.3711V11.6731H44.583V9.72827H39.559V6.568Z" fill="black"/>
<path d="M49.0406 3.35293C49.0406 2.48858 49.959 2.11043 50.7963 2.11043C51.5526 2.11043 52.3089 2.43456 52.7681 2.86674L53.9025 1.24608C52.8221 0.462769 51.7687 0.165649 50.6072 0.165649C48.7165 0.165649 46.8527 1.32712 46.8527 3.35293C46.8527 4.62244 47.555 5.40576 48.4464 5.91896C49.959 6.81032 52.0658 6.9994 52.0658 8.45798C52.0658 9.29532 51.3905 9.88956 50.4181 9.88956C49.3917 9.88956 48.3923 9.34934 47.7441 8.64706L46.3125 10.1327C47.474 11.2131 48.8785 11.8343 50.4181 11.8343C52.471 11.8343 54.2537 10.4298 54.2537 8.43098C54.2807 4.62244 49.0406 5.18967 49.0406 3.35293Z" fill="black"/>
<path d="M58.3863 3.35293C58.3863 2.48858 59.3047 2.11043 60.142 2.11043C60.8983 2.11043 61.6546 2.43456 62.1138 2.86674L63.2483 1.24608C62.1678 0.462769 61.1144 0.165649 59.9529 0.165649C58.0622 0.165649 56.1984 1.32712 56.1984 3.35293C56.1984 4.62244 56.9007 5.40576 57.7921 5.91896C59.3047 6.81032 61.4115 6.9994 61.4115 8.45798C61.4115 9.29532 60.7362 9.88956 59.7639 9.88956C58.7374 9.88956 57.738 9.34934 57.0898 8.64706L55.6582 10.1327C56.8197 11.2131 58.2242 11.8343 59.7639 11.8343C61.8167 11.8343 63.5994 10.4298 63.5994 8.43098C63.6264 4.62244 58.3863 5.18967 58.3863 3.35293Z" fill="black"/>
<path d="M64.8691 2.27327H67.8673V11.6731H70.0552V2.27327H73.0534V0.328491H64.8691V2.27327Z" fill="black"/>
<path d="M105.115 1.40893C104.196 0.733654 103.008 0.328491 101.198 0.328491H97.7676V11.6731H101.198C103.008 11.6731 104.169 11.2949 105.115 10.5926C106.519 9.5662 107.356 7.86452 107.356 5.97376C107.356 4.13702 106.492 2.43534 105.115 1.40893ZM104.358 8.45876C103.737 9.24207 102.792 9.72827 101.468 9.72827H99.9555V2.27327H101.441C102.792 2.27327 103.71 2.73246 104.331 3.54278C104.844 4.19104 105.169 5.05539 105.169 6.00077C105.169 6.94615 104.871 7.8105 104.358 8.45876Z" fill="black"/>
<path d="M111.975 9.72827V6.568H115.702V4.62322H111.975V2.27327H116.837V0.328491H109.787V11.6731H116.999V9.72827H111.975Z" fill="black"/>
<path d="M7.06568 0.328491H5.49905L5.1209 1.24686L0.826172 11.6731H3.09508L3.93242 9.51218H8.57829L9.41562 11.6731H11.7656L7.41682 1.13882L7.06568 0.328491ZM7.71394 7.5674H4.79677L6.25535 3.97496L7.71394 7.5674Z" fill="black"/>
<path d="M91.2044 0.328491H89.6377L89.2596 1.24686L84.9648 11.7001H87.2338L88.0711 9.53919H92.717L93.5543 11.7001H95.9042L91.5555 1.16582L91.2044 0.328491ZM91.8526 7.56739H88.9084L90.367 3.97496L91.8526 7.56739Z" fill="black"/>
<path d="M83.1274 3.48876C83.1274 1.65202 81.7498 0.328491 79.643 0.328491H75.2402V11.6731H77.4281V6.64903H78.7787L81.4527 11.6731H83.8837L80.8315 6.40593C81.9659 6.10881 83.1274 5.21746 83.1274 3.48876ZM77.4011 2.27327H79.4809C80.3453 2.27327 80.9125 2.81349 80.9125 3.51577C80.9125 4.19104 80.4263 4.70425 79.4809 4.70425H77.4011V2.27327Z" fill="black"/>
</svg>
