<svg width="131" height="14" viewBox="0 0 131 14" fill="none" xmlns="http://www.w3.org/2000/svg">
<path d="M20.4759 11.5999C18.0384 11.5999 16.1727 9.7342 16.1727 7.2666C16.1727 4.8592 17.9782 2.93327 20.3856 2.93327C21.6194 2.93327 22.7028 3.47494 23.4551 4.22725L25.0199 2.57216C23.8764 1.45873 22.2815 0.766602 20.3856 0.766602C16.4435 0.766602 13.7051 3.6254 13.7051 7.2666C13.7051 10.9078 16.4736 13.7666 20.4157 13.7666C22.7329 13.7666 24.5986 12.7735 25.7421 11.3592L24.0569 9.85456C23.3347 10.8175 22.131 11.5999 20.4759 11.5999Z" fill="white"/>
<path d="M33.7466 11.5999C31.3091 11.5999 29.4434 9.7342 29.4434 7.2666C29.4434 4.8592 31.2489 2.93327 33.6563 2.93327C34.8901 2.93327 35.9734 3.47494 36.7258 4.22725L38.2906 2.57216C37.1471 1.45873 35.5522 0.766602 33.6563 0.766602C29.7142 0.766602 27.0059 3.6254 27.0059 7.2666C27.0059 10.9078 29.7744 13.7666 33.7165 13.7666C36.0336 13.7666 37.8994 12.7735 39.0429 11.3592L37.3577 9.85456C36.6054 10.8175 35.4017 11.5999 33.7466 11.5999Z" fill="white"/>
<path d="M43.9785 7.89914H48.1313V5.73247H43.9785V3.11442H49.3952V0.947754H41.541V13.5866H49.5757V11.42H43.9785V7.89914Z" fill="white"/>
<path d="M54.5413 4.31753C54.5413 3.35457 55.5644 2.93327 56.4973 2.93327C57.3399 2.93327 58.1825 3.29438 58.6941 3.77586L59.958 1.97031C58.7543 1.09762 57.5807 0.766602 56.2867 0.766602C54.1802 0.766602 52.1038 2.06058 52.1038 4.31753C52.1038 5.73188 52.8862 6.60457 53.8793 7.17633C55.5645 8.16938 57.9117 8.38003 57.9117 10.005C57.9117 10.9379 57.1594 11.5999 56.076 11.5999C54.9325 11.5999 53.8191 10.9981 53.0969 10.2157L51.502 11.8708C52.7959 13.0745 54.3607 13.7666 56.076 13.7666C58.3631 13.7666 60.3492 12.2018 60.3492 9.97494C60.3793 5.73188 54.5413 6.36383 54.5413 4.31753Z" fill="white"/>
<path d="M64.9534 4.31753C64.9534 3.35457 65.9766 2.93327 66.9094 2.93327C67.752 2.93327 68.5946 3.29438 69.1062 3.77586L70.3701 1.97031C69.1664 1.09762 67.9928 0.766602 66.6988 0.766602C64.5923 0.766602 62.5159 2.06058 62.5159 4.31753C62.5159 5.73188 63.2983 6.60457 64.2914 7.17633C65.9766 8.16938 68.3238 8.38003 68.3238 10.005C68.3238 10.9379 67.5715 11.5999 66.4881 11.5999C65.3446 11.5999 64.2312 10.9981 63.509 10.2157L61.9141 11.8708C63.208 13.0745 64.7729 13.7666 66.4881 13.7666C68.7752 13.7666 70.7613 12.2018 70.7613 9.97494C70.7914 5.73188 64.9534 6.36383 64.9534 4.31753Z" fill="white"/>
<path d="M72.1758 3.11442H75.5161V13.5866H77.9536V3.11442H81.2938V0.947754H72.1758V3.11442Z" fill="white"/>
<path d="M117.013 2.15146C115.99 1.39914 114.666 0.947754 112.65 0.947754H108.828V13.5866H112.65C114.666 13.5866 115.96 13.1653 117.013 12.3829C118.578 11.2394 119.511 9.34358 119.511 7.2371C119.511 5.19081 118.548 3.29498 117.013 2.15146ZM116.171 10.0056C115.479 10.8783 114.425 11.42 112.951 11.42H111.266V3.11442H112.921C114.425 3.11442 115.448 3.62599 116.141 4.52877C116.712 5.25099 117.073 6.21396 117.073 7.2672C117.073 8.32044 116.742 9.2834 116.171 10.0056Z" fill="white"/>
<path d="M124.656 11.42V7.89914H128.809V5.73247H124.656V3.11442H130.073V0.947754H122.219V13.5866H130.253V11.42H124.656Z" fill="white"/>
<path d="M7.77756 0.947754H6.03219L5.61089 1.9709L0.826172 13.5866H3.35395L4.28682 11.1792H9.46274L10.3956 13.5866H13.0137L8.16876 1.85053L7.77756 0.947754ZM8.49978 9.01256H5.24978L6.87478 5.01025L8.49978 9.01256Z" fill="white"/>
<path d="M101.516 0.947754H99.7705L99.3492 1.9709L94.5645 13.6167H97.0922L98.0251 11.2093H103.201L104.134 13.6167H106.752L101.907 1.88062L101.516 0.947754ZM102.238 9.01256H98.958L100.583 5.01025L102.238 9.01256Z" fill="white"/>
<path d="M92.5175 4.46859C92.5175 2.42229 90.9828 0.947754 88.6356 0.947754H83.7305V13.5866H86.168V7.98942H87.6726L90.6518 13.5866H93.3601L89.9596 7.71858C91.2235 7.38757 92.5175 6.39451 92.5175 4.46859ZM86.1379 3.11442H88.455C89.418 3.11442 90.0499 3.71627 90.0499 4.49867C90.0499 5.25099 89.5082 5.82275 88.455 5.82275H86.1379V3.11442Z" fill="white"/>
</svg>
