<svg width="97" height="20" viewBox="0 0 97 20" fill="none" xmlns="http://www.w3.org/2000/svg">
<g clip-path="url(#clip0_46_7522)">
<path d="M84.0031 19.5298C83.9922 13.3406 83.9812 7.15145 83.9375 0.97321C83.9375 0.349919 84.0906 0.0984154 84.7357 0.164025C85.1185 0.207765 85.5231 0.207765 85.9058 0.164025C86.6712 0.0656106 86.8353 0.415528 86.8353 1.1263C86.8025 4.30837 86.8243 7.49043 86.8243 10.6725C86.8243 10.8803 86.8243 11.0771 86.8243 11.7113C88.1693 10.3116 89.3284 9.21815 90.3563 8.01531C91.253 6.95462 92.2809 6.49535 93.6368 6.69218C94.107 6.75779 94.5881 6.69218 95.452 6.69218C93.6477 8.46364 92.095 10.0601 90.4657 11.5692C89.733 12.2362 89.6455 12.6517 90.4328 13.3625C92.5761 15.2761 94.6319 17.2772 96.5783 19.4423C94.6975 19.6829 92.9807 20.164 91.581 18.3707C90.2688 16.6976 88.6286 15.298 87.1414 13.7671C86.5619 13.789 86.7587 14.2373 86.7478 14.5216C86.7259 15.9103 86.704 17.31 86.7478 18.6987C86.7696 19.4314 86.54 19.7594 85.7855 19.661C85.195 19.5845 84.5717 19.7922 83.9922 19.5298H84.0031Z" fill="#030303"/>
<path d="M71.2526 8.43095C72.9366 6.51734 74.6862 6.15649 76.5561 6.55014C78.8087 7.02035 80.2193 8.92303 80.2958 11.5693C80.3614 14.0078 80.2958 16.4463 80.3286 18.8957C80.3286 19.508 80.1427 19.7158 79.5194 19.7595C77.4418 19.8908 77.4418 19.9236 77.4418 17.8678C77.4418 16.0854 77.4637 14.2921 77.4418 12.5097C77.409 10.3774 76.4686 9.14173 74.8502 9.07612C73.0022 9.01051 71.5588 10.3883 71.4713 12.455C71.3838 14.5436 71.362 16.6431 71.4495 18.7317C71.5041 20.0001 70.7277 19.7595 70.017 19.7486C69.3062 19.7377 68.4642 20.0876 68.497 18.7098C68.5845 15.0466 68.5517 11.3834 68.508 7.73112C68.508 6.97661 68.6282 6.56108 69.4812 6.71417C69.6452 6.74697 69.8311 6.7251 70.006 6.71417C70.9355 6.63762 71.8431 6.58295 71.2417 8.45282L71.2526 8.43095Z" fill="#020202"/>
<path d="M0.0224865 10.5085C0.0224865 7.76385 0.0552913 5.01918 0.000616607 2.28545C-0.0212533 1.42159 0.23025 1.09354 1.08318 1.21382C1.37842 1.25756 1.69553 1.25756 1.99078 1.21382C2.85464 1.08261 3.0624 1.43252 3.05146 2.27451C3.00772 6.67036 3.0624 11.0662 3.00772 15.462C2.99679 16.479 3.23736 16.807 4.28711 16.7633C6.32101 16.6758 8.37678 16.7633 10.4107 16.7196C11.2089 16.6977 11.5917 16.8508 11.5479 17.7803C11.4386 19.9782 11.8978 19.7048 9.61243 19.7267C6.74747 19.7485 3.87158 19.7048 1.00663 19.7485C0.197445 19.7595 -0.0321882 19.5298 -0.0103183 18.7316C0.0334214 15.9869 0.0115515 13.2423 0.0115515 10.5085H0.0224865Z" fill="#030303"/>
<path d="M13.8872 13.1876C13.8872 11.3615 13.92 9.53535 13.8653 7.70922C13.8435 6.95471 13.9856 6.64853 14.8385 6.65946C16.774 6.69227 16.785 6.63759 16.785 8.56214C16.785 11.8208 16.6975 15.0903 16.8287 18.3489C16.8834 19.7486 16.2491 19.7158 15.2431 19.7595C14.1606 19.8142 13.8107 19.4971 13.8763 18.4036C13.9747 16.6649 13.8981 14.9263 13.8981 13.1876H13.8872Z" fill="#070707"/>
<path d="M17.2012 1.97916C17.1793 3.08359 16.4139 3.84904 15.3095 3.84904C14.1722 3.84904 13.374 2.99611 13.4177 1.84794C13.4615 0.82006 14.3581 -0.0328656 15.3751 -6.07529e-05C16.392 0.0327441 17.2231 0.929409 17.2012 1.97916Z" fill="#090909"/>
<path d="M84.0031 19.5297C85.76 19.5662 86.6384 18.7242 86.6384 17.0038C86.6384 16.0415 86.6275 15.0901 86.6384 14.1279C86.6384 13.8764 86.5072 13.2531 87.1305 13.7779C86.5728 15.0901 86.9446 16.4679 86.9009 17.8129C86.8353 19.9452 86.1136 20.4045 83.9922 19.5297H84.0031Z" fill="#6D6D6D"/>
<path d="M39.3221 8.02624C38.513 8.37616 38.8519 7.66539 38.841 7.43576C38.8082 5.50027 38.8301 3.56479 38.8301 1.62931C38.8301 1.1591 38.7973 0.688901 38.7754 0.207764C39.3549 0.459267 39.0597 0.962274 39.0597 1.345C39.0925 3.17113 39.0597 5.0082 39.0925 6.83434C39.0925 7.22799 38.8519 7.70913 39.3221 8.02624Z" fill="#707070"/>
<path d="M48.1456 9.06507C46.0242 6.01423 42.0986 5.54402 39.3211 8.01532C38.5775 7.92784 38.9603 7.34829 38.9384 7.00931C38.8181 4.74577 39.1024 2.46037 38.7744 0.196841C38.2058 0.185906 37.6371 0.207776 37.0795 0.153101C36.3796 0.0874914 36.1172 0.28432 36.1172 1.0607C36.15 6.98744 36.1281 12.9142 36.1391 18.8409C36.1391 19.158 35.9969 19.5298 36.4671 19.7157C37.7246 20.2078 38.9493 19.5626 39.0915 18.316C41.0707 19.7485 42.1642 20.1312 43.717 19.9235C48.6924 19.2674 51.109 13.3297 48.1347 9.06507H48.1456ZM42.6563 17.3538C40.4912 17.3866 38.8181 15.6479 38.7744 13.3297C38.7416 10.8803 40.2834 9.09788 42.5032 9.05414C44.7667 9.0104 46.4398 10.7272 46.4616 13.111C46.4835 15.5276 44.887 17.31 42.6563 17.3428V17.3538Z" fill="#020202"/>
<path d="M64.6697 7.39208C64.6697 7.15152 64.7572 6.75786 64.4401 6.73599C63.62 6.68131 62.767 6.59383 61.9797 6.77973C61.5095 6.88908 61.9579 7.63265 61.6626 8.12472C58.9398 5.87213 55.8124 5.86119 53.5051 8.05911C50.9136 10.5304 50.6183 14.6748 52.8162 17.5397C53.7238 18.7207 54.8829 19.4752 56.3482 19.8032C58.4149 20.2625 60.1536 19.6064 61.8594 18.0755C61.4767 19.6392 62.1984 19.8579 63.27 19.7158C63.4778 19.683 63.7074 19.7048 63.9152 19.7158C64.4729 19.7704 64.6807 19.5627 64.6807 18.9831C64.6588 15.1121 64.6807 11.2412 64.6697 7.37021V7.39208ZM58.0978 17.3429C55.9436 17.3101 54.3034 15.5167 54.2815 13.1876C54.2706 10.8913 55.9327 9.07606 58.0869 9.05419C60.3176 9.03232 62.0344 10.8147 62.0344 13.1876C62.0344 15.5386 60.2957 17.3866 58.0869 17.3429H58.0978Z" fill="#030303"/>
<path d="M26.4617 6.4407C22.6017 6.42977 19.6711 9.32753 19.6602 13.1438C19.6602 16.9929 22.547 19.9344 26.3742 20C30.1468 20.0547 33.3288 16.9273 33.296 13.1766C33.2632 9.40407 30.267 6.45164 26.4617 6.4407ZM26.4726 17.2554C24.1435 17.2554 22.547 15.5823 22.5688 13.1548C22.5907 10.76 24.2747 9.03229 26.5273 9.08696C28.6815 9.1307 30.3764 10.9678 30.3545 13.2204C30.3217 15.5604 28.6815 17.2554 26.4726 17.2554Z" fill="#030303"/>
</g>
<defs>
<clipPath id="clip0_46_7522">
<rect width="96.5774" height="20" fill="white"/>
</clipPath>
</defs>
</svg>
