<svg width="24" height="25" viewBox="0 0 24 25" fill="none" xmlns="http://www.w3.org/2000/svg">
<g clip-path="url(#clip0_46_7899)">
<path d="M24 12.2666C24 5.63918 18.6274 0.266602 12 0.266602C5.37258 0.266602 0 5.63918 0 12.2666C0 18.2561 4.3882 23.2206 10.125 24.1208V15.7354H7.07812V12.2666H10.125V9.62285C10.125 6.61535 11.9166 4.9541 14.6576 4.9541C15.9701 4.9541 17.3438 5.18848 17.3438 5.18848V8.1416H15.8306C14.34 8.1416 13.875 9.06668 13.875 10.0166V12.2666H17.2031L16.6711 15.7354H13.875V24.1208C19.6118 23.2206 24 18.2561 24 12.2666Z" fill="#98A2B3"/>
</g>
<defs>
<clipPath id="clip0_46_7899">
<rect width="24" height="24" fill="white" transform="translate(0 0.266602)"/>
</clipPath>
</defs>
</svg>
