<svg width="131" height="14" viewBox="0 0 131 14" fill="none" xmlns="http://www.w3.org/2000/svg">
<path d="M20.4779 11.181C18.0404 11.181 16.1746 9.31525 16.1746 6.84766C16.1746 4.44025 17.9802 2.51432 20.3876 2.51432C21.6214 2.51432 22.7047 3.05599 23.457 3.8083L25.0218 2.15321C23.8783 1.03979 22.2834 0.347656 20.3876 0.347656C16.4455 0.347656 13.707 3.20645 13.707 6.84766C13.707 10.4889 16.4755 13.3477 20.4177 13.3477C22.7348 13.3477 24.6005 12.3546 25.7441 10.9402L24.0589 9.43562C23.3367 10.3986 22.133 11.181 20.4779 11.181Z" fill="white"/>
<path d="M33.7476 11.181C31.3101 11.181 29.4443 9.31525 29.4443 6.84766C29.4443 4.44025 31.2499 2.51432 33.6573 2.51432C34.8911 2.51432 35.9744 3.05599 36.7267 3.8083L38.2916 2.15321C37.148 1.03979 35.5531 0.347656 33.6573 0.347656C29.7152 0.347656 27.0068 3.20645 27.0068 6.84766C27.0068 10.4889 29.7754 13.3477 33.7175 13.3477C36.0346 13.3477 37.9003 12.3546 39.0439 10.9402L37.3587 9.43562C36.6064 10.3986 35.4027 11.181 33.7476 11.181Z" fill="white"/>
<path d="M43.9795 7.48019H48.1323V5.31353H43.9795V2.69547H49.3962V0.528809H41.542V13.1677H49.5767V11.001H43.9795V7.48019Z" fill="white"/>
<path d="M54.5423 3.89858C54.5423 2.93562 55.5654 2.51432 56.4983 2.51432C57.3409 2.51432 58.1835 2.87543 58.6951 3.35692L59.9589 1.55136C58.7552 0.678675 57.5816 0.347656 56.2876 0.347656C54.1812 0.347656 52.1048 1.64164 52.1048 3.89858C52.1048 5.31294 52.8872 6.18562 53.8802 6.75738C55.5654 7.75044 57.9126 7.96108 57.9126 9.58608C57.9126 10.519 57.1603 11.181 56.077 11.181C54.9335 11.181 53.8201 10.5791 53.0978 9.79673L51.5029 11.4518C52.7969 12.6555 54.3617 13.3477 56.077 13.3477C58.364 13.3477 60.3501 11.7828 60.3501 9.55599C60.3802 5.31294 54.5423 5.94488 54.5423 3.89858Z" fill="white"/>
<path d="M64.9544 3.89858C64.9544 2.93562 65.9775 2.51432 66.9104 2.51432C67.753 2.51432 68.5956 2.87543 69.1072 3.35692L70.3711 1.55136C69.1674 0.678675 67.9937 0.347656 66.6998 0.347656C64.5933 0.347656 62.5169 1.64164 62.5169 3.89858C62.5169 5.31294 63.2993 6.18562 64.2924 6.75738C65.9775 7.75044 68.3248 7.96108 68.3248 9.58608C68.3248 10.519 67.5724 11.181 66.4891 11.181C65.3456 11.181 64.2322 10.5791 63.5099 9.79673L61.915 11.4518C63.209 12.6555 64.7738 13.3477 66.4891 13.3477C68.7762 13.3477 70.7623 11.7828 70.7623 9.55599C70.7924 5.31294 64.9544 5.94488 64.9544 3.89858Z" fill="white"/>
<path d="M72.1758 2.69547H75.5161V13.1677H77.9536V2.69547H81.2938V0.528809H72.1758V2.69547Z" fill="white"/>
<path d="M117.014 1.73251C115.991 0.980197 114.667 0.528809 112.651 0.528809H108.829V13.1677H112.651C114.667 13.1677 115.961 12.7464 117.014 11.964C118.579 10.8205 119.512 8.92464 119.512 6.81816C119.512 4.77186 118.549 2.87603 117.014 1.73251ZM116.172 9.58667C115.48 10.4594 114.426 11.001 112.952 11.001H111.267V2.69547H112.922C114.426 2.69547 115.449 3.20705 116.142 4.10982C116.713 4.83205 117.074 5.79501 117.074 6.84825C117.074 7.90149 116.743 8.86445 116.172 9.58667Z" fill="white"/>
<path d="M124.657 11.001V7.48019H128.81V5.31353H124.657V2.69547H130.074V0.528809H122.22V13.1677H130.254V11.001H124.657Z" fill="white"/>
<path d="M7.77854 0.528809H6.03317L5.61187 1.55195L0.827148 13.1677H3.35493L4.2878 10.7603H9.46372L10.3966 13.1677H13.0146L8.16974 1.43159L7.77854 0.528809ZM8.50076 8.59362H5.25076L6.87576 4.59131L8.50076 8.59362Z" fill="white"/>
<path d="M101.518 0.528809H99.7724L99.3511 1.55195L94.5664 13.1978H97.0942L98.0271 10.7904H103.203L104.136 13.1978H106.754L101.909 1.46168L101.518 0.528809ZM102.24 8.59361H98.9599L100.585 4.59131L102.24 8.59361Z" fill="white"/>
<path d="M92.5195 4.04964C92.5195 2.00334 90.9847 0.528809 88.6375 0.528809H83.7324V13.1677H86.1699V7.57047H87.6746L90.6537 13.1677H93.3621L89.9616 7.29964C91.2255 6.96862 92.5195 5.97556 92.5195 4.04964ZM86.1398 2.69547H88.457C89.4199 2.69547 90.0519 3.29732 90.0519 4.07973C90.0519 4.83204 89.5102 5.40381 88.457 5.40381H86.1398V2.69547Z" fill="white"/>
</svg>
