<svg width="117" height="12" viewBox="0 0 117 12" fill="none" xmlns="http://www.w3.org/2000/svg">
<path d="M18.4651 9.88944C16.2773 9.88944 14.6026 8.21477 14.6026 5.99988C14.6026 3.83901 16.2232 2.11031 18.3841 2.11031C19.4915 2.11031 20.4639 2.59651 21.1392 3.27178L22.5438 1.78618C21.5174 0.786777 20.0858 0.165527 18.3841 0.165527C14.8457 0.165527 12.3877 2.73156 12.3877 5.99988C12.3877 9.26819 14.8727 11.8342 18.4111 11.8342C20.491 11.8342 22.1656 10.9429 23.192 9.67335L21.6794 8.32281C21.0312 9.18715 19.9507 9.88944 18.4651 9.88944Z" fill="black"/>
<path d="M30.3766 9.88944C28.1887 9.88944 26.5141 8.21477 26.5141 5.99988C26.5141 3.83901 28.1347 2.11031 30.2956 2.11031C31.403 2.11031 32.3754 2.59651 33.0507 3.27178L34.4552 1.78618C33.4288 0.786777 31.9973 0.165527 30.2956 0.165527C26.7571 0.165527 24.3262 2.73156 24.3262 5.99988C24.3262 9.26819 26.8112 11.8342 30.3496 11.8342C32.4294 11.8342 34.1041 10.9429 35.1305 9.67335L33.6179 8.32281C32.9426 9.18715 31.8622 9.88944 30.3766 9.88944Z" fill="black"/>
<path d="M39.5609 6.56787H43.2884V4.62309H39.5609V2.27315H44.4229V0.328369H37.373V11.6729H44.585V9.72814H39.5609V6.56787Z" fill="black"/>
<path d="M49.0416 3.35281C49.0416 2.48846 49.9599 2.11031 50.7973 2.11031C51.5536 2.11031 52.3099 2.43444 52.7691 2.86661L53.9035 1.24596C52.8231 0.462647 51.7697 0.165527 50.6082 0.165527C48.7174 0.165527 46.8537 1.327 46.8537 3.35281C46.8537 4.62232 47.556 5.40564 48.4473 5.91884C49.9599 6.8102 52.0668 6.99928 52.0668 8.45786C52.0668 9.2952 51.3915 9.88944 50.4191 9.88944C49.3927 9.88944 48.3933 9.34922 47.7451 8.64694L46.3135 10.1325C47.4749 11.213 48.8795 11.8342 50.4191 11.8342C52.4719 11.8342 54.2547 10.4297 54.2547 8.43085C54.2817 4.62232 49.0416 5.18955 49.0416 3.35281Z" fill="black"/>
<path d="M58.3873 3.35281C58.3873 2.48846 59.3056 2.11031 60.143 2.11031C60.8993 2.11031 61.6556 2.43444 62.1148 2.86661L63.2492 1.24596C62.1688 0.462647 61.1154 0.165527 59.9539 0.165527C58.0631 0.165527 56.1994 1.327 56.1994 3.35281C56.1994 4.62232 56.9017 5.40564 57.793 5.91884C59.3056 6.8102 61.4125 6.99928 61.4125 8.45786C61.4125 9.2952 60.7372 9.88944 59.7648 9.88944C58.7384 9.88944 57.739 9.34922 57.0908 8.64694L55.6592 10.1325C56.8206 11.213 58.2252 11.8342 59.7648 11.8342C61.8177 11.8342 63.6004 10.4297 63.6004 8.43085C63.6274 4.62232 58.3873 5.18955 58.3873 3.35281Z" fill="black"/>
<path d="M64.8691 2.27315H67.8673V11.6729H70.0552V2.27315H73.0534V0.328369H64.8691V2.27315Z" fill="black"/>
<path d="M105.116 1.4088C104.197 0.733532 103.009 0.328369 101.199 0.328369H97.7686V11.6729H101.199C103.009 11.6729 104.17 11.2948 105.116 10.5925C106.52 9.56608 107.357 7.8644 107.357 5.97364C107.357 4.1369 106.493 2.43522 105.116 1.4088ZM104.359 8.45863C103.738 9.24195 102.793 9.72814 101.469 9.72814H99.9564V2.27315H101.442C102.793 2.27315 103.711 2.73233 104.332 3.54266C104.845 4.19092 105.17 5.05527 105.17 6.00065C105.17 6.94603 104.872 7.81037 104.359 8.45863Z" fill="black"/>
<path d="M111.976 9.72814V6.56787H115.703V4.62309H111.976V2.27315H116.838V0.328369H109.788V11.6729H117V9.72814H111.976Z" fill="black"/>
<path d="M7.06666 0.328369H5.50003L5.12187 1.24674L0.827148 11.6729H3.09606L3.9334 9.51206H8.57926L9.4166 11.6729H11.7665L7.4178 1.13869L7.06666 0.328369ZM7.71492 7.56728H4.79774L6.25633 3.97483L7.71492 7.56728Z" fill="black"/>
<path d="M91.2063 0.328369H89.6397L89.2615 1.24674L84.9668 11.6999H87.2357L88.073 9.53906H92.7189L93.5562 11.6999H95.9062L91.5574 1.1657L91.2063 0.328369ZM91.8546 7.56727H88.9104L90.369 3.97483L91.8546 7.56727Z" fill="black"/>
<path d="M83.1294 3.48864C83.1294 1.6519 81.7518 0.328369 79.645 0.328369H75.2422V11.6729H77.4301V6.64891H78.7806L81.4547 11.6729H83.8857L80.8334 6.40581C81.9679 6.10869 83.1294 5.21733 83.1294 3.48864ZM77.4031 2.27315H79.4829C80.3472 2.27315 80.9145 2.81336 80.9145 3.51565C80.9145 4.19092 80.4283 4.70413 79.4829 4.70413H77.4031V2.27315Z" fill="black"/>
</svg>
