<svg width="40" height="40" viewBox="0 0 40 40" fill="none" xmlns="http://www.w3.org/2000/svg">
<path fill-rule="evenodd" clip-rule="evenodd" d="M38.3337 20.0001C38.3337 9.87486 30.1255 1.66675 20.0003 1.66675C9.87511 1.66675 1.66699 9.87486 1.66699 20.0001C1.66699 30.1253 9.8751 38.3334 20.0003 38.3334C30.1255 38.3334 38.3337 30.1253 38.3337 20.0001ZM28.3337 20.0001C28.3337 20.9206 27.5875 21.6667 26.667 21.6667H17.3573L21.1788 25.4882C21.8297 26.1391 21.8297 27.1944 21.1788 27.8453C20.528 28.4961 19.4727 28.4961 18.8218 27.8453L12.1551 21.1786C11.5043 20.5277 11.5043 19.4724 12.1551 18.8216L18.8218 12.1549C19.4727 11.504 20.528 11.504 21.1788 12.1549C21.8297 12.8058 21.8297 13.8611 21.1788 14.5119L17.3573 18.3334H26.667C27.5875 18.3334 28.3337 19.0796 28.3337 20.0001Z" fill="#98A2B3"/>
</svg>
