<svg width="218" height="49" viewBox="0 0 218 49" fill="none" xmlns="http://www.w3.org/2000/svg">
<g clip-path="url(#clip0_2_63152)">
<path d="M131.108 21.827C132.317 21.7801 133.523 21.7873 134.717 21.827C134.692 26.3094 134.717 30.7918 134.717 35.2778C133.602 35.1984 132.191 35.581 131.365 34.621C131.087 33.2892 131.307 31.9106 131.227 30.5608C131.047 27.6447 131.17 24.7358 131.108 21.827Z" fill="#101828"/>
<path d="M182.083 14.5694C185.136 14.2698 188.42 14.8184 190.9 16.7348C192.206 17.7309 193.343 19.1673 193.401 20.8816C193.448 22.3901 193.401 23.8951 193.422 25.4073C193.422 26.6235 193.531 27.9155 192.939 29.0163C191.856 31.207 189.535 32.4701 187.276 33.1378C184.241 33.8993 180.885 33.7802 178.044 32.3907C176.547 31.6292 175.089 30.5862 174.363 29.0091C173.638 27.4319 173.937 25.6563 173.876 23.9817C173.923 22.1447 173.573 20.0948 174.706 18.496C176.362 16.1176 179.257 14.887 182.083 14.5694ZM182.187 17.9582C180.538 18.2758 178.604 19.0951 178.106 20.8455C177.983 22.7402 178.084 24.6458 178.055 26.5477C177.95 27.7207 178.777 28.7131 179.755 29.2689C181.444 30.2903 183.516 30.3516 185.418 30.0773C186.962 29.7164 188.796 28.9152 189.2 27.219C189.33 25.2882 189.236 23.3429 189.247 21.4085C189.312 20.3582 188.583 19.4885 187.753 18.9543C186.078 17.9603 184.099 17.6065 182.184 17.9582H182.187Z" fill="#101828"/>
<path d="M205.992 14.5622C208.908 14.2844 212.005 14.8113 214.426 16.5364C215.783 17.4783 216.978 18.8714 217.155 20.5713C217.238 22.0943 217.155 23.6173 217.191 25.1367C217.166 26.4828 217.357 27.9301 216.668 29.1607C215.509 31.3009 213.203 32.5388 210.936 33.1884C207.688 33.9535 204.079 33.7406 201.149 32.0335C199.601 31.1204 198.164 29.7418 197.774 27.9265C197.579 26.5226 197.709 25.1006 197.673 23.6859C197.713 21.986 197.41 20.1093 198.424 18.6116C200.081 16.1177 203.098 14.8582 205.992 14.5622ZM205.079 18.1713C203.794 18.5827 202.354 19.3225 201.954 20.6976C201.748 22.9658 201.757 25.2484 201.979 27.515C202.607 29.0597 204.321 29.8068 205.866 30.1063C207.288 30.2471 208.782 30.3012 210.15 29.8031C211.395 29.3628 212.763 28.5292 213.037 27.1289C213.127 25.2197 213.059 23.3069 213.073 21.3977C213.138 20.2392 212.218 19.3334 211.297 18.7884C209.387 17.7734 207.153 17.5555 205.083 18.1821L205.079 18.1713Z" fill="#101828"/>
<path d="M75.2915 15.3814C75.8581 14.9014 76.6413 14.9736 77.3306 14.9519C80.373 14.9519 83.4154 14.9519 86.4614 14.9519C88.8109 14.9303 91.3264 16.179 92.2719 18.4238C92.6675 19.3719 92.7617 20.4188 92.5415 21.4222C92.3213 22.4256 91.7975 23.3369 91.0413 24.0322C91.8605 24.9814 92.6112 26.0966 92.6401 27.3958C92.8566 29.3952 91.6512 31.3261 89.9405 32.2897C88.789 32.9289 87.4895 33.2538 86.1727 33.2316H77.0419C76.3201 33.2316 75.5116 33.1234 75.0461 32.5098C74.7068 32.019 74.7249 31.3946 74.7104 30.828C74.7249 26.2566 74.7249 21.6852 74.7104 17.1137C74.7213 16.5327 74.7465 15.7856 75.2915 15.3814ZM78.9402 18.2686C78.9402 19.6449 78.9402 21.0199 78.9402 22.3937C81.4485 22.3937 83.9531 22.4226 86.4614 22.3937C87.5441 22.3937 88.5727 21.4193 88.4175 20.3041C88.551 19.059 87.2987 18.2361 86.1691 18.2939C83.7583 18.2325 81.3511 18.2758 78.9402 18.2614V18.2686ZM78.9402 25.7646C78.9402 27.1324 78.9402 28.4966 78.9402 29.8644C81.3547 29.8644 83.7727 29.8644 86.1871 29.8644C86.5486 29.8959 86.9122 29.8361 87.2446 29.6904C87.5769 29.5448 87.8673 29.3179 88.0891 29.0307C88.9264 27.8542 88.219 25.8909 86.6816 25.8043C84.1011 25.6996 81.5171 25.779 78.9366 25.7574L78.9402 25.7646Z" fill="#101828"/>
<path d="M102.558 16.6879C103.106 15.2876 104.756 14.8834 106.113 14.8257C107.296 14.9051 108.661 15.118 109.429 16.1213C109.886 16.9347 110.285 17.7788 110.624 18.6476C112.789 23.5126 114.915 28.392 117.12 33.2425C115.615 33.0909 113.811 33.7081 112.547 32.647C111.595 31.3839 111.284 29.7598 110.472 28.4173L110.187 28.2549C107.459 28.1682 104.727 28.2801 101.995 28.2007C101.1 29.832 100.472 31.586 99.6597 33.2533C98.4687 33.2209 97.2236 33.4121 96.094 32.9249L95.7764 32.1742C97.9129 26.9556 100.317 21.8561 102.558 16.6879ZM103.355 24.9165C105.225 24.9165 107.094 24.9165 108.964 24.9165C108.047 22.7944 107.098 20.6867 106.138 18.5827C105.246 20.7228 104.276 22.8161 103.355 24.9165Z" fill="#101828"/>
<path d="M120.162 16.565C120.083 15.5545 121.122 14.8832 122.046 14.9699C129.907 14.941 137.774 14.9699 145.635 14.9699C145.635 21.0655 145.664 27.1684 145.635 33.264C144.462 33.1774 143.148 33.4878 142.084 32.849C141.481 32.4881 141.495 31.7338 141.495 31.1239C141.495 27.1178 141.495 23.1154 141.495 19.1094H128.622C127.178 19.1094 125.735 19.0336 124.291 19.2357C124.331 23.9058 124.291 28.5759 124.291 33.246C123.143 33.1918 121.902 33.4445 120.837 32.9067C120.184 32.5458 120.115 31.7771 120.137 31.1202C120.162 26.2661 120.126 21.412 120.162 16.565Z" fill="#101828"/>
<path d="M152.391 15.0314C155.672 14.8546 158.97 15.0314 162.258 14.952C164.402 14.8329 166.69 15.6305 168.033 17.3773C168.696 18.2522 169.047 19.3242 169.029 20.4221C169.012 21.5199 168.626 22.5802 167.935 23.4332C167.816 23.6931 167.278 23.9962 167.603 24.2994C168.139 24.8564 168.541 25.528 168.778 26.2634C169.016 26.9987 169.083 27.7785 168.975 28.5436C168.588 31.337 165.763 33.1415 163.096 33.2353C160.06 33.2822 157.029 33.2353 153.994 33.257C153.171 33.2281 152.207 33.3328 151.565 32.712C151.124 32.315 151.103 31.6798 151.088 31.1349C151.088 26.4792 151.088 21.82 151.088 17.1643C150.966 16.2549 151.381 15.1722 152.391 15.0314ZM155.278 18.2795C155.278 19.6546 155.278 21.0296 155.278 22.4047C157.805 22.4047 160.313 22.4299 162.828 22.4047C163.117 22.4016 163.402 22.3354 163.663 22.2106C163.924 22.0858 164.154 21.9055 164.337 21.6823C164.521 21.4591 164.654 21.1985 164.726 20.9187C164.798 20.6388 164.808 20.3466 164.756 20.0624C164.756 18.94 163.586 18.2831 162.572 18.3084C160.14 18.229 157.711 18.2795 155.286 18.2615L155.278 18.2795ZM155.278 25.7791C155.278 27.1433 155.278 28.5075 155.278 29.8753C157.884 29.8428 160.493 29.9439 163.096 29.832C164.178 29.7634 164.73 28.7277 164.9 27.7749C164.691 27.2191 164.557 26.5695 164.037 26.2158C163.456 25.7286 162.662 25.7755 161.959 25.7646C159.725 25.761 157.502 25.7502 155.282 25.7611L155.278 25.7791Z" fill="#101828"/>
<path d="M78.4166 38.84C78.9723 37.4578 81.3796 37.53 81.8487 38.9519C82.9314 41.3591 83.9672 43.7808 85.0608 46.17C84.4039 46.1375 83.7218 46.2277 83.0866 46.0256C82.6066 45.4265 82.3648 44.6794 82.0725 43.9865C80.7597 43.8826 79.4407 43.8826 78.1278 43.9865C77.8175 44.7083 77.5035 45.4301 77.2111 46.17C76.5615 46.1483 75.8325 46.271 75.3164 45.7802C76.3738 43.4812 77.3627 41.157 78.4166 38.84ZM78.8532 42.4057C79.6929 42.4057 80.5351 42.4057 81.3796 42.4057C80.9465 41.4638 80.5206 40.5182 80.0767 39.5835C79.6905 40.5399 79.2755 41.4746 78.8641 42.4057H78.8532Z" fill="#101828"/>
<path d="M90.7743 38.1469C92.2829 37.6669 93.8853 37.9629 95.4372 37.8835C96.7436 37.8041 98.1512 38.4284 98.6853 39.688C99.1906 41.0486 98.4002 42.4705 97.1478 43.066C97.7722 44.0766 98.3172 45.1304 98.9018 46.1698C98.2125 46.1301 97.4582 46.2853 96.8194 45.993C96.177 45.1593 95.7728 44.1884 95.1954 43.297H92.669C92.669 44.2678 92.669 45.2387 92.669 46.2131C92.0591 46.0832 91.128 46.426 90.814 45.7078C90.713 43.1779 90.7743 40.6624 90.7743 38.1469ZM92.6474 39.4354C92.6474 40.2077 92.6474 40.9836 92.6474 41.7632C93.7915 41.7307 94.9463 41.839 96.0868 41.7054C97.1406 41.46 97.1948 39.8143 96.1698 39.5039C95.0257 39.3524 93.8384 39.4642 92.6618 39.4354H92.6474Z" fill="#101828"/>
<path d="M118.257 38.8398C118.885 37.3312 121.473 37.5983 121.812 39.2007C122.819 41.5321 123.865 43.8491 124.89 46.1769C124.237 46.1264 123.541 46.2563 122.923 46.0109C122.415 45.4371 122.22 44.6647 121.916 43.9754C120.599 43.9502 119.285 43.9429 117.972 43.9754C117.669 44.6972 117.351 45.419 117.059 46.1408C116.485 46.0181 115.391 46.4693 115.276 45.6464C116.189 43.3547 117.264 41.1135 118.257 38.8398ZM118.697 42.4127H121.206C120.787 41.4708 120.361 40.5252 119.946 39.5832C119.524 40.5216 119.112 41.4708 118.697 42.4127Z" fill="#101828"/>
<path d="M131.224 38.3817C131.866 37.6382 132.953 37.9486 133.815 37.8836C132.538 39.6412 131.098 41.287 129.91 43.1059C129.841 44.1366 129.824 45.1701 129.86 46.2024C129.268 46.1627 128.676 46.1158 128.091 46.0472C127.996 45.0554 127.965 44.0585 127.998 43.0626C126.872 41.3844 125.349 39.9588 124.493 38.111C125.066 37.9806 125.647 37.8901 126.233 37.8403C127.146 39.006 128.005 40.2151 128.968 41.3447C129.719 40.3594 130.423 39.3345 131.224 38.3817Z" fill="#101828"/>
<path d="M136.403 37.9089C138.568 37.3748 141.412 37.8042 142.513 40.0094C141.888 40.1429 141.149 40.6373 140.582 40.1104C140.021 39.622 139.325 39.3137 138.586 39.2255C137.848 39.1374 137.099 39.2734 136.439 39.616C135.919 39.8289 135.768 40.6987 136.32 40.9477C137.518 41.5504 138.925 41.0488 140.181 41.4097C141.264 41.6406 142.415 42.3985 142.502 43.6075C142.589 44.8166 141.463 45.773 140.358 46.0689C138.099 46.7113 135.15 46.3793 133.905 44.1236C134.515 43.9035 135.266 43.4415 135.872 43.936C136.581 44.546 137.489 44.8747 138.424 44.8599C139.207 44.7985 140.185 44.7155 140.611 43.9468C140.719 43.326 140.116 42.9038 139.561 42.8857C138.402 42.7955 137.222 42.8533 136.078 42.6042C134.995 42.3516 133.912 41.4133 134.057 40.2187C134.201 39.0241 135.306 38.194 136.403 37.9089Z" fill="#101828"/>
<path d="M86.4725 38.1112C87.0571 38.0005 87.6442 37.897 88.2337 37.8008C88.4827 40.5906 88.3059 43.3948 88.342 46.1954C87.7248 46.1629 87.1113 46.1196 86.5014 46.0474C86.3678 43.402 86.4147 40.753 86.4725 38.1112Z" fill="#101828"/>
<path d="M101.035 38.1329C101.65 37.9827 102.276 37.8838 102.908 37.8369C102.908 39.7822 102.872 41.731 102.908 43.6763C102.843 44.2104 103.341 44.5317 103.785 44.6796C104.227 44.8591 104.712 44.902 105.178 44.803C105.645 44.7039 106.071 44.4673 106.401 44.1238C106.625 42.2652 106.354 40.3813 106.524 38.5226C106.701 37.6962 107.769 37.9705 108.383 37.8405C108.412 39.5873 108.383 41.3377 108.383 43.0844C107.964 45.0838 111.27 45.4447 111.992 43.9289C112.122 41.9909 111.952 40.042 112.086 38.104C112.677 38.0029 113.273 37.9091 113.89 37.8369C114.038 39.8697 114.038 41.9106 113.89 43.9434C113.865 44.8131 113.147 45.4519 112.446 45.8381C111.661 46.2188 110.792 46.3946 109.921 46.3492C109.05 46.3038 108.204 46.0386 107.462 45.5783C105.481 46.845 102.049 46.661 101.067 44.2718C100.919 42.2399 101.009 40.1756 101.035 38.1329Z" fill="#101828"/>
<path d="M48.3171 0.3176C50.0711 0.292336 51.8431 0.05775 53.5863 0.3176C53.7542 0.541019 53.8712 0.798462 53.9291 1.07188C54.0266 2.17624 53.7126 3.25895 53.4636 4.32C51.5075 11.8123 49.8545 19.3877 47.5015 26.7717C47.5015 24.8265 47.635 22.8812 47.6567 20.9323C47.7938 19.0809 47.7108 17.2223 47.8479 15.3708C47.9923 10.3591 48.1487 5.34136 48.3171 0.3176Z" fill="#64AE55"/>
<path d="M42.4134 1.29932C43.5759 0.883866 44.7905 0.632423 46.0224 0.552246C46.0224 4.92638 46.2101 9.29691 46.2281 13.671C46.3689 17.0022 46.275 20.3441 46.441 23.6753C46.441 25.9814 46.5024 28.284 46.5241 30.5901C42.8717 30.5107 39.2338 30.951 35.6284 31.5213C35.5996 29.955 35.6284 28.385 35.5274 26.8295C35.4949 21.6867 35.3361 16.5438 35.3036 11.401C35.1953 10.0115 35.2386 8.62202 35.2134 7.23255C36.1878 6.3339 37.1226 5.39917 38.1006 4.52578C39.4323 3.30954 40.7244 1.97059 42.4134 1.29932Z" fill="#64AE55"/>
<path d="M28.7673 13.6889C30.3842 11.9686 32.0407 10.2844 33.7369 8.63623C33.7658 12.3138 33.6467 15.9878 33.6539 19.6618C33.6323 23.7304 33.6082 27.7977 33.5818 31.8639C31.9397 32.1671 30.3084 32.5171 28.6843 32.8961C28.6292 31.6259 28.6412 30.3538 28.7204 29.0849C28.7276 23.9601 28.7709 18.8245 28.7673 13.6889Z" fill="#64AE55"/>
<path d="M25.559 17.2472C26.6129 16.0923 27.6017 14.8761 28.7205 13.7861C28.3777 20.2824 27.8327 26.7461 27.4321 33.2279C23.6091 34.2045 19.8683 35.4788 16.2441 37.0391L16.5798 36.8514C16.5798 35.5955 16.7314 34.3467 16.7711 33.0944C16.9082 31.1491 17.0057 29.1967 17.132 27.2478C17.0995 26.7137 17.5831 26.3924 17.879 26.0207C20.4198 23.0685 22.9966 20.1597 25.559 17.2472Z" fill="#64AE55"/>
<path d="M8.59296 37.5771C10.3686 35.4117 12.0937 33.1777 13.8946 31.0195C14.1725 33.2716 14.3313 35.5344 14.6164 37.7864C12.6602 38.7086 10.7554 39.7363 8.91055 40.865C6.06303 42.6081 3.49702 44.7591 0.970703 46.9426C1.21308 46.5291 1.49468 46.1399 1.81161 45.7804C4.03116 43.0123 6.32288 40.3128 8.59296 37.5771Z" fill="#64AE55"/>
<path d="M35.6177 31.5207C39.2268 30.9649 42.8574 30.5102 46.5134 30.5896C45.3982 32.9535 44.1459 35.3788 42.031 37.0065C38.5194 39.7241 34.3438 41.4311 30.1212 42.6546C26.7143 43.629 23.2641 44.4591 19.7958 45.1809C17.3056 45.7403 14.7756 46.0831 12.2529 46.4477C8.46345 46.9962 4.6379 47.4077 0.805113 47.2849H0.667969C0.77263 47.1731 0.880884 47.0648 0.989155 46.9638C3.51547 44.7803 6.06705 42.6329 8.929 40.8862C10.7739 39.7575 12.6786 38.7298 14.6349 37.8076C15.1799 37.5442 15.7176 37.3024 16.2878 37.0606C19.912 35.5003 23.6527 34.226 27.4758 33.2495L28.7281 32.9283C30.3522 32.5674 31.9762 32.2065 33.6256 31.8961C34.2571 31.7409 34.9392 31.6326 35.6177 31.5207Z" fill="#00528E"/>
<path d="M46.5133 30.5898C51.2556 30.6692 56.0484 30.9508 60.6463 32.2247C56.153 35.3754 51.5227 38.3601 46.5242 40.6554C40.8053 43.2984 34.7926 45.2526 28.6126 46.4768C19.951 48.2883 11.0508 48.6663 2.26673 47.5956C1.76778 47.5368 1.2758 47.4292 0.797852 47.2744C4.63063 47.3971 8.45619 46.982 12.2457 46.4371C14.772 46.0762 17.2983 45.7153 19.7885 45.1703C23.2568 44.4485 26.707 43.6329 30.1139 42.644C34.3509 41.4205 38.5266 39.7135 42.0237 36.9959C44.1458 35.3826 45.3981 32.9538 46.5133 30.5898Z" fill="#4FBDEE"/>
</g>
<defs>
<clipPath id="clip0_2_63152">
<rect width="217.263" height="48" fill="white" transform="translate(0 0.198242)"/>
</clipPath>
</defs>
</svg>
