<svg width="40" height="41" viewBox="0 0 40 41" fill="none" xmlns="http://www.w3.org/2000/svg">
<g opacity="0.12">
<path d="M32.3333 35.4492C33.2668 35.4492 33.7335 35.4492 34.09 35.2676C34.4036 35.1078 34.6586 34.8528 34.8183 34.5392C35 34.1827 35 33.716 35 32.7825V31.4492C35 30.5158 35 30.0491 34.8183 29.6926C34.6586 29.379 34.4036 29.124 34.09 28.9642C33.7335 28.7825 33.2668 28.7825 32.3333 28.7825L7.66667 28.7825C6.73325 28.7825 6.26654 28.7825 5.91002 28.9642C5.59641 29.124 5.34144 29.379 5.18166 29.6926C5 30.0491 5 30.5158 5 31.4492L5 32.7825C5 33.716 5 34.1827 5.18166 34.5392C5.34144 34.8528 5.59641 35.1078 5.91002 35.2676C6.26654 35.4492 6.73325 35.4492 7.66667 35.4492L32.3333 35.4492Z" fill="#E04F16"/>
<path d="M32.3333 15.4492C33.2668 15.4492 33.7335 15.4492 34.09 15.2676C34.4036 15.1078 34.6586 14.8528 34.8183 14.5392C35 14.1827 35 13.716 35 12.7825V10.9217C35 10.1584 35 9.77675 34.8647 9.46182C34.7455 9.18404 34.5528 8.94393 34.3076 8.76722C34.0295 8.56687 33.6569 8.48408 32.9118 8.3185L20.5785 5.57776C20.3626 5.52979 20.2547 5.5058 20.1456 5.49624C20.0487 5.48774 19.9513 5.48774 19.8544 5.49624C19.7453 5.5058 19.6374 5.52979 19.4215 5.57776L7.08819 8.3185C6.34308 8.48408 5.97053 8.56687 5.69244 8.76722C5.44715 8.94393 5.25455 9.18404 5.13525 9.46182C5 9.77675 5 10.1584 5 10.9217L5 12.7825C5 13.716 5 14.1827 5.18166 14.5392C5.34144 14.8528 5.59641 15.1078 5.91002 15.2676C6.26654 15.4492 6.73325 15.4492 7.66667 15.4492H32.3333Z" fill="#E04F16"/>
</g>
<path d="M8.33333 15.4492V28.7825M15.8333 15.4492V28.7825M24.1667 15.4492V28.7825M31.6667 15.4492V28.7825M5 31.4492L5 32.7825C5 33.716 5 34.1827 5.18166 34.5392C5.34144 34.8528 5.59641 35.1078 5.91002 35.2676C6.26654 35.4492 6.73325 35.4492 7.66667 35.4492H32.3333C33.2668 35.4492 33.7335 35.4492 34.09 35.2676C34.4036 35.1078 34.6586 34.8528 34.8183 34.5392C35 34.1827 35 33.716 35 32.7825V31.4492C35 30.5158 35 30.0491 34.8183 29.6926C34.6586 29.379 34.4036 29.124 34.09 28.9642C33.7335 28.7825 33.2668 28.7825 32.3333 28.7825H7.66667C6.73325 28.7825 6.26654 28.7825 5.91002 28.9642C5.59641 29.124 5.34144 29.379 5.18166 29.6926C5 30.0491 5 30.5158 5 31.4492ZM19.4215 5.57776L7.08819 8.3185C6.34308 8.48408 5.97053 8.56687 5.69244 8.76722C5.44715 8.94393 5.25455 9.18404 5.13525 9.46182C5 9.77675 5 10.1584 5 10.9217L5 12.7825C5 13.716 5 14.1827 5.18166 14.5392C5.34144 14.8528 5.59641 15.1078 5.91002 15.2676C6.26654 15.4492 6.73325 15.4492 7.66667 15.4492H32.3333C33.2668 15.4492 33.7335 15.4492 34.09 15.2676C34.4036 15.1078 34.6586 14.8528 34.8183 14.5392C35 14.1827 35 13.716 35 12.7825V10.9217C35 10.1584 35 9.77675 34.8647 9.46182C34.7455 9.18404 34.5528 8.94393 34.3076 8.76722C34.0295 8.56687 33.6569 8.48408 32.9118 8.3185L20.5785 5.57776C20.3626 5.52979 20.2547 5.5058 20.1456 5.49624C20.0487 5.48774 19.9513 5.48774 19.8544 5.49624C19.7453 5.5058 19.6374 5.52979 19.4215 5.57776Z" stroke="#E04F16" stroke-width="2.5" stroke-linecap="round" stroke-linejoin="round"/>
</svg>
