<svg width="100" height="99" viewBox="0 0 100 99" fill="none" xmlns="http://www.w3.org/2000/svg">
<g clip-path="url(#clip0_2_62349)">
<path d="M76.4352 85.758V94.0039C76.4352 95.818 74.9509 97.3023 73.1368 97.3023H26.9595C25.1454 97.3023 23.6611 95.818 23.6611 94.0039V85.758H76.4352Z" fill="#FF9801"/>
<path d="M71.4878 85.758V94.0039C71.4878 95.818 70.0036 97.3023 68.1895 97.3023H73.137C74.9511 97.3023 76.4354 95.818 76.4354 94.0039V85.758H71.4878Z" fill="#F57C00"/>
<path d="M23.6611 74.2136H76.4352V85.7579H23.6611V74.2136Z" fill="#FF9801"/>
<path d="M71.4873 74.2136H76.4349V85.7579H71.4873V74.2136Z" fill="#F57C00"/>
<path d="M76.4352 54.4235V62.6694H23.6611V54.4235C23.6611 52.6094 25.1454 51.1251 26.9595 51.1251H73.1368C74.9509 51.1251 76.4352 52.6094 76.4352 54.4235Z" fill="#FF9801"/>
<path d="M73.137 51.1251H68.1895C70.0036 51.1251 71.4878 52.6094 71.4878 54.4235V62.6694H76.4354V54.4235C76.4354 52.6094 74.9511 51.1251 73.137 51.1251Z" fill="#F57C00"/>
<path d="M23.6611 62.6693H76.4352V74.2136H23.6611V62.6693Z" fill="#FF9801"/>
<path d="M50.0484 51.1251C63.7107 51.1251 74.7862 40.0496 74.7862 26.3873C74.7862 12.725 63.7107 1.64948 50.0484 1.64948C36.3861 1.64948 25.3105 12.725 25.3105 26.3873C25.3105 40.0496 36.3861 51.1251 50.0484 51.1251Z" fill="#FF9801"/>
<path d="M50.048 1.64948C49.2135 1.64948 48.3873 1.694 47.5742 1.77481C60.0751 3.01665 69.8383 13.5599 69.8383 26.3873C69.8383 39.2147 60.0751 49.758 47.5742 50.9998C48.3873 51.0806 49.2135 51.1251 50.048 51.1251C63.7099 51.1251 74.7858 40.0492 74.7858 26.3873C74.7858 12.7254 63.7099 1.64948 50.048 1.64948Z" fill="#F57C00"/>
<path d="M50.0483 44.5283C60.0673 44.5283 68.1894 36.4063 68.1894 26.3872C68.1894 16.3682 60.0673 8.24615 50.0483 8.24615C40.0293 8.24615 31.9072 16.3682 31.9072 26.3872C31.9072 36.4063 40.0293 44.5283 50.0483 44.5283Z" fill="#FFDF00"/>
<path d="M50.048 8.24615C49.2069 8.24615 48.3856 8.32367 47.5742 8.43581C56.4073 9.64961 63.2415 17.226 63.2415 26.3872C63.2415 35.5485 56.4073 43.1265 47.5742 44.3387C48.3856 44.4508 49.2069 44.5283 50.048 44.5283C60.0503 44.5283 68.1891 36.3896 68.1891 26.3872C68.1891 16.3849 60.0503 8.24615 50.048 8.24615Z" fill="#FEC108"/>
<path d="M23.6611 62.6693H76.4352V74.2136H23.6611V62.6693Z" fill="#FF9801"/>
<path d="M71.4873 62.6693H76.4349V74.2136H71.4873V62.6693Z" fill="#F57C00"/>
<path d="M26.9593 49.4759C24.2315 49.4759 22.0117 51.6957 22.0117 54.4234V94.004C22.0117 96.7317 24.2315 98.9515 26.9593 98.9515H73.1366C75.8643 98.9515 78.0841 96.7317 78.0841 94.004V54.4234C78.0841 51.6957 75.8643 49.4759 73.1366 49.4759H62.7945C70.9184 44.9719 76.435 36.3153 76.435 26.3872C76.435 11.8381 64.5971 0.000183105 50.0479 0.000183105C35.4988 0.000183105 23.6609 11.8381 23.6609 26.3872C23.6609 36.3153 29.1774 44.9719 37.3013 49.4759H26.9593ZM30.2577 69.2661C31.1697 69.2661 31.9069 68.5289 31.9069 67.6169V64.3186H35.2052V65.9677C35.2052 66.8797 35.9424 67.6169 36.8544 67.6169C37.7664 67.6169 38.5036 66.8797 38.5036 65.9677V64.3186H61.5923V65.9677C61.5923 66.8797 62.3294 67.6169 63.2414 67.6169C64.1534 67.6169 64.8906 66.8797 64.8906 65.9677V64.3186H68.189V67.6169C68.189 68.5289 68.9262 69.2661 69.8382 69.2661C70.7502 69.2661 71.4874 68.5289 71.4874 67.6169V64.3186H74.7858V72.5645H25.3101V64.3186H28.6085V67.6169C28.6085 68.5289 29.3457 69.2661 30.2577 69.2661ZM25.3101 84.1088V75.8629H28.6085V79.1613C28.6085 80.0733 29.3457 80.8104 30.2577 80.8104C31.1697 80.8104 31.9069 80.0733 31.9069 79.1613V75.8629H35.2052V77.5121C35.2052 78.4241 35.9424 79.1613 36.8544 79.1613C37.7664 79.1613 38.5036 78.4241 38.5036 77.5121V75.8629H61.5923V77.5121C61.5923 78.4241 62.3294 79.1613 63.2414 79.1613C64.1534 79.1613 64.8906 78.4241 64.8906 77.5121V75.8629H68.189V79.1613C68.189 80.0733 68.9262 80.8104 69.8382 80.8104C70.7502 80.8104 71.4874 80.0733 71.4874 79.1613V75.8629H74.7858V84.1088H25.3101ZM73.1366 95.6531H26.9593C26.0489 95.6531 25.3101 94.9143 25.3101 94.004V87.4072H28.6085V90.7056C28.6085 91.6176 29.3457 92.3548 30.2577 92.3548C31.1697 92.3548 31.9069 91.6176 31.9069 90.7056V87.4072H35.2052V89.0564C35.2052 89.9684 35.9424 90.7056 36.8544 90.7056C37.7664 90.7056 38.5036 89.9684 38.5036 89.0564V87.4072H61.5923V89.0564C61.5923 89.9684 62.3294 90.7056 63.2414 90.7056C64.1534 90.7056 64.8906 89.9684 64.8906 89.0564V87.4072H68.189V90.7056C68.189 91.6176 68.9262 92.3548 69.8382 92.3548C70.7502 92.3548 71.4874 91.6176 71.4874 90.7056V87.4072H74.7858V94.004C74.7858 94.9143 74.0469 95.6531 73.1366 95.6531ZM26.9593 26.3872C26.9593 13.6555 37.3162 3.29856 50.0479 3.29856C62.7797 3.29856 73.1366 13.6555 73.1366 26.3872C73.1366 39.1189 62.7797 49.4759 50.0479 49.4759C37.3162 49.4759 26.9593 39.1189 26.9593 26.3872ZM61.5923 52.7742V54.4234C61.5923 55.3354 62.3294 56.0726 63.2414 56.0726C64.1534 56.0726 64.8906 55.3354 64.8906 54.4234V52.7742H68.189V56.0726C68.189 56.9846 68.9262 57.7218 69.8382 57.7218C70.7502 57.7218 71.4874 56.9846 71.4874 56.0726V52.7742H73.1366C74.0469 52.7742 74.7858 53.5131 74.7858 54.4234V61.0202H25.3101V54.4234C25.3101 53.5131 26.0489 52.7742 26.9593 52.7742H28.6085V56.0726C28.6085 56.9846 29.3457 57.7218 30.2577 57.7218C31.1697 57.7218 31.9069 56.9846 31.9069 56.0726V52.7742H35.2052V54.4234C35.2052 55.3354 35.9424 56.0726 36.8544 56.0726C37.7664 56.0726 38.5036 55.3354 38.5036 54.4234V52.7742H61.5923Z" fill="black"/>
<path d="M50.0481 6.59674C39.1354 6.59674 30.2578 15.4743 30.2578 26.387C30.2578 37.2997 39.1354 46.1773 50.0481 46.1773C60.9608 46.1773 69.8383 37.2997 69.8383 26.387C69.8383 15.4743 60.9608 6.59674 50.0481 6.59674ZM50.0481 42.8789C40.9545 42.8789 33.5562 35.4806 33.5562 26.387C33.5562 17.2934 40.9545 9.89512 50.0481 9.89512C59.1417 9.89512 66.54 17.2934 66.54 26.387C66.54 35.4806 59.1417 42.8789 50.0481 42.8789Z" fill="black"/>
<path d="M52.9471 19.7905C53.8146 19.7905 54.6655 20.1434 55.279 20.7569L55.4786 20.9565C56.1234 21.6013 57.1657 21.6013 57.8105 20.9565C58.4554 20.3116 58.4554 19.2693 57.8105 18.6245L57.611 18.425C56.384 17.1963 54.6837 16.4921 52.9471 16.4921H51.697V14.8429C51.697 13.9309 50.9598 13.1937 50.0478 13.1937C49.1358 13.1937 48.3986 13.9309 48.3986 14.8429V16.4921H47.574C46.0485 16.4921 44.5593 17.1073 43.4906 18.1776C42.4929 19.1737 41.8942 20.5013 41.8118 21.913C41.7178 23.4533 42.2686 24.9393 43.3603 26.1003C44.5181 27.3306 46.1491 28.0364 47.8363 28.0364H48.397V32.984H47.1469C46.2794 32.984 45.4284 32.6311 44.8149 32.0176L44.6154 31.818C43.9705 31.1732 42.9283 31.1732 42.2834 31.818C41.6386 32.4628 41.6386 33.5051 42.2834 34.15L42.483 34.3495C43.71 35.5782 45.4103 36.2824 47.1469 36.2824H48.397V37.9316C48.397 38.8436 49.1342 39.5808 50.0462 39.5808C50.9582 39.5808 51.6954 38.8436 51.6954 37.9316V36.2824H52.5199C54.0454 36.2824 55.5347 35.6672 56.6033 34.5969C57.6011 33.6008 58.1998 32.2732 58.2822 30.8615C58.3762 29.3211 57.8254 27.8352 56.7336 26.6742C55.5759 25.4439 53.9448 24.738 52.2577 24.738H51.697V19.7905H52.9471ZM52.2577 28.0364C53.0378 28.0364 53.7948 28.363 54.3324 28.9352C54.7942 29.4267 55.0284 30.0402 54.9904 30.6652C54.9558 31.2688 54.7002 31.8378 54.2714 32.2649C53.8146 32.7218 53.1763 32.9856 52.5199 32.9856H51.6954V28.0381H52.2561L52.2577 28.0364ZM48.3986 24.738H47.8379C47.0578 24.738 46.3009 24.4115 45.7632 23.8392C45.3014 23.3478 45.0673 22.7343 45.1052 22.1092C45.1398 21.5056 45.3954 20.9367 45.8242 20.5095C46.2811 20.0527 46.9193 19.7888 47.5757 19.7888H48.4003V24.7364L48.3986 24.738Z" fill="black"/>
<path d="M84.6825 36.2824C84.9299 36.2824 85.1822 36.2263 85.418 36.1092L95.3132 31.1617C96.1279 30.7543 96.4577 29.7631 96.0504 28.9484C95.6414 28.1337 94.6518 27.8072 93.8371 28.2113L83.942 33.1588C83.1273 33.5662 82.7975 34.5573 83.2048 35.372C83.4951 35.9509 84.0756 36.2824 84.6825 36.2824Z" fill="black"/>
<path d="M84.6804 44.5283H91.2772C92.1892 44.5283 92.9264 43.7911 92.9264 42.8791C92.9264 41.9671 92.1892 41.2299 91.2772 41.2299H84.6804C83.7684 41.2299 83.0312 41.9671 83.0312 42.8791C83.0312 43.7911 83.7684 44.5283 84.6804 44.5283Z" fill="black"/>
<path d="M16.152 33.1569L6.25691 28.2094C5.44221 27.8053 4.4527 28.1319 4.0437 28.9466C3.63635 29.7613 3.96619 30.7524 4.78089 31.1598L14.676 36.1073C14.9135 36.2244 15.1642 36.2805 15.4116 36.2805C16.0168 36.2805 16.599 35.9474 16.8892 35.3685C17.2966 34.5538 16.9667 33.5643 16.152 33.1569Z" fill="black"/>
<path d="M15.4149 41.2299H8.81813C7.90613 41.2299 7.16895 41.9671 7.16895 42.8791C7.16895 43.7911 7.90613 44.5283 8.81813 44.5283H15.4149C16.3269 44.5283 17.0641 43.7911 17.0641 42.8791C17.0641 41.9671 16.3269 41.2299 15.4149 41.2299Z" fill="black"/>
</g>
<defs>
<clipPath id="clip0_2_62349">
<rect width="98.9513" height="98.9513" fill="white" transform="translate(0.572266 6.10352e-05)"/>
</clipPath>
</defs>
</svg>
