<svg width="170" height="49" viewBox="0 0 170 49" fill="none" xmlns="http://www.w3.org/2000/svg">
<path d="M66.5078 36.9802C66.5088 36.4742 66.6596 35.9798 66.9412 35.5593C67.2228 35.1389 67.6227 34.8113 68.0903 34.6179C68.5579 34.4244 69.0723 34.3738 69.5687 34.4724C70.065 34.5711 70.521 34.8145 70.8792 35.172C71.2374 35.5294 71.4816 35.985 71.5811 36.4812C71.6807 36.9773 71.631 37.4918 71.4385 37.9598C71.2459 38.4278 70.9191 38.8282 70.4992 39.1107C70.0793 39.3931 69.5851 39.5448 69.0791 39.5467C68.7425 39.5467 68.4092 39.4803 68.0984 39.3512C67.7876 39.2221 67.5053 39.0329 67.2677 38.7944C67.0301 38.556 66.842 38.273 66.7141 37.9616C66.5861 37.6503 66.5209 37.3168 66.5222 36.9802M71.022 36.9802C70.9931 36.6094 70.8571 36.255 70.6305 35.9601C70.4039 35.6652 70.0965 35.4425 69.7457 35.3191C69.3949 35.1956 69.0158 35.1768 68.6545 35.2649C68.2931 35.353 67.9652 35.5441 67.7105 35.8151C67.4558 36.0862 67.2854 36.4254 67.22 36.7915C67.1545 37.1576 67.1969 37.5348 67.3418 37.8773C67.4868 38.2197 67.7282 38.5127 68.0366 38.7205C68.3451 38.9283 68.7072 39.042 69.0791 39.0478C69.3418 39.0411 69.6006 38.9819 69.8401 38.8738C70.0796 38.7656 70.2951 38.6107 70.4739 38.418C70.6526 38.2254 70.7911 37.999 70.8811 37.752C70.9711 37.5051 71.0108 37.2427 70.998 36.9802M68.0717 35.5411H69.1511C69.8466 35.5411 70.2256 35.7809 70.2256 36.395C70.2333 36.4977 70.2189 36.601 70.1835 36.6978C70.1481 36.7946 70.0924 36.8827 70.0202 36.9563C69.948 37.0298 69.861 37.0871 69.7649 37.1243C69.6687 37.1616 69.5658 37.1779 69.4629 37.1721L70.24 38.4434H69.6883L68.94 37.1913H68.6138V38.4434H68.0717V35.5411ZM68.6234 36.7787H69.1031C69.4197 36.7787 69.6979 36.7308 69.6979 36.347C69.6979 35.9632 69.3861 35.9488 69.1079 35.9488H68.6282L68.6234 36.7787Z" fill="#0E69AF"/>
<path d="M58.2522 9.80851C56.414 9.83352 54.6275 10.4206 53.1327 11.4908C51.638 12.5611 50.5066 14.0632 49.8907 15.7954C49.8236 15.9729 49.5933 16.7116 49.5933 16.7116L44.3164 39.5462H56.4293C60.5932 39.5462 64.1048 36.5432 65.1122 32.4992L70.3507 9.80371L58.2522 9.80851Z" fill="#0DB04B"/>
<path d="M38.0846 3.19824C36.1483 3.20379 34.2666 3.84111 32.7255 5.01343C31.1843 6.18575 30.0679 7.829 29.5457 9.69362C29.4654 9.97468 29.3998 10.2597 29.349 10.5475L21.1074 46.157H33.2299C35.2115 46.1494 37.1339 45.4809 38.6927 44.2575C40.2516 43.0341 41.3577 41.3256 41.836 39.4025L50.2023 3.19824H38.0846Z" fill="#F27226"/>
<path d="M14.8708 9.80908C12.9657 9.84015 11.1193 10.4731 9.59583 11.6175C8.07238 12.7618 6.95001 14.3587 6.38939 16.1797C6.36061 16.2613 6.33662 16.3428 6.31264 16.4292L6.11115 17.2255L0.958984 39.5468H13.3597C15.1574 39.519 16.9028 38.9369 18.3573 37.8799C19.8117 36.823 20.9045 35.3427 21.4861 33.6415L21.9658 31.5163L26.9837 9.80908H14.8708Z" fill="#0E69AF"/>
<path d="M12.6119 17.2251H12.4248C11.533 17.235 10.6733 17.5595 9.99739 18.1414C9.36559 18.6281 8.89163 19.2907 8.63499 20.0458L5.85742 32.1107H6.01573C6.91513 32.1014 7.78207 31.7734 8.46229 31.1849C9.18599 30.6305 9.69469 29.8421 9.90144 28.9542L10.5107 26.3349H16.0274C16.9258 26.3158 17.79 25.9871 18.474 25.4043C19.1947 24.8513 19.7029 24.0669 19.9132 23.1832L19.9467 23.0249H11.2686L11.8443 20.5351H19.3519C20.2429 20.5258 21.1023 20.2031 21.7793 19.6237C22.4954 19.0665 23.0024 18.2839 23.2184 17.4026L23.2568 17.2443L12.6119 17.2251Z" fill="white"/>
<path d="M43.2559 17.9543C43.0127 17.7157 42.7236 17.5289 42.4062 17.4052C42.0887 17.2815 41.7495 17.2235 41.409 17.2348H30.812L27.3916 32.106H27.5499C28.4493 32.0967 29.3163 31.7686 29.9965 31.1802C30.7202 30.6258 31.2289 29.8373 31.4356 28.9495L32.0497 26.3014H39.3893C40.2482 26.375 41.1036 26.1252 41.7879 25.601C42.5256 24.9665 43.0443 24.1154 43.2703 23.1689L43.9131 20.4153C43.9605 20.1928 43.9862 19.9663 43.9898 19.7389C43.9977 19.4068 43.9366 19.0767 43.8102 18.7696C43.6839 18.4624 43.4951 18.1848 43.2559 17.9543ZM39.9506 23.0202H32.8076L33.3833 20.5256H40.5311L39.9506 23.0202Z" fill="white"/>
<path d="M64.8137 17.9638C64.572 17.7231 64.2832 17.5349 63.9654 17.4111C63.6476 17.2872 63.3076 17.2304 62.9668 17.2442H51.8085V17.3497C51.7616 17.5643 51.7343 17.7827 51.727 18.0022C51.7123 18.3363 51.766 18.6699 51.8848 18.9825C52.0035 19.2952 52.1849 19.5802 52.4178 19.8203C52.6598 20.0605 52.9486 20.2484 53.2664 20.3722C53.5841 20.496 53.9239 20.5531 54.2647 20.5399H56.6057L53.9385 32.1107H54.0968C54.9978 32.1021 55.8665 31.774 56.5482 31.1848C57.2704 30.6291 57.7787 29.8412 57.9873 28.9541L59.9398 20.5399H65.4565V20.4343C65.5063 20.2123 65.532 19.9855 65.5333 19.7579C65.5443 19.4253 65.4861 19.094 65.3622 18.7852C65.2383 18.4763 65.0515 18.1966 64.8137 17.9638Z" fill="white"/>
<path d="M90.8137 31.9269C89.6709 32.844 88.231 33.3094 86.7677 33.2345C85.3649 33.2849 83.9711 32.9911 82.708 32.3788L83.5843 30.1401C84.5377 30.6752 85.6128 30.9558 86.7061 30.9548C87.4938 30.989 88.2687 30.7468 88.8968 30.2702C89.169 30.061 89.3869 29.7896 89.5322 29.4786C89.6776 29.1677 89.7461 28.8263 89.732 28.4834C89.732 27.4611 88.8603 26.5665 87.1168 25.7998C86.09 25.379 85.1358 24.7991 84.2894 24.0814C83.8498 23.6919 83.4997 23.2117 83.2634 22.674C83.027 22.1363 82.91 21.5537 82.9202 20.9665C82.8935 20.3346 83.0073 19.7047 83.2536 19.1223C83.4998 18.5398 83.8723 18.0192 84.3442 17.5982C85.3946 16.745 86.7238 16.3109 88.0753 16.3796C89.3567 16.3244 90.6285 16.6229 91.7516 17.2422L90.9438 19.296C90.097 18.812 89.1396 18.555 88.1643 18.5498C87.4568 18.5144 86.76 18.7329 86.1995 19.166C85.9545 19.3678 85.7596 19.6237 85.6301 19.9135C85.5006 20.2033 85.4401 20.5192 85.4533 20.8364C85.4533 21.8313 86.3661 22.7441 88.1917 23.5748C89.1843 23.9888 90.1078 24.5521 90.9301 25.2452C91.3685 25.6372 91.7176 26.1188 91.9538 26.6574C92.19 27.1959 92.3078 27.779 92.2993 28.367C92.3331 29.0337 92.2173 29.6994 91.9602 30.3154C91.7031 30.9315 91.3114 31.4821 90.8137 31.9269Z" fill="#101828"/>
<path d="M102.925 31.4024C102.432 31.9753 101.822 32.4352 101.136 32.7505C100.449 33.0657 99.7026 33.2289 98.9471 33.2289C98.1917 33.2289 97.4452 33.0657 96.7587 32.7505C96.0722 32.4352 95.4619 31.9753 94.9696 31.4024C94.004 30.1001 93.5201 28.5032 93.6004 26.884C93.5201 25.2648 94.004 23.6679 94.9696 22.3656C95.465 21.7977 96.0764 21.3424 96.7625 21.0305C97.4485 20.7185 98.1935 20.5571 98.9471 20.5571C99.7008 20.5571 100.446 20.7185 101.132 21.0305C101.818 21.3424 102.429 21.7977 102.925 22.3656C103.89 23.6679 104.374 25.2648 104.294 26.884C104.374 28.5032 103.89 30.1001 102.925 31.4024ZM101.083 23.7006C100.854 23.3401 100.537 23.0433 100.163 22.8377C99.788 22.6321 99.3676 22.5243 98.9403 22.5243C98.513 22.5243 98.0926 22.6321 97.7181 22.8377C97.3435 23.0433 97.0269 23.3401 96.7975 23.7006C96.2643 24.6637 96.0128 25.7574 96.0718 26.8566C96.0123 27.9581 96.2637 29.0541 96.7975 30.0195C97.022 30.3863 97.337 30.6893 97.7122 30.8995C98.0874 31.1097 98.5102 31.2201 98.9403 31.2201C99.3704 31.2201 99.7932 31.1097 100.168 30.8995C100.544 30.6893 100.859 30.3863 101.083 30.0195C101.617 29.0541 101.868 27.9581 101.809 26.8566C101.868 25.7574 101.616 24.6637 101.083 23.7006Z" fill="#101828"/>
<path d="M111.687 17.191C110.076 17.191 109.271 17.8916 109.271 19.2927V20.8057H111.804V22.661H109.298V32.9848H106.881V22.661H105.279V20.8057H106.881V19.2927C106.847 18.715 106.943 18.137 107.162 17.6013C107.381 17.0657 107.718 16.5862 108.148 16.1983C109.036 15.4947 110.152 15.1415 111.283 15.2057C111.542 15.205 111.8 15.2187 112.057 15.2467V17.191H111.687Z" fill="#101828"/>
<path d="M118.937 32.8756C118.452 33.0772 117.929 33.1707 117.404 33.1494C115.172 33.1494 114.056 31.9582 114.056 29.5758V22.6613H112.413V20.806H114.09V17.9855L116.514 17.2393V20.806H118.972V22.6613H116.514V29.4526C116.514 30.4726 117.055 30.9861 118.136 30.9861C118.423 30.9906 118.707 30.9371 118.972 30.8286L118.937 32.8756Z" fill="#101828"/>
<path d="M133.443 32.9842H130.89L128.72 25.2551C128.56 24.6772 128.439 24.0894 128.357 23.4957H128.316C128.218 24.0889 128.088 24.6762 127.925 25.2551L125.762 32.9842H123.208L119.566 20.8052H122.031L124.126 28.8493C124.288 29.4786 124.403 30.1194 124.468 30.7661H124.516C124.632 30.0815 124.769 29.3969 124.92 28.8493L127.131 20.8052H129.459L131.677 28.8493C131.828 29.4175 131.958 30.061 132.081 30.7661H132.129C132.189 30.1192 132.301 29.4781 132.464 28.8493L134.628 20.8052H137.092L133.443 32.9842Z" fill="#101828"/>
<path d="M147.442 32.3748C146.072 33.008 144.569 33.3016 143.061 33.2306C139.556 33.2306 137.801 31.9572 137.796 29.4105C137.775 28.692 137.983 27.9855 138.391 27.3934C138.798 26.8013 139.384 26.3544 140.062 26.1175C141.676 25.531 143.378 25.2253 145.094 25.2139V24.4403C145.094 23.0711 144.236 22.3865 142.52 22.3865C141.358 22.3786 140.209 22.6337 139.159 23.1327L138.522 21.4349C139.862 20.8563 141.308 20.5648 142.767 20.5791C145.888 20.5791 147.447 21.9483 147.442 24.6867V32.3748ZM145.094 26.8569C143.936 26.8754 142.786 27.0434 141.671 27.3567C141.221 27.4663 140.822 27.7247 140.537 28.0901C140.252 28.4555 140.1 28.9063 140.104 29.3694C140.104 30.7386 141.06 31.4232 142.972 31.4232C143.687 31.4636 144.402 31.3564 145.074 31.1083L145.094 26.8569Z" fill="#101828"/>
<path d="M155.221 22.7018C154.812 22.6091 154.394 22.5655 153.975 22.5717C153.322 22.5481 152.67 22.6552 152.058 22.8867V32.9845H149.594V21.4148C151.096 20.818 152.702 20.5271 154.318 20.559C154.776 20.5481 155.234 20.5779 155.687 20.648L155.221 22.7018Z" fill="#101828"/>
<path d="M166.962 26.8361L158.877 27.9657C159.133 30.1655 160.376 31.2654 162.608 31.2654C163.774 31.3026 164.929 31.046 165.97 30.5192L166.695 32.3745C165.366 32.9921 163.909 33.2854 162.444 33.2302C161.626 33.2763 160.808 33.1461 160.045 32.8484C159.282 32.5508 158.592 32.0926 158.021 31.505C156.921 30.223 156.361 28.5638 156.46 26.8771C156.378 25.2331 156.891 23.6144 157.905 22.3177C158.399 21.7327 159.02 21.2691 159.722 20.9628C160.424 20.6566 161.186 20.5158 161.951 20.5514C162.636 20.5131 163.321 20.6223 163.96 20.8715C164.599 21.1207 165.177 21.5041 165.655 21.9959C166.587 23.078 167.065 24.4786 166.99 25.905C166.99 26.3158 166.983 26.6238 166.962 26.8361ZM164.614 25.5285C164.614 23.4199 163.701 22.3656 161.876 22.3656C161.44 22.3451 161.006 22.4288 160.61 22.6098C160.213 22.7908 159.866 23.0638 159.596 23.4062C158.962 24.2501 158.642 25.2888 158.692 26.3431L164.614 25.5285Z" fill="#101828"/>
</svg>
