<svg width="20" height="21" viewBox="0 0 20 21" fill="none" xmlns="http://www.w3.org/2000/svg">
<g clip-path="url(#clip0_2_63019)">
<path fill-rule="evenodd" clip-rule="evenodd" d="M3.9263 16.0669C2.64546 14.6584 2.2958 12.8771 2.45158 11.2848C2.62329 9.52955 3.42341 7.84475 4.46621 6.97573C5.85939 5.81473 7.32275 5.33849 8.59259 5.10522C9.21009 4.99179 9.83518 4.92748 10.4599 4.86916C10.7966 4.83773 11.1369 4.80596 11.4643 4.72413C12.1549 4.55146 12.8354 4.27173 13.3958 3.82659C13.653 3.62238 13.913 3.41584 14.2587 3.45438C14.5104 3.48244 14.7357 3.62345 14.8709 3.83759C17.538 8.06045 17.1353 12.543 14.9076 15.3663C13.7957 16.7755 12.2328 17.7587 10.4108 18.0487C8.82034 18.3019 7.08266 18.0191 5.33178 17.1024C5.1726 17.6046 5.05821 18.0977 4.99112 18.5673C4.92603 19.023 4.50393 19.3395 4.04831 19.2745C3.5927 19.2094 3.27612 18.7872 3.3412 18.3316C3.44412 17.6112 3.64058 16.8437 3.9263 16.0669ZM8.89368 6.74446C9.47976 6.6368 10.0306 6.58502 10.5655 6.53295C11.0023 6.49041 11.4423 6.44758 11.8685 6.34103C12.7523 6.12009 13.4333 5.79215 13.911 5.50236C15.7254 8.93317 15.2188 12.2813 13.5992 14.334C12.726 15.4405 11.5255 16.1836 10.1488 16.4028C8.91376 16.5994 7.48287 16.3823 5.95833 15.5475C6.88496 13.6587 8.39993 11.8476 10.3722 10.8615C10.7838 10.6557 10.9507 10.1551 10.7448 9.74346C10.539 9.3318 10.0384 9.16496 9.62684 9.3708C7.45397 10.4572 5.78857 12.3357 4.70654 14.3403C4.17193 13.4654 4.01248 12.4472 4.11033 11.447C4.2512 10.007 4.90986 8.77555 5.53319 8.2561C6.63993 7.33381 7.80664 6.94416 8.89368 6.74446Z" fill="#101828"/>
</g>
<defs>
<clipPath id="clip0_2_63019">
<rect width="20" height="20" fill="white" transform="translate(0 0.949219)"/>
</clipPath>
</defs>
</svg>
