<svg width="72" height="44" viewBox="0 0 72 44" fill="none" xmlns="http://www.w3.org/2000/svg">
<path d="M66.5078 33.9802C66.5088 33.4742 66.6596 32.9798 66.9412 32.5593C67.2228 32.1389 67.6227 31.8113 68.0903 31.6179C68.5579 31.4244 69.0723 31.3738 69.5687 31.4724C70.065 31.5711 70.521 31.8145 70.8792 32.172C71.2374 32.5294 71.4816 32.985 71.5811 33.4812C71.6807 33.9773 71.631 34.4918 71.4385 34.9598C71.2459 35.4278 70.9191 35.8282 70.4992 36.1107C70.0793 36.3931 69.5851 36.5448 69.0791 36.5467C68.7425 36.5467 68.4092 36.4803 68.0984 36.3512C67.7876 36.2221 67.5053 36.0329 67.2677 35.7944C67.0301 35.556 66.842 35.273 66.7141 34.9616C66.5861 34.6503 66.5209 34.3168 66.5222 33.9802M71.022 33.9802C70.9931 33.6094 70.8571 33.255 70.6305 32.9601C70.4039 32.6652 70.0965 32.4425 69.7457 32.3191C69.3949 32.1956 69.0158 32.1768 68.6545 32.2649C68.2931 32.353 67.9652 32.5441 67.7105 32.8151C67.4558 33.0862 67.2854 33.4254 67.22 33.7915C67.1545 34.1576 67.1969 34.5348 67.3418 34.8773C67.4868 35.2197 67.7282 35.5127 68.0366 35.7205C68.3451 35.9283 68.7072 36.042 69.0791 36.0478C69.3418 36.0411 69.6006 35.9819 69.8401 35.8738C70.0796 35.7656 70.2951 35.6107 70.4739 35.418C70.6526 35.2254 70.7911 34.999 70.8811 34.752C70.9711 34.5051 71.0108 34.2427 70.998 33.9802M68.0717 32.5411H69.1511C69.8466 32.5411 70.2256 32.7809 70.2256 33.395C70.2333 33.4977 70.2189 33.601 70.1835 33.6978C70.1481 33.7946 70.0924 33.8827 70.0202 33.9563C69.948 34.0298 69.861 34.0871 69.7649 34.1243C69.6687 34.1616 69.5658 34.1779 69.4629 34.1721L70.24 35.4434H69.6883L68.94 34.1913H68.6138V35.4434H68.0717V32.5411ZM68.6234 33.7787H69.1031C69.4197 33.7787 69.6979 33.7308 69.6979 33.347C69.6979 32.9632 69.3861 32.9488 69.1079 32.9488H68.6282L68.6234 33.7787Z" fill="#0E69AF"/>
<path d="M58.2522 6.80851C56.414 6.83352 54.6275 7.42059 53.1327 8.49084C51.638 9.56109 50.5066 11.0632 49.8907 12.7954C49.8236 12.9729 49.5933 13.7116 49.5933 13.7116L44.3164 36.5462H56.4293C60.5932 36.5462 64.1048 33.5432 65.1122 29.4992L70.3507 6.80371L58.2522 6.80851Z" fill="#0DB04B"/>
<path d="M38.0846 0.198242C36.1483 0.203786 34.2666 0.841114 32.7255 2.01343C31.1843 3.18575 30.0679 4.829 29.5457 6.69362C29.4654 6.97468 29.3998 7.25969 29.349 7.54752L21.1074 43.157H33.2299C35.2115 43.1494 37.1339 42.4809 38.6927 41.2575C40.2516 40.0341 41.3577 38.3256 41.836 36.4025L50.2023 0.198242H38.0846Z" fill="#F27226"/>
<path d="M14.8708 6.80908C12.9657 6.84015 11.1193 7.47315 9.59583 8.61746C8.07238 9.76177 6.95001 11.3587 6.38939 13.1797C6.36061 13.2613 6.33662 13.3428 6.31264 13.4292L6.11115 14.2255L0.958984 36.5468H13.3597C15.1574 36.519 16.9028 35.9369 18.3573 34.8799C19.8117 33.823 20.9045 32.3427 21.4861 30.6415L21.9658 28.5163L26.9837 6.80908H14.8708Z" fill="#0E69AF"/>
<path d="M12.6119 14.2251H12.4248C11.533 14.235 10.6733 14.5595 9.99739 15.1414C9.36559 15.6281 8.89163 16.2907 8.63499 17.0458L5.85742 29.1107H6.01573C6.91513 29.1014 7.78207 28.7734 8.46229 28.1849C9.18599 27.6305 9.69469 26.8421 9.90144 25.9542L10.5107 23.3349H16.0274C16.9258 23.3158 17.79 22.9871 18.474 22.4043C19.1947 21.8513 19.7029 21.0669 19.9132 20.1832L19.9467 20.0249H11.2686L11.8443 17.5351H19.3519C20.2429 17.5258 21.1023 17.2031 21.7793 16.6237C22.4954 16.0665 23.0024 15.2839 23.2184 14.4026L23.2568 14.2443L12.6119 14.2251Z" fill="white"/>
<path d="M43.2559 14.9543C43.0127 14.7157 42.7236 14.5289 42.4062 14.4052C42.0887 14.2815 41.7495 14.2235 41.409 14.2348H30.812L27.3916 29.106H27.5499C28.4493 29.0967 29.3163 28.7686 29.9965 28.1802C30.7202 27.6258 31.2289 26.8373 31.4356 25.9495L32.0497 23.3014H39.3893C40.2482 23.375 41.1036 23.1252 41.7879 22.601C42.5256 21.9665 43.0443 21.1154 43.2703 20.1689L43.9131 17.4153C43.9605 17.1928 43.9862 16.9663 43.9898 16.7389C43.9977 16.4068 43.9366 16.0767 43.8102 15.7696C43.6839 15.4624 43.4951 15.1848 43.2559 14.9543ZM39.9506 20.0202H32.8076L33.3833 17.5256H40.5311L39.9506 20.0202Z" fill="white"/>
<path d="M64.8137 14.9638C64.572 14.7231 64.2832 14.5349 63.9654 14.4111C63.6476 14.2872 63.3076 14.2304 62.9668 14.2442H51.8085V14.3497C51.7616 14.5643 51.7343 14.7827 51.727 15.0022C51.7123 15.3363 51.766 15.6699 51.8848 15.9825C52.0035 16.2952 52.1849 16.5802 52.4178 16.8203C52.6598 17.0605 52.9486 17.2484 53.2664 17.3722C53.5841 17.496 53.9239 17.5531 54.2647 17.5399H56.6057L53.9385 29.1107H54.0968C54.9978 29.1021 55.8665 28.774 56.5482 28.1848C57.2704 27.6291 57.7787 26.8412 57.9873 25.9541L59.9398 17.5399H65.4565V17.4343C65.5063 17.2123 65.532 16.9855 65.5333 16.7579C65.5443 16.4253 65.4861 16.094 65.3622 15.7852C65.2383 15.4763 65.0515 15.1966 64.8137 14.9638Z" fill="white"/>
</svg>
