<svg width="61" height="50" viewBox="0 0 61 50" fill="none" xmlns="http://www.w3.org/2000/svg">
<path d="M30.4873 49.9415C30.0546 49.9452 29.6285 49.8352 29.2516 49.6225C26.026 47.7544 2.15296 32.7982 1.24793 32.3283C0.909081 32.1697 0.617122 31.9261 0.400546 31.621C0.18397 31.316 0.0501722 30.96 0.0122122 30.5878V9.58653C0.00418461 9.20122 0.0942155 8.8202 0.273834 8.47922C0.453453 8.13825 0.716778 7.84853 1.03908 7.63724L1.21312 7.53861C3.53371 6.10565 11.2555 1.38906 12.4796 0.710292C12.7605 0.542777 13.0807 0.45269 13.4078 0.449219C13.7131 0.452221 14.0134 0.527787 14.2838 0.669677C14.2838 0.669677 25.1036 7.72425 26.757 8.35081C27.9188 8.88437 29.1858 9.15004 30.4641 9.12821C31.9117 9.15729 33.3417 8.80729 34.6122 8.11295C36.2308 7.26013 46.569 0.704485 46.6792 0.704485C46.94 0.548 47.2395 0.467621 47.5436 0.47243C47.8709 0.474209 48.1916 0.564401 48.4719 0.733485C49.8816 1.51088 59.4656 7.37618 59.8717 7.63724C60.2028 7.83714 60.4759 8.11995 60.6641 8.45775C60.8524 8.79555 60.9492 9.17663 60.945 9.56332V30.5646C60.9099 30.9377 60.7772 31.2949 60.5603 31.6004C60.3434 31.9059 60.0499 32.1489 59.7093 32.3051C58.8101 32.7982 35.0067 47.7718 31.7172 49.5992C31.3432 49.8221 30.9169 49.9422 30.4815 49.9473" fill="url(#paint0_linear_2_63098)"/>
<path d="M30.3652 49.9414H30.4871C30.9198 49.9451 31.3459 49.8351 31.7228 49.6223C34.9484 47.7543 58.8098 32.7981 59.7148 32.3282C60.0554 32.172 60.3489 31.929 60.5658 31.6235C60.7827 31.318 60.9154 30.9608 60.9506 30.5877V9.58642C60.9557 9.23058 60.8761 8.87863 60.7185 8.55957L30.371 25.2214V49.924" fill="url(#paint1_linear_2_63098)"/>
<path d="M30.2606 49.6456H30.1388C29.7098 49.6486 29.2876 49.5386 28.9147 49.3266C25.7239 47.4817 2.11768 32.6706 1.22426 32.218C0.888415 32.0647 0.598656 31.8259 0.383869 31.5257C0.169082 31.2254 0.0367809 30.874 0.000155781 30.5066V9.73156C-0.00401246 9.37954 0.0755214 9.03156 0.232211 8.71631L30.2606 25.2041V49.6456Z" fill="url(#paint2_linear_2_63098)"/>
<defs>
<linearGradient id="paint0_linear_2_63098" x1="0.231276" y1="25.2861" x2="60.6264" y2="24.8014" gradientUnits="userSpaceOnUse">
<stop stop-color="#FFB900"/>
<stop offset="0.34" stop-color="#F38000"/>
<stop offset="0.57" stop-color="#F83C72"/>
<stop offset="0.78" stop-color="#FC1CBE"/>
<stop offset="0.93" stop-color="#FE08ED"/>
<stop offset="1" stop-color="#FF00FF"/>
</linearGradient>
<linearGradient id="paint1_linear_2_63098" x1="17.196" y1="45.03" x2="78.7544" y2="10.9708" gradientUnits="userSpaceOnUse">
<stop stop-color="#EE0A3F"/>
<stop offset="1" stop-color="#EE0A3F" stop-opacity="0"/>
</linearGradient>
<linearGradient id="paint2_linear_2_63098" x1="23.7008" y1="35.1842" x2="-6.02767" y2="11.2416" gradientUnits="userSpaceOnUse">
<stop stop-color="#ED6600"/>
<stop offset="1" stop-color="#F98200"/>
</linearGradient>
</defs>
</svg>
