<svg width="40" height="41" viewBox="0 0 40 41" fill="none" xmlns="http://www.w3.org/2000/svg">
<path opacity="0.12" d="M5 13.4492C5 10.649 5 9.24882 5.54497 8.17927C6.02433 7.23846 6.78924 6.47355 7.73005 5.99419C8.79961 5.44922 10.1997 5.44922 13 5.44922H27C29.8003 5.44922 31.2004 5.44922 32.27 5.99419C33.2108 6.47355 33.9757 7.23846 34.455 8.17927C35 9.24882 35 10.649 35 13.4492V27.4492C35 30.2495 35 31.6496 34.455 32.7192C33.9757 33.66 33.2108 34.4249 32.27 34.9043C31.2004 35.4492 29.8003 35.4492 27 35.4492H13C10.1997 35.4492 8.79961 35.4492 7.73005 34.9043C6.78924 34.4249 6.02433 33.66 5.54497 32.7192C5 31.6496 5 30.2495 5 27.4492V13.4492Z" fill="#E04F16"/>
<path d="M28.3333 15.4492L19.2761 24.5064C18.9461 24.8364 18.7811 25.0014 18.5908 25.0633C18.4235 25.1176 18.2432 25.1176 18.0758 25.0633C17.8855 25.0014 17.7205 24.8364 17.3905 24.5064L14.2761 21.392C13.9461 21.062 13.7811 20.897 13.5908 20.8352C13.4235 20.7808 13.2432 20.7808 13.0758 20.8352C12.8855 20.897 12.7205 21.062 12.3905 21.392L5 28.7826M28.3333 15.4492H21.6667M28.3333 15.4492V22.1159M13 35.4492H27C29.8003 35.4492 31.2004 35.4492 32.27 34.9043C33.2108 34.4249 33.9757 33.66 34.455 32.7192C35 31.6496 35 30.2495 35 27.4492V13.4492C35 10.649 35 9.24882 34.455 8.17927C33.9757 7.23846 33.2108 6.47355 32.27 5.99419C31.2004 5.44922 29.8003 5.44922 27 5.44922H13C10.1997 5.44922 8.79961 5.44922 7.73005 5.99419C6.78924 6.47355 6.02433 7.23846 5.54497 8.17927C5 9.24882 5 10.649 5 13.4492V27.4492C5 30.2495 5 31.6496 5.54497 32.7192C6.02433 33.66 6.78924 34.4249 7.73005 34.9043C8.79961 35.4492 10.1997 35.4492 13 35.4492Z" stroke="#E04F16" stroke-width="2.5" stroke-linecap="round" stroke-linejoin="round"/>
</svg>
