<svg width="104" height="104" viewBox="0 0 104 104" fill="none" xmlns="http://www.w3.org/2000/svg">
<path d="M62.3686 49.6234V55.9596H51.8555V49.6234" fill="#FFBC00"/>
<path d="M31.1525 93.2984C33.2395 94.44 35.5061 95.2162 37.8544 95.5937C46.211 97.0664 54.8011 96.4613 62.8694 93.8319L66.4383 92.5549C67.3656 92.3001 68.1837 91.7479 68.7671 90.9829C69.3506 90.2179 69.6671 89.2824 69.6681 88.3199C69.6681 87.7447 69.5549 87.1751 69.335 86.6436C69.1151 86.1122 68.7927 85.6293 68.3863 85.2225C67.9799 84.8157 67.4975 84.4931 66.9665 84.273C66.4355 84.0528 65.8664 83.9395 65.2917 83.9395H68.7961C69.3687 83.9395 69.9357 83.8266 70.4647 83.6073C70.9937 83.388 71.4744 83.0665 71.8793 82.6612C72.2841 82.256 72.6053 81.7749 72.8244 81.2454C73.0436 80.7159 73.1563 80.1484 73.1563 79.5752C73.1564 78.4163 72.6975 77.3045 71.8802 76.4835C71.063 75.6625 69.954 75.1991 68.7961 75.1948H70.5402C71.6966 75.1948 72.8057 74.735 73.6234 73.9165C74.4411 73.0981 74.9005 71.988 74.9005 70.8305C74.9005 69.6716 74.4416 68.5598 73.6243 67.7388C72.8071 66.9178 71.6981 66.4544 70.5402 66.4501H67.1004C67.673 66.4501 68.24 66.3372 68.769 66.1179C69.298 65.8986 69.7787 65.5771 70.1836 65.1718C70.5885 64.7666 70.9097 64.2855 71.1288 63.756C71.3479 63.2265 71.4607 62.659 71.4607 62.0858V61.213C71.4628 60.5225 71.3285 59.8384 71.0655 59.2001C70.8025 58.5618 70.416 57.9818 69.9282 57.4936C69.4404 57.0054 68.861 56.6185 68.2232 56.3552C67.5855 56.092 66.9021 55.9576 66.2122 55.9597H46.4941V41.5738L26.0332 59.4673V90.5182L31.1525 93.2984Z" fill="white" stroke="black" stroke-width="3.12774" stroke-linejoin="round"/>
<path d="M22.8032 55.9595H15.2777C13.4939 55.9595 12.0479 57.4069 12.0479 59.1923V91.2131C12.0479 92.9985 13.4939 94.4459 15.2777 94.4459H22.8032C24.587 94.4459 26.033 92.9985 26.033 91.2131V59.1923C26.033 57.4069 24.587 55.9595 22.8032 55.9595Z" fill="#FFBC00"/>
<path d="M93.5041 31.9885L87.8035 31.746C87.0037 31.7126 86.2479 31.371 85.694 30.7925C85.1402 30.2141 84.8313 29.4437 84.832 28.6425C84.8313 27.8413 85.1402 27.0709 85.694 26.4925C86.2479 25.9141 87.0037 25.5724 87.8035 25.539L93.5041 25.2966C93.922 25.2791 94.3392 25.3465 94.7304 25.4946C95.1216 25.6428 95.4788 25.8686 95.7806 26.1586C96.0823 26.4485 96.3224 26.7965 96.4862 27.1818C96.65 27.567 96.7343 27.9814 96.7339 28.4001V28.885C96.7321 29.303 96.6462 29.7164 96.4816 30.1005C96.317 30.4847 96.0769 30.8318 95.7757 31.1213C95.4744 31.4108 95.1181 31.6368 94.7278 31.7857C94.3376 31.9347 93.9215 32.0036 93.5041 31.9885Z" fill="#FFBC00"/>
<path d="M91.9859 13.1899L86.9312 15.857C86.2238 16.2311 85.3989 16.3154 84.6305 16.0923C83.8622 15.8691 83.2106 15.3558 82.8131 14.6608C82.4123 13.966 82.2944 13.1432 82.4838 12.3636C82.6733 11.5839 83.1556 10.9073 83.8305 10.4744L88.6753 7.40322C89.0284 7.17829 89.4231 7.02684 89.836 6.95791C90.2488 6.88899 90.6713 6.904 91.0783 7.00206C91.4852 7.10011 91.8682 7.2792 92.2045 7.52863C92.5408 7.77807 92.8234 8.09274 93.0355 8.45388L93.2778 8.87414C93.4852 9.24033 93.6164 9.64473 93.6635 10.063C93.7106 10.4813 93.6727 10.9048 93.552 11.308C93.4313 11.7112 93.2303 12.0858 92.9612 12.4092C92.692 12.7327 92.3602 12.9982 91.9859 13.1899Z" fill="#FFBC00"/>
<path d="M89.143 50.4315L83.9753 47.9099C83.2546 47.5628 82.6969 46.949 82.4197 46.1981C82.1425 45.4472 82.1676 44.6179 82.4895 43.8851C82.816 43.1592 83.4088 42.5866 84.1452 42.2857C84.8816 41.9849 85.7053 41.9788 86.4461 42.2687L91.7591 44.3539C92.1499 44.5044 92.5062 44.7326 92.8064 45.0247C93.1067 45.3168 93.3447 45.6667 93.5062 46.0534C93.6677 46.4401 93.7492 46.8555 93.746 47.2746C93.7427 47.6937 93.6546 48.1077 93.4871 48.4918L93.2933 48.9444C93.1201 49.3163 92.8749 49.6501 92.5719 49.9266C92.2689 50.203 91.9141 50.4165 91.5282 50.5548C91.1422 50.6931 90.7327 50.7534 90.3232 50.7323C89.9138 50.7111 89.5127 50.6089 89.143 50.4315Z" fill="#FFBC00"/>
<path d="M19.9769 31.9885L25.6775 31.746C26.4773 31.7126 27.2331 31.371 27.787 30.7925C28.3408 30.2141 28.6497 29.4437 28.649 28.6425C28.6497 27.8413 28.3408 27.0709 27.787 26.4925C27.2331 25.9141 26.4773 25.5724 25.6775 25.539L19.9769 25.2966C19.559 25.2791 19.1418 25.3465 18.7506 25.4946C18.3594 25.6428 18.0022 25.8686 17.7004 26.1586C17.3987 26.4485 17.1587 26.7965 16.9948 27.1818C16.831 27.567 16.7467 27.9814 16.7471 28.4001V28.885C16.749 29.303 16.8348 29.7164 16.9994 30.1005C17.164 30.4847 17.4041 30.8318 17.7054 31.1213C18.0066 31.4108 18.363 31.6368 18.7532 31.7857C19.1434 31.9347 19.5595 32.0036 19.9769 31.9885Z" fill="#FFBC00"/>
<path d="M21.495 13.1896L26.5336 15.8567C27.2441 16.2275 28.0701 16.3101 28.84 16.0874C29.6098 15.8646 30.2644 15.3537 30.6677 14.6606C31.0741 13.9686 31.1968 13.1459 31.0102 12.3653C30.8235 11.5847 30.3419 10.9069 29.6665 10.4741L24.8217 7.40294C24.4699 7.17836 24.0764 7.02717 23.6648 6.95844C23.2532 6.88971 22.8319 6.90485 22.4263 7.00296C22.0207 7.10106 21.639 7.28011 21.3042 7.52937C20.9693 7.77864 20.6882 8.09299 20.4776 8.4536L20.2354 8.87386C20.0245 9.23751 19.8897 9.64027 19.839 10.0577C19.7884 10.4751 19.823 10.8984 19.9408 11.302C20.0586 11.7056 20.2571 12.0811 20.5243 12.4056C20.7915 12.73 21.1217 12.9968 21.495 13.1896Z" fill="#FFBC00"/>
<path d="M24.3851 50.4316L29.5044 47.91C30.2279 47.5657 30.7892 46.9531 31.0695 46.2019C31.3498 45.4508 31.3271 44.6199 31.0062 43.8852C30.6765 43.158 30.0808 42.5851 29.3418 42.2844C28.6027 41.9837 27.7766 41.9781 27.0335 42.2688L21.7205 44.3539C21.3283 44.5028 20.9704 44.7299 20.6684 45.0213C20.3664 45.3127 20.1266 45.6624 19.9635 46.0492C19.8005 46.4361 19.7176 46.852 19.7198 47.2719C19.722 47.6917 19.8093 48.1068 19.9764 48.4919L20.1863 48.9445C20.3593 49.3225 20.6064 49.662 20.913 49.9426C21.2196 50.2232 21.5794 50.4393 21.9711 50.578C22.3627 50.7167 22.7782 50.7752 23.1929 50.7501C23.6076 50.7249 24.013 50.6166 24.3851 50.4316Z" fill="#FFBC00"/>
<path d="M38.9522 37.8722C36.9974 33.8133 36.4142 29.2282 37.2907 24.8085C38.1672 20.3889 40.4559 16.3744 43.8114 13.3706C47.1669 10.3668 51.4073 8.53662 55.893 8.15617C60.3787 7.77571 64.8663 8.86558 68.679 11.2614C72.4917 13.6572 75.4226 17.229 77.0296 21.438C78.6366 25.647 78.8326 30.265 77.588 34.5952C76.3434 38.9255 73.7257 42.7332 70.1297 45.444C66.5338 48.1548 62.1547 49.6217 57.6529 49.6234C53.7476 49.621 49.922 48.5174 46.6145 46.439C43.307 44.3606 40.6515 41.3916 38.9522 37.8722Z" fill="white" stroke="black" stroke-width="3.04499"/>
<path d="M68.0042 21.5951C70.7011 24.1975 70.2489 28.2223 68.4725 31.5197C67.3511 33.7436 65.8003 35.723 63.9099 37.3433C62.0194 38.9635 59.8268 40.1926 57.4588 40.9595C57.4588 40.9595 51.4029 39.3431 46.9619 31.5197C45.1209 28.2869 44.5395 24.1975 47.2364 21.5951C49.9333 18.9927 54.8265 19.7847 57.152 23.9712L57.6203 24.9087L58.0886 23.9712C60.4141 19.7847 65.3073 19.0088 68.0042 21.5951Z" fill="#FFBC00"/>
<path d="M22.8029 96.0625H15.2774C13.9925 96.0625 12.7602 95.5516 11.8516 94.6422C10.943 93.7328 10.4326 92.4994 10.4326 91.2133V59.1925C10.4326 57.9064 10.943 56.673 11.8516 55.7636C12.7602 54.8542 13.9925 54.3433 15.2774 54.3433H22.8029C23.4391 54.3433 24.0691 54.4688 24.6569 54.7124C25.2446 54.9561 25.7787 55.3133 26.2286 55.7636C26.6785 56.2139 27.0353 56.7485 27.2788 57.3368C27.5223 57.9251 27.6476 58.5557 27.6476 59.1925V91.2133C27.6476 92.4994 27.1372 93.7328 26.2286 94.6422C25.32 95.5516 24.0878 96.0625 22.8029 96.0625ZM15.2774 57.5761C14.8491 57.5761 14.4383 57.7464 14.1354 58.0495C13.8326 58.3527 13.6624 58.7638 13.6624 59.1925V91.2133C13.6624 91.642 13.8326 92.0531 14.1354 92.3563C14.4383 92.6594 14.8491 92.8297 15.2774 92.8297H22.8029C23.2312 92.8297 23.6419 92.6594 23.9448 92.3563C24.2476 92.0531 24.4178 91.642 24.4178 91.2133V59.1925C24.4178 58.7638 24.2476 58.3527 23.9448 58.0495C23.6419 57.7464 23.2312 57.5761 22.8029 57.5761H15.2774Z" fill="black"/>
<path d="M47.1562 97.986C42.6471 97.9561 38.154 97.4468 33.7524 96.4666C33.5403 96.422 33.3391 96.336 33.1602 96.2136C32.9813 96.0912 32.8283 95.9347 32.7098 95.7531C32.4706 95.3863 32.3867 94.9394 32.4766 94.5107C32.5666 94.082 32.823 93.7067 33.1894 93.4672C33.5559 93.2277 34.0024 93.1438 34.4307 93.2338C43.668 95.488 53.3483 95.1412 62.401 92.2316L65.9215 90.9708C66.534 90.8387 67.0853 90.5067 67.4887 90.0268C67.8921 89.547 68.1247 88.9466 68.1501 88.3199C68.1458 87.5882 67.8535 86.8876 67.3366 86.3702C66.8196 85.8527 66.1197 85.5601 65.3886 85.5559H61.0283C60.6 85.5559 60.1892 85.3856 59.8864 85.0825C59.5835 84.7793 59.4134 84.3682 59.4134 83.9395C59.4134 83.5108 59.5835 83.0997 59.8864 82.7965C60.1892 82.4934 60.6 82.3231 61.0283 82.3231H68.8929C69.5868 82.2699 70.235 81.9564 70.7078 81.4455C71.1807 80.9345 71.4434 80.2637 71.4434 79.5672C71.4434 78.8707 71.1807 78.1998 70.7078 77.6889C70.235 77.1779 69.5868 76.8644 68.8929 76.8112H60.9799C60.5516 76.8112 60.1408 76.6409 59.8379 76.3378C59.5351 76.0346 59.365 75.6235 59.365 75.1948C59.365 74.7661 59.5351 74.355 59.8379 74.0519C60.1408 73.7487 60.5516 73.5784 60.9799 73.5784H70.5886C71.2824 73.5252 71.9306 73.2118 72.4035 72.7008C72.8764 72.1898 73.1391 71.519 73.1391 70.8225C73.1391 70.126 72.8764 69.4551 72.4035 68.9442C71.9306 68.4332 71.2824 68.1197 70.5886 68.0665H60.9799C60.5516 68.0665 60.1408 67.8962 59.8379 67.5931C59.5351 67.29 59.365 66.8788 59.365 66.4501C59.365 66.0214 59.5351 65.6103 59.8379 65.3072C60.1408 65.004 60.5516 64.8337 60.9799 64.8337H67.1004C67.8285 64.8337 68.5268 64.5442 69.0416 64.0289C69.5565 63.5136 69.8457 62.8146 69.8457 62.0859V61.213C69.8457 60.2484 69.4629 59.3234 68.7815 58.6413C68.1001 57.9593 67.1759 57.5761 66.2122 57.5761H46.4941C46.0658 57.5761 45.655 57.4058 45.3522 57.1027C45.0493 56.7995 44.8792 56.3884 44.8792 55.9597C44.8792 55.531 45.0493 55.1199 45.3522 54.8168C45.655 54.5136 46.0658 54.3433 46.4941 54.3433H66.2122C68.0325 54.3433 69.7782 55.0671 71.0653 56.3554C72.3525 57.6437 73.0756 59.391 73.0756 61.213V62.0859C73.0789 63.137 72.8 64.1698 72.2681 65.0762C73.3823 65.4094 74.3756 66.06 75.1267 66.9486C75.8779 67.8372 76.3544 68.9253 76.4982 70.0804C76.642 71.2354 76.4469 72.4074 75.9367 73.4533C75.4264 74.4992 74.6231 75.3739 73.6246 75.9707C74.4046 77.0037 74.8244 78.2643 74.8197 79.5591C74.8177 80.8532 74.3986 82.1122 73.6247 83.1489C72.8508 84.1856 71.7633 84.9447 70.524 85.3134C71.0574 86.2192 71.3364 87.2524 71.3315 88.3038C71.33 89.6343 70.8865 90.9265 70.0708 91.977C69.2551 93.0275 68.1136 93.7767 66.8259 94.1066L63.4184 95.3674C58.177 97.1238 52.6835 98.0084 47.1562 97.986Z" fill="black"/>
<path d="M26.0329 61.0835C25.6897 61.1002 25.3502 61.0068 25.0636 60.817C24.777 60.6272 24.5584 60.3509 24.4396 60.0282C24.3207 59.7055 24.3077 59.3533 24.4026 59.0227C24.4975 58.6922 24.6952 58.4005 24.9671 58.1902L41.4553 43.7719C41.6102 43.6091 41.7973 43.4804 42.0047 43.394C42.212 43.3076 42.4351 43.2655 42.6597 43.2703C42.8842 43.2751 43.1053 43.3268 43.3088 43.422C43.5123 43.5172 43.6937 43.6538 43.8414 43.8231C43.9892 43.9924 44.1 44.1907 44.1669 44.4054C44.2337 44.62 44.2551 44.8462 44.2296 45.0696C44.2041 45.293 44.1324 45.5086 44.019 45.7026C43.9056 45.8966 43.7529 46.0649 43.5709 46.1965L27.0988 60.6309C26.8116 60.9085 26.4319 61.0697 26.0329 61.0835Z" fill="black"/>
<path d="M57.6526 51.2398C53.8012 51.2399 50.0151 50.2447 46.6609 48.3504C43.3067 46.4562 40.4979 43.7271 38.5067 40.4275C36.5154 37.1279 35.4092 33.3695 35.295 29.5164C35.1808 25.6632 36.0626 21.8459 37.855 18.4339C39.6474 15.022 42.2896 12.1311 45.5258 10.0412C48.762 7.95132 52.4825 6.73325 56.327 6.50494C60.1716 6.27663 64.0099 7.04583 67.4703 8.73804C70.9306 10.4303 73.8958 12.9881 76.0787 16.164C76.2016 16.339 76.2886 16.5367 76.3346 16.7456C76.3807 16.9546 76.3848 17.1705 76.3468 17.3811C76.3088 17.5916 76.2294 17.7925 76.1132 17.972C75.9971 18.1516 75.8464 18.3064 75.6701 18.4272C75.4937 18.5481 75.2952 18.6328 75.0859 18.6762C74.8766 18.7197 74.6608 18.7212 74.451 18.6806C74.2411 18.64 74.0414 18.5581 73.8634 18.4396C73.6854 18.3212 73.5327 18.1685 73.4141 17.9905C70.6819 14.0211 66.5538 11.2298 61.8547 10.1744C57.1557 9.1191 52.2318 9.87748 48.0671 12.298C43.9024 14.7185 40.8037 18.6229 39.3902 23.2309C37.9766 27.8389 38.3524 32.8111 40.4424 37.1538C42.5324 41.4965 46.1827 44.8899 50.6638 46.6558C55.1448 48.4218 60.1267 48.4301 64.6136 46.6793C69.1006 44.9284 72.7622 41.5473 74.8668 37.2116C76.9713 32.8759 77.3638 27.905 75.9657 23.2923C75.8415 22.8808 75.8857 22.4367 76.0886 22.0578C76.2915 21.6789 76.6365 21.3961 77.0477 21.2718C77.4588 21.1475 77.9025 21.1918 78.2811 21.3949C78.6596 21.598 78.9421 21.9433 79.0663 22.3548C80.0731 25.7006 80.2846 29.2356 79.684 32.6778C79.0833 36.1199 77.6871 39.3739 75.6068 42.18C73.5265 44.9861 70.8197 47.2666 67.7024 48.8397C64.5851 50.4127 61.1436 51.2346 57.6526 51.2398Z" fill="black"/>
<path d="M57.4593 42.5758C57.3198 42.5926 57.1789 42.5926 57.0394 42.5758C56.8456 42.4627 50.2891 40.6523 45.5412 32.3279C42.9896 27.802 43.1996 23.2599 46.1064 20.4474C46.9073 19.6906 47.8719 19.1291 48.9251 18.8067C49.9784 18.4843 51.0917 18.4096 52.1785 18.5885C54.3294 18.9438 56.2672 20.0982 57.6046 21.8213C58.9432 20.0995 60.8804 18.9453 63.0307 18.5885C64.1175 18.4096 65.2309 18.4843 66.2841 18.8067C67.3373 19.1291 68.3019 19.6906 69.1028 20.4474C72.0096 23.2599 72.3326 27.802 69.878 32.3117C68.649 34.737 66.9491 36.8925 64.8778 38.6521C62.8064 40.4118 60.4051 41.7402 57.8146 42.5596L57.4593 42.5758ZM50.9996 21.7243C50.0054 21.7059 49.0434 22.0771 48.3189 22.7588C46.171 24.8278 46.9139 28.2384 48.3189 30.7276C50.2724 34.5488 53.4921 37.5715 57.427 39.2784C61.6039 37.7465 65.0439 34.6846 67.0519 30.7115C67.6978 29.5153 69.6196 25.3774 66.8742 22.7265C66.4312 22.3145 65.8987 22.011 65.3187 21.8399C64.7386 21.6688 64.1268 21.6348 63.5313 21.7405C62.6741 21.8949 61.8639 22.245 61.1638 22.7637C60.4636 23.2823 59.8922 23.9554 59.4941 24.7308C58.945 25.8461 58.945 25.8461 58.7189 26.0563C58.4178 26.3476 58.0154 26.5104 57.5965 26.5104C57.1777 26.5104 56.7753 26.3476 56.4742 26.0563C56.2804 25.8623 56.2804 25.8623 55.699 24.6985C55.303 23.9371 54.7373 23.2773 54.0456 22.7699C53.3539 22.2626 52.5548 21.9214 51.7102 21.7728C51.491 21.74 51.2697 21.7238 51.0481 21.7243H50.9996Z" fill="black"/>
<path d="M51.8551 57.576C51.4268 57.576 51.0161 57.4057 50.7132 57.1026C50.4104 56.7995 50.2402 56.3883 50.2402 55.9596V49.6234C50.2402 49.4111 50.282 49.2009 50.3632 49.0048C50.4443 48.8087 50.5633 48.6305 50.7132 48.4804C50.8632 48.3303 51.0412 48.2112 51.2371 48.13C51.4331 48.0488 51.6431 48.007 51.8551 48.007C52.0672 48.007 52.2772 48.0488 52.4731 48.13C52.6691 48.2112 52.8471 48.3303 52.9971 48.4804C53.147 48.6305 53.266 48.8087 53.3471 49.0048C53.4283 49.2009 53.4701 49.4111 53.4701 49.6234V55.9596C53.4701 56.3883 53.2999 56.7995 52.9971 57.1026C52.6942 57.4057 52.2834 57.576 51.8551 57.576Z" fill="black"/>
<path d="M62.3678 57.576C61.9395 57.576 61.5288 57.4057 61.2259 57.1026C60.9231 56.7995 60.7529 56.3883 60.7529 55.9596V49.6234C60.7529 49.1947 60.9231 48.7835 61.2259 48.4804C61.5288 48.1773 61.9395 48.007 62.3678 48.007C62.7961 48.007 63.2069 48.1773 63.5098 48.4804C63.8126 48.7835 63.9828 49.1947 63.9828 49.6234V55.9596C63.9828 56.3883 63.8126 56.7995 63.5098 57.1026C63.2069 57.4057 62.7961 57.576 62.3678 57.576Z" fill="black"/>
<path d="M93.6334 33.6048H93.4396L87.739 33.3623C86.4883 33.3623 85.2889 32.8651 84.4046 31.9799C83.5203 31.0948 83.0234 29.8943 83.0234 28.6425C83.0234 27.3907 83.5203 26.1902 84.4046 25.305C85.2889 24.4199 86.4883 23.9226 87.739 23.9226L93.4396 23.6801C94.0774 23.6463 94.7152 23.7451 95.3128 23.9705C95.9104 24.1958 96.4548 24.5428 96.9117 24.9894C97.3729 25.4291 97.7397 25.9583 97.9896 26.5448C98.2395 27.1312 98.3673 27.7625 98.3651 28.4V28.8849C98.3651 30.1367 97.8683 31.3372 96.984 32.2224C96.0996 33.1075 94.9002 33.6048 93.6496 33.6048H93.6334ZM93.6334 26.9129L87.9328 27.1554C87.5387 27.1554 87.1608 27.3121 86.8822 27.591C86.6036 27.8698 86.4471 28.2481 86.4471 28.6425C86.4471 29.0369 86.6036 29.4151 86.8822 29.694C87.1608 29.9729 87.5387 30.1296 87.9328 30.1296L93.6334 30.372C93.8381 30.3852 94.0433 30.3567 94.2366 30.2882C94.43 30.2198 94.6075 30.1129 94.7584 29.9739C94.9093 29.8349 95.0305 29.6668 95.1147 29.4796C95.1989 29.2925 95.2444 29.0902 95.2483 28.8849V28.4C95.2502 28.1968 95.2095 27.9954 95.1288 27.8089C95.0481 27.6223 94.9293 27.4548 94.78 27.317C94.6288 27.1717 94.4482 27.0605 94.2504 26.9908C94.0526 26.9211 93.8423 26.8945 93.6334 26.9129Z" fill="black"/>
<path d="M85.4782 17.7803C84.4601 17.7729 83.4715 17.4369 82.6594 16.8223C81.8472 16.2077 81.2548 15.3473 80.97 14.3689C80.6853 13.3905 80.7235 12.3462 81.0789 11.3913C81.4343 10.4363 82.0879 9.62152 82.9428 9.06798L87.7875 5.99683C88.323 5.65405 88.9224 5.42356 89.5495 5.31931C90.1765 5.21506 90.8182 5.23922 91.4356 5.39033C92.0531 5.54143 92.6335 5.81634 93.1417 6.19842C93.6499 6.5805 94.0755 7.06181 94.3925 7.61323L94.6348 8.03349C94.9436 8.57933 95.1402 9.18147 95.213 9.80449C95.2858 10.4275 95.2334 11.0588 95.0589 11.6613C94.8843 12.2637 94.5912 12.8251 94.1966 13.3125C93.8021 13.7998 93.3141 14.2033 92.7615 14.4991L87.6906 17.2793C87.0032 17.6192 86.2449 17.7909 85.4782 17.7803ZM90.3229 8.48608C90.0386 8.48903 89.76 8.5671 89.5155 8.71237L84.6708 11.7997C84.3447 12.0004 84.1109 12.3218 84.0202 12.6941C83.9295 13.0663 83.9892 13.4594 84.1863 13.7879C84.3768 14.1243 84.6907 14.3733 85.0616 14.4819C85.4324 14.5906 85.8309 14.5503 86.1726 14.3698L91.2111 11.7027C91.3879 11.6099 91.5436 11.4816 91.6687 11.3258C91.7937 11.1701 91.8853 10.9903 91.9379 10.7975C91.9899 10.6148 92.0053 10.4237 91.9831 10.235C91.9609 10.0464 91.9016 9.86398 91.8087 9.69838L91.5664 9.27811C91.4684 9.10081 91.3345 8.94596 91.1732 8.82348C91.0119 8.70101 90.8268 8.61361 90.6298 8.5669L90.3229 8.48608Z" fill="black"/>
<path d="M90.4519 52.3712C89.7346 52.3724 89.0269 52.2063 88.3848 51.8862L83.2494 49.3647C82.1845 48.8084 81.3708 47.8675 80.9734 46.7328C80.5761 45.5982 80.6247 44.3547 81.1095 43.2546C81.5943 42.1546 82.479 41.2802 83.5842 40.809C84.6893 40.3377 85.9321 40.3048 87.0606 40.717L92.3737 42.8021C92.9669 43.0282 93.507 43.3747 93.96 43.8197C94.413 44.2648 94.7691 44.7989 95.006 45.3883C95.2574 45.9757 95.3871 46.6081 95.3871 47.2472C95.3871 47.8862 95.2574 48.5186 95.006 49.106L94.796 49.5425C94.4275 50.3808 93.8241 51.0942 93.0588 51.5962C92.2935 52.0983 91.3992 52.3674 90.4842 52.3712H90.4519ZM89.8059 48.9767C89.9843 49.0657 90.1788 49.1175 90.3777 49.1289C90.5767 49.1403 90.7758 49.1111 90.9631 49.0431C91.1504 48.9751 91.322 48.8696 91.4673 48.7332C91.6126 48.5967 91.7287 48.4321 91.8084 48.2494L92.0184 47.7968C92.0984 47.6132 92.1397 47.4151 92.1397 47.2149C92.1397 47.0146 92.0984 46.8165 92.0184 46.633C91.9471 46.4451 91.8368 46.2745 91.6948 46.1324C91.5529 45.9904 91.3824 45.88 91.1948 45.8086L85.914 43.7235C85.5569 43.6007 85.1667 43.6171 84.8211 43.7694C84.4755 43.9217 84.1999 44.1987 84.0492 44.5453C83.8985 44.8918 83.8838 45.2824 84.0079 45.6393C84.132 45.9963 84.3859 46.2933 84.719 46.4713L89.8059 48.9767Z" fill="black"/>
<path d="M19.8313 33.605C18.5834 33.6007 17.3881 33.1015 16.5073 32.2169C15.6265 31.3322 15.1319 30.1341 15.1319 28.8851V28.4002C15.1297 27.7626 15.2574 27.1314 15.5073 26.5449C15.7572 25.9585 16.124 25.4293 16.5853 24.9896C17.0397 24.5442 17.5814 24.1979 18.1762 23.9726C18.771 23.7472 19.406 23.6477 20.0412 23.6803L25.7418 23.9228C26.9925 23.9228 28.1919 24.42 29.0762 25.3052C29.9606 26.1903 30.4574 27.3908 30.4574 28.6426C30.4574 29.8944 29.9606 31.0949 29.0762 31.9801C28.1919 32.8652 26.9925 33.3625 25.7418 33.3625L20.0412 33.605H19.8313ZM19.8313 26.9131C19.4499 26.9214 19.0837 27.0645 18.7977 27.3172C18.6536 27.4581 18.5393 27.6266 18.4617 27.8127C18.384 27.9987 18.3445 28.1985 18.3455 28.4002V28.8851C18.3448 29.0843 18.3845 29.2816 18.4622 29.465C18.54 29.6483 18.6541 29.814 18.7977 29.9519C18.9402 30.0963 19.1119 30.2086 19.3013 30.281C19.4907 30.3535 19.6935 30.3846 19.8959 30.3722L25.5965 30.1297C25.9905 30.1297 26.3684 29.973 26.6471 29.6942C26.9257 29.4153 27.0822 29.037 27.0822 28.6426C27.0822 28.2482 26.9257 27.87 26.6471 27.5911C26.3684 27.3122 25.9905 27.1556 25.5965 27.1556L19.8959 26.9131H19.8313Z" fill="black"/>
<path d="M27.9873 17.7803C27.2213 17.7803 26.467 17.5916 25.7911 17.2307L20.7364 14.5475C20.1783 14.2613 19.6843 13.8643 19.2845 13.3807C18.8847 12.8972 18.5875 12.3372 18.4109 11.735C18.237 11.1269 18.1875 10.49 18.2651 9.86234C18.3428 9.23467 18.5462 8.62913 18.8631 8.08193L19.1053 7.66166C19.427 7.11206 19.8559 6.6328 20.3663 6.25238C20.8768 5.87196 21.4585 5.59814 22.0768 5.4472C22.695 5.297 23.3372 5.27399 23.9646 5.37957C24.5919 5.48515 25.1913 5.71712 25.7265 6.06143L30.5712 9.13258C31.4007 9.69899 32.0287 10.5149 32.3643 11.4621C32.6999 12.4094 32.7257 13.439 32.438 14.402C32.1503 15.3649 31.564 16.2113 30.7639 16.8186C29.9638 17.4259 28.9913 17.7627 27.9873 17.7803ZM22.2544 11.7511L27.2929 14.4182C27.6334 14.6175 28.0391 14.6733 28.4207 14.5733C28.8023 14.4733 29.1286 14.2256 29.3277 13.8848C29.5269 13.544 29.5826 13.1379 29.4827 12.756C29.3827 12.374 29.1353 12.0475 28.7948 11.8481L23.9501 8.76081C23.6052 8.55589 23.1965 8.48675 22.8035 8.56685C22.6072 8.61538 22.4229 8.70348 22.2619 8.82577C22.1008 8.94807 21.9664 9.10197 21.8668 9.27806L21.6569 9.69832C21.5558 9.87101 21.4909 10.0625 21.4663 10.2612C21.4417 10.4598 21.4579 10.6614 21.5138 10.8536C21.5697 11.0458 21.6643 11.2245 21.7916 11.3788C21.919 11.5331 22.0764 11.6598 22.2544 11.7511Z" fill="black"/>
<path d="M23.029 52.3712C22.4781 52.3668 21.932 52.2684 21.4141 52.0802C20.8159 51.8628 20.2682 51.5257 19.8045 51.0894C19.3408 50.6531 18.9709 50.1267 18.7172 49.5425L18.5234 49.1061C18.2791 48.5168 18.1533 47.8852 18.1533 47.2472C18.1533 46.6093 18.2791 45.9776 18.5234 45.3884C18.7662 44.7998 19.1263 44.267 19.5816 43.8223C20.037 43.3777 20.5781 43.0306 21.1719 42.8021L26.4849 40.717C27.6306 40.2133 28.9293 40.1857 30.0953 40.6404C31.2613 41.0951 32.1991 41.9948 32.7023 43.1416C33.2056 44.2883 33.2331 45.5882 32.7788 46.7553C32.3245 47.9223 31.4257 48.861 30.28 49.3647L25.0961 51.8863C24.4527 52.2025 23.7458 52.3684 23.029 52.3712ZM28.1321 43.6427C27.9484 43.641 27.7665 43.6796 27.5992 43.7558L22.2862 45.8086C22.0986 45.8811 21.9278 45.991 21.7839 46.1315C21.64 46.272 21.5261 46.4403 21.4491 46.6262C21.3721 46.8121 21.3336 47.0117 21.3359 47.2129C21.3382 47.4141 21.3813 47.6127 21.4626 47.7968L21.6563 48.2494C21.7375 48.4328 21.8553 48.5978 22.0025 48.734C22.1497 48.8702 22.3232 48.9748 22.5122 49.0414C22.6956 49.1215 22.8935 49.1629 23.0936 49.1629C23.2937 49.1629 23.4916 49.1215 23.675 49.0414L28.7943 46.536C29.1251 46.4019 29.3974 46.1542 29.5624 45.8374C29.7273 45.5206 29.7742 45.1553 29.6945 44.807C29.6148 44.4588 29.4138 44.1503 29.1275 43.937C28.8412 43.7236 28.4883 43.6193 28.1321 43.6427Z" fill="black"/>
</svg>
