<svg width="40" height="41" viewBox="0 0 40 41" fill="none" xmlns="http://www.w3.org/2000/svg">
<path opacity="0.12" fill-rule="evenodd" clip-rule="evenodd" d="M16.624 34.9252L15.6499 32.7345C15.3029 31.9526 14.7167 31.301 13.9759 30.8733C13.2346 30.4457 12.377 30.2636 11.5259 30.353L9.14253 30.6067C8.43314 30.6812 7.71733 30.5486 7.08171 30.2249C6.4461 29.9012 5.91791 29.4002 5.56105 28.7826C5.20409 28.165 5.03402 27.4571 5.0715 26.7448C5.10897 26.0325 5.35237 25.3463 5.77216 24.7696L7.18327 22.8307C7.68651 22.1387 7.9575 21.3049 7.95735 20.4493C7.9575 19.5936 7.68651 18.7598 7.18327 18.0678L5.77216 16.1289C5.35237 15.5522 5.10897 14.866 5.0715 14.1537C5.03402 13.4414 5.20409 12.7335 5.56105 12.1159C5.91756 11.498 6.44568 10.9967 7.08139 10.673C7.7171 10.3492 8.43308 10.2168 9.14253 10.2919L11.5333 10.5456C12.3844 10.6349 13.242 10.4528 13.9833 10.0252C14.7214 9.59635 15.3048 8.94486 15.6499 8.16408L16.624 5.97333C16.9136 5.32121 17.3861 4.76712 17.9844 4.37826C18.5826 3.9894 19.2809 3.78248 19.9944 3.78259C20.7079 3.78248 21.4061 3.9894 22.0044 4.37826C22.6026 4.76712 23.0752 5.32121 23.3648 5.97333L24.3462 8.16408C24.6914 8.94486 25.2748 9.59635 26.0129 10.0252C26.7542 10.4528 27.6118 10.6349 28.4629 10.5456L30.8462 10.2919C31.5557 10.2168 32.2717 10.3492 32.9074 10.673C33.5431 10.9967 34.0712 11.498 34.4277 12.1159C34.7847 12.7335 34.9547 13.4414 34.9173 14.1537C34.8798 14.866 34.6364 15.5522 34.2166 16.1289L32.8055 18.0678C32.3023 18.7598 32.0313 19.5936 32.0314 20.4493C32.0272 21.3073 32.2956 22.1445 32.7981 22.84L34.2092 24.7789C34.629 25.3556 34.8724 26.0417 34.9099 26.7541C34.9473 27.4664 34.7773 28.1743 34.4203 28.7919C34.0638 29.4098 33.5357 29.911 32.9 30.2348C32.2643 30.5586 31.5483 30.691 30.8388 30.6159L28.4555 30.3622C27.6044 30.2728 26.7468 30.455 26.0055 30.8826C25.2688 31.309 24.6856 31.9571 24.3388 32.7345L23.3648 34.9252C23.0752 35.5773 22.6026 36.1314 22.0044 36.5203C21.4061 36.9091 20.7079 37.116 19.9944 37.1159C19.2809 37.116 18.5826 36.9091 17.9844 36.5203C17.3861 36.1314 16.9136 35.5773 16.624 34.9252ZM25.1681 20.4493C25.1681 23.2107 22.9296 25.4493 20.1681 25.4493C17.4067 25.4493 15.1681 23.2107 15.1681 20.4493C15.1681 17.6878 17.4067 15.4493 20.1681 15.4493C22.9296 15.4493 25.1681 17.6878 25.1681 20.4493Z" fill="#EF6820"/>
<path d="M20.0002 25.4493C22.7616 25.4493 25.0002 23.2107 25.0002 20.4493C25.0002 17.6878 22.7616 15.4493 20.0002 15.4493C17.2388 15.4493 15.0002 17.6878 15.0002 20.4493C15.0002 23.2107 17.2388 25.4493 20.0002 25.4493Z" stroke="#EF6820" stroke-width="2.5" stroke-linecap="round" stroke-linejoin="round"/>
<path d="M15.6587 32.7345L16.6328 34.9252C16.9224 35.5773 17.3949 36.1314 17.9932 36.5203C18.5914 36.9091 19.2897 37.116 20.0032 37.1159C20.7167 37.116 21.4149 36.9091 22.0132 36.5203C22.6114 36.1314 23.084 35.5773 23.3735 34.9252L24.3476 32.7345C24.6944 31.9571 25.2776 31.309 26.0143 30.8826C26.7556 30.455 27.6132 30.2728 28.4643 30.3622L30.8476 30.6159C31.5571 30.691 32.2731 30.5586 32.9088 30.2348C33.5445 29.911 34.0726 29.4098 34.4291 28.7919C34.7861 28.1743 34.9561 27.4664 34.9187 26.7541C34.8812 26.0417 34.6378 25.3556 34.218 24.7789L32.8069 22.84C32.3044 22.1445 32.0359 21.3073 32.0402 20.4493C32.0401 19.5936 32.311 18.7598 32.8143 18.0678L34.2254 16.1289C34.6452 15.5522 34.8886 14.866 34.9261 14.1537C34.9635 13.4414 34.7935 12.7335 34.4365 12.1159C34.08 11.498 33.5519 10.9967 32.9162 10.673C32.2805 10.3492 31.5645 10.2168 30.855 10.2919L28.4717 10.5456C27.6206 10.6349 26.763 10.4528 26.0217 10.0252C25.2836 9.59635 24.7001 8.94486 24.355 8.16408L23.3735 5.97333C23.084 5.32121 22.6114 4.76712 22.0132 4.37826C21.4149 3.9894 20.7167 3.78248 20.0032 3.78259C19.2897 3.78248 18.5914 3.9894 17.9932 4.37826C17.3949 4.76712 16.9224 5.32121 16.6328 5.97333L15.6587 8.16408C15.3136 8.94486 14.7302 9.59635 13.9921 10.0252C13.2508 10.4528 12.3932 10.6349 11.5421 10.5456L9.15132 10.2919C8.44187 10.2168 7.72589 10.3492 7.09018 10.673C6.45447 10.9967 5.92635 11.498 5.56984 12.1159C5.21287 12.7335 5.04281 13.4414 5.08029 14.1537C5.11776 14.866 5.36116 15.5522 5.78095 16.1289L7.19206 18.0678C7.6953 18.7598 7.96629 19.5936 7.96614 20.4493C7.96629 21.3049 7.6953 22.1387 7.19206 22.8307L5.78095 24.7696C5.36116 25.3463 5.11776 26.0325 5.08029 26.7448C5.04281 27.4571 5.21287 28.165 5.56984 28.7826C5.9267 29.4002 6.45489 29.9012 7.0905 30.2249C7.72612 30.5486 8.44192 30.6812 9.15132 30.6067L11.5347 30.353C12.3858 30.2636 13.2433 30.4457 13.9847 30.8733C14.7255 31.301 15.3117 31.9526 15.6587 32.7345Z" stroke="#EF6820" stroke-width="2.5" stroke-linecap="round" stroke-linejoin="round"/>
</svg>
