<svg width="40" height="41" viewBox="0 0 40 41" fill="none" xmlns="http://www.w3.org/2000/svg">
<path opacity="0.12" d="M27.0485 37.1159C30.0947 37.1159 31.6177 37.1159 32.7369 36.5055C33.7201 35.9693 34.4948 35.1186 34.9369 34.0897C35.4401 32.9184 35.2979 31.402 35.0136 28.3692L34.0136 17.7025C33.7735 15.1415 33.6535 13.8609 33.0775 12.8928C32.5703 12.0402 31.8208 11.3577 30.9246 10.9323C29.9069 10.4492 28.6208 10.4492 26.0485 10.4492L13.952 10.4492C11.3798 10.4492 10.0936 10.4492 9.07599 10.9323C8.17973 11.3577 7.4303 12.0402 6.92306 12.8928C6.34711 13.8609 6.22706 15.1415 5.98696 17.7025L4.98696 28.3692C4.70263 31.402 4.56047 32.9184 5.06371 34.0897C5.50579 35.1186 6.28049 35.9693 7.26365 36.5055C8.38283 37.1159 9.9059 37.1159 12.952 37.1159H27.0485Z" fill="#E04F16"/>
<path d="M26.667 15.4493V10.4493C26.667 6.76736 23.6822 3.78259 20.0003 3.78259C16.3184 3.78259 13.3336 6.76736 13.3336 10.4493V15.4493M5.98696 17.7025L4.98696 28.3692C4.70263 31.402 4.56047 32.9185 5.06371 34.0897C5.50579 35.1186 6.28049 35.9694 7.26365 36.5056C8.38283 37.1159 9.9059 37.1159 12.952 37.1159H27.0485C30.0947 37.1159 31.6177 37.1159 32.7369 36.5056C33.7201 35.9694 34.4948 35.1186 34.9369 34.0897C35.4401 32.9185 35.2979 31.402 35.0136 28.3692L34.0136 17.7025C33.7735 15.1415 33.6535 13.861 33.0775 12.8929C32.5703 12.0402 31.8208 11.3578 30.9246 10.9323C29.9069 10.4493 28.6208 10.4493 26.0485 10.4493L13.952 10.4493C11.3798 10.4493 10.0936 10.4493 9.07599 10.9323C8.17973 11.3578 7.4303 12.0402 6.92306 12.8929C6.34711 13.861 6.22706 15.1415 5.98696 17.7025Z" stroke="#E04F16" stroke-width="2.5" stroke-linecap="round" stroke-linejoin="round"/>
</svg>
