<svg width="24" height="25" viewBox="0 0 24 25" fill="none" xmlns="http://www.w3.org/2000/svg">
<g clip-path="url(#clip0_2_63585)">
<path d="M24 12.4141C24 5.78664 18.6274 0.414062 12 0.414062C5.37258 0.414062 0 5.78664 0 12.4141C0 18.4035 4.3882 23.368 10.125 24.2683V15.8828H7.07812V12.4141H10.125V9.77031C10.125 6.76281 11.9166 5.10156 14.6576 5.10156C15.9701 5.10156 17.3438 5.33594 17.3438 5.33594V8.28906H15.8306C14.34 8.28906 13.875 9.21414 13.875 10.1641V12.4141H17.2031L16.6711 15.8828H13.875V24.2683C19.6118 23.368 24 18.4035 24 12.4141Z" fill="#98A2B3"/>
</g>
<defs>
<clipPath id="clip0_2_63585">
<rect width="24" height="24" fill="white" transform="translate(0 0.414062)"/>
</clipPath>
</defs>
</svg>
