<svg width="18" height="18" viewBox="0 0 18 18" fill="none" xmlns="http://www.w3.org/2000/svg">
<path d="M8.53834 0.757913C8.70914 0.347267 9.29086 0.347267 9.46166 0.757913L11.5278 5.72539C11.5998 5.89851 11.7626 6.01679 11.9495 6.03178L17.3123 6.46171C17.7556 6.49725 17.9354 7.05051 17.5976 7.33984L13.5117 10.8398C13.3693 10.9618 13.3071 11.1532 13.3506 11.3356L14.5989 16.5688C14.7021 17.0014 14.2315 17.3433 13.8519 17.1115L9.26063 14.3071C9.10062 14.2094 8.89938 14.2094 8.73937 14.3071L4.14806 17.1115C3.76851 17.3433 3.29788 17.0014 3.40108 16.5688L4.64939 11.3356C4.69289 11.1532 4.6307 10.9618 4.48831 10.8398L0.402413 7.33984C0.0646445 7.05051 0.244408 6.49725 0.687735 6.46171L6.05054 6.03178C6.23744 6.01679 6.40024 5.89851 6.47225 5.72539L8.53834 0.757913Z" fill="#F2F4F7"/>
</svg>
