<svg width="20" height="21" viewBox="0 0 20 21" fill="none" xmlns="http://www.w3.org/2000/svg">
<g clip-path="url(#clip0_2_63048)">
<path d="M3.75033 19.2824V15.1157M3.75033 6.78239V2.61572M1.66699 4.69906H5.83366M1.66699 17.1991H5.83366M10.8337 3.44906L9.38851 7.20644C9.1535 7.81747 9.036 8.12298 8.85327 8.37996C8.69132 8.60772 8.49232 8.80671 8.26456 8.96866C8.00758 9.15139 7.70207 9.2689 7.09104 9.50391L3.33366 10.9491L7.09104 12.3942C7.70207 12.6292 8.00758 12.7467 8.26456 12.9294C8.49232 13.0914 8.69132 13.2904 8.85327 13.5182C9.036 13.7751 9.1535 14.0806 9.38851 14.6917L10.8337 18.4491L12.2788 14.6917C12.5138 14.0806 12.6313 13.7751 12.8141 13.5182C12.976 13.2904 13.175 13.0914 13.4028 12.9294C13.6597 12.7467 13.9652 12.6292 14.5763 12.3942L18.3337 10.9491L14.5763 9.50391C13.9652 9.2689 13.6597 9.15139 13.4028 8.96866C13.175 8.80671 12.976 8.60772 12.8141 8.37996C12.6313 8.12298 12.5138 7.81747 12.2788 7.20644L10.8337 3.44906Z" stroke="#101828" stroke-width="1.5" stroke-linecap="round" stroke-linejoin="round"/>
</g>
<defs>
<clipPath id="clip0_2_63048">
<rect width="20" height="20" fill="white" transform="translate(0 0.949219)"/>
</clipPath>
</defs>
</svg>
