<svg width="17" height="26" viewBox="0 0 17 26" fill="none" xmlns="http://www.w3.org/2000/svg">
<path d="M16.7285 19.1891C16.5995 20.3293 16.1642 21.4134 15.469 22.3262C14.7737 23.2391 13.8443 23.9467 12.7793 24.3741C11.4435 24.9164 10.0058 25.1622 8.56566 25.0946C6.5669 25.0277 4.60712 24.5233 2.82434 23.6171C2.00738 23.1688 1.2361 22.6419 0.521434 22.0438C0.357266 21.907 0.275176 21.7884 0.430224 21.5878C0.585271 21.3871 1.25562 20.3839 1.34227 20.2197C1.37213 20.1722 1.41243 20.1321 1.4601 20.1025C1.50777 20.0729 1.56156 20.0545 1.61739 20.0488C1.67321 20.0431 1.72961 20.0502 1.78229 20.0695C1.83497 20.0889 1.88256 20.12 1.92143 20.1604L2.20871 20.3793C4.02227 21.8278 6.2434 22.6728 8.56111 22.7962C11.6438 22.7552 13.8829 21.3826 14.2796 19.253C14.7356 16.909 12.8477 14.8979 9.26337 13.7807C7.71009 13.2592 6.18757 12.6502 4.70315 11.9566C2.19503 10.4943 1.02458 8.58051 1.19179 6.21527C1.44716 2.94559 4.49795 0.492196 8.37414 0.478516C10.1305 0.479782 11.8688 0.833331 13.4861 1.51825C14.1796 1.82185 14.8462 2.18339 15.479 2.59902C15.5278 2.62514 15.5705 2.6613 15.6044 2.70513C15.6382 2.74896 15.6624 2.79947 15.6754 2.85332C15.6883 2.90717 15.6896 2.96314 15.6794 3.01756C15.6691 3.07198 15.6474 3.12361 15.6158 3.16904C15.4607 3.42442 15.0093 4.13126 14.8223 4.42767C14.69 4.62832 14.5213 4.65111 14.2887 4.50519C12.5558 3.34094 10.521 2.70706 8.43342 2.6811C5.78849 2.73126 3.79112 4.29543 3.65887 6.43873C3.62239 8.37227 5.10446 9.77682 8.24645 10.8485C14.7357 12.9188 17.2073 15.3722 16.7285 19.1891Z" fill="white"/>
</svg>
