<svg width="35" height="48" viewBox="0 0 35 48" fill="none" xmlns="http://www.w3.org/2000/svg">
<g clip-path="url(#clip0_2_63178)">
<path d="M31.3056 34.084C27.548 34.084 24.4805 37.1515 24.4805 40.9091C24.4805 44.6668 27.548 47.7343 31.3056 47.7343C35.0633 47.7343 38.1308 44.6668 38.1308 40.9091C38.1308 37.1515 35.0633 34.084 31.3056 34.084Z" fill="#FCB716"/>
<path d="M12.226 34.084C8.46836 34.084 5.40088 37.1515 5.40088 40.9091C5.40088 44.6668 8.46836 47.7343 12.226 47.7343C15.9837 47.7343 19.0512 44.6668 19.0512 40.9091C19.0512 37.1515 15.9837 34.084 12.226 34.084Z" fill="#EE363F"/>
<path d="M4.37305 14.7434C4.37305 10.3108 7.93133 6.96729 12.3178 6.96729C16.7503 6.96729 20.2626 10.2802 20.2626 14.7127V21.5225C20.2626 22.2127 19.7872 22.7035 19.051 22.7035C18.2994 22.7035 17.8393 22.228 17.8393 21.5225V19.5286H17.7166C16.781 21.1237 14.9099 22.5041 12.1491 22.5041C7.88532 22.5194 4.37305 19.2065 4.37305 14.7434ZM17.916 14.7434C17.916 11.5532 15.508 9.1452 12.3178 9.1452C9.12765 9.1452 6.71967 11.5532 6.71967 14.7434C6.71967 17.9335 9.12765 20.3415 12.3178 20.3415C15.508 20.3415 17.916 17.9335 17.916 14.7434ZM26.4743 27.5501C25.8454 27.2434 25.5387 26.7065 25.7841 26.0777C26.0295 25.4182 26.6276 25.1421 27.2565 25.4489C28.3454 25.955 29.6951 26.3231 31.1369 26.3231C34.7258 26.3231 36.8884 24.1912 36.8884 20.5409V19.544H36.7657C35.8301 21.1391 33.9589 22.5194 31.1982 22.5194C26.9191 22.5194 23.4068 19.2065 23.4068 14.7434C23.4068 10.3108 26.9651 6.96729 31.3516 6.96729C35.7841 6.96729 39.2964 10.2802 39.2964 14.7127V20.3722C39.2964 25.2495 36.1675 28.5317 31.0448 28.5317C29.4804 28.5317 27.916 28.2403 26.4743 27.5501ZM36.9497 14.7434C36.9497 11.5532 34.5418 9.1452 31.3516 9.1452C28.1614 9.1452 25.7534 11.5532 25.7534 14.7434C25.7534 17.9335 28.1614 20.3415 31.3516 20.3415C34.5418 20.3415 36.9497 17.9335 36.9497 14.7434ZM42.4252 14.7434C42.4252 10.3108 45.9528 6.96729 50.37 6.96729C54.8025 6.96729 58.3148 10.3108 58.3148 14.7434C58.3148 19.1759 54.7872 22.5194 50.37 22.5194C45.9528 22.5194 42.4252 19.1759 42.4252 14.7434ZM55.9835 14.7434C55.9835 11.5532 53.5755 9.1452 50.3853 9.1452C47.1951 9.1452 44.7872 11.5532 44.7872 14.7434C44.7872 17.9335 47.1951 20.3415 50.3853 20.3415C53.5755 20.3415 55.9835 17.9335 55.9835 14.7434ZM61.4589 14.7434C61.4589 10.3108 64.9559 6.96729 69.2504 6.96729C72.0264 6.96729 73.8823 8.34765 74.8178 9.94274H74.9405V2.02864C74.9405 1.33845 75.416 0.847656 76.1522 0.847656C76.9037 0.847656 77.3639 1.32312 77.3639 2.02864V14.7587C77.3639 19.1912 73.8362 22.5041 69.4191 22.5041C65.0172 22.5194 61.4589 19.1759 61.4589 14.7434ZM75.0172 14.7434C75.0172 11.5532 72.6092 9.1452 69.4191 9.1452C66.2289 9.1452 63.8209 11.5532 63.8209 14.7434C63.8209 17.9335 66.2289 20.3415 69.4191 20.3415C72.5939 20.3415 75.0172 17.9335 75.0172 14.7434ZM80.4927 14.7434C80.4927 10.3108 84.051 6.96729 88.4375 6.96729C92.87 6.96729 96.3823 10.2802 96.3823 14.7127V21.5225C96.3823 22.2127 95.9068 22.7035 95.1706 22.7035C94.4191 22.7035 93.9589 22.228 93.9589 21.5225V19.5286H93.8362C92.9007 21.1237 91.0295 22.5041 88.2688 22.5041C84.0203 22.5194 80.4927 19.2065 80.4927 14.7434ZM94.0356 14.7434C94.0356 11.5532 91.6277 9.1452 88.4375 9.1452C85.2473 9.1452 82.8393 11.5532 82.8393 14.7434C82.8393 17.9335 85.2473 20.3415 88.4375 20.3415C91.6277 20.3415 94.0356 17.9335 94.0356 14.7434Z" fill="#101828"/>
</g>
<defs>
<clipPath id="clip0_2_63178">
<rect width="100" height="46.7791" fill="white" transform="translate(0.262695 0.90918)"/>
</clipPath>
</defs>
</svg>
