<svg width="40" height="40" viewBox="0 0 40 40" fill="none" xmlns="http://www.w3.org/2000/svg">
<path fill-rule="evenodd" clip-rule="evenodd" d="M1.6665 20.0001C1.6665 30.1253 9.87462 38.3334 19.9998 38.3334C30.1251 38.3334 38.3332 30.1253 38.3332 20.0001C38.3332 9.87486 30.1251 1.66675 19.9998 1.66675C9.87461 1.66675 1.6665 9.87486 1.6665 20.0001ZM11.6665 20.0001C11.6665 19.0796 12.4127 18.3334 13.3332 18.3334H22.6428L18.8213 14.5119C18.1704 13.8611 18.1704 12.8058 18.8213 12.1549C19.4722 11.504 20.5275 11.504 21.1783 12.1549L27.845 18.8216C28.4959 19.4724 28.4959 20.5277 27.845 21.1786L21.1783 27.8453C20.5275 28.4961 19.4722 28.4961 18.8213 27.8453C18.1704 27.1944 18.1704 26.1391 18.8213 25.4882L22.6428 21.6667H13.3332C12.4127 21.6667 11.6665 20.9206 11.6665 20.0001Z" fill="#98A2B3"/>
</svg>
