<svg width="98" height="97" viewBox="0 0 98 97" fill="none" xmlns="http://www.w3.org/2000/svg">
<g clip-path="url(#clip0_2_62273)">
<path d="M42.5846 56.934V89.0095C42.5793 90.7788 41.1464 92.2118 39.3771 92.217H5.69779C3.9285 92.2118 2.49552 90.7788 2.49024 89.0095V56.934C2.48891 55.6281 3.28288 54.453 4.49496 53.967C4.87545 53.8061 5.28468 53.7242 5.69779 53.7264H39.3771C41.1464 53.7317 42.5793 55.1647 42.5846 56.934Z" fill="#FF9801"/>
<path d="M39.3777 53.7264H34.5664C36.3357 53.7317 37.7687 55.1646 37.774 56.9339V89.0095C37.7687 90.7787 36.3357 92.2117 34.5664 92.217H39.3777C41.147 92.2117 42.58 90.7787 42.5853 89.0095V56.9339C42.58 55.1646 41.147 53.7317 39.3777 53.7264Z" fill="#F57C00"/>
<path d="M82.6794 56.9339V89.0095C82.6663 90.7755 81.2378 92.2039 79.4718 92.217H45.7925C44.0232 92.2117 42.5902 90.7787 42.585 89.0095V56.9339C42.5902 55.1646 44.0232 53.7317 45.7925 53.7264H79.4718C81.2378 53.7395 82.6663 55.1679 82.6794 56.9339Z" fill="#FF9801"/>
<path d="M81.7328 54.6727C81.1387 54.0634 80.3224 53.7219 79.4715 53.7264L74.6602 53.7264C76.4262 53.7395 77.8546 55.1679 77.8677 56.934V89.0095C77.8546 90.7755 76.4262 92.2039 74.6602 92.217H79.4715C81.2375 92.2039 82.6659 90.7755 82.679 89.0095V56.934C82.6836 56.083 82.342 55.2668 81.7328 54.6727Z" fill="#F57C00"/>
<path d="M94.5634 43.4463L81.7332 54.6727C81.1391 54.0635 80.3228 53.7219 79.4719 53.7265H60.2266C61.0775 53.731 61.8937 53.3895 62.4879 52.7802L72.7681 42.5H92.3021C93.153 42.4955 93.9693 42.8371 94.5634 43.4463Z" fill="#F57C00"/>
<path d="M95.5098 45.7077V76.1794C95.5123 77.03 95.1711 77.8454 94.5636 78.4407L81.7334 91.2709C82.3426 90.6768 82.6842 89.8606 82.6796 89.0096V56.9341C82.6842 56.0832 82.3426 55.2669 81.7334 54.6728L94.5636 43.4464C95.1728 44.0405 95.5144 44.8567 95.5098 45.7077Z" fill="#FF5722"/>
<path d="M94.5636 43.4464L90.6985 46.8303V76.1794C90.701 77.03 90.3598 77.8454 89.7523 78.4407L82.6796 85.5134V89.0096C82.6842 89.8606 82.3426 90.6768 81.7334 91.2709L94.5636 78.4407C95.1711 77.8454 95.5123 77.03 95.5098 76.1794V45.7077C95.5144 44.8567 95.1728 44.0405 94.5636 43.4464Z" fill="#D84315"/>
<path d="M81.7341 91.2709L81.6367 91.3845Z" fill="#FF9801"/>
<path d="M26.547 53.7264H5.69795C5.28484 53.7243 4.87561 53.8061 4.49512 53.967L19.4744 43.4462C20.0697 42.8387 20.8852 42.4975 21.7357 42.5H23.3395V50.5189C23.3448 52.2882 24.7777 53.7212 26.547 53.7264Z" fill="#F57C00"/>
<path d="M63.4342 18.4436V50.5191C63.4211 52.2851 61.9927 53.7135 60.2267 53.7266H26.5474C24.7781 53.7213 23.3451 52.2884 23.3398 50.5191V18.4436C23.3385 17.1377 24.1325 15.9626 25.3446 15.4766C25.7251 15.3157 26.1343 15.2338 26.5474 15.236H60.2267C61.9927 15.2491 63.4211 16.6775 63.4342 18.4436Z" fill="#FF9801"/>
<path d="M62.4877 16.1822C61.8936 15.573 61.0773 15.2315 60.2264 15.236L55.415 15.236C57.1811 15.2491 58.6095 16.6775 58.6226 18.4436V50.5191C58.6095 52.2851 57.1811 53.7135 55.415 53.7266H60.2264C61.9924 53.7135 63.4208 52.2851 63.4339 50.5191V18.4436C63.4384 17.5926 63.0969 16.7764 62.4877 16.1822Z" fill="#F57C00"/>
<path d="M75.3184 4.95543L62.4882 16.1819C61.894 15.5727 61.0778 15.2311 60.2269 15.2356H26.5476C26.1345 15.2335 25.7252 15.3153 25.3447 15.4762L40.324 4.95543C40.9193 4.34792 41.7348 4.00669 42.5853 4.0092H73.0571C73.908 4.00467 74.7242 4.34622 75.3184 4.95543Z" fill="#F57C00"/>
<path d="M76.2637 7.21713V37.6889C76.2662 38.5394 75.925 39.3549 75.3175 39.9502L72.7675 42.5002L62.4873 52.7804C63.0965 52.1863 63.4381 51.37 63.4335 50.5191V18.4436C63.4381 17.5926 63.0965 16.7764 62.4873 16.1822L75.3175 4.95581C75.9267 5.54995 76.2683 6.36619 76.2637 7.21713Z" fill="#FF5722"/>
<path d="M75.3175 4.95581L71.4524 8.33978V37.6889C71.4549 38.5394 71.1137 39.3549 70.5062 39.9502L67.9562 42.5002L63.4335 47.0229V50.5191C63.4381 51.37 63.0965 52.1863 62.4873 52.7804L72.7675 42.5002L75.3175 39.9502C75.925 39.3549 76.2662 38.5394 76.2637 37.6889V7.21713C76.2683 6.36619 75.9267 5.54995 75.3175 4.95581Z" fill="#D84315"/>
<path d="M62.489 52.7803L62.3916 52.8939Z" fill="#FF9801"/>
<path d="M37.7738 40.8961H31.3587C30.4729 40.8961 29.7549 41.6141 29.7549 42.4998V45.7074C29.7549 46.5931 30.4729 47.3112 31.3587 47.3112H37.7738C38.6595 47.3112 39.3775 46.5931 39.3775 45.7074V42.4998C39.3775 41.6141 38.6595 40.8961 37.7738 40.8961Z" fill="#F5F5F5"/>
<path d="M16.9242 79.387H10.509C9.62331 79.387 8.90527 80.105 8.90527 80.9907V84.1983C8.90527 85.084 9.62331 85.8021 10.509 85.8021H16.9242C17.8099 85.8021 18.5279 85.084 18.5279 84.1983V80.9907C18.5279 80.105 17.8099 79.387 16.9242 79.387Z" fill="#F5F5F5"/>
<path d="M57.0189 79.387H50.6038C49.718 79.387 49 80.105 49 80.9907V84.1983C49 85.084 49.718 85.8021 50.6038 85.8021H57.0189C57.9046 85.8021 58.6227 85.084 58.6227 84.1983V80.9907C58.6227 80.105 57.9046 79.387 57.0189 79.387Z" fill="#F5F5F5"/>
<path d="M92.3019 40.8962H76.6074C77.4117 40.0209 77.8611 38.8774 77.868 37.6887V7.21691C77.868 4.55968 75.7138 2.40558 73.0566 2.40558H42.5849C41.3597 2.40596 40.1813 2.87606 39.2923 3.71907L24.5184 14.0955C22.8261 14.8824 21.7416 16.5771 21.7358 18.4433V40.8962C20.5106 40.8966 19.3323 41.3667 18.4433 42.2097L3.66927 52.5861C1.977 53.3731 0.892479 55.0677 0.886719 56.934V89.0095C0.886719 91.6667 3.04082 93.8208 5.69805 93.8208H39.3773C40.5648 93.8166 41.7082 93.3707 42.5849 92.5699C43.4616 93.3707 44.605 93.8166 45.7924 93.8208H79.4717C80.773 93.8201 82.0179 93.2897 82.9199 92.3518L95.6827 79.5889C96.5976 78.6902 97.113 77.4617 97.1133 76.1793V45.7075C97.1001 43.0558 94.9537 40.9094 92.3019 40.8962ZM81.6112 52.6471C80.9489 52.3072 80.2161 52.1275 79.4717 52.1226H65.413L73.4319 44.1038H91.375L81.6112 52.6471ZM39.3773 52.1226H26.5471C25.6614 52.1226 24.9434 51.4046 24.9434 50.5189V18.4433C24.9434 17.5576 25.6614 16.8396 26.5471 16.8396H60.2264C61.1122 16.8396 61.8302 17.5576 61.8302 18.4433V50.5189C61.8316 50.9387 61.6674 51.3421 61.3731 51.6415L61.341 51.6736C61.0423 51.9629 60.6423 52.1241 60.2264 52.1226H39.3773ZM64.5999 16.4643L74.6604 7.66115V37.6887C74.6581 38.1125 74.4846 38.5174 74.1793 38.8113L65.0377 47.9673V18.4433C65.0358 17.7598 64.8865 17.0848 64.5999 16.4643ZM62.3659 14.1564C61.7036 13.8165 60.9708 13.6369 60.2264 13.632H48.8637L59.1727 5.61313H72.1296L62.3659 14.1564ZM41.2457 6.26747C41.3269 6.21045 41.4026 6.14602 41.4719 6.07502C41.7659 5.77793 42.1669 5.61149 42.5849 5.61313L53.9476 5.61312L43.6386 13.632H30.7603L41.2457 6.26747ZM20.3967 44.7581C20.4778 44.7011 20.5535 44.6367 20.6228 44.5656C20.9168 44.2686 21.3178 44.1021 21.7358 44.1038V50.5189C21.7411 51.0665 21.841 51.609 22.0309 52.1226H9.91116L20.3967 44.7581ZM5.69805 90.6133C4.81231 90.6133 4.09427 89.8952 4.09427 89.0095V56.934C4.09427 56.0482 4.81231 55.3302 5.69805 55.3302H39.3773C40.2631 55.3302 40.9811 56.0482 40.9811 56.934V89.0095C40.9811 89.4293 40.8164 89.8324 40.5224 90.1321L40.4936 90.1594C40.1953 90.451 39.7945 90.614 39.3773 90.6133H5.69805ZM45.7924 90.6133C44.9067 90.6133 44.1887 89.8952 44.1887 89.0095V56.934C44.1887 56.0482 44.9067 55.3302 45.7924 55.3302H79.4717C80.3575 55.3302 81.0755 56.0482 81.0755 56.934V89.0095C81.0727 89.4192 80.9131 89.8123 80.6297 90.1081L80.5944 90.1321L80.5719 90.1578C80.2772 90.4452 79.8833 90.6083 79.4717 90.6133H45.7924ZM93.4246 77.3019L84.2831 86.4434V56.934C84.2811 56.2505 84.1318 55.5754 83.8452 54.9549L93.9057 46.1518V76.1793C93.9034 76.6031 93.7299 77.008 93.4246 77.3019Z" fill="black"/>
<path d="M37.774 39.2925H31.3589C29.5874 39.2925 28.1514 40.7286 28.1514 42.5001V45.7076C28.1514 47.4791 29.5874 48.9152 31.3589 48.9152H37.774C39.5455 48.9152 40.9816 47.4791 40.9816 45.7076V42.5001C40.9816 40.7286 39.5455 39.2925 37.774 39.2925ZM31.3589 45.7076V42.5001H37.774V45.7076H31.3589Z" fill="black"/>
<path d="M57.0186 39.2925H52.2073C51.3216 39.2925 50.6035 40.0106 50.6035 40.8963C50.6035 41.7821 51.3216 42.5001 52.2073 42.5001H57.0186C57.9044 42.5001 58.6224 41.7821 58.6224 40.8963C58.6224 40.0106 57.9044 39.2925 57.0186 39.2925Z" fill="black"/>
<path d="M57.0186 45.7075H52.2073C51.3216 45.7075 50.6035 46.4256 50.6035 47.3113C50.6035 48.197 51.3216 48.9151 52.2073 48.9151H57.0186C57.9044 48.9151 58.6224 48.197 58.6224 47.3113C58.6224 46.4256 57.9044 45.7075 57.0186 45.7075Z" fill="black"/>
<path d="M16.9244 77.783H10.5093C8.73783 77.783 7.30176 79.2191 7.30176 80.9906V84.1981C7.30176 85.9696 8.73783 87.4057 10.5093 87.4057H16.9244C18.6959 87.4057 20.132 85.9696 20.132 84.1981V80.9906C20.132 79.2191 18.6959 77.783 16.9244 77.783ZM10.5093 84.1981V80.9906H16.9244V84.1981H10.5093Z" fill="black"/>
<path d="M36.17 77.783H31.3587C30.4729 77.783 29.7549 78.5011 29.7549 79.3868C29.7549 80.2725 30.4729 80.9906 31.3587 80.9906H36.17C37.0557 80.9906 37.7738 80.2725 37.7738 79.3868C37.7738 78.5011 37.0557 77.783 36.17 77.783Z" fill="black"/>
<path d="M36.17 84.1982H31.3587C30.4729 84.1982 29.7549 84.9162 29.7549 85.802C29.7549 86.6877 30.4729 87.4057 31.3587 87.4057H36.17C37.0557 87.4057 37.7738 86.6877 37.7738 85.802C37.7738 84.9162 37.0557 84.1982 36.17 84.1982Z" fill="black"/>
<path d="M57.0191 77.783H50.604C48.8326 77.783 47.3965 79.2191 47.3965 80.9906V84.1981C47.3965 85.9696 48.8326 87.4057 50.604 87.4057H57.0191C58.7906 87.4057 60.2267 85.9696 60.2267 84.1981V80.9906C60.2267 79.2191 58.7906 77.783 57.0191 77.783ZM50.604 84.1981V80.9906H57.0191V84.1981H50.604Z" fill="black"/>
<path d="M76.2637 77.783H71.4524C70.5667 77.783 69.8486 78.5011 69.8486 79.3868C69.8486 80.2725 70.5667 80.9906 71.4524 80.9906H76.2637C77.1495 80.9906 77.8675 80.2725 77.8675 79.3868C77.8675 78.5011 77.1495 77.783 76.2637 77.783Z" fill="black"/>
<path d="M76.2637 84.1982H71.4524C70.5667 84.1982 69.8486 84.9162 69.8486 85.802C69.8486 86.6877 70.5667 87.4057 71.4524 87.4057H76.2637C77.1495 87.4057 77.8675 86.6877 77.8675 85.802C77.8675 84.9162 77.1495 84.1982 76.2637 84.1982Z" fill="black"/>
</g>
<defs>
<clipPath id="clip0_2_62273">
<rect width="96.2265" height="96.2265" fill="white" transform="translate(0.886719)"/>
</clipPath>
</defs>
</svg>
