<svg width="40" height="41" viewBox="0 0 40 41" fill="none" xmlns="http://www.w3.org/2000/svg">
<path opacity="0.12" d="M3.3335 14.1159V17.1159H36.6668V14.1159C36.6668 12.2491 36.6668 11.3157 36.3035 10.6026C35.9839 9.97542 35.474 9.46549 34.8468 9.14591C34.1338 8.78259 33.2003 8.78259 31.3335 8.78259H8.66683C6.79999 8.78259 5.86657 8.78259 5.15353 9.1459C4.52632 9.46548 4.01639 9.97542 3.69681 10.6026C3.3335 11.3157 3.3335 12.2491 3.3335 14.1159Z" fill="#E04F16"/>
<path d="M3.3335 17.1159H36.6668V14.1159C36.6668 12.2491 36.6668 11.3157 36.3035 10.6026C35.9839 9.97542 35.474 9.46549 34.8468 9.14591C34.1338 8.78259 33.2003 8.78259 31.3335 8.78259H8.66683C6.79999 8.78259 5.86657 8.78259 5.15353 9.1459C4.52632 9.46548 4.01639 9.97542 3.69681 10.6026C3.3335 11.3157 3.3335 12.2491 3.3335 14.1159V26.7826C3.3335 28.6494 3.3335 29.5829 3.69681 30.2959C4.01639 30.9231 4.52632 31.433 5.15353 31.7526C5.86657 32.1159 6.79999 32.1159 8.66683 32.1159H18.3335M24.1668 35.4493L27.5418 34.7743C27.8361 34.7154 27.9832 34.686 28.1204 34.6322C28.2422 34.5844 28.3579 34.5225 28.4652 34.4476C28.5861 34.3633 28.6922 34.2572 28.9044 34.045L35.8335 27.1159C36.754 26.1955 36.754 24.7031 35.8335 23.7826C34.913 22.8621 33.4206 22.8621 32.5002 23.7826L25.5711 30.7117C25.3589 30.9239 25.2528 31.03 25.1685 31.1509C25.0936 31.2582 25.0317 31.3739 24.9839 31.4957C24.9301 31.6329 24.9007 31.78 24.8418 32.0743L24.1668 35.4493Z" stroke="#E04F16" stroke-width="2.5" stroke-linecap="round" stroke-linejoin="round"/>
</svg>
