<svg width="92" height="63" viewBox="0 0 92 63" fill="none" xmlns="http://www.w3.org/2000/svg">
<path d="M84.7575 1.61493H7.24171C4.56604 1.61493 2.39697 3.78399 2.39697 6.45967V56.522C2.39697 59.1977 4.56604 61.3667 7.24171 61.3667H84.7575C87.4332 61.3667 89.6023 59.1977 89.6023 56.522V6.45967C89.6023 3.78399 87.4332 1.61493 84.7575 1.61493Z" fill="white"/>
<path d="M49.2292 27.7283L50.6019 30.506C50.8715 31.0465 51.2678 31.5139 51.7571 31.8682C52.2464 32.2225 52.8141 32.4533 53.4118 32.5408L56.4801 32.9929C57.1893 33.0785 57.8589 33.3659 58.4095 33.8208C58.9601 34.2758 59.3685 34.8793 59.5862 35.5596C59.8039 36.2398 59.8217 36.9683 59.6375 37.6584C59.4533 38.3485 59.0749 38.9712 58.5472 39.4526L56.3348 41.6166C55.9028 42.0411 55.5801 42.5641 55.3945 43.1407C55.2088 43.7173 55.1658 44.3303 55.269 44.9271L55.7857 47.9793C55.9005 48.6663 55.8216 49.3717 55.5577 50.0163C55.2938 50.6609 54.8555 51.2191 54.2919 51.6284C53.7283 52.0377 53.0618 52.2817 52.3672 52.3332C51.6726 52.3847 50.9774 52.2415 50.3596 51.9197L47.6143 50.4017C47.0802 50.1161 46.4839 49.9667 45.8782 49.9667C45.2726 49.9667 44.6763 50.1161 44.1422 50.4017L41.3969 51.839C40.7791 52.1607 40.0839 52.3039 39.3893 52.2525C38.6947 52.201 38.0282 51.9569 37.4646 51.5477C36.901 51.1384 36.4627 50.5801 36.1988 49.9355C35.9349 49.291 35.856 48.5856 35.9708 47.8986L36.4875 44.8464C36.5907 44.2495 36.5477 43.6365 36.362 43.0599C36.1764 42.4834 35.8537 41.9604 35.4217 41.5358L33.1931 39.3718C32.6716 38.8865 32.2993 38.2625 32.1198 37.5731C31.9404 36.8836 31.9612 36.1573 32.1799 35.4793C32.3985 34.8013 32.806 34.1997 33.3544 33.745C33.9028 33.2903 34.5695 33.0014 35.2763 32.9122L38.3285 32.46C38.9213 32.3834 39.4871 32.166 39.9788 31.8261C40.4704 31.4861 40.8736 31.0335 41.1546 30.506L42.5273 27.7283C42.8342 27.1011 43.3109 26.5725 43.9033 26.2029C44.4957 25.8332 45.18 25.6372 45.8782 25.6372C46.5765 25.6372 47.2608 25.8332 47.8532 26.2029C48.4456 26.5725 48.9223 27.1011 49.2292 27.7283Z" fill="#FFBC00"/>
<path d="M38.6035 32.4919C38.4092 31.8878 38.0486 31.3507 37.563 30.9423C37.0774 30.5338 36.4865 30.2705 35.8581 30.1825L33.0805 29.7788C32.5304 29.6984 32.0085 29.4841 31.5607 29.1546C31.113 28.8251 30.7531 28.3906 30.5127 27.8894L29.2693 25.354C28.9879 24.7777 28.5503 24.2921 28.0064 23.9524C27.4625 23.6127 26.8341 23.4326 26.1929 23.4326C25.5516 23.4326 24.9232 23.6127 24.3793 23.9524C23.8354 24.2921 23.3978 24.7777 23.1164 25.354L21.7761 27.8894C21.5342 28.3927 21.1718 28.8285 20.7211 29.1581C20.2703 29.4877 19.7452 29.7009 19.1922 29.7788L16.3823 30.1825C15.7515 30.2779 15.1596 30.5468 14.6729 30.9591C14.1861 31.3715 13.8236 31.9111 13.6259 32.5176C13.4282 33.1242 13.4031 33.7737 13.5533 34.3938C13.7035 35.0138 14.0232 35.5798 14.4767 36.0285L16.5114 38.031C16.9105 38.419 17.2099 38.8977 17.3842 39.4263C17.5586 39.9549 17.6026 40.5178 17.5127 41.0671L17.0282 43.8609C16.9218 44.4927 16.9939 45.1417 17.2365 45.7347C17.4791 46.3277 17.8826 46.8412 18.4013 47.2173C18.9201 47.5933 19.5336 47.817 20.1726 47.8631C20.8117 47.9092 21.4509 47.7759 22.0183 47.4783L24.5214 46.154C25.0191 45.891 25.5734 45.7535 26.1363 45.7535C26.6992 45.7535 27.2536 45.891 27.7512 46.154L30.2867 47.4783C31.375 47.8815 32.5659 47.9149 33.6751 47.5734C34.7844 47.2318 35.7502 46.5344 36.4233 45.5888" fill="#FFBC00"/>
<path d="M55.3661 45.5888C56.0374 46.5365 57.0032 47.2356 58.1131 47.5774C59.223 47.9191 60.4148 47.8843 61.5028 47.4783L64.0382 46.154C64.5359 45.891 65.0902 45.7535 65.6531 45.7535C66.216 45.7535 66.7704 45.891 67.268 46.154L69.7712 47.4783C70.3385 47.7759 70.9778 47.9092 71.6168 47.8631C72.2559 47.817 72.8694 47.5933 73.3881 47.2173C73.9069 46.8412 74.3103 46.3277 74.5529 45.7347C74.7955 45.1417 74.8677 44.4927 74.7612 43.8609L74.2768 41.0671C74.1826 40.5177 74.2247 39.9536 74.3992 39.4243C74.5738 38.895 74.8755 38.4166 75.278 38.031L77.3128 36.0285C77.7662 35.5798 78.0859 35.0138 78.2362 34.3938C78.3864 33.7737 78.3613 33.1242 78.1636 32.5176C77.9658 31.9111 77.6034 31.3715 77.1166 30.9591C76.6298 30.5468 76.038 30.2779 75.4072 30.1825L72.5973 29.7788C72.0443 29.7009 71.5191 29.4877 71.0684 29.1581C70.6176 28.8285 70.2552 28.3927 70.0134 27.8894L68.7376 25.354C68.4562 24.7777 68.0187 24.2921 67.4748 23.9524C66.9308 23.6127 66.3025 23.4326 65.6612 23.4326C65.0199 23.4326 64.3916 23.6127 63.8477 23.9524C63.3037 24.2921 62.8662 24.7777 62.5848 25.354L61.3413 27.8894C61.0995 28.3927 60.7371 28.8285 60.2863 29.1581C59.8356 29.4877 59.3104 29.7009 58.7575 29.7788L55.9475 30.1825C55.3184 30.2686 54.7266 30.5313 54.2407 30.94C53.7548 31.3487 53.3947 31.8868 53.2021 32.4919" fill="#FFBC00"/>
<path d="M7.24171 1.61493H84.7575C86.0424 1.61493 87.2747 2.12536 88.1833 3.03392C89.0919 3.94248 89.6023 5.17476 89.6023 6.45967V14.5342H2.39697V6.45967C2.39697 5.17476 2.9074 3.94248 3.81596 3.03392C4.72453 2.12536 5.95681 1.61493 7.24171 1.61493Z" fill="#FFBC00"/>
<path d="M84.7579 62.9815H7.75407C7.32577 62.9815 6.91501 62.8114 6.61216 62.5085C6.3093 62.2057 6.13916 61.7949 6.13916 61.3666C6.13916 60.9383 6.3093 60.5276 6.61216 60.2247C6.91501 59.9219 7.32577 59.7517 7.75407 59.7517H84.7579C85.6145 59.7517 86.436 59.4114 87.0417 58.8057C87.6474 58.2 87.9877 57.3785 87.9877 56.5219V6.45959C87.9877 5.60299 87.6474 4.78147 87.0417 4.17576C86.436 3.57005 85.6145 3.22976 84.7579 3.22976C84.3296 3.22976 83.9188 3.05962 83.6159 2.75677C83.3131 2.45391 83.1429 2.04315 83.1429 1.61485C83.1429 1.18655 83.3131 0.775791 83.6159 0.472936C83.9188 0.170081 84.3296 -6.10352e-05 84.7579 -6.10352e-05C86.4711 -6.10352e-05 88.1141 0.680507 89.3255 1.89193C90.5369 3.10335 91.2175 4.74638 91.2175 6.45959V56.5219C91.2175 58.2351 90.5369 59.8781 89.3255 61.0896C88.1141 62.301 86.4711 62.9815 84.7579 62.9815Z" fill="black"/>
<path d="M7.24188 62.9816C5.52867 62.9816 3.88563 62.301 2.67421 61.0896C1.46279 59.8782 0.782227 58.2352 0.782227 56.522V6.45965C0.782227 4.74645 1.46279 3.10341 2.67421 1.89199C3.88563 0.680568 5.52867 0 7.24188 0H84.7577C85.186 0 85.5968 0.170142 85.8996 0.472997C86.2025 0.775852 86.3726 1.18661 86.3726 1.61491C86.3726 2.04321 86.2025 2.45397 85.8996 2.75683C85.5968 3.05968 85.186 3.22983 84.7577 3.22983H7.24188C6.38528 3.22983 5.56376 3.57011 4.95805 4.17582C4.35234 4.78153 4.01205 5.60305 4.01205 6.45965V56.522C4.01205 57.3786 4.35234 58.2001 4.95805 58.8058C5.56376 59.4115 6.38528 59.7518 7.24188 59.7518C7.67018 59.7518 8.08094 59.9219 8.38379 60.2248C8.68665 60.5276 8.85679 60.9384 8.85679 61.3667C8.85679 61.795 8.68665 62.2058 8.38379 62.5086C8.08094 62.8115 7.67018 62.9816 7.24188 62.9816Z" fill="black"/>
<path d="M81.5279 16.1491H2.39714C1.96884 16.1491 1.55808 15.979 1.25522 15.6761C0.952369 15.3733 0.782227 14.9625 0.782227 14.5342C0.782227 14.1059 0.952369 13.6952 1.25522 13.3923C1.55808 13.0895 1.96884 12.9193 2.39714 12.9193H81.5279C81.9562 12.9193 82.3669 13.0895 82.6698 13.3923C82.9726 13.6952 83.1428 14.1059 83.1428 14.5342C83.1428 14.9625 82.9726 15.3733 82.6698 15.6761C82.3669 15.979 81.9562 16.1491 81.5279 16.1491Z" fill="black"/>
<path d="M9.26083 10.0932C10.3757 10.0932 11.2795 9.18941 11.2795 8.07455C11.2795 6.95968 10.3757 6.05591 9.26083 6.05591C8.14596 6.05591 7.24219 6.95968 7.24219 8.07455C7.24219 9.18941 8.14596 10.0932 9.26083 10.0932Z" fill="black"/>
<path d="M15.3165 10.0932C16.4314 10.0932 17.3351 9.18941 17.3351 8.07455C17.3351 6.95968 16.4314 6.05591 15.3165 6.05591C14.2016 6.05591 13.2979 6.95968 13.2979 8.07455C13.2979 9.18941 14.2016 10.0932 15.3165 10.0932Z" fill="black"/>
<path d="M21.3726 10.0932C22.4875 10.0932 23.3913 9.18941 23.3913 8.07455C23.3913 6.95968 22.4875 6.05591 21.3726 6.05591C20.2578 6.05591 19.354 6.95968 19.354 8.07455C19.354 9.18941 20.2578 10.0932 21.3726 10.0932Z" fill="black"/>
<path d="M81.528 9.68948H62.1491C61.7208 9.68948 61.31 9.51934 61.0072 9.21649C60.7043 8.91363 60.5342 8.50287 60.5342 8.07457C60.5342 7.64627 60.7043 7.23551 61.0072 6.93265C61.31 6.6298 61.7208 6.45966 62.1491 6.45966H81.528C81.9564 6.45966 82.3671 6.6298 82.67 6.93265C82.9728 7.23551 83.143 7.64627 83.143 8.07457C83.143 8.50287 82.9728 8.91363 82.67 9.21649C82.3671 9.51934 81.9564 9.68948 81.528 9.68948Z" fill="black"/>
<path d="M52.1363 53.8896C51.2657 53.8979 50.4062 53.6927 49.6332 53.292L46.904 51.8548C46.597 51.6962 46.2564 51.6134 45.9108 51.6134C45.5653 51.6134 45.2247 51.6962 44.9177 51.8548L42.1885 53.292C41.3041 53.7575 40.3073 53.9665 39.3105 53.8955C38.3137 53.8244 37.3565 53.4763 36.5471 52.8902C35.7376 52.3041 35.1081 51.5034 34.7295 50.5786C34.351 49.6537 34.2384 48.6414 34.4046 47.656L34.9375 44.6038C34.9935 44.2628 34.9671 43.9132 34.8603 43.5845C34.7535 43.2558 34.5696 42.9574 34.3238 42.7144L32.1114 40.5181C31.3953 39.8226 30.8883 38.9405 30.6478 37.9717C30.4072 37.003 30.4427 35.9862 30.7503 35.0365C31.0579 34.0869 31.6253 33.2423 32.3881 32.5985C33.151 31.9547 34.0789 31.5374 35.0667 31.3938L38.135 30.9417C38.4794 30.8965 38.8072 30.7667 39.089 30.5638C39.3708 30.3609 39.5979 30.0912 39.7499 29.7789L41.1549 27.0013C41.5942 26.0894 42.2819 25.3201 43.1389 24.7817C43.996 24.2433 44.9875 23.9576 45.9997 23.9576C47.0118 23.9576 48.0034 24.2433 48.8604 24.7817C49.7174 25.3201 50.4051 26.0894 50.8444 27.0013L52.2171 29.7789C52.3691 30.0912 52.5962 30.3609 52.878 30.5638C53.1599 30.7667 53.4876 30.8965 53.832 30.9417L56.8842 31.3938C57.8733 31.5349 58.8031 31.9504 59.5681 32.5932C60.3331 33.236 60.9026 34.0803 61.212 35.0304C61.5214 35.9805 61.5583 36.9982 61.3185 37.9682C61.0788 38.9382 60.572 39.8216 59.8556 40.5181L57.6432 42.6821C57.3974 42.9251 57.2135 43.2235 57.1067 43.5522C56.9999 43.8809 56.9735 44.2305 57.0295 44.5715L57.5463 47.6237C57.7188 48.6064 57.612 49.6179 57.238 50.5429C56.864 51.4679 56.2378 52.2694 55.4308 52.856C54.4739 53.549 53.3175 53.9118 52.1363 53.8896ZM45.9028 48.3504C46.7739 48.3541 47.6318 48.5644 48.4059 48.9641L51.1351 50.4014C51.4849 50.5942 51.883 50.6815 52.2814 50.6529C52.6797 50.6242 53.0612 50.4808 53.3798 50.2399C53.7042 50.0091 53.9557 49.6903 54.1045 49.3211C54.2533 48.9519 54.2933 48.5478 54.2196 48.1566L53.7028 45.1206C53.5531 44.2641 53.6146 43.384 53.8819 42.5567C54.1493 41.7293 54.6144 40.9797 55.237 40.3727L57.4655 38.2088C57.751 37.9332 57.9532 37.5829 58.049 37.1978C58.1448 36.8128 58.1305 36.4086 58.0075 36.0313C57.8846 35.6541 57.658 35.319 57.3537 35.0644C57.0494 34.8098 56.6797 34.6458 56.2867 34.5914L53.2183 34.1392C52.3672 34.0092 51.5601 33.6756 50.8656 33.1667C50.1711 32.6578 49.6098 31.9886 49.2295 31.2162L47.8568 28.4385C47.6878 28.0784 47.4176 27.7752 47.0792 27.5658C46.7409 27.3565 46.349 27.2501 45.9512 27.2596C45.5543 27.2542 45.164 27.3622 44.8264 27.5711C44.4888 27.7799 44.2179 28.0809 44.0456 28.4385L42.6891 31.2162C42.3042 31.9947 41.7354 32.6678 41.032 33.1771C40.3285 33.6864 39.5116 34.0166 38.6518 34.1392L35.5835 34.5914C35.1905 34.6458 34.8207 34.8098 34.5164 35.0644C34.2121 35.319 33.9855 35.6541 33.8626 36.0313C33.7397 36.4086 33.7253 36.8128 33.8211 37.1978C33.917 37.5829 34.1191 37.9332 34.4046 38.2088L36.5847 40.3727C37.205 40.9813 37.6686 41.7311 37.9358 42.558C38.203 43.3848 38.2658 44.2641 38.1189 45.1206L37.586 48.1566C37.5182 48.5495 37.562 48.9535 37.7124 49.3227C37.8628 49.692 38.1137 50.0116 38.4366 50.2454C38.7595 50.4792 39.1416 50.6178 39.5393 50.6453C39.937 50.6729 40.3345 50.5884 40.6866 50.4014L43.4158 48.9641C44.1835 48.5628 45.0365 48.3523 45.9028 48.3504Z" fill="black"/>
<path d="M20.4196 49.4971C19.6865 49.4928 18.9631 49.3297 18.2991 49.0188C17.6352 48.708 17.0465 48.2569 16.5737 47.6966C16.1009 47.1363 15.7553 46.4802 15.5605 45.7734C15.3658 45.0666 15.3266 44.326 15.4457 43.6027L15.9302 40.8089C15.986 40.5193 15.9695 40.2204 15.8822 39.9387C15.7949 39.657 15.6394 39.4012 15.4295 39.194L13.3624 37.143C12.6913 36.4846 12.2172 35.6521 11.9932 34.7391C11.7692 33.826 11.8043 32.8686 12.0946 31.9743C12.3848 31.0801 12.9187 30.2846 13.6362 29.6771C14.3537 29.0696 15.2264 28.6743 16.1562 28.5355L18.9823 28.1318C19.2701 28.0922 19.5435 27.9814 19.7775 27.8093C20.0116 27.6373 20.199 27.4095 20.3227 27.1467L21.6146 24.579C22.0266 23.7352 22.6675 23.0243 23.4642 22.5274C24.2609 22.0306 25.1813 21.7678 26.1203 21.769C27.0611 21.7685 27.9834 22.0314 28.7826 22.5281C29.5817 23.0247 30.2258 23.7351 30.642 24.579L31.9016 27.1306C32.0301 27.3993 32.2223 27.6325 32.4616 27.8098C32.7008 27.9872 32.9799 28.1033 33.2743 28.148L36.0681 28.5355C36.9954 28.666 37.8673 29.0547 38.5841 29.6572C39.3009 30.2598 39.8337 31.0519 40.1216 31.943C40.254 32.3499 40.2196 32.7927 40.0258 33.1742C39.832 33.5557 39.4947 33.8448 39.088 33.9778C38.6811 34.1103 38.2383 34.0758 37.8568 33.882C37.4753 33.6882 37.1862 33.351 37.0532 32.9442C36.9509 32.6282 36.762 32.3471 36.5079 32.133C36.2538 31.9189 35.9448 31.7803 35.6159 31.7331L32.806 31.3455C31.9916 31.2242 31.2191 30.9064 30.5551 30.4197C29.891 29.9329 29.3555 29.2918 28.9948 28.5517L27.7513 26.0163C27.6023 25.7141 27.3725 25.4592 27.0875 25.2796C26.8024 25.1 26.4733 25.0029 26.1364 24.9989C25.7983 24.9972 25.4668 25.092 25.1807 25.2723C24.8946 25.4525 24.6659 25.7106 24.5215 26.0163L23.2457 28.5678C22.89 29.2991 22.3615 29.9328 21.7058 30.4139C21.0502 30.8951 20.2873 31.2093 19.483 31.3293L16.6407 31.7331C16.3044 31.7782 15.9882 31.9195 15.7304 32.1402C15.4725 32.3608 15.2839 32.6512 15.1873 32.9765C15.0778 33.297 15.0622 33.6421 15.1423 33.9711C15.2224 34.3002 15.3949 34.5994 15.6395 34.8337L17.6743 36.82C18.2583 37.3871 18.6957 38.0876 18.9489 38.8612C19.2021 39.6349 19.2634 40.4584 19.1277 41.261L18.6432 44.0871C18.5835 44.4217 18.6201 44.7663 18.7488 45.0808C18.8774 45.3953 19.0929 45.6668 19.3699 45.8636C19.643 46.0695 19.9703 46.1914 20.3116 46.2143C20.6528 46.2372 20.9934 46.1603 21.2917 45.9927L23.7948 44.6847C24.5179 44.2987 25.3249 44.0968 26.1445 44.0968C26.9641 44.0968 27.7711 44.2987 28.4942 44.6847L31.0134 45.9927C31.7501 46.2185 32.539 46.2075 33.2691 45.9612C33.9992 45.715 34.6336 45.2459 35.083 44.6201C35.2042 44.4441 35.359 44.294 35.5386 44.1783C35.7182 44.0627 35.9189 43.9838 36.1292 43.9462C36.3395 43.9087 36.5551 43.9132 36.7636 43.9596C36.9721 44.006 37.1693 44.0932 37.3439 44.2163C37.6921 44.4633 37.9283 44.8381 38.0009 45.2587C38.0735 45.6794 37.9767 46.1116 37.7315 46.4611C36.8411 47.7393 35.5405 48.6748 34.0455 49.1124C32.5504 49.5501 30.9507 49.4636 29.5116 48.8673L26.9923 47.5431C26.7415 47.4179 26.4651 47.3528 26.1848 47.3528C25.9046 47.3528 25.6282 47.4179 25.3774 47.5431L22.8581 48.8673C22.1109 49.2783 21.2724 49.4949 20.4196 49.4971Z" fill="black"/>
<path d="M71.338 49.4969C70.5167 49.4963 69.7077 49.2968 68.9803 48.9155L66.4772 47.5913C66.2264 47.4661 65.95 47.401 65.6697 47.401C65.3894 47.401 65.113 47.4661 64.8622 47.5913L62.3268 48.9155C60.8833 49.5171 59.2774 49.6064 57.7761 49.1686C56.2748 48.7309 54.9686 47.7924 54.0746 46.5093C53.8294 46.1598 53.7326 45.7276 53.8052 45.3069C53.8778 44.8863 54.114 44.5115 54.4622 44.2645C54.6368 44.1414 54.834 44.0541 55.0425 44.0078C55.251 43.9614 55.4666 43.9569 55.6769 43.9944C55.8872 44.032 56.0879 44.1109 56.2675 44.2265C56.4471 44.3422 56.6019 44.4923 56.7231 44.6683C57.1736 45.2932 57.8073 45.7626 58.5365 46.0115C59.2656 46.2603 60.0541 46.2762 60.7927 46.0571L63.3281 44.7329C64.0451 44.337 64.8507 44.1294 65.6697 44.1294C66.4887 44.1294 67.2943 44.337 68.0113 44.7329L70.5144 46.0571C70.817 46.217 71.1584 46.2886 71.4998 46.2637C71.8411 46.2389 72.1685 46.1185 72.4447 45.9164C72.7209 45.7143 72.9347 45.4387 73.0617 45.1209C73.1887 44.8031 73.2238 44.456 73.1629 44.1192L72.6784 41.3415C72.5364 40.5301 72.5962 39.6962 72.8524 38.9133C73.1087 38.1303 73.5536 37.4225 74.148 36.8521L76.1666 34.8819C76.4112 34.6476 76.5837 34.3484 76.6638 34.0193C76.7439 33.6903 76.7283 33.3452 76.6188 33.0247C76.5211 32.6972 76.33 32.4051 76.0691 32.1843C75.8081 31.9635 75.4885 31.8234 75.1492 31.7813L72.3554 31.3937C71.5416 31.2711 70.7696 30.9528 70.1057 30.4662C69.4419 29.9796 68.9061 29.3391 68.5442 28.5999L67.2846 26.0645C67.1386 25.76 66.9095 25.503 66.6238 25.323C66.3381 25.143 66.0074 25.0473 65.6697 25.0471C65.332 25.0473 65.0013 25.143 64.7156 25.323C64.4299 25.503 64.2008 25.76 64.0548 26.0645L62.7952 28.616C62.429 29.3618 61.883 30.0047 61.2064 30.4868C60.5298 30.9689 59.7438 31.275 58.9194 31.3775L56.0771 31.7813C55.7469 31.8248 55.4361 31.962 55.1814 32.1767C54.9267 32.3913 54.7388 32.6744 54.6398 32.9924C54.5068 33.3992 54.2178 33.7364 53.8363 33.9302C53.4548 34.124 53.0119 34.1584 52.6051 34.026C52.1983 33.893 51.8611 33.604 51.6673 33.2224C51.4735 32.8409 51.439 32.3981 51.5715 31.9912C51.8641 31.0912 52.4067 30.2929 53.1358 29.6896C53.865 29.0863 54.7507 28.7027 55.6895 28.5837L58.5156 28.18C58.802 28.1363 59.0736 28.0239 59.307 27.8523C59.5404 27.6808 59.7288 27.4552 59.856 27.1949L61.1156 24.6272C61.5318 23.7833 62.1759 23.0729 62.9751 22.5763C63.7743 22.0796 64.6965 21.8167 65.6374 21.8172C66.5896 21.8026 67.5264 22.059 68.3384 22.5565C69.1505 23.054 69.8043 23.7722 70.2238 24.6272L71.4995 27.1788C71.6279 27.4475 71.8202 27.6807 72.0594 27.858C72.2987 28.0354 72.5778 28.1515 72.8722 28.1961L75.666 28.5837C76.5807 28.7386 77.4352 29.1423 78.1358 29.7505C78.8364 30.3587 79.3561 31.148 79.6379 32.0319C79.9197 32.9158 79.9529 33.8602 79.7337 34.7617C79.5145 35.6632 79.0514 36.487 78.3952 37.1428L76.3604 39.1776C76.1483 39.3841 75.9891 39.6387 75.8963 39.9198C75.8036 40.2009 75.7799 40.5003 75.8275 40.7925L76.312 43.554C76.4334 44.2793 76.3961 45.0224 76.2027 45.732C76.0092 46.4415 75.6642 47.1007 75.1914 47.6641C74.7186 48.2274 74.1293 48.6816 73.4641 48.9952C72.7988 49.3088 72.0735 49.4745 71.338 49.4807V49.4969Z" fill="black"/>
</svg>
