<svg width="20" height="21" viewBox="0 0 20 21" fill="none" xmlns="http://www.w3.org/2000/svg">
<path d="M2.01677 11.0436C1.90328 10.8639 1.84654 10.7741 1.81477 10.6355C1.79091 10.5314 1.79091 10.3672 1.81477 10.2631C1.84654 10.1245 1.90328 10.0347 2.01677 9.85498C2.95461 8.37 5.74617 4.61597 10.0003 4.61597C14.2545 4.61597 17.0461 8.37 17.9839 9.85498C18.0974 10.0347 18.1541 10.1245 18.1859 10.2631C18.2098 10.3672 18.2098 10.5314 18.1859 10.6355C18.1541 10.7741 18.0974 10.8639 17.9839 11.0436C17.0461 12.5286 14.2545 16.2826 10.0003 16.2826C5.74617 16.2826 2.95461 12.5286 2.01677 11.0436Z" stroke="white" stroke-width="1.5" stroke-linecap="round" stroke-linejoin="round"/>
<path d="M10.0003 12.9493C11.381 12.9493 12.5003 11.83 12.5003 10.4493C12.5003 9.06859 11.381 7.9493 10.0003 7.9493C8.61962 7.9493 7.50034 9.06859 7.50034 10.4493C7.50034 11.83 8.61962 12.9493 10.0003 12.9493Z" stroke="white" stroke-width="1.5" stroke-linecap="round" stroke-linejoin="round"/>
</svg>
