<svg width="40" height="41" viewBox="0 0 40 41" fill="none" xmlns="http://www.w3.org/2000/svg">
<path opacity="0.12" d="M20.5964 6.58064C20.3778 6.47132 20.2685 6.41666 20.1538 6.39515C20.0523 6.3761 19.9481 6.3761 19.8465 6.39515C19.7318 6.41666 19.6225 6.47132 19.4039 6.58064L3.3335 14.6158L19.4039 22.651C19.6225 22.7603 19.7318 22.815 19.8465 22.8365C19.9481 22.8556 20.0523 22.8556 20.1538 22.8365C20.2685 22.815 20.3778 22.7603 20.5964 22.651L36.6668 14.6158L20.5964 6.58064Z" fill="#E04F16"/>
<path d="M28.3335 24.6158V19.6065C28.3335 19.3074 28.3335 19.1578 28.288 19.0258C28.2477 18.909 28.1819 18.8027 28.0955 18.7144C27.9978 18.6146 27.864 18.5477 27.5964 18.414L20.0002 14.6158M6.66683 16.2825V27.6269C6.66683 28.2467 6.66683 28.5566 6.76353 28.828C6.84901 29.0679 6.98833 29.285 7.17079 29.4627C7.37719 29.6636 7.65895 29.7928 8.22242 30.051L18.8891 34.9399C19.2978 35.1273 19.5022 35.2209 19.7151 35.2579C19.9037 35.2906 20.0966 35.2906 20.2853 35.2579C20.4982 35.2209 20.7025 35.1273 21.1112 34.9399L31.7779 30.051C32.3414 29.7928 32.6231 29.6636 32.8295 29.4627C33.012 29.285 33.1513 29.0679 33.2368 28.828C33.3335 28.5566 33.3335 28.2467 33.3335 27.6269V16.2825M3.3335 14.6158L19.4039 6.58064C19.6225 6.47132 19.7318 6.41666 19.8465 6.39515C19.9481 6.3761 20.0523 6.3761 20.1538 6.39515C20.2685 6.41666 20.3778 6.47132 20.5964 6.58064L36.6668 14.6158L20.5964 22.651C20.3778 22.7603 20.2685 22.815 20.1538 22.8365C20.0523 22.8556 19.9481 22.8556 19.8465 22.8365C19.7318 22.815 19.6225 22.7603 19.4039 22.651L3.3335 14.6158Z" stroke="#E04F16" stroke-width="2.5" stroke-linecap="round" stroke-linejoin="round"/>
</svg>
