<svg width="117" height="12" viewBox="0 0 117 12" fill="none" xmlns="http://www.w3.org/2000/svg">
<path d="M18.4651 9.88956C16.2773 9.88956 14.6026 8.21489 14.6026 6C14.6026 3.83913 16.2232 2.11043 18.3841 2.11043C19.4915 2.11043 20.4639 2.59663 21.1392 3.2719L22.5438 1.7863C21.5174 0.786899 20.0858 0.165649 18.3841 0.165649C14.8457 0.165649 12.3877 2.73168 12.3877 6C12.3877 9.26831 14.8727 11.8343 18.4111 11.8343C20.491 11.8343 22.1656 10.943 23.192 9.67347L21.6794 8.32293C21.0312 9.18728 19.9507 9.88956 18.4651 9.88956Z" fill="black"/>
<path d="M30.3766 9.88956C28.1887 9.88956 26.5141 8.21489 26.5141 6C26.5141 3.83913 28.1347 2.11043 30.2956 2.11043C31.403 2.11043 32.3754 2.59663 33.0507 3.2719L34.4552 1.7863C33.4288 0.786899 31.9973 0.165649 30.2956 0.165649C26.7571 0.165649 24.3262 2.73168 24.3262 6C24.3262 9.26831 26.8112 11.8343 30.3496 11.8343C32.4294 11.8343 34.1041 10.943 35.1305 9.67347L33.6179 8.32293C32.9426 9.18728 31.8622 9.88956 30.3766 9.88956Z" fill="black"/>
<path d="M39.5609 6.56794H43.2884V4.62315H39.5609V2.27321H44.4229V0.32843H37.373V11.673H44.585V9.7282H39.5609V6.56794Z" fill="black"/>
<path d="M49.0416 3.35293C49.0416 2.48858 49.9599 2.11043 50.7973 2.11043C51.5536 2.11043 52.3099 2.43456 52.7691 2.86674L53.9035 1.24608C52.8231 0.462769 51.7697 0.165649 50.6082 0.165649C48.7174 0.165649 46.8537 1.32712 46.8537 3.35293C46.8537 4.62244 47.556 5.40576 48.4473 5.91896C49.9599 6.81032 52.0668 6.9994 52.0668 8.45798C52.0668 9.29532 51.3915 9.88956 50.4191 9.88956C49.3927 9.88956 48.3933 9.34934 47.7451 8.64706L46.3135 10.1327C47.4749 11.2131 48.8795 11.8343 50.4191 11.8343C52.4719 11.8343 54.2547 10.4298 54.2547 8.43098C54.2817 4.62244 49.0416 5.18967 49.0416 3.35293Z" fill="black"/>
<path d="M58.3873 3.35293C58.3873 2.48858 59.3056 2.11043 60.143 2.11043C60.8993 2.11043 61.6556 2.43456 62.1148 2.86674L63.2492 1.24608C62.1688 0.462769 61.1154 0.165649 59.9539 0.165649C58.0631 0.165649 56.1994 1.32712 56.1994 3.35293C56.1994 4.62244 56.9017 5.40576 57.793 5.91896C59.3056 6.81032 61.4125 6.9994 61.4125 8.45798C61.4125 9.29532 60.7372 9.88956 59.7648 9.88956C58.7384 9.88956 57.739 9.34934 57.0908 8.64706L55.6592 10.1327C56.8206 11.2131 58.2252 11.8343 59.7648 11.8343C61.8177 11.8343 63.6004 10.4298 63.6004 8.43098C63.6274 4.62244 58.3873 5.18967 58.3873 3.35293Z" fill="black"/>
<path d="M64.8691 2.27321H67.8673V11.673H70.0552V2.27321H73.0534V0.32843H64.8691V2.27321Z" fill="black"/>
<path d="M105.116 1.40886C104.197 0.733593 103.009 0.32843 101.199 0.32843H97.7686V11.673H101.199C103.009 11.673 104.17 11.2948 105.116 10.5926C106.52 9.56614 107.357 7.86446 107.357 5.9737C107.357 4.13696 106.493 2.43528 105.116 1.40886ZM104.359 8.4587C103.738 9.24201 102.793 9.7282 101.469 9.7282H99.9564V2.27321H101.442C102.793 2.27321 103.711 2.73239 104.332 3.54272C104.845 4.19098 105.17 5.05533 105.17 6.00071C105.17 6.94609 104.872 7.81043 104.359 8.4587Z" fill="black"/>
<path d="M111.976 9.7282V6.56794H115.703V4.62315H111.976V2.27321H116.838V0.32843H109.788V11.673H117V9.7282H111.976Z" fill="black"/>
<path d="M7.06666 0.32843H5.50003L5.12187 1.2468L0.827148 11.673H3.09606L3.9334 9.51212H8.57926L9.4166 11.673H11.7665L7.4178 1.13876L7.06666 0.32843ZM7.71492 7.56734H4.79774L6.25633 3.9749L7.71492 7.56734Z" fill="black"/>
<path d="M91.2063 0.32843H89.6397L89.2615 1.2468L84.9668 11.7H87.2357L88.073 9.53913H92.7189L93.5562 11.7H95.9062L91.5574 1.16576L91.2063 0.32843ZM91.8546 7.56733H88.9104L90.369 3.97489L91.8546 7.56733Z" fill="black"/>
<path d="M83.1294 3.4887C83.1294 1.65196 81.7518 0.32843 79.645 0.32843H75.2422V11.673H77.4301V6.64897H78.7806L81.4547 11.673H83.8857L80.8334 6.40587C81.9679 6.10875 83.1294 5.21739 83.1294 3.4887ZM77.4031 2.27321H79.4829C80.3472 2.27321 80.9145 2.81343 80.9145 3.51571C80.9145 4.19098 80.4283 4.70419 79.4829 4.70419H77.4031V2.27321Z" fill="black"/>
</svg>
