<svg width="90" height="22" viewBox="0 0 90 22" fill="none" xmlns="http://www.w3.org/2000/svg">
<path d="M0.37207 1.76562H3.80354V18.2851H9.7213V21.5443H0.400005L0.37207 1.76562Z" fill="#101828"/>
<path d="M17.6863 6.6957C18.5824 6.68533 19.4688 6.88204 20.2764 7.2705C21.084 7.65896 21.791 8.22867 22.3423 8.93524V6.98903H25.5456V21.5483H22.3469V19.6021C21.7957 20.3087 21.0887 20.8784 20.2811 21.2669C19.4735 21.6553 18.5871 21.852 17.6909 21.8417C13.6961 21.8417 10.665 18.4288 10.665 14.2664C10.665 10.1039 13.6961 6.6957 17.6909 6.6957M18.2729 9.61036C15.6796 9.61036 13.9615 11.6497 13.9615 14.2664C13.9615 16.883 15.7075 18.9224 18.2729 18.9224C20.8384 18.9224 22.5797 16.883 22.5797 14.2664C22.5797 11.6497 20.8617 9.61036 18.2729 9.61036Z" fill="#101828"/>
<path d="M28.042 19.0184L35.6778 9.8973H28.1584V6.9873H39.7984V9.55276L32.1951 18.6366H39.9707V21.5466H28.042V19.0184Z" fill="#101828"/>
<path d="M48.1308 6.69573C49.027 6.685 49.9135 6.88156 50.7212 7.27004C51.5289 7.65853 52.2358 8.22843 52.7868 8.93526V6.98906H55.9902V21.5483H52.7868V19.6021C52.2358 20.309 51.5289 20.8789 50.7212 21.2674C49.9135 21.6559 49.027 21.8524 48.1308 21.8417C44.136 21.8417 41.1143 18.4288 41.1143 14.2664C41.1143 10.1039 44.136 6.69573 48.1308 6.69573ZM48.7128 9.61039C46.1195 9.61039 44.406 11.6497 44.406 14.2664C44.406 16.8831 46.152 18.9224 48.7128 18.9224C51.2736 18.9224 53.0196 16.8831 53.0196 14.2664C53.0196 11.6497 51.3016 9.61039 48.7128 9.61039Z" fill="#101828"/>
<path d="M65.148 6.69546C66.0444 6.68329 66.9314 6.87921 67.7393 7.26781C68.5472 7.6564 69.2539 8.22708 69.8039 8.93499V0.554199H73.0073V21.5341H69.8039V19.5879C69.2539 20.2958 68.5472 20.8665 67.7393 21.2551C66.9314 21.6437 66.0444 21.8396 65.148 21.8274C61.1531 21.8274 58.1221 18.4146 58.1221 14.2521C58.1221 10.0897 61.1531 6.68149 65.148 6.68149M65.73 9.59615C63.1366 9.59615 61.4232 11.6355 61.4232 14.2521C61.4232 16.8688 63.1738 18.9081 65.73 18.9081C68.2861 18.9081 70.0367 16.8688 70.0367 14.2521C70.0367 11.6355 68.3187 9.59615 65.73 9.59615Z" fill="#101828"/>
<path d="M82.1502 6.69585C83.0466 6.68368 83.9336 6.8796 84.7415 7.2682C85.5494 7.65679 86.2562 8.22747 86.8062 8.93538V6.98918H90.0002V21.5485H86.7922V19.6023C86.2422 20.3102 85.5354 20.8809 84.7276 21.2694C83.9197 21.658 83.0326 21.854 82.1362 21.8418C78.1414 21.8418 75.1104 18.429 75.1104 14.2665C75.1104 10.104 78.1554 6.69585 82.1502 6.69585ZM82.7322 9.6105C80.1388 9.6105 78.4208 11.6498 78.4208 14.2665C78.4208 16.8832 80.1714 18.9225 82.7322 18.9225C85.293 18.9225 87.039 16.8832 87.039 14.2665C87.039 11.6498 85.3209 9.6105 82.7322 9.6105Z" fill="#101828"/>
</svg>
