<svg width="85" height="19" viewBox="0 0 85 19" fill="none" xmlns="http://www.w3.org/2000/svg">
<path d="M8.81369 16.9269C7.67092 17.844 6.23105 18.3094 4.76769 18.2345C3.3649 18.2849 1.9711 17.9911 0.708008 17.3788L1.5843 15.1401C2.53769 15.6752 3.6128 15.9558 4.70608 15.9548C5.4938 15.989 6.26869 15.7468 6.89681 15.2702C7.16895 15.061 7.38687 14.7896 7.53222 14.4786C7.67756 14.1677 7.74609 13.8263 7.73202 13.4834C7.73202 12.4611 6.8603 11.5665 5.11685 10.7998C4.08997 10.379 3.1358 9.79914 2.28944 9.0814C1.84979 8.69188 1.49974 8.21174 1.26338 7.67402C1.02702 7.13629 0.909952 6.55375 0.920233 5.96646C0.893479 5.33463 1.00734 4.70475 1.25359 4.12227C1.49984 3.53979 1.87234 3.01925 2.34421 2.59822C3.39464 1.74501 4.72375 1.31091 6.07529 1.37963C7.35665 1.32443 8.6285 1.62285 9.75159 2.24223L8.94377 4.29603C8.09701 3.81204 7.13959 3.55499 6.16429 3.54981C5.45684 3.51442 4.76003 3.73294 4.19947 4.16596C3.95446 4.36779 3.75957 4.62366 3.63009 4.91349C3.50062 5.20332 3.44009 5.51922 3.45326 5.83639C3.45326 6.83134 4.36606 7.74415 6.19167 8.5748C7.18428 8.98877 8.10775 9.55208 8.93007 10.2452C9.36847 10.6372 9.71758 11.1188 9.9538 11.6574C10.19 12.1959 10.3078 12.779 10.2993 13.367C10.3331 14.0337 10.2173 14.6994 9.96022 15.3154C9.70314 15.9315 9.31138 16.4821 8.81369 16.9269Z" fill="#101828"/>
<path d="M20.9247 16.4024C20.4324 16.9753 19.8221 17.4352 19.1356 17.7505C18.4491 18.0657 17.7026 18.2289 16.9471 18.2289C16.1917 18.2289 15.4452 18.0657 14.7587 17.7505C14.0722 17.4352 13.4619 16.9753 12.9696 16.4024C12.004 15.1001 11.5201 13.5032 11.6004 11.884C11.5201 10.2648 12.004 8.66787 12.9696 7.36562C13.465 6.79768 14.0764 6.34242 14.7625 6.03048C15.4485 5.71853 16.1935 5.55713 16.9471 5.55713C17.7008 5.55713 18.4457 5.71853 19.1318 6.03048C19.8179 6.34242 20.4292 6.79768 20.9247 7.36562C21.8903 8.66787 22.3742 10.2648 22.2939 11.884C22.3742 13.5032 21.8903 15.1001 20.9247 16.4024ZM19.0831 8.70059C18.8537 8.34011 18.5371 8.04333 18.1625 7.83771C17.788 7.6321 17.3676 7.5243 16.9403 7.5243C16.513 7.5243 16.0926 7.6321 15.7181 7.83771C15.3435 8.04333 15.0269 8.34011 14.7975 8.70059C14.2643 9.66369 14.0128 10.7574 14.0718 11.8566C14.0123 12.9581 14.2637 14.0541 14.7975 15.0195C15.022 15.3863 15.337 15.6893 15.7122 15.8995C16.0874 16.1097 16.5102 16.2201 16.9403 16.2201C17.3704 16.2201 17.7932 16.1097 18.1684 15.8995C18.5436 15.6893 18.8585 15.3863 19.0831 15.0195C19.6168 14.0541 19.8683 12.9581 19.8088 11.8566C19.8678 10.7574 19.6163 9.66369 19.0831 8.70059Z" fill="#101828"/>
<path d="M29.6872 2.19102C28.0761 2.19102 27.2705 2.8916 27.2705 4.29275V5.80572H29.8036V7.66099H27.2979V17.9848H24.8813V7.66099H23.2793V5.80572H24.8813V4.29275C24.847 3.71502 24.943 3.13697 25.1622 2.60135C25.3814 2.06573 25.7183 1.58624 26.1478 1.19835C27.0361 0.494714 28.1518 0.141501 29.2832 0.205673C29.5417 0.204968 29.7999 0.218683 30.0569 0.24675V2.19102H29.6872Z" fill="#101828"/>
<path d="M36.9373 17.8756C36.4522 18.0772 35.9288 18.1707 35.4038 18.1494C33.172 18.1494 32.0561 16.9582 32.0561 14.5758V7.66131H30.4131V5.80603H32.0904V2.98547L34.5138 2.23926V5.80603H36.9716V7.66131H34.5138V14.4526C34.5138 15.4726 35.0547 15.9861 36.1364 15.9861C36.4226 15.9906 36.7067 15.9371 36.9716 15.8286L36.9373 17.8756Z" fill="#101828"/>
<path d="M51.4433 17.9842H48.8897L46.7195 10.2551C46.5603 9.67716 46.4391 9.08943 46.3567 8.49566H46.3156C46.2179 9.08886 46.0877 9.67622 45.9254 10.2551L43.7621 17.9842H41.2085L37.5664 5.80518H40.031L42.1259 13.8493C42.2882 14.4786 42.4027 15.1194 42.4682 15.7661H42.5161C42.6325 15.0815 42.7694 14.3969 42.92 13.8493L45.1313 5.80518H47.4589L49.677 13.8493C49.8276 14.4175 49.9577 15.061 50.0809 15.7661H50.1289C50.1889 15.1192 50.3011 14.4781 50.4643 13.8493L52.6277 5.80518H55.0922L51.4433 17.9842Z" fill="#101828"/>
<path d="M65.4424 17.3748C64.072 18.008 62.569 18.3016 61.061 18.2306C57.5558 18.2306 55.801 16.9572 55.7964 14.4105C55.7752 13.692 55.9834 12.9855 56.3908 12.3934C56.7983 11.8013 57.3838 11.3544 58.0624 11.1175C59.6757 10.531 61.3777 10.2253 63.0943 10.2139V9.44027C63.0943 8.07107 62.2362 7.38646 60.5201 7.38646C59.3578 7.37858 58.2086 7.63368 57.1587 8.13268L56.5221 6.43487C57.8616 5.85633 59.3075 5.56482 60.7666 5.57911C63.8884 5.57911 65.447 6.94832 65.4424 9.68673V17.3748ZM63.0943 11.8569C61.9365 11.8754 60.786 12.0434 59.6712 12.3567C59.2213 12.4663 58.8215 12.7247 58.537 13.0901C58.2524 13.4555 58.0996 13.9063 58.1035 14.3694C58.1035 15.7386 59.0597 16.4232 60.972 16.4232C61.6868 16.4636 62.4022 16.3564 63.0737 16.1083L63.0943 11.8569Z" fill="#101828"/>
<path d="M73.2212 7.70181C72.8125 7.60914 72.3942 7.56548 71.9752 7.57174C71.3217 7.54815 70.67 7.65521 70.0583 7.88665V17.9845H67.5938V6.41476C69.0957 5.81805 70.7017 5.52711 72.3175 5.55901C72.7757 5.54813 73.2339 5.57791 73.6867 5.648L73.2212 7.70181Z" fill="#101828"/>
<path d="M84.9623 11.8361L76.8771 12.9657C77.1327 15.1655 78.3764 16.2654 80.6082 16.2654C81.7735 16.3026 82.9295 16.046 83.9696 15.5192L84.6953 17.3745C83.3658 17.9921 81.9088 18.2854 80.4439 18.2302C79.6262 18.2763 78.8081 18.1461 78.0451 17.8484C77.2821 17.5508 76.5919 17.0926 76.0214 16.505C74.9209 15.223 74.3612 13.5638 74.4605 11.8771C74.3782 10.2331 74.891 8.61441 75.905 7.31769C76.3987 6.73269 77.0205 6.26912 77.7221 5.96285C78.4236 5.65657 79.1863 5.5158 79.951 5.55141C80.6357 5.51314 81.3207 5.6223 81.9597 5.8715C82.5986 6.1207 83.1767 6.50415 83.6547 6.99592C84.5871 8.07804 85.0654 9.47858 84.9896 10.905C84.9896 11.3158 84.9828 11.6238 84.9623 11.8361ZM82.6141 10.5285C82.6141 8.41989 81.7013 7.36561 79.8757 7.36561C79.4403 7.34511 79.0063 7.42884 78.6098 7.60983C78.2133 7.79082 77.8657 8.06384 77.5959 8.4062C76.9619 9.25008 76.6423 10.2888 76.6923 11.3431L82.6141 10.5285Z" fill="#101828"/>
</svg>
