<svg width="98" height="31" viewBox="0 0 98 31" fill="none" xmlns="http://www.w3.org/2000/svg">
<path d="M8.05572 10.1725C5.26021 9.28192 3.99823 8.1078 3.99424 6.49439C4.07411 4.70127 5.74743 3.35144 8.02776 3.26757C9.83917 3.25421 11.6139 3.77814 13.1276 4.77315C13.1893 4.83024 13.2636 4.87209 13.3444 4.89535C13.4252 4.91862 13.5104 4.92265 13.5931 4.90713C13.6757 4.8916 13.7536 4.85696 13.8205 4.80596C13.8874 4.75496 13.9414 4.68902 13.9782 4.61341C14.0022 4.56948 14.09 4.44568 14.3776 4.02635C14.6531 3.62699 14.7769 3.47923 14.7769 3.42731C14.9766 3.05192 14.9766 2.85224 14.5653 2.5647C13.9647 2.18525 13.3327 1.85791 12.6763 1.58626C11.1632 0.976065 9.5433 0.674628 7.91196 0.699685C4.25383 0.779557 1.39042 3.15175 1.20272 6.29071C1.08292 8.54709 2.23707 10.3602 4.62523 11.694C6.00239 12.3124 7.4161 12.8459 8.85844 13.2915C12.0533 14.222 13.6787 15.9153 13.3432 17.8881C13.0357 19.6852 11.1388 20.8953 8.4431 20.9751C6.3915 20.9009 4.41437 20.1874 2.78818 18.9344L2.65639 18.8346L2.5246 18.7347C2.1492 18.4752 1.87764 18.4751 1.61806 18.8665L1.19474 19.5095L0.795381 20.1205C0.575734 20.448 0.611678 20.6237 0.935159 20.8953C1.61233 21.4405 2.34131 21.918 3.11166 22.321C4.7846 23.1337 6.61535 23.57 8.47504 23.5989C9.82586 23.6388 11.1693 23.3854 12.4127 22.8561C13.4176 22.4332 14.2892 21.7462 14.9354 20.868C15.5815 19.9899 15.978 18.9533 16.0828 17.8681C16.4742 14.2419 14.098 11.9616 8.05572 10.1725Z" fill="#101828"/>
<path d="M25.0049 9.26668C23.5528 9.26719 22.1391 9.7333 20.9714 10.5965V1.2196C20.9714 0.852186 20.8277 0.712402 20.4642 0.712402H18.767C18.3676 0.712402 18.2598 0.848192 18.2598 1.2196V23.0166C18.2598 23.376 18.3636 23.5238 18.767 23.5238H20.4642C20.8356 23.5238 20.9714 23.368 20.9714 23.0166V15.896C20.9714 13.4639 22.7885 11.9344 25.0049 11.9344C27.2214 11.9344 29.0385 13.4639 29.0385 15.928V23.0326C29.0385 23.4319 29.1383 23.5398 29.5457 23.5398H31.2389C31.6383 23.5398 31.7461 23.4439 31.7461 23.0326V15.8921C31.7199 14.123 30.9975 12.4355 29.7357 11.1954C28.4739 9.95524 26.7742 9.26228 25.0049 9.26668Z" fill="#101828"/>
<path d="M41.2031 9.28063C39.7949 9.30895 38.4265 9.75238 37.2693 10.5553C36.1121 11.3583 35.2178 12.485 34.6984 13.7942C34.179 15.1034 34.0577 16.5368 34.3497 17.9146C34.6417 19.2924 35.334 20.5534 36.3398 21.5394C37.3456 22.5253 38.6201 23.1924 40.0035 23.4569C41.3869 23.7215 42.8176 23.5717 44.1162 23.0264C45.4148 22.481 46.5235 21.5644 47.3032 20.3915C48.083 19.2186 48.4991 17.8416 48.4994 16.4332C48.49 15.4844 48.2938 14.5468 47.922 13.6739C47.5503 12.801 47.0102 12.0099 46.3327 11.3457C45.6551 10.6815 44.8534 10.1573 43.9733 9.80297C43.0931 9.44864 42.1518 9.27115 41.2031 9.28063ZM41.2031 20.9539C40.3125 20.935 39.4473 20.6537 38.7159 20.1452C37.9845 19.6367 37.4196 18.9236 37.0917 18.0953C36.7639 17.267 36.6879 16.3605 36.8731 15.4891C37.0584 14.6178 37.4967 13.8206 38.1332 13.1973C38.7696 12.5741 39.5759 12.1526 40.4509 11.9856C41.3259 11.8187 42.2307 11.9137 43.0519 12.2588C43.8731 12.6039 44.5742 13.1837 45.0673 13.9256C45.5603 14.6675 45.8235 15.5384 45.8237 16.4292C45.8174 17.0297 45.6929 17.623 45.4573 18.1754C45.2217 18.7278 44.8796 19.2284 44.4506 19.6486C44.0215 20.0687 43.5139 20.4003 42.9566 20.6242C42.3994 20.8482 41.8036 20.9602 41.2031 20.9539Z" fill="#101828"/>
<path d="M96.3742 17.3974H96.4101C96.628 17.3841 96.8324 17.2875 96.981 17.1277C97.1297 16.9679 97.2113 16.757 97.2088 16.5388C97.2088 16.5188 97.2088 16.4988 97.2088 16.4788C97.2088 16.4589 97.2088 16.4549 97.2088 16.4269C97.2088 12.4773 94.1138 9.27441 90.2919 9.27441C86.47 9.27441 83.375 12.4693 83.375 16.4269C83.3751 16.7205 83.3924 17.0139 83.4269 17.3055V17.3974C83.612 18.8073 84.2237 20.1269 85.1801 21.1793C86.2636 22.3614 87.704 23.1566 89.2815 23.4437L89.4053 23.4676L89.593 23.4956C91.4812 23.7706 93.4085 23.4758 95.1282 22.6489C95.4941 22.4661 95.8429 22.251 96.1705 22.006C96.2743 21.9301 96.3622 21.8582 96.434 21.7943L96.5259 21.7104C96.9253 21.3111 96.9253 21.1394 96.6976 20.7799C96.1625 19.9253 95.863 19.51 95.863 19.51C95.6513 19.2464 95.4636 19.1865 95.196 19.4261C95.1481 19.466 95.1042 19.494 95.0842 19.518C94.3318 20.1546 93.4402 20.6052 92.4814 20.8334C91.5226 21.0617 90.5236 21.0612 89.5651 20.8319C89.2035 20.7312 88.8519 20.5975 88.5147 20.4325C87.9094 20.1389 87.3789 19.7112 86.9637 19.1818C86.5485 18.6524 86.2594 18.0353 86.1186 17.3774H96.3742V17.3974ZM86.2863 14.7576C86.5528 13.9111 87.0855 13.1732 87.805 12.6537C88.5245 12.1342 89.3925 11.8608 90.2799 11.8742C91.1727 11.8871 92.0407 12.1693 92.7704 12.6838C93.5 13.1982 94.0574 13.9211 94.3694 14.7576H86.2863Z" fill="#101828"/>
<path d="M57.9161 9.24499C56.2648 9.23781 54.6619 9.80222 53.3794 10.8424V9.7362C53.3794 9.33684 53.2755 9.229 52.8722 9.229H51.2747C50.8754 9.229 50.7676 9.34083 50.7676 9.7362V30.3311C50.7676 30.7065 50.8714 30.8383 51.2747 30.8383H52.8722C53.2715 30.8383 53.3794 30.7065 53.3794 30.3311V21.9446C54.2666 22.674 55.3162 23.1793 56.4397 23.4178C57.5632 23.6564 58.7276 23.6212 59.8347 23.3152C60.9417 23.0091 61.9589 22.4413 62.8003 21.6596C63.6418 20.8779 64.2829 19.9052 64.6695 18.8237C65.0561 17.7422 65.1769 16.5835 65.0216 15.4455C64.8664 14.3075 64.4396 13.2235 63.7774 12.2851C63.1152 11.3467 62.237 10.5813 61.2169 10.0536C60.1968 9.52583 59.0646 9.25124 57.9161 9.25296V9.24499ZM57.9161 20.9182C56.7371 20.9198 55.6038 20.462 54.7568 19.6418C53.9098 18.8217 53.4157 17.7038 53.3794 16.5253V16.2937C53.4006 15.4013 53.6846 14.535 54.1958 13.8033C54.707 13.0715 55.4228 12.5069 56.2534 12.18C57.084 11.8531 57.9926 11.7785 58.8654 11.9655C59.7382 12.1525 60.5365 12.5929 61.1602 13.2314C61.7839 13.87 62.2054 14.6784 62.3719 15.5553C62.5384 16.4323 62.4425 17.3389 62.0962 18.1616C61.7499 18.9843 61.1685 19.6866 60.425 20.1805C59.6815 20.6744 58.8087 20.938 57.9161 20.9382V20.9182Z" fill="#101828"/>
<path d="M81.1912 16.423C81.1912 12.4734 78.0962 9.27051 74.2743 9.27051C70.4525 9.27051 67.3574 12.4654 67.3574 16.423C67.3575 16.7166 67.3748 17.01 67.4093 17.3016V17.3935C67.5944 18.8034 68.2062 20.123 69.1625 21.1754C70.246 22.3575 71.6864 23.1527 73.264 23.4398L73.3878 23.4637L73.5754 23.4917C75.4736 23.7745 77.413 23.4809 79.1425 22.649C79.5084 22.4662 79.8573 22.2511 80.1848 22.0061C80.2887 21.9302 80.3765 21.8583 80.4484 21.7944L80.5403 21.7105C80.9396 21.3112 80.9396 21.1395 80.712 20.78C80.1768 19.9254 79.8773 19.5101 79.8773 19.5101C79.6657 19.2465 79.478 19.1866 79.2104 19.4262C79.1625 19.4661 79.1186 19.4941 79.0986 19.518C78.3434 20.1596 77.4472 20.6135 76.4832 20.8426C75.5191 21.0716 74.5145 21.0693 73.5515 20.8359C73.1899 20.7353 72.8383 20.6016 72.5012 20.4366C71.8958 20.143 71.3653 19.7153 70.9501 19.1859C70.5349 18.6565 70.2459 18.0394 70.105 17.3815H80.3965C80.6144 17.3682 80.8188 17.2716 80.9675 17.1118C81.1161 16.952 81.1977 16.7411 81.1952 16.5229C81.1952 16.5029 81.1952 16.4829 81.1952 16.463C81.1952 16.443 81.1912 16.455 81.1912 16.423ZM70.2688 14.7577C70.5353 13.9112 71.0679 13.1733 71.7874 12.6538C72.5069 12.1343 73.375 11.8609 74.2624 11.8743C75.1537 11.8888 76.02 12.1717 76.7481 12.6861C77.4762 13.2004 78.0323 13.9224 78.3438 14.7577H70.2688Z" fill="#101828"/>
</svg>
