<svg width="40" height="41" viewBox="0 0 40 41" fill="none" xmlns="http://www.w3.org/2000/svg">
<path opacity="0.12" fill-rule="evenodd" clip-rule="evenodd" d="M19.9883 9.00891C16.656 5.11322 11.0993 4.06529 6.92417 7.63257C2.74908 11.1999 2.16129 17.1642 5.44 21.3832C8.16604 24.8911 16.416 32.2894 19.1198 34.6839C19.4223 34.9518 19.5736 35.0858 19.75 35.1384C19.904 35.1844 20.0725 35.1844 20.2265 35.1384C20.4029 35.0858 20.5542 34.9518 20.8567 34.6839C23.5606 32.2894 31.8105 24.8911 34.5365 21.3832C37.8152 17.1642 37.2992 11.1623 33.0524 7.63257C28.8055 4.10281 23.3205 5.11322 19.9883 9.00891Z" fill="#E04F16"/>
<path fill-rule="evenodd" clip-rule="evenodd" d="M19.9883 9.00891C16.656 5.11322 11.0993 4.06529 6.92417 7.63257C2.74908 11.1999 2.16129 17.1642 5.44 21.3832C8.16604 24.8911 16.416 32.2894 19.1198 34.6839C19.4223 34.9518 19.5736 35.0858 19.75 35.1384C19.904 35.1844 20.0725 35.1844 20.2265 35.1384C20.4029 35.0858 20.5542 34.9518 20.8567 34.6839C23.5606 32.2894 31.8105 24.8911 34.5365 21.3832C37.8152 17.1642 37.2992 11.1623 33.0524 7.63257C28.8055 4.10281 23.3205 5.11322 19.9883 9.00891Z" stroke="#E04F16" stroke-width="2.5" stroke-linecap="round" stroke-linejoin="round"/>
</svg>
