<svg width="20" height="21" viewBox="0 0 20 21" fill="none" xmlns="http://www.w3.org/2000/svg">
<path d="M14.1667 8.44922L9.63807 12.9778C9.47306 13.1428 9.39056 13.2253 9.29542 13.2562C9.21174 13.2834 9.12159 13.2834 9.03791 13.2562C8.94277 13.2253 8.86027 13.1428 8.69526 12.9778L7.13807 11.4206C6.97306 11.2556 6.89056 11.1731 6.79542 11.1422C6.71174 11.115 6.62159 11.115 6.53791 11.1422C6.44277 11.1731 6.36027 11.2556 6.19526 11.4206L2.5 15.1159M14.1667 8.44922H10.8333M14.1667 8.44922V11.7826M6.5 18.4492H13.5C14.9001 18.4492 15.6002 18.4492 16.135 18.1767C16.6054 17.9371 16.9878 17.5546 17.2275 17.0842C17.5 16.5494 17.5 15.8494 17.5 14.4492V7.44922C17.5 6.04909 17.5 5.34902 17.2275 4.81424C16.9878 4.34384 16.6054 3.96139 16.135 3.7217C15.6002 3.44922 14.9001 3.44922 13.5 3.44922H6.5C5.09987 3.44922 4.3998 3.44922 3.86502 3.7217C3.39462 3.96139 3.01217 4.34384 2.77248 4.81424C2.5 5.34902 2.5 6.04909 2.5 7.44922V14.4492C2.5 15.8493 2.5 16.5494 2.77248 17.0842C3.01217 17.5546 3.39462 17.9371 3.86502 18.1767C4.3998 18.4492 5.09987 18.4492 6.5 18.4492Z" stroke="#101828" stroke-width="1.5" stroke-linecap="round" stroke-linejoin="round"/>
</svg>
