<svg width="192" height="46" viewBox="0 0 192 46" fill="none" xmlns="http://www.w3.org/2000/svg">
<g clip-path="url(#clip0_2_63127)">
<path d="M17.7218 5.32422C20.9768 8.04689 23.735 11.3108 26.857 14.1755C24.0367 17.2708 20.8615 20.0379 18.0856 23.1687C20.8349 26.3084 24.019 29.04 26.8304 32.1176C23.8415 35.1242 20.9059 38.1929 17.8016 41.0665C12.1961 34.8935 5.89053 29.3683 0.302734 23.1865C5.79292 16.9696 12.1522 11.4972 17.7218 5.32422Z" fill="#ED1B24"/>
<path d="M35.5754 5.31592C41.8104 11.0452 47.6018 17.2537 53.6506 23.1782C47.6018 29.076 41.8459 35.3022 35.602 40.9872C32.9148 37.8386 29.784 35.1336 26.9814 32.0915C29.9437 29.0849 32.9237 26.1049 35.948 23.1515C32.9858 20.0828 29.6065 17.3601 27.0436 13.9365C29.9876 11.1694 32.9498 8.39352 35.5754 5.31592Z" fill="#ED1B24"/>
<path d="M105.739 19.1776C107.481 17.458 110.409 17.3287 112.511 18.4526C112.472 19.5034 112.466 20.5601 112.483 21.6164C111.483 20.6947 109.988 19.8632 108.661 20.6219C106.346 21.6783 106.251 25.3875 108.521 26.5451C109.864 27.3881 111.443 26.6013 112.483 25.6458C112.466 26.7078 112.472 27.7645 112.494 28.8265C110.375 29.8267 107.481 29.8436 105.75 28.0847C103.227 25.882 103.216 21.3862 105.739 19.1776Z" fill="#101828"/>
<path d="M63.0439 17.9977C65.7808 18.0483 68.5174 17.8853 71.2486 18.0989C71.2261 18.9307 71.2092 19.7622 71.1924 20.5997C70.3493 20.594 69.501 20.594 68.6579 20.5884C68.6973 23.4827 68.6748 26.3823 68.6748 29.2766C67.6802 29.2766 66.6798 29.2766 65.6852 29.2822C65.6965 26.4048 65.6346 23.5333 65.7302 20.6615C64.8647 20.6053 63.9994 20.594 63.1339 20.6165C63.1002 19.7457 63.0721 18.8689 63.0439 17.9977Z" fill="#101828"/>
<path d="M72.7454 18.0571C75.0437 17.9728 77.3479 17.9446 79.6463 18.074C79.6519 18.8046 79.6575 19.5352 79.6688 20.2657C78.3425 20.4232 77.0106 20.3894 75.6843 20.4288C75.6787 21.0919 75.6731 21.7494 75.6675 22.4126C76.9094 22.4407 78.157 22.4632 79.4045 22.4519C79.4045 23.2331 79.4045 24.0199 79.4045 24.8065C78.1738 24.8065 76.9431 24.8008 75.7125 24.784C75.7068 25.2841 75.7012 26.2901 75.6956 26.7902C76.9994 26.7959 78.3031 26.7902 79.6013 26.7734C79.6294 27.5827 79.6519 28.3917 79.6856 29.1954C77.3704 29.3584 75.0437 29.2966 72.7285 29.2347C72.8297 25.5089 72.8072 21.7829 72.7454 18.0571Z" fill="#101828"/>
<path d="M83.1727 19.1108C84.9597 17.4588 87.854 17.3351 89.933 18.4702C89.8937 19.5153 89.9161 20.5664 89.9892 21.6115C88.9385 20.8247 87.6516 19.9258 86.2803 20.5046C83.639 21.4376 83.6278 25.7984 86.2859 26.7198C87.6516 27.3267 88.9553 26.4162 89.933 25.5397C89.8993 26.613 89.8993 27.6865 89.9443 28.7598C87.9661 29.7881 85.2855 29.8443 83.4985 28.389C80.6326 26.2644 80.5146 21.4485 83.1727 19.1108Z" fill="#101828"/>
<path d="M91.6865 18.0032C92.6811 18.0032 93.6815 17.9976 94.6761 17.9976C94.6705 19.4644 94.6705 20.9309 94.6705 22.3977C96.0642 22.3977 97.4635 22.409 98.857 22.4202C98.8738 20.9478 98.8963 19.4756 98.8851 18.0032C99.8796 18.0032 100.874 18.0032 101.869 17.9976C101.875 21.7571 101.875 25.5166 101.869 29.2761C100.874 29.2761 99.8796 29.2761 98.8851 29.2817C98.8907 27.7137 98.9132 26.146 98.8232 24.5836C97.4239 24.6173 96.0302 24.6398 94.6311 24.6623C94.6761 26.2022 94.6761 27.7418 94.6648 29.2761C93.6703 29.2761 92.6811 29.2761 91.6865 29.2761C91.6865 25.5169 91.6865 21.7571 91.6865 18.0032Z" fill="#101828"/>
<path d="M117.199 18.2606C120.357 16.8107 124.589 18.4293 125.555 21.8683C126.803 25.3189 123.993 29.4042 120.335 29.4942C116.816 29.9662 113.366 26.7067 113.833 23.1496C113.906 21.0256 115.384 19.2214 117.199 18.2606ZM118.806 20.4409C116.187 21.441 116.17 25.8584 118.811 26.8473C120.615 27.5666 122.667 26.0717 122.773 24.1948C123.279 21.9864 121.071 19.5026 118.806 20.4409Z" fill="#101828"/>
<path d="M128.799 17.9962C129.805 18.0805 130.935 17.76 131.862 18.2154C132.727 20.3679 132.817 22.8911 134.059 24.8467C134.57 22.5259 135.284 20.2554 136.004 17.9908C136.987 18.0021 137.97 18.0021 138.954 18.0021C139.606 21.7504 140.145 25.5155 140.713 29.275C139.746 29.275 138.779 29.275 137.813 29.275C137.689 26.8024 137.172 24.3748 136.964 21.9131C136.369 24.397 135.554 26.819 134.896 29.2863C134.205 29.2806 133.514 29.2694 132.822 29.2581C132.193 26.7855 131.53 24.3129 130.67 21.9075C130.631 24.3857 130.136 26.819 129.872 29.275C128.922 29.275 127.973 29.275 127.028 29.275C127.636 25.5211 128.203 21.7557 128.799 17.9962Z" fill="#101828"/>
<path d="M143.511 18.0469C146.402 18.2522 150.254 17.0092 152.206 19.8645C152.552 21.4948 151.749 22.7554 150.348 23.5001C153.104 23.7641 153.584 27.7572 151.397 29.094C148.911 30.167 146.132 29.6686 143.511 29.7449C143.587 25.8457 143.587 21.9461 143.511 18.0469ZM146.396 20.2635C146.419 21.0962 146.437 21.9289 146.449 22.7613C147.34 22.6205 149.421 23.0018 149.234 21.4948C149.38 19.9349 147.316 20.4453 146.396 20.2635ZM146.431 24.6903C146.431 25.5993 146.425 26.5021 146.413 27.4169C147.574 27.3172 149.521 27.792 149.814 26.2032C149.837 24.3915 147.639 24.749 146.431 24.6903Z" fill="#101828"/>
<path d="M157.454 17.998C158.785 18.0039 160.122 18.0039 161.459 18.0098C162.679 21.9618 164.127 25.8434 165.47 29.7605C164.385 29.7605 163.306 29.7605 162.227 29.7605C162.092 29.0452 161.963 28.3357 161.84 27.6261C160.257 27.5616 158.674 27.5734 157.097 27.5968C156.792 28.2829 156.927 29.303 156.229 29.7312C155.238 29.8075 154.247 29.7664 153.256 29.7723C154.833 25.9138 155.953 21.8855 157.454 17.998ZM157.695 25.5621C158.785 25.3744 159.9 25.4155 161.002 25.4624C160.662 23.5744 159.759 21.8327 159.595 19.9037C158.738 21.7099 158.387 23.6976 157.695 25.5621Z" fill="#101828"/>
<path d="M166.679 18.0137C167.682 18.0137 168.684 18.0078 169.693 18.002C171.645 20.6875 173.803 23.2498 175.375 26.1934C174.847 23.4962 175.128 20.7344 175.023 18.0078C176.049 18.0078 177.075 18.0137 178.101 18.0137C178.107 21.9305 178.101 25.8473 178.101 29.7645C177.11 29.7645 176.119 29.7703 175.128 29.7762C173.164 27.0848 171.094 24.4697 169.417 21.5906C170.015 24.2761 169.664 27.0379 169.752 29.7645C168.726 29.7645 167.705 29.7645 166.679 29.7703C166.702 25.8476 166.702 21.9305 166.679 18.0137Z" fill="#101828"/>
<path d="M180.751 18.0127C181.783 18.0127 182.815 18.0069 183.853 18.0069C183.859 19.7482 183.823 21.484 183.847 23.2254C185.26 21.6538 186.362 19.8127 187.506 18.0362C188.766 18.0127 190.027 18.001 191.294 17.9893C189.845 19.8479 188.561 21.8357 186.943 23.5539C188.391 25.7176 190.127 27.6702 191.675 29.7635C190.391 29.7635 189.112 29.7635 187.834 29.7928C186.444 28.0691 185.26 26.1807 183.847 24.4804C183.829 26.2394 183.853 28.0045 183.853 29.7635C182.821 29.7635 181.783 29.7635 180.751 29.7694C180.774 25.8467 180.774 21.9295 180.751 18.0127Z" fill="#101828"/>
</g>
<defs>
<clipPath id="clip0_2_63127">
<rect width="192" height="45.1765" fill="white" transform="translate(0 0.609863)"/>
</clipPath>
</defs>
</svg>
