<svg width="21" height="21" viewBox="0 0 21 21" fill="none" xmlns="http://www.w3.org/2000/svg">
<path d="M7.33366 16.2826H6.91699C3.58366 16.2826 1.91699 15.4493 1.91699 11.2826V7.11597C1.91699 3.78263 3.58366 2.11597 6.91699 2.11597H13.5837C16.917 2.11597 18.5837 3.78263 18.5837 7.11597V11.2826C18.5837 14.616 16.917 16.2826 13.5837 16.2826H13.167C12.9087 16.2826 12.6587 16.4076 12.5003 16.616L11.2503 18.2826C10.7003 19.016 9.80033 19.016 9.25033 18.2826L8.00033 16.616C7.86699 16.4326 7.55866 16.2826 7.33366 16.2826Z" stroke="#101828" stroke-width="1.5" stroke-miterlimit="10" stroke-linecap="round" stroke-linejoin="round"/>
<path d="M13.5801 9.61589H13.5875" stroke="#101828" stroke-width="2" stroke-linecap="round" stroke-linejoin="round"/>
<path d="M10.2461 9.61589H10.2536" stroke="#101828" stroke-width="2" stroke-linecap="round" stroke-linejoin="round"/>
<path d="M6.91209 9.61589H6.91957" stroke="#101828" stroke-width="2" stroke-linecap="round" stroke-linejoin="round"/>
</svg>
