<svg width="150" height="178" viewBox="0 0 150 178" fill="none" xmlns="http://www.w3.org/2000/svg">
<g opacity="0.1">
<path d="M5.19355 3.05216C5.19355 4.48972 4.03093 5.6551 2.59677 5.6551C1.16262 5.6551 0 4.48972 0 3.05216C0 1.6146 1.16262 0.449219 2.59677 0.449219C4.03093 0.449219 5.19355 1.6146 5.19355 3.05216Z" fill="white"/>
<path d="M20.7742 3.05216C20.7742 4.48972 19.6116 5.6551 18.1774 5.6551C16.7433 5.6551 15.5806 4.48972 15.5806 3.05216C15.5806 1.6146 16.7433 0.449219 18.1774 0.449219C19.6116 0.449219 20.7742 1.6146 20.7742 3.05216Z" fill="white"/>
<path d="M36.3548 3.05216C36.3548 4.48972 35.1922 5.6551 33.7581 5.6551C32.3239 5.6551 31.1613 4.48972 31.1613 3.05216C31.1613 1.6146 32.3239 0.449219 33.7581 0.449219C35.1922 0.449219 36.3548 1.6146 36.3548 3.05216Z" fill="white"/>
<path d="M51.9355 3.05216C51.9355 4.48972 50.7729 5.6551 49.3387 5.6551C47.9045 5.6551 46.7419 4.48972 46.7419 3.05216C46.7419 1.6146 47.9045 0.449219 49.3387 0.449219C50.7729 0.449219 51.9355 1.6146 51.9355 3.05216Z" fill="white"/>
<path d="M67.5161 3.05216C67.5161 4.48972 66.3535 5.6551 64.9194 5.6551C63.4852 5.6551 62.3226 4.48972 62.3226 3.05216C62.3226 1.6146 63.4852 0.449219 64.9194 0.449219C66.3535 0.449219 67.5161 1.6146 67.5161 3.05216Z" fill="white"/>
<path d="M83.0968 3.05216C83.0968 4.48972 81.9342 5.6551 80.5 5.6551C79.0658 5.6551 77.9032 4.48972 77.9032 3.05216C77.9032 1.6146 79.0658 0.449219 80.5 0.449219C81.9342 0.449219 83.0968 1.6146 83.0968 3.05216Z" fill="white"/>
<path d="M98.6774 3.05216C98.6774 4.48972 97.5148 5.6551 96.0806 5.6551C94.6465 5.6551 93.4839 4.48972 93.4839 3.05216C93.4839 1.6146 94.6465 0.449219 96.0806 0.449219C97.5148 0.449219 98.6774 1.6146 98.6774 3.05216Z" fill="white"/>
<path d="M114.258 3.05216C114.258 4.48972 113.095 5.6551 111.661 5.6551C110.227 5.6551 109.065 4.48972 109.065 3.05216C109.065 1.6146 110.227 0.449219 111.661 0.449219C113.095 0.449219 114.258 1.6146 114.258 3.05216Z" fill="white"/>
<path d="M129.839 3.05216C129.839 4.48972 128.676 5.6551 127.242 5.6551C125.808 5.6551 124.645 4.48972 124.645 3.05216C124.645 1.6146 125.808 0.449219 127.242 0.449219C128.676 0.449219 129.839 1.6146 129.839 3.05216Z" fill="white"/>
<path d="M145.419 3.05216C145.419 4.48972 144.257 5.6551 142.823 5.6551C141.388 5.6551 140.226 4.48972 140.226 3.05216C140.226 1.6146 141.388 0.449219 142.823 0.449219C144.257 0.449219 145.419 1.6146 145.419 3.05216Z" fill="white"/>
<path d="M161 3.05216C161 4.48972 159.837 5.6551 158.403 5.6551C156.969 5.6551 155.806 4.48972 155.806 3.05216C155.806 1.6146 156.969 0.449219 158.403 0.449219C159.837 0.449219 161 1.6146 161 3.05216Z" fill="white"/>
<path d="M5.19355 18.6698C5.19355 20.1074 4.03093 21.2727 2.59677 21.2727C1.16262 21.2727 0 20.1074 0 18.6698C0 17.2322 1.16262 16.0669 2.59677 16.0669C4.03093 16.0669 5.19355 17.2322 5.19355 18.6698Z" fill="white"/>
<path d="M20.7742 18.6698C20.7742 20.1074 19.6116 21.2727 18.1774 21.2727C16.7433 21.2727 15.5806 20.1074 15.5806 18.6698C15.5806 17.2322 16.7433 16.0669 18.1774 16.0669C19.6116 16.0669 20.7742 17.2322 20.7742 18.6698Z" fill="white"/>
<path d="M36.3548 18.6698C36.3548 20.1074 35.1922 21.2727 33.7581 21.2727C32.3239 21.2727 31.1613 20.1074 31.1613 18.6698C31.1613 17.2322 32.3239 16.0669 33.7581 16.0669C35.1922 16.0669 36.3548 17.2322 36.3548 18.6698Z" fill="white"/>
<path d="M51.9355 18.6698C51.9355 20.1074 50.7729 21.2727 49.3387 21.2727C47.9045 21.2727 46.7419 20.1074 46.7419 18.6698C46.7419 17.2322 47.9045 16.0669 49.3387 16.0669C50.7729 16.0669 51.9355 17.2322 51.9355 18.6698Z" fill="white"/>
<path d="M67.5161 18.6698C67.5161 20.1074 66.3535 21.2727 64.9194 21.2727C63.4852 21.2727 62.3226 20.1074 62.3226 18.6698C62.3226 17.2322 63.4852 16.0669 64.9194 16.0669C66.3535 16.0669 67.5161 17.2322 67.5161 18.6698Z" fill="white"/>
<path d="M83.0968 18.6698C83.0968 20.1074 81.9342 21.2727 80.5 21.2727C79.0658 21.2727 77.9032 20.1074 77.9032 18.6698C77.9032 17.2322 79.0658 16.0669 80.5 16.0669C81.9342 16.0669 83.0968 17.2322 83.0968 18.6698Z" fill="white"/>
<path d="M98.6774 18.6698C98.6774 20.1074 97.5148 21.2727 96.0806 21.2727C94.6465 21.2727 93.4839 20.1074 93.4839 18.6698C93.4839 17.2322 94.6465 16.0669 96.0806 16.0669C97.5148 16.0669 98.6774 17.2322 98.6774 18.6698Z" fill="white"/>
<path d="M114.258 18.6698C114.258 20.1074 113.095 21.2727 111.661 21.2727C110.227 21.2727 109.065 20.1074 109.065 18.6698C109.065 17.2322 110.227 16.0669 111.661 16.0669C113.095 16.0669 114.258 17.2322 114.258 18.6698Z" fill="white"/>
<path d="M129.839 18.6698C129.839 20.1074 128.676 21.2727 127.242 21.2727C125.808 21.2727 124.645 20.1074 124.645 18.6698C124.645 17.2322 125.808 16.0669 127.242 16.0669C128.676 16.0669 129.839 17.2322 129.839 18.6698Z" fill="white"/>
<path d="M145.419 18.6698C145.419 20.1074 144.257 21.2727 142.823 21.2727C141.388 21.2727 140.226 20.1074 140.226 18.6698C140.226 17.2322 141.388 16.0669 142.823 16.0669C144.257 16.0669 145.419 17.2322 145.419 18.6698Z" fill="white"/>
<path d="M161 18.6698C161 20.1074 159.837 21.2727 158.403 21.2727C156.969 21.2727 155.806 20.1074 155.806 18.6698C155.806 17.2322 156.969 16.0669 158.403 16.0669C159.837 16.0669 161 17.2322 161 18.6698Z" fill="white"/>
<path d="M5.19355 34.2875C5.19355 35.725 4.03093 36.8904 2.59677 36.8904C1.16262 36.8904 0 35.725 0 34.2875C0 32.8499 1.16262 31.6845 2.59677 31.6845C4.03093 31.6845 5.19355 32.8499 5.19355 34.2875Z" fill="white"/>
<path d="M20.7742 34.2875C20.7742 35.725 19.6116 36.8904 18.1774 36.8904C16.7433 36.8904 15.5806 35.725 15.5806 34.2875C15.5806 32.8499 16.7433 31.6845 18.1774 31.6845C19.6116 31.6845 20.7742 32.8499 20.7742 34.2875Z" fill="white"/>
<path d="M36.3548 34.2875C36.3548 35.725 35.1922 36.8904 33.7581 36.8904C32.3239 36.8904 31.1613 35.725 31.1613 34.2875C31.1613 32.8499 32.3239 31.6845 33.7581 31.6845C35.1922 31.6845 36.3548 32.8499 36.3548 34.2875Z" fill="white"/>
<path d="M51.9355 34.2875C51.9355 35.725 50.7729 36.8904 49.3387 36.8904C47.9045 36.8904 46.7419 35.725 46.7419 34.2875C46.7419 32.8499 47.9045 31.6845 49.3387 31.6845C50.7729 31.6845 51.9355 32.8499 51.9355 34.2875Z" fill="white"/>
<path d="M67.5161 34.2875C67.5161 35.725 66.3535 36.8904 64.9194 36.8904C63.4852 36.8904 62.3226 35.725 62.3226 34.2875C62.3226 32.8499 63.4852 31.6845 64.9194 31.6845C66.3535 31.6845 67.5161 32.8499 67.5161 34.2875Z" fill="white"/>
<path d="M83.0968 34.2875C83.0968 35.725 81.9342 36.8904 80.5 36.8904C79.0658 36.8904 77.9032 35.725 77.9032 34.2875C77.9032 32.8499 79.0658 31.6845 80.5 31.6845C81.9342 31.6845 83.0968 32.8499 83.0968 34.2875Z" fill="white"/>
<path d="M98.6774 34.2875C98.6774 35.725 97.5148 36.8904 96.0806 36.8904C94.6465 36.8904 93.4839 35.725 93.4839 34.2875C93.4839 32.8499 94.6465 31.6845 96.0806 31.6845C97.5148 31.6845 98.6774 32.8499 98.6774 34.2875Z" fill="white"/>
<path d="M114.258 34.2875C114.258 35.725 113.095 36.8904 111.661 36.8904C110.227 36.8904 109.065 35.725 109.065 34.2875C109.065 32.8499 110.227 31.6845 111.661 31.6845C113.095 31.6845 114.258 32.8499 114.258 34.2875Z" fill="white"/>
<path d="M129.839 34.2875C129.839 35.725 128.676 36.8904 127.242 36.8904C125.808 36.8904 124.645 35.725 124.645 34.2875C124.645 32.8499 125.808 31.6845 127.242 31.6845C128.676 31.6845 129.839 32.8499 129.839 34.2875Z" fill="white"/>
<path d="M145.419 34.2875C145.419 35.725 144.257 36.8904 142.823 36.8904C141.388 36.8904 140.226 35.725 140.226 34.2875C140.226 32.8499 141.388 31.6845 142.823 31.6845C144.257 31.6845 145.419 32.8499 145.419 34.2875Z" fill="white"/>
<path d="M161 34.2875C161 35.725 159.837 36.8904 158.403 36.8904C156.969 36.8904 155.806 35.725 155.806 34.2875C155.806 32.8499 156.969 31.6845 158.403 31.6845C159.837 31.6845 161 32.8499 161 34.2875Z" fill="white"/>
<path d="M5.19355 49.9051C5.19355 51.3427 4.03093 52.508 2.59677 52.508C1.16262 52.508 0 51.3427 0 49.9051C0 48.4675 1.16262 47.3022 2.59677 47.3022C4.03093 47.3022 5.19355 48.4675 5.19355 49.9051Z" fill="white"/>
<path d="M20.7742 49.9051C20.7742 51.3427 19.6116 52.508 18.1774 52.508C16.7433 52.508 15.5806 51.3427 15.5806 49.9051C15.5806 48.4675 16.7433 47.3022 18.1774 47.3022C19.6116 47.3022 20.7742 48.4675 20.7742 49.9051Z" fill="white"/>
<path d="M36.3548 49.9051C36.3548 51.3427 35.1922 52.508 33.7581 52.508C32.3239 52.508 31.1613 51.3427 31.1613 49.9051C31.1613 48.4675 32.3239 47.3022 33.7581 47.3022C35.1922 47.3022 36.3548 48.4675 36.3548 49.9051Z" fill="white"/>
<path d="M51.9355 49.9051C51.9355 51.3427 50.7729 52.508 49.3387 52.508C47.9045 52.508 46.7419 51.3427 46.7419 49.9051C46.7419 48.4675 47.9045 47.3022 49.3387 47.3022C50.7729 47.3022 51.9355 48.4675 51.9355 49.9051Z" fill="white"/>
<path d="M67.5161 49.9051C67.5161 51.3427 66.3535 52.508 64.9194 52.508C63.4852 52.508 62.3226 51.3427 62.3226 49.9051C62.3226 48.4675 63.4852 47.3022 64.9194 47.3022C66.3535 47.3022 67.5161 48.4675 67.5161 49.9051Z" fill="white"/>
<path d="M83.0968 49.9051C83.0968 51.3427 81.9342 52.508 80.5 52.508C79.0658 52.508 77.9032 51.3427 77.9032 49.9051C77.9032 48.4675 79.0658 47.3022 80.5 47.3022C81.9342 47.3022 83.0968 48.4675 83.0968 49.9051Z" fill="white"/>
<path d="M98.6774 49.9051C98.6774 51.3427 97.5148 52.508 96.0806 52.508C94.6465 52.508 93.4839 51.3427 93.4839 49.9051C93.4839 48.4675 94.6465 47.3022 96.0806 47.3022C97.5148 47.3022 98.6774 48.4675 98.6774 49.9051Z" fill="white"/>
<path d="M114.258 49.9051C114.258 51.3427 113.095 52.508 111.661 52.508C110.227 52.508 109.065 51.3427 109.065 49.9051C109.065 48.4675 110.227 47.3022 111.661 47.3022C113.095 47.3022 114.258 48.4675 114.258 49.9051Z" fill="white"/>
<path d="M129.839 49.9051C129.839 51.3427 128.676 52.508 127.242 52.508C125.808 52.508 124.645 51.3427 124.645 49.9051C124.645 48.4675 125.808 47.3022 127.242 47.3022C128.676 47.3022 129.839 48.4675 129.839 49.9051Z" fill="white"/>
<path d="M145.419 49.9051C145.419 51.3427 144.257 52.508 142.823 52.508C141.388 52.508 140.226 51.3427 140.226 49.9051C140.226 48.4675 141.388 47.3022 142.823 47.3022C144.257 47.3022 145.419 48.4675 145.419 49.9051Z" fill="white"/>
<path d="M161 49.9051C161 51.3427 159.837 52.508 158.403 52.508C156.969 52.508 155.806 51.3427 155.806 49.9051C155.806 48.4675 156.969 47.3022 158.403 47.3022C159.837 47.3022 161 48.4675 161 49.9051Z" fill="white"/>
<path d="M5.19355 65.5227C5.19355 66.9603 4.03093 68.1257 2.59677 68.1257C1.16262 68.1257 0 66.9603 0 65.5227C0 64.0852 1.16262 62.9198 2.59677 62.9198C4.03093 62.9198 5.19355 64.0852 5.19355 65.5227Z" fill="white"/>
<path d="M20.7742 65.5227C20.7742 66.9603 19.6116 68.1257 18.1774 68.1257C16.7433 68.1257 15.5806 66.9603 15.5806 65.5227C15.5806 64.0852 16.7433 62.9198 18.1774 62.9198C19.6116 62.9198 20.7742 64.0852 20.7742 65.5227Z" fill="white"/>
<path d="M36.3548 65.5227C36.3548 66.9603 35.1922 68.1257 33.7581 68.1257C32.3239 68.1257 31.1613 66.9603 31.1613 65.5227C31.1613 64.0852 32.3239 62.9198 33.7581 62.9198C35.1922 62.9198 36.3548 64.0852 36.3548 65.5227Z" fill="white"/>
<path d="M51.9355 65.5227C51.9355 66.9603 50.7729 68.1257 49.3387 68.1257C47.9045 68.1257 46.7419 66.9603 46.7419 65.5227C46.7419 64.0852 47.9045 62.9198 49.3387 62.9198C50.7729 62.9198 51.9355 64.0852 51.9355 65.5227Z" fill="white"/>
<path d="M67.5161 65.5227C67.5161 66.9603 66.3535 68.1257 64.9194 68.1257C63.4852 68.1257 62.3226 66.9603 62.3226 65.5227C62.3226 64.0852 63.4852 62.9198 64.9194 62.9198C66.3535 62.9198 67.5161 64.0852 67.5161 65.5227Z" fill="white"/>
<path d="M83.0968 65.5227C83.0968 66.9603 81.9342 68.1257 80.5 68.1257C79.0658 68.1257 77.9032 66.9603 77.9032 65.5227C77.9032 64.0852 79.0658 62.9198 80.5 62.9198C81.9342 62.9198 83.0968 64.0852 83.0968 65.5227Z" fill="white"/>
<path d="M98.6774 65.5227C98.6774 66.9603 97.5148 68.1257 96.0806 68.1257C94.6465 68.1257 93.4839 66.9603 93.4839 65.5227C93.4839 64.0852 94.6465 62.9198 96.0806 62.9198C97.5148 62.9198 98.6774 64.0852 98.6774 65.5227Z" fill="white"/>
<path d="M114.258 65.5227C114.258 66.9603 113.095 68.1257 111.661 68.1257C110.227 68.1257 109.065 66.9603 109.065 65.5227C109.065 64.0852 110.227 62.9198 111.661 62.9198C113.095 62.9198 114.258 64.0852 114.258 65.5227Z" fill="white"/>
<path d="M129.839 65.5227C129.839 66.9603 128.676 68.1257 127.242 68.1257C125.808 68.1257 124.645 66.9603 124.645 65.5227C124.645 64.0852 125.808 62.9198 127.242 62.9198C128.676 62.9198 129.839 64.0852 129.839 65.5227Z" fill="white"/>
<path d="M145.419 65.5227C145.419 66.9603 144.257 68.1257 142.823 68.1257C141.388 68.1257 140.226 66.9603 140.226 65.5227C140.226 64.0852 141.388 62.9198 142.823 62.9198C144.257 62.9198 145.419 64.0852 145.419 65.5227Z" fill="white"/>
<path d="M161 65.5227C161 66.9603 159.837 68.1257 158.403 68.1257C156.969 68.1257 155.806 66.9603 155.806 65.5227C155.806 64.0852 156.969 62.9198 158.403 62.9198C159.837 62.9198 161 64.0852 161 65.5227Z" fill="white"/>
<path d="M5.19355 81.1404C5.19355 82.578 4.03093 83.7433 2.59677 83.7433C1.16262 83.7433 0 82.578 0 81.1404C0 79.7028 1.16262 78.5375 2.59677 78.5375C4.03093 78.5375 5.19355 79.7028 5.19355 81.1404Z" fill="white"/>
<path d="M20.7742 81.1404C20.7742 82.578 19.6116 83.7433 18.1774 83.7433C16.7433 83.7433 15.5806 82.578 15.5806 81.1404C15.5806 79.7028 16.7433 78.5375 18.1774 78.5375C19.6116 78.5375 20.7742 79.7028 20.7742 81.1404Z" fill="white"/>
<path d="M36.3548 81.1404C36.3548 82.578 35.1922 83.7433 33.7581 83.7433C32.3239 83.7433 31.1613 82.578 31.1613 81.1404C31.1613 79.7028 32.3239 78.5375 33.7581 78.5375C35.1922 78.5375 36.3548 79.7028 36.3548 81.1404Z" fill="white"/>
<path d="M51.9355 81.1404C51.9355 82.578 50.7729 83.7433 49.3387 83.7433C47.9045 83.7433 46.7419 82.578 46.7419 81.1404C46.7419 79.7028 47.9045 78.5375 49.3387 78.5375C50.7729 78.5375 51.9355 79.7028 51.9355 81.1404Z" fill="white"/>
<path d="M67.5161 81.1404C67.5161 82.578 66.3535 83.7433 64.9194 83.7433C63.4852 83.7433 62.3226 82.578 62.3226 81.1404C62.3226 79.7028 63.4852 78.5375 64.9194 78.5375C66.3535 78.5375 67.5161 79.7028 67.5161 81.1404Z" fill="white"/>
<path d="M83.0968 81.1404C83.0968 82.578 81.9342 83.7433 80.5 83.7433C79.0658 83.7433 77.9032 82.578 77.9032 81.1404C77.9032 79.7028 79.0658 78.5375 80.5 78.5375C81.9342 78.5375 83.0968 79.7028 83.0968 81.1404Z" fill="white"/>
<path d="M98.6774 81.1404C98.6774 82.578 97.5148 83.7433 96.0806 83.7433C94.6465 83.7433 93.4839 82.578 93.4839 81.1404C93.4839 79.7028 94.6465 78.5375 96.0806 78.5375C97.5148 78.5375 98.6774 79.7028 98.6774 81.1404Z" fill="white"/>
<path d="M114.258 81.1404C114.258 82.578 113.095 83.7433 111.661 83.7433C110.227 83.7433 109.065 82.578 109.065 81.1404C109.065 79.7028 110.227 78.5375 111.661 78.5375C113.095 78.5375 114.258 79.7028 114.258 81.1404Z" fill="white"/>
<path d="M129.839 81.1404C129.839 82.578 128.676 83.7433 127.242 83.7433C125.808 83.7433 124.645 82.578 124.645 81.1404C124.645 79.7028 125.808 78.5375 127.242 78.5375C128.676 78.5375 129.839 79.7028 129.839 81.1404Z" fill="white"/>
<path d="M145.419 81.1404C145.419 82.578 144.257 83.7433 142.823 83.7433C141.388 83.7433 140.226 82.578 140.226 81.1404C140.226 79.7028 141.388 78.5375 142.823 78.5375C144.257 78.5375 145.419 79.7028 145.419 81.1404Z" fill="white"/>
<path d="M161 81.1404C161 82.578 159.837 83.7433 158.403 83.7433C156.969 83.7433 155.806 82.578 155.806 81.1404C155.806 79.7028 156.969 78.5375 158.403 78.5375C159.837 78.5375 161 79.7028 161 81.1404Z" fill="white"/>
<path d="M5.19355 96.758C5.19355 98.1956 4.03093 99.361 2.59677 99.361C1.16262 99.361 0 98.1956 0 96.758C0 95.3205 1.16262 94.1551 2.59677 94.1551C4.03093 94.1551 5.19355 95.3205 5.19355 96.758Z" fill="white"/>
<path d="M20.7742 96.758C20.7742 98.1956 19.6116 99.361 18.1774 99.361C16.7433 99.361 15.5806 98.1956 15.5806 96.758C15.5806 95.3205 16.7433 94.1551 18.1774 94.1551C19.6116 94.1551 20.7742 95.3205 20.7742 96.758Z" fill="white"/>
<path d="M36.3548 96.758C36.3548 98.1956 35.1922 99.361 33.7581 99.361C32.3239 99.361 31.1613 98.1956 31.1613 96.758C31.1613 95.3205 32.3239 94.1551 33.7581 94.1551C35.1922 94.1551 36.3548 95.3205 36.3548 96.758Z" fill="white"/>
<path d="M51.9355 96.758C51.9355 98.1956 50.7729 99.361 49.3387 99.361C47.9045 99.361 46.7419 98.1956 46.7419 96.758C46.7419 95.3205 47.9045 94.1551 49.3387 94.1551C50.7729 94.1551 51.9355 95.3205 51.9355 96.758Z" fill="white"/>
<path d="M67.5161 96.758C67.5161 98.1956 66.3535 99.361 64.9194 99.361C63.4852 99.361 62.3226 98.1956 62.3226 96.758C62.3226 95.3205 63.4852 94.1551 64.9194 94.1551C66.3535 94.1551 67.5161 95.3205 67.5161 96.758Z" fill="white"/>
<path d="M83.0968 96.758C83.0968 98.1956 81.9342 99.361 80.5 99.361C79.0658 99.361 77.9032 98.1956 77.9032 96.758C77.9032 95.3205 79.0658 94.1551 80.5 94.1551C81.9342 94.1551 83.0968 95.3205 83.0968 96.758Z" fill="white"/>
<path d="M98.6774 96.758C98.6774 98.1956 97.5148 99.361 96.0806 99.361C94.6465 99.361 93.4839 98.1956 93.4839 96.758C93.4839 95.3205 94.6465 94.1551 96.0806 94.1551C97.5148 94.1551 98.6774 95.3205 98.6774 96.758Z" fill="white"/>
<path d="M114.258 96.758C114.258 98.1956 113.095 99.361 111.661 99.361C110.227 99.361 109.065 98.1956 109.065 96.758C109.065 95.3205 110.227 94.1551 111.661 94.1551C113.095 94.1551 114.258 95.3205 114.258 96.758Z" fill="white"/>
<path d="M129.839 96.758C129.839 98.1956 128.676 99.361 127.242 99.361C125.808 99.361 124.645 98.1956 124.645 96.758C124.645 95.3205 125.808 94.1551 127.242 94.1551C128.676 94.1551 129.839 95.3205 129.839 96.758Z" fill="white"/>
<path d="M145.419 96.758C145.419 98.1956 144.257 99.361 142.823 99.361C141.388 99.361 140.226 98.1956 140.226 96.758C140.226 95.3205 141.388 94.1551 142.823 94.1551C144.257 94.1551 145.419 95.3205 145.419 96.758Z" fill="white"/>
<path d="M161 96.758C161 98.1956 159.837 99.361 158.403 99.361C156.969 99.361 155.806 98.1956 155.806 96.758C155.806 95.3205 156.969 94.1551 158.403 94.1551C159.837 94.1551 161 95.3205 161 96.758Z" fill="white"/>
<path d="M5.19355 112.376C5.19355 113.813 4.03093 114.979 2.59677 114.979C1.16262 114.979 0 113.813 0 112.376C0 110.938 1.16262 109.773 2.59677 109.773C4.03093 109.773 5.19355 110.938 5.19355 112.376Z" fill="white"/>
<path d="M20.7742 112.376C20.7742 113.813 19.6116 114.979 18.1774 114.979C16.7433 114.979 15.5806 113.813 15.5806 112.376C15.5806 110.938 16.7433 109.773 18.1774 109.773C19.6116 109.773 20.7742 110.938 20.7742 112.376Z" fill="white"/>
<path d="M36.3548 112.376C36.3548 113.813 35.1922 114.979 33.7581 114.979C32.3239 114.979 31.1613 113.813 31.1613 112.376C31.1613 110.938 32.3239 109.773 33.7581 109.773C35.1922 109.773 36.3548 110.938 36.3548 112.376Z" fill="white"/>
<path d="M51.9355 112.376C51.9355 113.813 50.7729 114.979 49.3387 114.979C47.9045 114.979 46.7419 113.813 46.7419 112.376C46.7419 110.938 47.9045 109.773 49.3387 109.773C50.7729 109.773 51.9355 110.938 51.9355 112.376Z" fill="white"/>
<path d="M67.5161 112.376C67.5161 113.813 66.3535 114.979 64.9194 114.979C63.4852 114.979 62.3226 113.813 62.3226 112.376C62.3226 110.938 63.4852 109.773 64.9194 109.773C66.3535 109.773 67.5161 110.938 67.5161 112.376Z" fill="white"/>
<path d="M83.0968 112.376C83.0968 113.813 81.9342 114.979 80.5 114.979C79.0658 114.979 77.9032 113.813 77.9032 112.376C77.9032 110.938 79.0658 109.773 80.5 109.773C81.9342 109.773 83.0968 110.938 83.0968 112.376Z" fill="white"/>
<path d="M98.6774 112.376C98.6774 113.813 97.5148 114.979 96.0806 114.979C94.6465 114.979 93.4839 113.813 93.4839 112.376C93.4839 110.938 94.6465 109.773 96.0806 109.773C97.5148 109.773 98.6774 110.938 98.6774 112.376Z" fill="white"/>
<path d="M114.258 112.376C114.258 113.813 113.095 114.979 111.661 114.979C110.227 114.979 109.065 113.813 109.065 112.376C109.065 110.938 110.227 109.773 111.661 109.773C113.095 109.773 114.258 110.938 114.258 112.376Z" fill="white"/>
<path d="M129.839 112.376C129.839 113.813 128.676 114.979 127.242 114.979C125.808 114.979 124.645 113.813 124.645 112.376C124.645 110.938 125.808 109.773 127.242 109.773C128.676 109.773 129.839 110.938 129.839 112.376Z" fill="white"/>
<path d="M145.419 112.376C145.419 113.813 144.257 114.979 142.823 114.979C141.388 114.979 140.226 113.813 140.226 112.376C140.226 110.938 141.388 109.773 142.823 109.773C144.257 109.773 145.419 110.938 145.419 112.376Z" fill="white"/>
<path d="M161 112.376C161 113.813 159.837 114.979 158.403 114.979C156.969 114.979 155.806 113.813 155.806 112.376C155.806 110.938 156.969 109.773 158.403 109.773C159.837 109.773 161 110.938 161 112.376Z" fill="white"/>
<path d="M5.19355 127.993C5.19355 129.431 4.03093 130.596 2.59677 130.596C1.16262 130.596 0 129.431 0 127.993C0 126.556 1.16262 125.39 2.59677 125.39C4.03093 125.39 5.19355 126.556 5.19355 127.993Z" fill="white"/>
<path d="M20.7742 127.993C20.7742 129.431 19.6116 130.596 18.1774 130.596C16.7433 130.596 15.5806 129.431 15.5806 127.993C15.5806 126.556 16.7433 125.39 18.1774 125.39C19.6116 125.39 20.7742 126.556 20.7742 127.993Z" fill="white"/>
<path d="M36.3548 127.993C36.3548 129.431 35.1922 130.596 33.7581 130.596C32.3239 130.596 31.1613 129.431 31.1613 127.993C31.1613 126.556 32.3239 125.39 33.7581 125.39C35.1922 125.39 36.3548 126.556 36.3548 127.993Z" fill="white"/>
<path d="M51.9355 127.993C51.9355 129.431 50.7729 130.596 49.3387 130.596C47.9045 130.596 46.7419 129.431 46.7419 127.993C46.7419 126.556 47.9045 125.39 49.3387 125.39C50.7729 125.39 51.9355 126.556 51.9355 127.993Z" fill="white"/>
<path d="M67.5161 127.993C67.5161 129.431 66.3535 130.596 64.9194 130.596C63.4852 130.596 62.3226 129.431 62.3226 127.993C62.3226 126.556 63.4852 125.39 64.9194 125.39C66.3535 125.39 67.5161 126.556 67.5161 127.993Z" fill="white"/>
<path d="M83.0968 127.993C83.0968 129.431 81.9342 130.596 80.5 130.596C79.0658 130.596 77.9032 129.431 77.9032 127.993C77.9032 126.556 79.0658 125.39 80.5 125.39C81.9342 125.39 83.0968 126.556 83.0968 127.993Z" fill="white"/>
<path d="M98.6774 127.993C98.6774 129.431 97.5148 130.596 96.0806 130.596C94.6465 130.596 93.4839 129.431 93.4839 127.993C93.4839 126.556 94.6465 125.39 96.0806 125.39C97.5148 125.39 98.6774 126.556 98.6774 127.993Z" fill="white"/>
<path d="M114.258 127.993C114.258 129.431 113.095 130.596 111.661 130.596C110.227 130.596 109.065 129.431 109.065 127.993C109.065 126.556 110.227 125.39 111.661 125.39C113.095 125.39 114.258 126.556 114.258 127.993Z" fill="white"/>
<path d="M129.839 127.993C129.839 129.431 128.676 130.596 127.242 130.596C125.808 130.596 124.645 129.431 124.645 127.993C124.645 126.556 125.808 125.39 127.242 125.39C128.676 125.39 129.839 126.556 129.839 127.993Z" fill="white"/>
<path d="M145.419 127.993C145.419 129.431 144.257 130.596 142.823 130.596C141.388 130.596 140.226 129.431 140.226 127.993C140.226 126.556 141.388 125.39 142.823 125.39C144.257 125.39 145.419 126.556 145.419 127.993Z" fill="white"/>
<path d="M161 127.993C161 129.431 159.837 130.596 158.403 130.596C156.969 130.596 155.806 129.431 155.806 127.993C155.806 126.556 156.969 125.39 158.403 125.39C159.837 125.39 161 126.556 161 127.993Z" fill="white"/>
<path d="M5.19355 143.611C5.19355 145.049 4.03093 146.214 2.59677 146.214C1.16262 146.214 0 145.049 0 143.611C0 142.173 1.16262 141.008 2.59677 141.008C4.03093 141.008 5.19355 142.173 5.19355 143.611Z" fill="white"/>
<path d="M20.7742 143.611C20.7742 145.049 19.6116 146.214 18.1774 146.214C16.7433 146.214 15.5806 145.049 15.5806 143.611C15.5806 142.173 16.7433 141.008 18.1774 141.008C19.6116 141.008 20.7742 142.173 20.7742 143.611Z" fill="white"/>
<path d="M36.3548 143.611C36.3548 145.049 35.1922 146.214 33.7581 146.214C32.3239 146.214 31.1613 145.049 31.1613 143.611C31.1613 142.173 32.3239 141.008 33.7581 141.008C35.1922 141.008 36.3548 142.173 36.3548 143.611Z" fill="white"/>
<path d="M51.9355 143.611C51.9355 145.049 50.7729 146.214 49.3387 146.214C47.9045 146.214 46.7419 145.049 46.7419 143.611C46.7419 142.173 47.9045 141.008 49.3387 141.008C50.7729 141.008 51.9355 142.173 51.9355 143.611Z" fill="white"/>
<path d="M67.5161 143.611C67.5161 145.049 66.3535 146.214 64.9194 146.214C63.4852 146.214 62.3226 145.049 62.3226 143.611C62.3226 142.173 63.4852 141.008 64.9194 141.008C66.3535 141.008 67.5161 142.173 67.5161 143.611Z" fill="white"/>
<path d="M83.0968 143.611C83.0968 145.049 81.9342 146.214 80.5 146.214C79.0658 146.214 77.9032 145.049 77.9032 143.611C77.9032 142.173 79.0658 141.008 80.5 141.008C81.9342 141.008 83.0968 142.173 83.0968 143.611Z" fill="white"/>
<path d="M98.6774 143.611C98.6774 145.049 97.5148 146.214 96.0806 146.214C94.6465 146.214 93.4839 145.049 93.4839 143.611C93.4839 142.173 94.6465 141.008 96.0806 141.008C97.5148 141.008 98.6774 142.173 98.6774 143.611Z" fill="white"/>
<path d="M114.258 143.611C114.258 145.049 113.095 146.214 111.661 146.214C110.227 146.214 109.065 145.049 109.065 143.611C109.065 142.173 110.227 141.008 111.661 141.008C113.095 141.008 114.258 142.173 114.258 143.611Z" fill="white"/>
<path d="M129.839 143.611C129.839 145.049 128.676 146.214 127.242 146.214C125.808 146.214 124.645 145.049 124.645 143.611C124.645 142.173 125.808 141.008 127.242 141.008C128.676 141.008 129.839 142.173 129.839 143.611Z" fill="white"/>
<path d="M145.419 143.611C145.419 145.049 144.257 146.214 142.823 146.214C141.388 146.214 140.226 145.049 140.226 143.611C140.226 142.173 141.388 141.008 142.823 141.008C144.257 141.008 145.419 142.173 145.419 143.611Z" fill="white"/>
<path d="M161 143.611C161 145.049 159.837 146.214 158.403 146.214C156.969 146.214 155.806 145.049 155.806 143.611C155.806 142.173 156.969 141.008 158.403 141.008C159.837 141.008 161 142.173 161 143.611Z" fill="white"/>
<path d="M5.19355 159.229C5.19355 160.666 4.03093 161.832 2.59677 161.832C1.16262 161.832 0 160.666 0 159.229C0 157.791 1.16262 156.626 2.59677 156.626C4.03093 156.626 5.19355 157.791 5.19355 159.229Z" fill="white"/>
<path d="M20.7742 159.229C20.7742 160.666 19.6116 161.832 18.1774 161.832C16.7433 161.832 15.5806 160.666 15.5806 159.229C15.5806 157.791 16.7433 156.626 18.1774 156.626C19.6116 156.626 20.7742 157.791 20.7742 159.229Z" fill="white"/>
<path d="M36.3548 159.229C36.3548 160.666 35.1922 161.832 33.7581 161.832C32.3239 161.832 31.1613 160.666 31.1613 159.229C31.1613 157.791 32.3239 156.626 33.7581 156.626C35.1922 156.626 36.3548 157.791 36.3548 159.229Z" fill="white"/>
<path d="M51.9355 159.229C51.9355 160.666 50.7729 161.832 49.3387 161.832C47.9045 161.832 46.7419 160.666 46.7419 159.229C46.7419 157.791 47.9045 156.626 49.3387 156.626C50.7729 156.626 51.9355 157.791 51.9355 159.229Z" fill="white"/>
<path d="M67.5161 159.229C67.5161 160.666 66.3535 161.832 64.9194 161.832C63.4852 161.832 62.3226 160.666 62.3226 159.229C62.3226 157.791 63.4852 156.626 64.9194 156.626C66.3535 156.626 67.5161 157.791 67.5161 159.229Z" fill="white"/>
<path d="M83.0968 159.229C83.0968 160.666 81.9342 161.832 80.5 161.832C79.0658 161.832 77.9032 160.666 77.9032 159.229C77.9032 157.791 79.0658 156.626 80.5 156.626C81.9342 156.626 83.0968 157.791 83.0968 159.229Z" fill="white"/>
<path d="M98.6774 159.229C98.6774 160.666 97.5148 161.832 96.0806 161.832C94.6465 161.832 93.4839 160.666 93.4839 159.229C93.4839 157.791 94.6465 156.626 96.0806 156.626C97.5148 156.626 98.6774 157.791 98.6774 159.229Z" fill="white"/>
<path d="M114.258 159.229C114.258 160.666 113.095 161.832 111.661 161.832C110.227 161.832 109.065 160.666 109.065 159.229C109.065 157.791 110.227 156.626 111.661 156.626C113.095 156.626 114.258 157.791 114.258 159.229Z" fill="white"/>
<path d="M129.839 159.229C129.839 160.666 128.676 161.832 127.242 161.832C125.808 161.832 124.645 160.666 124.645 159.229C124.645 157.791 125.808 156.626 127.242 156.626C128.676 156.626 129.839 157.791 129.839 159.229Z" fill="white"/>
<path d="M145.419 159.229C145.419 160.666 144.257 161.832 142.823 161.832C141.388 161.832 140.226 160.666 140.226 159.229C140.226 157.791 141.388 156.626 142.823 156.626C144.257 156.626 145.419 157.791 145.419 159.229Z" fill="white"/>
<path d="M161 159.229C161 160.666 159.837 161.832 158.403 161.832C156.969 161.832 155.806 160.666 155.806 159.229C155.806 157.791 156.969 156.626 158.403 156.626C159.837 156.626 161 157.791 161 159.229Z" fill="white"/>
<path d="M5.19355 174.846C5.19355 176.284 4.03093 177.449 2.59677 177.449C1.16262 177.449 0 176.284 0 174.846C0 173.409 1.16262 172.243 2.59677 172.243C4.03093 172.243 5.19355 173.409 5.19355 174.846Z" fill="white"/>
<path d="M20.7742 174.846C20.7742 176.284 19.6116 177.449 18.1774 177.449C16.7433 177.449 15.5806 176.284 15.5806 174.846C15.5806 173.409 16.7433 172.243 18.1774 172.243C19.6116 172.243 20.7742 173.409 20.7742 174.846Z" fill="white"/>
<path d="M36.3548 174.846C36.3548 176.284 35.1922 177.449 33.7581 177.449C32.3239 177.449 31.1613 176.284 31.1613 174.846C31.1613 173.409 32.3239 172.243 33.7581 172.243C35.1922 172.243 36.3548 173.409 36.3548 174.846Z" fill="white"/>
<path d="M51.9355 174.846C51.9355 176.284 50.7729 177.449 49.3387 177.449C47.9045 177.449 46.7419 176.284 46.7419 174.846C46.7419 173.409 47.9045 172.243 49.3387 172.243C50.7729 172.243 51.9355 173.409 51.9355 174.846Z" fill="white"/>
<path d="M67.5161 174.846C67.5161 176.284 66.3535 177.449 64.9194 177.449C63.4852 177.449 62.3226 176.284 62.3226 174.846C62.3226 173.409 63.4852 172.243 64.9194 172.243C66.3535 172.243 67.5161 173.409 67.5161 174.846Z" fill="white"/>
<path d="M83.0968 174.846C83.0968 176.284 81.9342 177.449 80.5 177.449C79.0658 177.449 77.9032 176.284 77.9032 174.846C77.9032 173.409 79.0658 172.243 80.5 172.243C81.9342 172.243 83.0968 173.409 83.0968 174.846Z" fill="white"/>
<path d="M98.6774 174.846C98.6774 176.284 97.5148 177.449 96.0806 177.449C94.6465 177.449 93.4839 176.284 93.4839 174.846C93.4839 173.409 94.6465 172.243 96.0806 172.243C97.5148 172.243 98.6774 173.409 98.6774 174.846Z" fill="white"/>
<path d="M114.258 174.846C114.258 176.284 113.095 177.449 111.661 177.449C110.227 177.449 109.065 176.284 109.065 174.846C109.065 173.409 110.227 172.243 111.661 172.243C113.095 172.243 114.258 173.409 114.258 174.846Z" fill="white"/>
<path d="M129.839 174.846C129.839 176.284 128.676 177.449 127.242 177.449C125.808 177.449 124.645 176.284 124.645 174.846C124.645 173.409 125.808 172.243 127.242 172.243C128.676 172.243 129.839 173.409 129.839 174.846Z" fill="white"/>
<path d="M145.419 174.846C145.419 176.284 144.257 177.449 142.823 177.449C141.388 177.449 140.226 176.284 140.226 174.846C140.226 173.409 141.388 172.243 142.823 172.243C144.257 172.243 145.419 173.409 145.419 174.846Z" fill="white"/>
<path d="M161 174.846C161 176.284 159.837 177.449 158.403 177.449C156.969 177.449 155.806 176.284 155.806 174.846C155.806 173.409 156.969 172.243 158.403 172.243C159.837 172.243 161 173.409 161 174.846Z" fill="white"/>
</g>
</svg>
