<svg width="40" height="41" viewBox="0 0 40 41" fill="none" xmlns="http://www.w3.org/2000/svg">
<path opacity="0.12" d="M19.3527 4.14187C19.589 4.01057 19.7072 3.94492 19.8323 3.91918C19.9431 3.8964 20.0573 3.8964 20.1681 3.91918C20.2932 3.94492 20.4114 4.01057 20.6477 4.14187L32.9022 10.9499C33.5872 11.3305 33.9297 11.5207 34.0433 11.7715C34.1424 11.9901 34.1424 12.2408 34.0433 12.4594C33.9297 12.7102 33.5872 12.9005 32.9022 13.281L20.0002 20.4488L7.09819 13.281C6.41323 12.9005 6.07076 12.7102 5.95711 12.4594C5.85805 12.2408 5.85805 11.9901 5.95711 11.7715C6.07076 11.5207 6.41323 11.3305 7.09819 10.9499L19.3527 4.14187Z" fill="#E04F16"/>
<path d="M34.1666 12.5788L19.9999 20.4491M19.9999 20.4491L5.83328 12.5788M19.9999 20.4491L20 36.2825M23.3333 35.264L21.2951 36.3964C20.8224 36.659 20.586 36.7903 20.3358 36.8418C20.1142 36.8873 19.8858 36.8873 19.6643 36.8418C19.414 36.7903 19.1776 36.659 18.705 36.3964L6.37162 29.5445C5.87243 29.2672 5.62281 29.1285 5.44106 28.9313C5.28026 28.7568 5.15858 28.55 5.08414 28.3247C5 28.0701 5 27.7845 5 27.2135V13.6849C5 13.1139 5 12.8283 5.08414 12.5737C5.15858 12.3484 5.28026 12.1416 5.44106 11.9671C5.62281 11.7699 5.87242 11.6312 6.37162 11.3539L18.705 4.502C19.1776 4.23941 19.414 4.10811 19.6643 4.05663C19.8858 4.01107 20.1142 4.01107 20.3358 4.05663C20.586 4.10811 20.8224 4.2394 21.2951 4.502L33.6284 11.3539C34.1276 11.6312 34.3772 11.7699 34.5589 11.9671C34.7197 12.1416 34.8414 12.3484 34.9159 12.5737C35 12.8283 35 13.1139 35 13.6849L35 21.2825M12.5 7.9492L27.5 16.2825M31.6667 35.4492V25.4492M26.6667 30.4492H36.6667" stroke="#E04F16" stroke-width="2.5" stroke-linecap="round" stroke-linejoin="round"/>
</svg>
