<svg width="40" height="41" viewBox="0 0 40 41" fill="none" xmlns="http://www.w3.org/2000/svg">
<path opacity="0.12" d="M35.3333 20.4492C35.7964 20.4492 36.028 20.4492 36.2134 20.3491C36.3682 20.2654 36.5089 20.113 36.5798 19.952C36.6648 19.7592 36.6477 19.5452 36.6134 19.1172C36.4745 17.3848 36.0652 15.6819 35.398 14.0711C34.5604 12.049 33.3328 10.2117 31.7851 8.66406C30.2375 7.11642 28.4002 5.88876 26.3781 5.05118C24.7673 4.38398 23.0644 3.97471 21.3319 3.83581C20.9039 3.8015 20.6899 3.78434 20.4972 3.86933C20.3361 3.94032 20.1838 4.08097 20.1001 4.23581C20 4.42117 20 4.65273 20 5.11584V19.1158C20 19.5826 20 19.8159 20.0908 19.9942C20.1707 20.151 20.2982 20.2785 20.455 20.3583C20.6333 20.4492 20.8666 20.4492 21.3333 20.4492H35.3333Z" fill="#E04F16"/>
<path d="M35.3499 26.9325C34.2896 29.44 32.6312 31.6495 30.5197 33.368C28.4081 35.0865 25.9078 36.2615 23.2373 36.7905C20.5667 37.3194 17.8072 37.1861 15.2001 36.4022C12.593 35.6183 10.2176 34.2076 8.28156 32.2936C6.34555 30.3796 4.90788 28.0204 4.09425 25.4224C3.28062 22.8244 3.11579 20.0666 3.61419 17.3902C4.11258 14.7138 5.25902 12.2002 6.95327 10.0692C8.64752 7.93822 10.838 6.2547 13.3332 5.16584M35.3979 14.0711C36.0651 15.6819 36.4743 17.3848 36.6132 19.1172C36.6475 19.5452 36.6647 19.7592 36.5797 19.952C36.5087 20.113 36.3681 20.2654 36.2132 20.3491C36.0279 20.4492 35.7963 20.4492 35.3332 20.4492H21.3332C20.8665 20.4492 20.6331 20.4492 20.4549 20.3583C20.2981 20.2784 20.1706 20.151 20.0907 19.9942C19.9999 19.8159 19.9999 19.5825 19.9999 19.1158V5.11584C19.9999 4.65273 19.9999 4.42117 20.1 4.23581C20.1836 4.08097 20.336 3.94032 20.497 3.86933C20.6898 3.78434 20.9038 3.8015 21.3318 3.83581C23.0643 3.97471 24.7671 4.38398 26.3779 5.05118C28.4 5.88876 30.2373 7.11642 31.785 8.66406C33.3326 10.2117 34.5603 12.049 35.3979 14.0711Z" stroke="#E04F16" stroke-width="2.5" stroke-linecap="round" stroke-linejoin="round"/>
</svg>
