<svg width="21" height="21" viewBox="0 0 21 21" fill="none" xmlns="http://www.w3.org/2000/svg">
<path d="M17.8261 10.9554C18.0296 10.781 18.1313 10.6938 18.1686 10.5901C18.2013 10.499 18.2013 10.3994 18.1686 10.3084C18.1313 10.2046 18.0296 10.1174 17.8261 9.94305L10.7672 3.89253C10.417 3.59236 10.2419 3.44228 10.0937 3.4386C9.96483 3.43541 9.84177 3.49201 9.76035 3.59191C9.66667 3.70686 9.66667 3.93747 9.66667 4.3987V7.97808C7.88777 8.28929 6.25966 9.19068 5.04976 10.5441C3.73069 12.0196 3.00103 13.9292 3 15.9084V16.4184C3.87445 15.3649 4.96626 14.513 6.20063 13.9208C7.28891 13.3987 8.46535 13.0895 9.66667 13.008V16.4997C9.66667 16.961 9.66667 17.1916 9.76035 17.3065C9.84177 17.4064 9.96483 17.463 10.0937 17.4598C10.2419 17.4562 10.417 17.3061 10.7672 17.0059L17.8261 10.9554Z" stroke="#101828" stroke-width="1.5" stroke-linecap="round" stroke-linejoin="round"/>
</svg>
