<svg width="170" height="50" viewBox="0 0 170 50" fill="none" xmlns="http://www.w3.org/2000/svg">
<g clip-path="url(#clip0_2_63087)">
<path d="M37.6629 49.4151C38.7405 49.368 39.7634 48.9276 40.5382 48.1771C41.313 47.4267 41.7859 46.4184 41.8674 45.3428V45.0738L43.4316 13.4304C43.4316 13.4304 43.4316 13.3985 43.4316 13.3802C43.4316 13.1383 43.3355 12.9063 43.1644 12.7353C42.9934 12.5643 42.7614 12.4682 42.5195 12.4682H32.4323C32.1861 5.92881 27.4845 0.711914 21.7249 0.711914C15.9653 0.711914 11.2638 5.92425 11.0175 12.4682H0.912045C0.670155 12.4682 0.438173 12.5643 0.267131 12.7353C0.0960895 12.9063 0 13.1383 0 13.3802C0 13.4045 0 13.4289 0 13.4532L1.4319 44.9734V45.3702C1.65079 47.5636 3.256 49.3284 5.43123 49.4105H37.6355L37.6629 49.4151ZM21.7249 3.55749C25.9249 3.55749 29.345 7.51577 29.5046 12.4682H13.9452C14.1048 7.49753 17.5249 3.55749 21.7249 3.55749Z" fill="#EE4E2C"/>
<path d="M65.0557 24.1725C62.2602 23.2819 60.9982 22.1078 60.9942 20.4944C61.0741 18.7013 62.7474 17.3514 65.0278 17.2676C66.8392 17.2542 68.6139 17.7781 70.1276 18.7732C70.1893 18.8302 70.2636 18.8721 70.3444 18.8954C70.4252 18.9186 70.5104 18.9227 70.5931 18.9071C70.6757 18.8916 70.7536 18.857 70.8205 18.806C70.8874 18.755 70.9414 18.689 70.9782 18.6134C71.0022 18.5695 71.09 18.4457 71.3776 18.0264C71.6531 17.627 71.7769 17.4792 71.7769 17.4273C71.9766 17.0519 71.9766 16.8522 71.5653 16.5647C70.9647 16.1852 70.3327 15.8579 69.6763 15.5863C68.1632 14.9761 66.5433 14.6746 64.912 14.6997C61.2538 14.7796 58.3904 17.1517 58.2027 20.2907C58.0829 22.5471 59.2371 24.3602 61.6252 25.694C63.0024 26.3124 64.4161 26.8459 65.8584 27.2915C69.0533 28.222 70.6787 29.9153 70.3432 31.8881C70.0357 33.6852 68.1388 34.8953 65.4431 34.9751C63.3915 34.9009 61.4144 34.1874 59.7882 32.9344L59.6564 32.8346L59.5246 32.7347C59.1492 32.4752 58.8776 32.4751 58.6181 32.8665L58.1947 33.5095L57.7954 34.1205C57.5757 34.448 57.6117 34.6237 57.9352 34.8953C58.6123 35.4405 59.3413 35.918 60.1117 36.321C61.7846 37.1337 63.6153 37.57 65.475 37.5989C66.8259 37.6388 68.1693 37.3854 69.4127 36.8561C70.4176 36.4332 71.2892 35.7462 71.9354 34.868C72.5815 33.9899 72.978 32.9533 73.0828 31.8681C73.4742 28.2419 71.098 25.9616 65.0557 24.1725Z" fill="#101828"/>
<path d="M82.0049 23.2667C80.5528 23.2672 79.1391 23.7333 77.9714 24.5965V15.2196C77.9714 14.8522 77.8277 14.7124 77.4642 14.7124H75.767C75.3676 14.7124 75.2598 14.8482 75.2598 15.2196V37.0166C75.2598 37.376 75.3636 37.5238 75.767 37.5238H77.4642C77.8356 37.5238 77.9714 37.368 77.9714 37.0166V29.896C77.9714 27.4639 79.7885 25.9344 82.0049 25.9344C84.2214 25.9344 86.0385 27.4639 86.0385 29.928V37.0326C86.0385 37.4319 86.1383 37.5398 86.5457 37.5398H88.2389C88.6383 37.5398 88.7461 37.4439 88.7461 37.0326V29.8921C88.7199 28.123 87.9975 26.4355 86.7357 25.1954C85.4739 23.9552 83.7742 23.2623 82.0049 23.2667Z" fill="#101828"/>
<path d="M98.2031 23.2806C96.7949 23.3089 95.4265 23.7524 94.2693 24.5553C93.1121 25.3583 92.2178 26.485 91.6984 27.7942C91.179 29.1034 91.0577 30.5368 91.3497 31.9146C91.6417 33.2924 92.334 34.5534 93.3398 35.5394C94.3456 36.5253 95.6201 37.1924 97.0035 37.4569C98.3869 37.7215 99.8176 37.5717 101.116 37.0264C102.415 36.481 103.523 35.5644 104.303 34.3915C105.083 33.2186 105.499 31.8416 105.499 30.4332C105.49 29.4844 105.294 28.5468 104.922 27.6739C104.55 26.801 104.01 26.0099 103.333 25.3457C102.655 24.6815 101.853 24.1573 100.973 23.803C100.093 23.4486 99.1518 23.2711 98.2031 23.2806ZM98.2031 34.9539C97.3125 34.935 96.4473 34.6537 95.7159 34.1452C94.9845 33.6367 94.4196 32.9236 94.0917 32.0953C93.7639 31.267 93.6879 30.3605 93.8731 29.4891C94.0584 28.6178 94.4967 27.8206 95.1332 27.1973C95.7696 26.5741 96.5759 26.1526 97.4509 25.9856C98.3259 25.8187 99.2307 25.9137 100.052 26.2588C100.873 26.6039 101.574 27.1837 102.067 27.9256C102.56 28.6675 102.823 29.5384 102.824 30.4292C102.817 31.0297 102.693 31.623 102.457 32.1754C102.222 32.7278 101.88 33.2284 101.451 33.6486C101.021 34.0687 100.514 34.4003 99.9566 34.6242C99.3994 34.8482 98.8036 34.9602 98.2031 34.9539Z" fill="#101828"/>
<path d="M153.374 31.3974H153.41C153.628 31.3841 153.832 31.2875 153.981 31.1277C154.13 30.9679 154.211 30.757 154.209 30.5388C154.209 30.5188 154.209 30.4988 154.209 30.4788C154.209 30.4589 154.209 30.4549 154.209 30.4269C154.209 26.4773 151.114 23.2744 147.292 23.2744C143.47 23.2744 140.375 26.4693 140.375 30.4269C140.375 30.7205 140.392 31.0139 140.427 31.3055V31.3974C140.612 32.8073 141.224 34.1269 142.18 35.1793C143.264 36.3614 144.704 37.1566 146.282 37.4437L146.405 37.4676L146.593 37.4956C148.481 37.7706 150.409 37.4758 152.128 36.6489C152.494 36.4661 152.843 36.251 153.17 36.006C153.274 35.9301 153.362 35.8582 153.434 35.7943L153.526 35.7104C153.925 35.3111 153.925 35.1394 153.698 34.7799C153.162 33.9253 152.863 33.51 152.863 33.51C152.651 33.2464 152.464 33.1865 152.196 33.4261C152.148 33.466 152.104 33.494 152.084 33.518C151.332 34.1546 150.44 34.6052 149.481 34.8334C148.523 35.0617 147.524 35.0612 146.565 34.8319C146.203 34.7312 145.852 34.5975 145.515 34.4325C144.909 34.1389 144.379 33.7112 143.964 33.1818C143.548 32.6524 143.259 32.0353 143.119 31.3774H153.374V31.3974ZM143.286 28.7576C143.553 27.9111 144.085 27.1732 144.805 26.6537C145.525 26.1342 146.393 25.8608 147.28 25.8742C148.173 25.8871 149.041 26.1693 149.77 26.6838C150.5 27.1982 151.057 27.9211 151.369 28.7576H143.286Z" fill="#101828"/>
<path d="M114.916 23.245C113.265 23.2378 111.662 23.8022 110.379 24.8424V23.7362C110.379 23.3368 110.276 23.229 109.872 23.229H108.275C107.875 23.229 107.768 23.3408 107.768 23.7362V44.3311C107.768 44.7065 107.871 44.8383 108.275 44.8383H109.872C110.272 44.8383 110.379 44.7065 110.379 44.3311V35.9446C111.267 36.674 112.316 37.1793 113.44 37.4178C114.563 37.6564 115.728 37.6212 116.835 37.3152C117.942 37.0091 118.959 36.4413 119.8 35.6596C120.642 34.8779 121.283 33.9052 121.67 32.8237C122.056 31.7422 122.177 30.5835 122.022 29.4455C121.866 28.3075 121.44 27.2235 120.777 26.2851C120.115 25.3467 119.237 24.5813 118.217 24.0536C117.197 23.5258 116.065 23.2512 114.916 23.253V23.245ZM114.916 34.9182C113.737 34.9198 112.604 34.462 111.757 33.6418C110.91 32.8217 110.416 31.7038 110.379 30.5253V30.2937C110.401 29.4013 110.685 28.535 111.196 27.8033C111.707 27.0715 112.423 26.5069 113.253 26.18C114.084 25.8531 114.993 25.7785 115.865 25.9655C116.738 26.1525 117.536 26.5929 118.16 27.2314C118.784 27.87 119.205 28.6784 119.372 29.5553C119.538 30.4323 119.442 31.3389 119.096 32.1616C118.75 32.9843 118.169 33.6866 117.425 34.1805C116.681 34.6744 115.809 34.938 114.916 34.9382V34.9182Z" fill="#101828"/>
<path d="M138.191 30.423C138.191 26.4734 135.096 23.2705 131.274 23.2705C127.452 23.2705 124.357 26.4654 124.357 30.423C124.358 30.7166 124.375 31.01 124.409 31.3016V31.3935C124.594 32.8034 125.206 34.123 126.163 35.1754C127.246 36.3575 128.686 37.1527 130.264 37.4398L130.388 37.4637L130.575 37.4917C132.474 37.7745 134.413 37.4809 136.143 36.649C136.508 36.4662 136.857 36.2511 137.185 36.0061C137.289 35.9302 137.377 35.8583 137.448 35.7944L137.54 35.7105C137.94 35.3112 137.94 35.1395 137.712 34.78C137.177 33.9254 136.877 33.5101 136.877 33.5101C136.666 33.2465 136.478 33.1866 136.21 33.4262C136.162 33.4661 136.119 33.4941 136.099 33.518C135.343 34.1596 134.447 34.6135 133.483 34.8426C132.519 35.0716 131.515 35.0693 130.551 34.8359C130.19 34.7353 129.838 34.6016 129.501 34.4366C128.896 34.143 128.365 33.7153 127.95 33.1859C127.535 32.6565 127.246 32.0394 127.105 31.3815H137.396C137.614 31.3682 137.819 31.2716 137.967 31.1118C138.116 30.952 138.198 30.7411 138.195 30.5229C138.195 30.5029 138.195 30.4829 138.195 30.463C138.195 30.443 138.191 30.455 138.191 30.423ZM127.269 28.7577C127.535 27.9112 128.068 27.1733 128.787 26.6538C129.507 26.1343 130.375 25.8609 131.262 25.8743C132.154 25.8888 133.02 26.1717 133.748 26.6861C134.476 27.2004 135.032 27.9224 135.344 28.7577H127.269Z" fill="#101828"/>
<path d="M29.7285 37.1891C29.5995 38.3293 29.1642 39.4134 28.469 40.3262C27.7737 41.2391 26.8443 41.9467 25.7793 42.3741C24.4435 42.9164 23.0058 43.1622 21.5657 43.0946C19.5669 43.0277 17.6071 42.5233 15.8243 41.6171C15.0074 41.1688 14.2361 40.6419 13.5214 40.0438C13.3573 39.907 13.2752 39.7884 13.4302 39.5878C13.5853 39.3871 14.2556 38.3839 14.3423 38.2197C14.3721 38.1722 14.4124 38.1321 14.4601 38.1025C14.5078 38.0729 14.5616 38.0545 14.6174 38.0488C14.6732 38.0431 14.7296 38.0502 14.7823 38.0695C14.835 38.0889 14.8826 38.12 14.9214 38.1604L15.2087 38.3793C17.0223 39.8278 19.2434 40.6728 21.5611 40.7962C24.6438 40.7552 26.8829 39.3826 27.2796 37.253C27.7356 34.909 25.8477 32.8979 22.2634 31.7807C20.7101 31.2592 19.1876 30.6502 17.7032 29.9566C15.195 28.4943 14.0246 26.5805 14.1918 24.2153C14.4472 20.9456 17.4979 18.4922 21.3741 18.4785C23.1305 18.4798 24.8688 18.8333 26.4861 19.5182C27.1796 19.8218 27.8462 20.1834 28.479 20.599C28.5278 20.6251 28.5705 20.6613 28.6044 20.7051C28.6382 20.749 28.6624 20.7995 28.6754 20.8533C28.6883 20.9072 28.6896 20.9631 28.6794 21.0176C28.6691 21.072 28.6474 21.1236 28.6158 21.169C28.4607 21.4244 28.0093 22.1313 27.8223 22.4277C27.69 22.6283 27.5213 22.6511 27.2887 22.5052C25.5558 21.3409 23.521 20.7071 21.4334 20.6811C18.7885 20.7313 16.7911 22.2954 16.6589 24.4387C16.6224 26.3723 18.1045 27.7768 21.2465 28.8485C27.7357 30.9188 30.2073 33.3722 29.7285 37.1891Z" fill="white"/>
</g>
<defs>
<clipPath id="clip0_2_63087">
<rect width="170" height="49" fill="white" transform="translate(0 0.698242)"/>
</clipPath>
</defs>
</svg>
