<svg width="20" height="21" viewBox="0 0 20 21" fill="none" xmlns="http://www.w3.org/2000/svg">
<g clip-path="url(#clip0_2_63359)">
<path d="M9.53834 1.75791C9.70914 1.34727 10.2909 1.34727 10.4617 1.75791L12.5278 6.72539C12.5998 6.89851 12.7626 7.01679 12.9495 7.03178L18.3123 7.46171C18.7556 7.49725 18.9354 8.05051 18.5976 8.33984L14.5117 11.8398C14.3693 11.9618 14.3071 12.1532 14.3506 12.3356L15.5989 17.5688C15.7021 18.0014 15.2315 18.3433 14.8519 18.1115L10.2606 15.3071C10.1006 15.2094 9.89938 15.2094 9.73937 15.3071L5.14806 18.1115C4.76851 18.3433 4.29788 18.0014 4.40108 17.5688L5.64939 12.3356C5.69289 12.1532 5.6307 11.9618 5.48831 11.8398L1.40241 8.33984C1.06464 8.05051 1.24441 7.49725 1.68773 7.46171L7.05054 7.03178C7.23744 7.01679 7.40024 6.89851 7.47225 6.72539L9.53834 1.75791Z" fill="#F2F4F7"/>
<g clip-path="url(#clip1_2_63359)">
<path d="M10 0.647949L12.645 7.00737L19.5106 7.55778L14.2798 12.0385L15.8779 18.7381L10 15.1479L4.12215 18.7381L5.72025 12.0385L0.489435 7.55778L7.35497 7.00737L10 0.647949Z" fill="#EF6820"/>
</g>
</g>
<defs>
<clipPath id="clip0_2_63359">
<rect width="20" height="20" fill="white" transform="translate(0 0.147949)"/>
</clipPath>
<clipPath id="clip1_2_63359">
<rect width="20" height="20" fill="white" transform="translate(0 0.147949)"/>
</clipPath>
</defs>
</svg>
