<svg width="40" height="41" viewBox="0 0 40 41" fill="none" xmlns="http://www.w3.org/2000/svg">
<path opacity="0.12" d="M5.7441 16.6726C6.14494 16.6441 6.54965 16.6296 6.95775 16.6296C16.2703 16.6296 23.8196 24.179 23.8196 33.4915C23.8196 33.8996 23.8051 34.3043 23.7766 34.7052C23.7268 35.4055 23.7019 35.7557 23.4978 35.9719C23.332 36.1476 23.0491 36.2532 22.8087 36.2291C22.5128 36.1994 22.2437 35.9303 21.7055 35.3921L5.05717 18.7438C4.51895 18.2056 4.24984 17.9365 4.2202 17.6406C4.19612 17.4002 4.30171 17.1173 4.47736 16.9515C4.69362 16.7474 5.04378 16.7225 5.7441 16.6726Z" fill="#E04F16"/>
<path d="M36.6674 20.6444C36.6674 11.3318 29.118 3.78247 19.8055 3.78247C12.2471 3.78247 5.85027 8.75555 3.70853 15.6081C3.57133 16.0471 3.50274 16.2666 3.50921 16.541C3.51447 16.7642 3.5823 17.0399 3.68119 17.24C3.8028 17.4862 3.99057 17.6739 4.3661 18.0494L22.4011 36.0836C22.7766 36.4591 22.9644 36.6469 23.2105 36.7685C23.4107 36.8674 23.6864 36.9352 23.9095 36.9405C24.184 36.9469 24.4035 36.8783 24.8424 36.7411C31.6946 34.5991 36.6674 28.2025 36.6674 20.6444Z" stroke="#E04F16" stroke-width="2.5" stroke-linecap="round" stroke-linejoin="round"/>
<path d="M5.74434 16.6726C6.14518 16.6441 6.54989 16.6296 6.95799 16.6296C16.2706 16.6296 23.8199 24.179 23.8199 33.4915C23.8199 33.8996 23.8054 34.3043 23.7769 34.7052C23.7271 35.4055 23.7022 35.7557 23.498 35.9719C23.3322 36.1476 23.0493 36.2532 22.809 36.2291C22.5131 36.1994 22.2439 35.9303 21.7057 35.3921L5.05741 18.7438C4.51919 18.2056 4.25008 17.9365 4.22043 17.6405C4.19636 17.4002 4.30195 17.1173 4.4776 16.9515C4.69386 16.7473 5.04402 16.7224 5.74434 16.6726Z" stroke="#E04F16" stroke-width="2.5" stroke-linecap="round" stroke-linejoin="round"/>
</svg>
