<svg width="40" height="41" viewBox="0 0 40 41" fill="none" xmlns="http://www.w3.org/2000/svg">
<path opacity="0.12" d="M15.8337 18.7826C19.5156 18.7826 22.5003 15.7978 22.5003 12.1159C22.5003 8.43399 19.5156 5.44922 15.8337 5.44922C12.1518 5.44922 9.16699 8.43399 9.16699 12.1159C9.16699 15.7978 12.1518 18.7826 15.8337 18.7826Z" fill="#E04F16"/>
<path d="M36.6663 35.4492V32.1159C36.6663 29.0095 34.5417 26.3993 31.6663 25.6592M25.833 5.93382C28.2762 6.9228 29.9997 9.31807 29.9997 12.1159C29.9997 14.9137 28.2762 17.309 25.833 18.298M28.333 35.4492C28.333 32.3429 28.333 30.7898 27.8255 29.5647C27.1489 27.9311 25.8511 26.6333 24.2176 25.9567C22.9924 25.4492 21.4393 25.4492 18.333 25.4492H13.333C10.2267 25.4492 8.67359 25.4492 7.44845 25.9567C5.81493 26.6333 4.5171 27.9311 3.84048 29.5647C3.33301 30.7898 3.33301 32.3429 3.33301 35.4492M22.4997 12.1159C22.4997 15.7978 19.5149 18.7826 15.833 18.7826C12.1511 18.7826 9.16634 15.7978 9.16634 12.1159C9.16634 8.43399 12.1511 5.44922 15.833 5.44922C19.5149 5.44922 22.4997 8.43399 22.4997 12.1159Z" stroke="#E04F16" stroke-width="2.5" stroke-linecap="round" stroke-linejoin="round"/>
</svg>
