<svg width="36" height="37" viewBox="0 0 36 37" fill="none" xmlns="http://www.w3.org/2000/svg">
<g clip-path="url(#clip0_2_62491)">
<path d="M18 1.94922V10.9492C17.9978 12.6775 17.3999 14.3522 16.3069 15.6911C15.214 17.0299 13.6929 17.9511 12 18.2992V34.9492C12 35.347 11.842 35.7286 11.5607 36.0099C11.2794 36.2912 10.8978 36.4492 10.5 36.4492C10.1022 36.4492 9.72064 36.2912 9.43934 36.0099C9.15804 35.7286 9 35.347 9 34.9492V18.2992C7.30712 17.9511 5.78602 17.0299 4.69308 15.6911C3.60014 14.3522 3.00218 12.6775 3 10.9492V1.94922C3 1.55139 3.15804 1.16986 3.43934 0.888559C3.72064 0.607254 4.10218 0.449219 4.5 0.449219C4.89782 0.449219 5.27936 0.607254 5.56066 0.888559C5.84196 1.16986 6 1.55139 6 1.94922V10.9492C6.00384 11.8766 6.29413 12.7802 6.83113 13.5363C7.36814 14.2924 8.12564 14.8641 9 15.1732V1.94922C9 1.55139 9.15804 1.16986 9.43934 0.888559C9.72064 0.607254 10.1022 0.449219 10.5 0.449219C10.8978 0.449219 11.2794 0.607254 11.5607 0.888559C11.842 1.16986 12 1.55139 12 1.94922V15.1732C12.8744 14.8641 13.6319 14.2924 14.1689 13.5363C14.7059 12.7802 14.9962 11.8766 15 10.9492V1.94922C15 1.55139 15.158 1.16986 15.4393 0.888559C15.7206 0.607254 16.1022 0.449219 16.5 0.449219C16.8978 0.449219 17.2794 0.607254 17.5607 0.888559C17.842 1.16986 18 1.55139 18 1.94922ZM33 15.4492C32.9329 18.2999 32.2237 21.0987 30.9252 23.6373C29.6266 26.176 27.7722 28.389 25.5 30.1117V34.9492C25.5 35.347 25.342 35.7286 25.0607 36.0099C24.7794 36.2912 24.3978 36.4492 24 36.4492C23.6022 36.4492 23.2206 36.2912 22.9393 36.0099C22.658 35.7286 22.5 35.347 22.5 34.9492V3.44922C22.4865 2.88561 22.6406 2.33068 22.9425 1.85461C23.2445 1.37855 23.6809 1.00274 24.1965 0.774719C24.7888 0.533767 25.4384 0.470564 26.066 0.592835C26.6936 0.715106 27.272 1.01755 27.7305 1.46322C31.2095 5.28065 33.0951 10.2852 33 15.4492ZM30 15.4492C30.0425 11.0574 28.4369 6.80934 25.5 3.54372V26.0542C28.3111 23.2316 29.9233 19.4322 30 15.4492Z" fill="#E04F16"/>
</g>
<defs>
<clipPath id="clip0_2_62491">
<rect width="36" height="36" fill="white" transform="translate(0 0.449219)"/>
</clipPath>
</defs>
</svg>
