<svg width="44" height="50" viewBox="0 0 44 50" fill="none" xmlns="http://www.w3.org/2000/svg">
<path d="M37.6629 49.4151C38.7405 49.368 39.7634 48.9276 40.5382 48.1771C41.313 47.4267 41.7859 46.4184 41.8674 45.3428V45.0738L43.4316 13.4304C43.4316 13.4304 43.4316 13.3985 43.4316 13.3802C43.4316 13.1383 43.3355 12.9063 43.1644 12.7353C42.9934 12.5643 42.7614 12.4682 42.5195 12.4682H32.4323C32.1861 5.92881 27.4845 0.711914 21.7249 0.711914C15.9653 0.711914 11.2638 5.92425 11.0175 12.4682H0.912045C0.670155 12.4682 0.438173 12.5643 0.267131 12.7353C0.0960895 12.9063 0 13.1383 0 13.3802C0 13.4045 0 13.4289 0 13.4532L1.4319 44.9734V45.3702C1.65079 47.5636 3.256 49.3284 5.43123 49.4105H37.6355L37.6629 49.4151ZM21.7249 3.55749C25.9249 3.55749 29.345 7.51577 29.5046 12.4682H13.9452C14.1048 7.49753 17.5249 3.55749 21.7249 3.55749Z" fill="#EE4E2C"/>
</svg>
