<svg width="86" height="29" viewBox="0 0 86 29" fill="none" xmlns="http://www.w3.org/2000/svg">
<path opacity="0.12" d="M26.6186 28.4492C30.8022 28.4492 34.4628 25.8943 36.5023 21.6447C37.9143 18.6988 40.346 16.952 43.0392 16.952C45.7586 16.952 48.2164 18.6988 49.6023 21.6447C51.6418 25.9204 55.3547 28.4231 59.5383 28.4231C63.6958 28.4231 67.3826 25.8943 69.4221 21.6447C70.8079 18.6988 73.2658 16.952 75.959 16.952C78.2077 16.952 80.2733 18.1513 81.7115 20.263C82.2344 21.0191 83.228 21.3058 84.0386 20.9148H84.0909C84.3296 20.8043 84.5417 20.6439 84.7125 20.4443C84.8834 20.2447 85.0091 20.0108 85.0811 19.7584C85.1531 19.506 85.1696 19.2411 85.1296 18.9817C85.0896 18.7224 84.9939 18.4747 84.8492 18.2556C83.9051 16.7467 82.5967 15.498 81.0436 14.6235C79.4906 13.7491 77.7424 13.2768 75.959 13.25C71.7754 13.25 68.1147 15.8049 66.0752 20.0544C64.6632 22.9744 62.2054 24.7472 59.5383 24.7472C56.819 24.7472 54.3611 22.9744 52.9753 20.0544C50.9358 15.7788 47.2228 13.276 43.0392 13.276C38.8818 13.276 35.195 15.8049 33.1555 20.0544C31.7696 22.9744 29.3118 24.7472 26.6186 24.7472C23.8992 24.7472 21.4675 22.9744 20.0817 20.0544C18.0422 15.7788 14.3292 13.276 10.1456 13.276C6.0143 13.276 2.30135 15.7528 0.287992 20.0023C0.0816117 20.4206 0.0341049 20.8992 0.154273 21.3498C0.274442 21.8003 0.554157 22.1922 0.94168 22.453C1.90914 23.0526 3.16422 22.6615 3.63487 21.6708C5.02069 18.7509 7.47856 16.9781 10.1718 16.9781C12.8911 16.9781 15.3228 18.7509 16.7086 21.6708C18.722 25.9204 22.4611 28.4492 26.6186 28.4492ZM26.514 15.6485C30.6976 15.6485 34.3844 13.0936 36.4239 8.84402C37.8097 5.89802 40.2676 4.15127 42.9608 4.15127C45.6801 4.15127 48.1119 5.89802 49.4977 8.84402C51.5372 13.1196 55.2501 15.6224 59.4337 15.6224C63.6173 15.6224 67.278 13.0936 69.3175 8.84402C70.7295 5.89802 73.1612 4.15127 75.8544 4.15127C78.5738 4.15127 81.0316 5.89802 82.4174 8.84402C82.6324 9.29345 83.0176 9.63933 83.4884 9.80556C83.9591 9.97179 84.4768 9.94476 84.9276 9.73041C85.3783 9.51607 85.7252 9.13196 85.892 8.6626C86.0587 8.19323 86.0316 7.67706 85.8166 7.22762C83.7771 2.95202 80.0642 0.449219 75.8806 0.449219C71.7231 0.449219 68.0363 2.97809 65.9968 7.22762C64.5848 10.1736 62.1531 11.9203 59.4599 11.9203C56.7405 11.9203 54.2827 10.1736 52.8968 7.22762C50.8573 2.95202 47.1444 0.449219 42.9869 0.449219C38.8033 0.449219 35.1165 2.97809 33.077 7.22762C31.6912 10.1736 29.2333 11.9203 26.5401 11.9203C23.8469 11.9203 21.3891 10.1736 20.0032 7.22762C17.9637 2.95202 14.2508 0.449219 10.0672 0.449219C5.90971 0.449219 2.22291 2.97809 0.183399 7.22762C-0.0315785 7.67706 -0.0586913 8.19323 0.108032 8.6626C0.274755 9.13196 0.621647 9.51607 1.07241 9.73041C1.52317 9.94476 2.04088 9.97179 2.51163 9.80556C2.98237 9.63933 3.36759 9.29345 3.58257 8.84402C4.96839 5.89802 7.40011 4.15127 10.1195 4.15127C12.8127 4.15127 15.2705 5.89802 16.6563 8.84402C18.6436 13.0936 22.3565 15.6224 26.514 15.6224V15.6485Z" fill="white"/>
</svg>
