<svg width="20" height="21" viewBox="0 0 20 21" fill="none" xmlns="http://www.w3.org/2000/svg">
<path d="M18.3337 7.94932L13.3337 12.9493M13.3337 7.94932L18.3337 12.9493M8.02892 4.08739L5.39085 6.72546C5.24672 6.86959 5.17466 6.94165 5.09056 6.99319C5.016 7.03888 4.93472 7.07255 4.84969 7.09296C4.75378 7.11599 4.65187 7.11599 4.44804 7.11599H3.00033C2.53362 7.11599 2.30026 7.11599 2.122 7.20682C1.9652 7.28671 1.83771 7.41419 1.75782 7.571C1.66699 7.74926 1.66699 7.98261 1.66699 8.44932V12.4493C1.66699 12.916 1.66699 13.1494 1.75782 13.3276C1.83771 13.4844 1.9652 13.6119 2.122 13.6918C2.30026 13.7827 2.53362 13.7827 3.00033 13.7827H4.44804C4.65187 13.7827 4.75378 13.7827 4.84969 13.8057C4.93472 13.8261 5.016 13.8598 5.09056 13.9055C5.17466 13.957 5.24672 14.0291 5.39085 14.1732L8.02892 16.8113C8.3859 17.1682 8.56439 17.3467 8.71763 17.3588C8.8506 17.3692 8.98054 17.3154 9.06716 17.214C9.16699 17.0971 9.16699 16.8447 9.16699 16.3398V4.5588C9.16699 4.05395 9.16699 3.80153 9.06716 3.68464C8.98054 3.58322 8.8506 3.5294 8.71763 3.53986C8.56439 3.55192 8.3859 3.73041 8.02892 4.08739Z" stroke="white" stroke-width="1.5" stroke-linecap="round" stroke-linejoin="round"/>
</svg>
