<svg width="117" height="12" viewBox="0 0 117 12" fill="none" xmlns="http://www.w3.org/2000/svg">
<path d="M18.4648 9.88944C16.277 9.88944 14.6023 8.21477 14.6023 5.99988C14.6023 3.83901 16.2229 2.11031 18.3838 2.11031C19.4912 2.11031 20.4636 2.59651 21.1389 3.27178L22.5435 1.78618C21.5171 0.786777 20.0855 0.165527 18.3838 0.165527C14.8454 0.165527 12.3874 2.73156 12.3874 5.99988C12.3874 9.26819 14.8724 11.8342 18.4108 11.8342C20.4906 11.8342 22.1653 10.9429 23.1917 9.67335L21.6791 8.32281C21.0309 9.18715 19.9504 9.88944 18.4648 9.88944Z" fill="black"/>
<path d="M30.3758 9.88944C28.1879 9.88944 26.5133 8.21477 26.5133 5.99988C26.5133 3.83901 28.1339 2.11031 30.2948 2.11031C31.4022 2.11031 32.3746 2.59651 33.0499 3.27178L34.4544 1.78618C33.428 0.786777 31.9965 0.165527 30.2948 0.165527C26.7564 0.165527 24.3254 2.73156 24.3254 5.99988C24.3254 9.26819 26.8104 11.8342 30.3488 11.8342C32.4286 11.8342 34.1033 10.9429 35.1297 9.67335L33.6171 8.32281C32.9418 9.18715 31.8614 9.88944 30.3758 9.88944Z" fill="black"/>
<path d="M39.5602 6.56763H43.2877V4.62285H39.5602V2.27291H44.4222V0.328125H37.3723V11.6727H44.5842V9.7279H39.5602V6.56763Z" fill="black"/>
<path d="M49.0413 3.35281C49.0413 2.48846 49.9597 2.11031 50.797 2.11031C51.5533 2.11031 52.3096 2.43444 52.7688 2.86661L53.9033 1.24596C52.8228 0.462647 51.7694 0.165527 50.608 0.165527C48.7172 0.165527 46.8534 1.327 46.8534 3.35281C46.8534 4.62232 47.5557 5.40564 48.4471 5.91884C49.9597 6.8102 52.0665 6.99928 52.0665 8.45786C52.0665 9.2952 51.3913 9.88944 50.4189 9.88944C49.3925 9.88944 48.3931 9.34922 47.7448 8.64694L46.3132 10.1325C47.4747 11.213 48.8793 11.8342 50.4189 11.8342C52.4717 11.8342 54.2544 10.4297 54.2544 8.43085C54.2814 4.62232 49.0413 5.18955 49.0413 3.35281Z" fill="black"/>
<path d="M58.3869 3.35281C58.3869 2.48846 59.3053 2.11031 60.1427 2.11031C60.899 2.11031 61.6553 2.43444 62.1144 2.86661L63.2489 1.24596C62.1685 0.462647 61.115 0.165527 59.9536 0.165527C58.0628 0.165527 56.1991 1.327 56.1991 3.35281C56.1991 4.62232 56.9013 5.40564 57.7927 5.91884C59.3053 6.8102 61.4122 6.99928 61.4122 8.45786C61.4122 9.2952 60.7369 9.88944 59.7645 9.88944C58.7381 9.88944 57.7387 9.34922 57.0904 8.64694L55.6588 10.1325C56.8203 11.213 58.2249 11.8342 59.7645 11.8342C61.8173 11.8342 63.6 10.4297 63.6 8.43085C63.6271 4.62232 58.3869 5.18955 58.3869 3.35281Z" fill="black"/>
<path d="M64.869 2.27291H67.8672V11.6727H70.0551V2.27291H73.0533V0.328125H64.869V2.27291Z" fill="black"/>
<path d="M105.115 1.40856C104.197 0.733288 103.008 0.328125 101.198 0.328125H97.7679V11.6727H101.198C103.008 11.6727 104.17 11.2945 105.115 10.5922C106.519 9.56584 107.357 7.86415 107.357 5.97339C107.357 4.13665 106.492 2.43497 105.115 1.40856ZM104.359 8.45839C103.737 9.2417 102.792 9.7279 101.468 9.7279H99.9558V2.27291H101.441C102.792 2.27291 103.71 2.73209 104.332 3.54242C104.845 4.19068 105.169 5.05502 105.169 6.0004C105.169 6.94578 104.872 7.81013 104.359 8.45839Z" fill="black"/>
<path d="M111.976 9.7279V6.56763H115.703V4.62285H111.976V2.27291H116.838V0.328125H109.788V11.6727H117V9.7279H111.976Z" fill="black"/>
<path d="M7.06623 0.328125H5.4996L5.12145 1.24649L0.826721 11.6727H3.09563L3.93297 9.51182H8.57884L9.41617 11.6727H11.7661L7.41737 1.13845L7.06623 0.328125ZM7.71449 7.56703H4.79732L6.2559 3.97459L7.71449 7.56703Z" fill="black"/>
<path d="M91.2054 0.328125H89.6388L89.2606 1.24649L84.9659 11.6997H87.2348L88.0722 9.53882H92.718L93.5554 11.6997H95.9053L91.5566 1.16546L91.2054 0.328125ZM91.8537 7.56703H88.9095L90.3681 3.97459L91.8537 7.56703Z" fill="black"/>
<path d="M83.1287 3.48839C83.1287 1.65166 81.7511 0.328125 79.6443 0.328125H75.2415V11.6727H77.4294V6.64866H78.7799L81.454 11.6727H83.885L80.8328 6.40557C81.9672 6.10845 83.1287 5.21709 83.1287 3.48839ZM77.4024 2.27291H79.4822C80.3466 2.27291 80.9138 2.81312 80.9138 3.5154C80.9138 4.19067 80.4276 4.70388 79.4822 4.70388H77.4024V2.27291Z" fill="black"/>
</svg>
