<svg width="131" height="14" viewBox="0 0 131 14" fill="none" xmlns="http://www.w3.org/2000/svg">
<path d="M20.4775 11.3452C18.04 11.3452 16.1743 9.47944 16.1743 7.01184C16.1743 4.60444 17.9798 2.67851 20.3872 2.67851C21.621 2.67851 22.7043 3.22017 23.4567 3.97249L25.0215 2.3174C23.878 1.20397 22.2831 0.511841 20.3872 0.511841C16.4451 0.511841 13.7067 3.37064 13.7067 7.01184C13.7067 10.653 16.4752 13.5118 20.4173 13.5118C22.7344 13.5118 24.6002 12.5188 25.7437 11.1044L24.0585 9.5998C23.3363 10.5628 22.1326 11.3452 20.4775 11.3452Z" fill="white"/>
<path d="M33.7474 11.3452C31.3099 11.3452 29.4442 9.47944 29.4442 7.01184C29.4442 4.60444 31.2497 2.67851 33.6571 2.67851C34.8909 2.67851 35.9742 3.22017 36.7266 3.97249L38.2914 2.3174C37.1479 1.20397 35.5529 0.511841 33.6571 0.511841C29.715 0.511841 27.0067 3.37064 27.0067 7.01184C27.0067 10.653 29.7752 13.5118 33.7173 13.5118C36.0344 13.5118 37.9002 12.5188 39.0437 11.1044L37.3585 9.5998C36.6062 10.5628 35.4025 11.3452 33.7474 11.3452Z" fill="white"/>
<path d="M43.9797 7.64462H48.1325V5.47796H43.9797V2.8599H49.3963V0.693237H41.5422V13.3321H49.5769V11.1655H43.9797V7.64462Z" fill="white"/>
<path d="M54.5425 4.06277C54.5425 3.0998 55.5657 2.67851 56.4985 2.67851C57.3411 2.67851 58.1837 3.03962 58.6953 3.5211L59.9592 1.71554C58.7555 0.842859 57.5819 0.511841 56.2879 0.511841C54.1814 0.511841 52.105 1.80582 52.105 4.06277C52.105 5.47712 52.8874 6.3498 53.8805 6.92156C55.5657 7.91462 57.9129 8.12527 57.9129 9.75027C57.9129 10.6831 57.1606 11.3452 56.0772 11.3452C54.9337 11.3452 53.8203 10.7433 53.0981 9.96091L51.5032 11.616C52.7972 12.8197 54.362 13.5118 56.0772 13.5118C58.3643 13.5118 60.3504 11.947 60.3504 9.72018C60.3805 5.47712 54.5425 6.10906 54.5425 4.06277Z" fill="white"/>
<path d="M64.9544 4.06277C64.9544 3.0998 65.9775 2.67851 66.9104 2.67851C67.753 2.67851 68.5956 3.03962 69.1072 3.5211L70.3711 1.71554C69.1674 0.842859 67.9937 0.511841 66.6998 0.511841C64.5933 0.511841 62.5169 1.80582 62.5169 4.06277C62.5169 5.47712 63.2993 6.3498 64.2924 6.92156C65.9775 7.91462 68.3248 8.12527 68.3248 9.75027C68.3248 10.6831 67.5724 11.3452 66.4891 11.3452C65.3456 11.3452 64.2322 10.7433 63.5099 9.96091L61.915 11.616C63.209 12.8197 64.7738 13.5118 66.4891 13.5118C68.7762 13.5118 70.7623 11.947 70.7623 9.72018C70.7924 5.47712 64.9544 6.10906 64.9544 4.06277Z" fill="white"/>
<path d="M72.176 2.8599H75.5163V13.3321H77.9538V2.8599H81.2941V0.693237H72.176V2.8599Z" fill="white"/>
<path d="M117.014 1.89694C115.991 1.14463 114.666 0.693237 112.65 0.693237H108.828V13.3321H112.65C114.666 13.3321 115.96 12.9108 117.014 12.1284C118.578 10.9849 119.511 9.08907 119.511 6.98258C119.511 4.93629 118.548 3.04046 117.014 1.89694ZM116.171 9.7511C115.479 10.6238 114.426 11.1655 112.951 11.1655H111.266V2.8599H112.921C114.426 2.8599 115.449 3.37148 116.141 4.27425C116.713 4.99647 117.074 5.95944 117.074 7.01268C117.074 8.06592 116.743 9.02888 116.171 9.7511Z" fill="white"/>
<path d="M124.658 11.1655V7.64462H128.81V5.47796H124.658V2.8599H130.074V0.693237H122.22V13.3321H130.255V11.1655H124.658Z" fill="white"/>
<path d="M7.77841 0.693237H6.03304L5.61175 1.71638L0.827026 13.3321H3.3548L4.28767 10.9247H9.4636L10.3965 13.3321H13.0145L8.16962 1.59601L7.77841 0.693237ZM8.50064 8.75805H5.25064L6.87564 4.75574L8.50064 8.75805Z" fill="white"/>
<path d="M101.517 0.693237H99.7718L99.3505 1.71638L94.5658 13.3622H97.0936L98.0264 10.9548H103.202L104.135 13.3622H106.753L101.908 1.6261L101.517 0.693237ZM102.239 8.75804H98.9593L100.584 4.75573L102.239 8.75804Z" fill="white"/>
<path d="M92.519 4.21407C92.519 2.16777 90.9842 0.693237 88.637 0.693237H83.7319V13.3321H86.1694V7.7349H87.6741L90.6532 13.3321H93.3616L89.9611 7.46407C91.225 7.13305 92.519 6.13999 92.519 4.21407ZM86.1393 2.8599H88.4565C89.4194 2.8599 90.0514 3.46175 90.0514 4.24416C90.0514 4.99647 89.5097 5.56823 88.4565 5.56823H86.1393V2.8599Z" fill="white"/>
</svg>
