<svg width="24" height="25" viewBox="0 0 24 25" fill="none" xmlns="http://www.w3.org/2000/svg">
<g clip-path="url(#clip0_33_40007)">
<path d="M24 12.012C24 5.38454 18.6274 0.0119629 12 0.0119629C5.37258 0.0119629 0 5.38454 0 12.012C0 18.0014 4.3882 22.9659 10.125 23.8662V15.4807H7.07812V12.012H10.125V9.36821C10.125 6.36071 11.9166 4.69946 14.6576 4.69946C15.9701 4.69946 17.3438 4.93384 17.3438 4.93384V7.88696H15.8306C14.34 7.88696 13.875 8.81204 13.875 9.76196V12.012H17.2031L16.6711 15.4807H13.875V23.8662C19.6118 22.9659 24 18.0014 24 12.012Z" fill="#98A2B3"/>
</g>
<defs>
<clipPath id="clip0_33_40007">
<rect width="24" height="24" fill="white" transform="translate(0 0.0119629)"/>
</clipPath>
</defs>
</svg>
