<svg width="70" height="70" viewBox="0 0 70 70" fill="none" xmlns="http://www.w3.org/2000/svg">
<path d="M0 24.8889C0 16.177 0 11.821 1.69545 8.49348C3.18682 5.56652 5.56652 3.18682 8.49348 1.69545C11.821 0 16.177 0 24.8889 0H45.1111C53.823 0 58.179 0 61.5065 1.69545C64.4335 3.18682 66.8132 5.56652 68.3045 8.49348C70 11.821 70 16.177 70 24.8889V45.1111C70 53.823 70 58.179 68.3045 61.5065C66.8132 64.4335 64.4335 66.8132 61.5065 68.3045C58.179 70 53.823 70 45.1111 70H24.8889C16.177 70 11.821 70 8.49348 68.3045C5.56652 66.8132 3.18682 64.4335 1.69545 61.5065C0 58.179 0 53.823 0 45.1111V24.8889Z" fill="white"/>
</svg>
