<svg width="70" height="66" viewBox="0 0 70 66" fill="none" xmlns="http://www.w3.org/2000/svg">
<path d="M2.27175 0.500193C1.60919 0.491369 0.976753 0.785543 0.544101 1.30381C0.111449 1.82207 -0.0771329 2.51137 0.0289417 3.1868L9.54968 62.8711C9.79454 64.3787 11.0523 65.4871 12.5326 65.4998H58.2075C59.3186 65.5146 60.2726 64.687 60.4503 63.5543L69.9711 3.19838C70.0771 2.52295 69.8885 1.83365 69.4559 1.31539C69.0232 0.797124 68.3908 0.502949 67.7282 0.511773L2.27175 0.500193ZM42.362 43.6364H27.7837L23.8364 22.3404H45.8945L42.362 43.6364Z" fill="#2684FF"/>
<path fill-rule="evenodd" clip-rule="evenodd" d="M66.9435 22.3406H45.8947L42.3622 43.6365H27.784L10.5704 64.7356C11.116 65.2228 11.8116 65.4937 12.5328 65.4999H58.2189C59.33 65.5147 60.284 64.6871 60.4617 63.5545L66.9435 22.3406Z" fill="url(#paint0_linear_1_26521)"/>
<defs>
<linearGradient id="paint0_linear_1_26521" x1="71.8104" y1="28.3044" x2="46.4401" y2="63.1879" gradientUnits="userSpaceOnUse">
<stop offset="0.18" stop-color="#0052CC"/>
<stop offset="1" stop-color="#2684FF"/>
</linearGradient>
</defs>
</svg>
