<svg width="119" height="92" viewBox="0 0 119 92" fill="none" xmlns="http://www.w3.org/2000/svg">
<g clip-path="url(#clip0_1_25525)">
<path fill-rule="evenodd" clip-rule="evenodd" d="M148.254 75.5267C151.363 69.8569 149.237 55.0329 145.874 46.8608C142.479 38.6569 136.514 31.1816 128.454 25.005C120.363 18.7967 110.432 14.1088 99.3901 11.258C88.3483 8.37559 76.5449 7.48869 64.9636 8.56564C53.3507 9.67427 42.2453 12.7468 32.5678 17.5614C22.8902 22.376 14.9261 28.7743 9.27826 36.2496C3.59869 43.7566 0.457466 52.0872 0.0449829 60.6394L74.5142 62.5399L134.293 95.0386C141.337 88.1967 145.144 81.2282 148.254 75.5267Z" fill="#38ACFF"/>
<path fill-rule="evenodd" clip-rule="evenodd" d="M0 60.9125L74.5008 62.5279V53.5956L0 51.9801V60.9125Z" fill="#40AFFF"/>
<path fill-rule="evenodd" clip-rule="evenodd" d="M74.5148 53.6044V62.5368L134.293 95.0354V86.8949L74.5148 53.6044Z" fill="#56B7FC"/>
<path fill-rule="evenodd" clip-rule="evenodd" d="M147.859 63.984C149.922 55.5585 149.256 46.9111 145.86 38.739C142.497 30.5352 136.532 23.0599 128.441 16.8832C120.382 10.6749 110.419 5.98695 99.3768 3.1362C88.3666 0.253765 76.5633 -0.633137 64.9503 0.443815C53.3373 1.55244 42.2637 4.62493 32.5862 9.43954C22.9087 14.2541 14.9129 20.6525 9.26501 28.1279C3.61716 35.6348 0.412483 43.4269 0 51.9792L74.5008 53.5946L134.279 86.9168C141.323 80.075 145.797 72.4096 147.859 63.984Z" fill="url(#paint0_linear_1_25525)"/>
<path fill-rule="evenodd" clip-rule="evenodd" d="M9.03653 81.7687L67.8358 75.8413V133.522C59.3323 133.522 50.924 132.033 43.0551 129.119C35.2179 126.236 28.0788 121.992 22.0502 116.639C16.0533 111.286 11.2939 104.919 8.02572 97.9189C4.94669 91.2592 3.27487 88.3264 3.11955 83.1744L3.1048 83.1513V66.1101C4.69127 68.8975 8.53054 75.866 9.32378 77.4815C9.77764 78.4444 9.40872 80.2736 9.03653 81.7687Z" fill="#0F82D4"/>
<path fill-rule="evenodd" clip-rule="evenodd" d="M8.03075 88.1737C11.2989 95.1739 16.0583 101.541 22.0552 106.894C28.0838 112.247 35.2229 116.491 43.0601 119.374C50.929 122.288 59.3373 123.776 67.8408 123.776V66.0961H3.11267C3.11267 73.6981 4.79433 81.1735 8.03075 88.1737Z" fill="#0F96F7"/>
<path fill-rule="evenodd" clip-rule="evenodd" d="M127.369 105.598C121.689 113.368 114.007 119.827 104.915 124.41C95.2055 129.319 84.2271 131.885 73.0583 131.885V74.2049L114.321 96.2963C115.624 95.7255 116.681 95.3363 116.998 95.3363H119.314C120.869 95.3363 126.421 95.9064 128.642 96.1598V104.268L127.369 105.598Z" fill="#82CBFF"/>
<path fill-rule="evenodd" clip-rule="evenodd" d="M104.915 116.301C114.656 111.392 122.778 104.328 128.553 95.8075L73.0586 66.0963V123.777C84.2274 123.777 95.2055 121.211 104.915 116.301Z" fill="#B0DEFF"/>
</g>
<defs>
<linearGradient id="paint0_linear_1_25525" x1="0" y1="4345.76" x2="14902.9" y2="4345.76" gradientUnits="userSpaceOnUse">
<stop stop-color="#73C5FF"/>
<stop offset="1" stop-color="#44A1E3"/>
</linearGradient>
<clipPath id="clip0_1_25525">
<rect width="149.805" height="133.522" fill="white"/>
</clipPath>
</defs>
</svg>
