<svg width="60" height="60" viewBox="0 0 60 60" fill="none" xmlns="http://www.w3.org/2000/svg">
<path fill-rule="evenodd" clip-rule="evenodd" d="M2.17579 45.8039C1.55524 46.857 0.858325 48.0791 0.266421 49.0528C-0.263378 49.9845 0.0210397 51.1862 0.906059 51.7553L13.3169 59.7037C13.7526 59.9836 14.278 60.0697 14.7752 59.9427C15.2725 59.8156 15.6998 59.4861 15.9614 59.0281C16.4578 58.1637 17.0975 57.0409 17.7944 55.8388C22.711 47.3936 27.6563 48.4269 36.573 52.8581L48.8788 58.9486C49.3449 59.1794 49.8809 59.2041 50.3648 59.0169C50.8486 58.8297 51.239 58.4467 51.4469 57.955L57.3564 44.0453C57.7739 43.0518 57.3491 41.8935 56.4017 41.4422C53.805 40.1704 48.6402 37.6369 43.9909 35.302C27.2648 26.8469 13.0496 27.3934 2.17579 45.8039Z" fill="url(#paint0_linear_1_26639)"/>
<path fill-rule="evenodd" clip-rule="evenodd" d="M57.8243 14.2388C58.4448 13.1856 59.1417 11.9635 59.7336 10.9899C60.2634 10.0581 59.979 8.85645 59.094 8.28739L46.6831 0.338983C46.2439 0.0311232 45.7016 -0.0730903 45.1857 0.0512408C44.6698 0.175572 44.2267 0.51728 43.9623 0.994727C43.4658 1.85912 42.8262 2.98183 42.1293 4.18403C37.2127 12.6292 32.2674 11.5959 23.3507 7.16468L11.083 1.10402C10.6169 0.873152 10.0809 0.8485 9.5971 1.03568C9.11328 1.22286 8.7229 1.60593 8.51491 2.09757L2.60543 16.0073C2.18791 17.0007 2.61274 18.1591 3.56011 18.6104C6.15685 19.8821 11.3217 22.4157 15.971 24.7505C32.7352 33.1957 46.9504 32.6294 57.8243 14.2388Z" fill="url(#paint1_linear_1_26639)"/>
<defs>
<linearGradient id="paint0_linear_1_26639" x1="57.0223" y1="63.807" x2="42.1664" y2="31.0589" gradientUnits="userSpaceOnUse">
<stop offset="0.18" stop-color="#0052CC"/>
<stop offset="1" stop-color="#2684FF"/>
</linearGradient>
<linearGradient id="paint1_linear_1_26639" x1="2.97776" y1="-3.77432" x2="17.8569" y2="28.9889" gradientUnits="userSpaceOnUse">
<stop offset="0.18" stop-color="#0052CC"/>
<stop offset="1" stop-color="#2684FF"/>
</linearGradient>
</defs>
</svg>
