<svg width="56" height="50" viewBox="0 0 56 50" fill="none" xmlns="http://www.w3.org/2000/svg">
<path d="M28.0051 16.1272L19.3529 0.857917C19.6402 0.565426 19.9707 0.373577 20.3013 0.244629C17.7498 1.08436 16.579 3.94952 16.579 3.94952L0.772764 31.8368C0.550358 32.7111 0.488573 33.5006 0.516374 34.1956H17.7683L28.0051 16.1272Z" fill="#34A853"/>
<path d="M28.0048 16.1272L38.2417 34.1956H55.4936C55.5214 33.5006 55.4596 32.7111 55.2372 31.8368L39.4309 3.94952C39.4309 3.94952 38.2571 1.08436 35.7087 0.244629C36.0361 0.373577 36.3697 0.565426 36.657 0.857917L28.0048 16.1272Z" fill="#FBBC05"/>
<path d="M28.0048 16.1281L36.6571 0.858776C36.3698 0.566285 36.0362 0.374435 35.7087 0.245488C35.3319 0.12283 34.9272 0.0410584 34.4886 0.019043H34.0314H21.9783H21.5211C21.0855 0.0379134 20.6778 0.119685 20.3009 0.245488C19.9735 0.374435 19.6399 0.566285 19.3526 0.858776L28.0048 16.1281Z" fill="#188038"/>
<path d="M17.7711 34.1958L9.21772 49.2921C9.21772 49.2921 8.93353 49.1537 8.54741 48.8675C9.76138 49.8016 10.9414 49.9998 10.9414 49.9998H44.534C46.3873 49.9998 46.7735 49.2921 46.7735 49.2921C46.7796 49.289 46.7827 49.2858 46.7889 49.2827L38.2417 34.1958H17.7711Z" fill="#4285F4"/>
<path d="M17.7718 34.1958H0.519836C0.606328 36.2464 1.49595 37.4447 1.49595 37.4447L2.14464 38.5706C2.19097 38.6366 2.21877 38.6744 2.21877 38.6744L3.63043 41.1527L6.79971 46.6691C6.89238 46.8924 7.0005 47.0969 7.1148 47.2919C7.15804 47.3579 7.19819 47.4302 7.24453 47.4931C7.25688 47.512 7.26924 47.5309 7.28159 47.5498C7.67389 48.1033 8.11253 48.531 8.55117 48.8675C8.93729 49.1569 9.22148 49.2921 9.22148 49.2921L17.7718 34.1958Z" fill="#1967D2"/>
<path d="M38.2417 34.1958H55.4936C55.4071 36.2464 54.5175 37.4447 54.5175 37.4447L53.8688 38.5706C53.8225 38.6366 53.7947 38.6744 53.7947 38.6744L52.383 41.1527L49.2137 46.6691C49.121 46.8924 49.0129 47.0969 48.8987 47.2919C48.8554 47.3579 48.8152 47.4302 48.7689 47.4931C48.7566 47.512 48.7442 47.5309 48.7318 47.5498C48.3395 48.1033 47.9009 48.531 47.4623 48.8675C47.0762 49.1569 46.792 49.2921 46.792 49.2921L38.2417 34.1958Z" fill="#EA4335"/>
</svg>
