<svg width="117" height="12" viewBox="0 0 117 12" fill="none" xmlns="http://www.w3.org/2000/svg">
<path d="M18.4648 9.88956C16.277 9.88956 14.6023 8.21489 14.6023 6C14.6023 3.83913 16.2229 2.11043 18.3838 2.11043C19.4913 2.11043 20.4636 2.59663 21.1389 3.2719L22.5435 1.7863C21.5171 0.786899 20.0855 0.165649 18.3838 0.165649C14.8454 0.165649 12.3874 2.73168 12.3874 6C12.3874 9.26831 14.8724 11.8343 18.4108 11.8343C20.4907 11.8343 22.1653 10.943 23.1917 9.67347L21.6791 8.32293C21.0309 9.18728 19.9504 9.88956 18.4648 9.88956Z" fill="black"/>
<path d="M30.3758 9.88956C28.1879 9.88956 26.5132 8.21489 26.5132 6C26.5132 3.83913 28.1339 2.11043 30.2947 2.11043C31.4022 2.11043 32.3746 2.59663 33.0499 3.2719L34.4544 1.7863C33.428 0.786899 31.9964 0.165649 30.2947 0.165649C26.7563 0.165649 24.3253 2.73168 24.3253 6C24.3253 9.26831 26.8103 11.8343 30.3488 11.8343C32.4286 11.8343 34.1033 10.943 35.1297 9.67347L33.6171 8.32293C32.9418 9.18728 31.8614 9.88956 30.3758 9.88956Z" fill="black"/>
<path d="M39.5602 6.56794H43.2877V4.62315H39.5602V2.27321H44.4222V0.32843H37.3723V11.673H44.5842V9.7282H39.5602V6.56794Z" fill="black"/>
<path d="M49.0414 3.35293C49.0414 2.48858 49.9597 2.11043 50.7971 2.11043C51.5534 2.11043 52.3097 2.43456 52.7689 2.86674L53.9033 1.24608C52.8229 0.462769 51.7695 0.165649 50.608 0.165649C48.7172 0.165649 46.8535 1.32712 46.8535 3.35293C46.8535 4.62244 47.5558 5.40576 48.4471 5.91896C49.9597 6.81032 52.0666 6.9994 52.0666 8.45798C52.0666 9.29532 51.3913 9.88956 50.4189 9.88956C49.3925 9.88956 48.3931 9.34934 47.7448 8.64706L46.3133 10.1327C47.4747 11.2131 48.8793 11.8343 50.4189 11.8343C52.4717 11.8343 54.2544 10.4298 54.2544 8.43098C54.2815 4.62244 49.0414 5.18967 49.0414 3.35293Z" fill="black"/>
<path d="M58.3869 3.35293C58.3869 2.48858 59.3053 2.11043 60.1427 2.11043C60.899 2.11043 61.6553 2.43456 62.1144 2.86674L63.2489 1.24608C62.1685 0.462769 61.115 0.165649 59.9536 0.165649C58.0628 0.165649 56.1991 1.32712 56.1991 3.35293C56.1991 4.62244 56.9013 5.40576 57.7927 5.91896C59.3053 6.81032 61.4122 6.9994 61.4122 8.45798C61.4122 9.29532 60.7369 9.88956 59.7645 9.88956C58.7381 9.88956 57.7387 9.34934 57.0904 8.64706L55.6588 10.1327C56.8203 11.2131 58.2249 11.8343 59.7645 11.8343C61.8173 11.8343 63.6 10.4298 63.6 8.43098C63.6271 4.62244 58.3869 5.18967 58.3869 3.35293Z" fill="black"/>
<path d="M64.869 2.27321H67.8673V11.673H70.0551V2.27321H73.0533V0.32843H64.869V2.27321Z" fill="black"/>
<path d="M105.115 1.40886C104.197 0.733593 103.008 0.32843 101.198 0.32843H97.768V11.673H101.198C103.008 11.673 104.17 11.2948 105.115 10.5926C106.519 9.56614 107.357 7.86446 107.357 5.9737C107.357 4.13696 106.492 2.43528 105.115 1.40886ZM104.359 8.4587C103.737 9.24201 102.792 9.7282 101.468 9.7282H99.9559V2.27321H101.441C102.792 2.27321 103.71 2.73239 104.332 3.54272C104.845 4.19098 105.169 5.05533 105.169 6.00071C105.169 6.94609 104.872 7.81043 104.359 8.4587Z" fill="black"/>
<path d="M111.976 9.7282V6.56794H115.703V4.62315H111.976V2.27321H116.838V0.32843H109.788V11.673H117V9.7282H111.976Z" fill="black"/>
<path d="M7.06626 0.32843H5.49963L5.12148 1.2468L0.826752 11.673H3.09566L3.933 9.51212H8.57887L9.4162 11.673H11.7661L7.4174 1.13876L7.06626 0.32843ZM7.71452 7.56734H4.79735L6.25593 3.9749L7.71452 7.56734Z" fill="black"/>
<path d="M91.2054 0.32843H89.6388L89.2606 1.2468L84.9659 11.7H87.2348L88.0722 9.53913H92.718L93.5554 11.7H95.9053L91.5566 1.16576L91.2054 0.32843ZM91.8537 7.56733H88.9095L90.3681 3.97489L91.8537 7.56733Z" fill="black"/>
<path d="M83.1287 3.4887C83.1287 1.65196 81.7511 0.32843 79.6443 0.32843H75.2415V11.673H77.4294V6.64897H78.7799L81.454 11.673H83.885L80.8328 6.40587C81.9672 6.10875 83.1287 5.21739 83.1287 3.4887ZM77.4024 2.27321H79.4822C80.3466 2.27321 80.9138 2.81343 80.9138 3.51571C80.9138 4.19098 80.4276 4.70419 79.4822 4.70419H77.4024V2.27321Z" fill="black"/>
</svg>
