<svg width="80" height="80" viewBox="0 0 80 80" fill="none" xmlns="http://www.w3.org/2000/svg">
<path fill-rule="evenodd" clip-rule="evenodd" d="M14.29 73.0445L5.69159 62.3329C3.62282 59.7557 2.5 56.5865 2.5 53.3247V14.5375C2.5 9.65161 6.40896 5.59742 11.4518 5.25313L51.3303 2.53046C54.2275 2.33266 57.107 3.10273 59.4869 4.71176L73.4981 14.1848C76.0061 15.8805 77.5 18.6525 77.5 21.6106V65.7079C77.5 70.4894 73.6564 74.4482 68.7191 74.7522L24.4583 77.4767C20.5183 77.7192 16.71 76.0592 14.29 73.0445Z" fill="white"/>
<path d="M28.1204 33.9468V33.439C28.1204 32.1517 29.1513 31.0842 30.48 30.9955L40.1584 30.3493L53.5428 50.0588V32.7604L50.0977 32.3011V32.0599C50.0977 30.7576 51.1522 29.6829 52.4978 29.614L61.3041 29.1629V30.4302C61.3041 31.0251 60.8617 31.534 60.2554 31.6365L58.1362 31.9949V60.0092L55.4766 60.9239C53.2547 61.688 50.7811 60.87 49.5091 58.9507L36.5153 39.343V58.0574L40.5148 58.8228L40.4591 59.1938C40.2845 60.3558 39.2813 61.2347 38.0676 61.2887L28.1204 61.7314C27.9889 60.4818 28.9254 59.3639 30.2174 59.2282L31.5259 59.0907V34.1381L28.1204 33.9468Z" fill="black"/>
<path fill-rule="evenodd" clip-rule="evenodd" d="M51.6874 7.41696L11.8088 10.1396C9.42013 10.3027 7.56851 12.2231 7.56851 14.5375V53.3247C7.56851 55.4992 8.31706 57.612 9.69624 59.3301L18.2946 70.0417C19.6848 71.7736 21.8726 72.7272 24.136 72.5879L68.3967 69.8634C70.6653 69.7237 72.4312 67.9048 72.4312 65.7079V21.6106C72.4312 20.2515 71.7449 18.9779 70.5925 18.1988L56.5813 8.72573C55.1534 7.76032 53.4257 7.29828 51.6874 7.41696ZM13.7863 15.1425C13.2317 14.7319 13.4956 13.8764 14.1924 13.8264L51.9556 11.1178C53.1588 11.0315 54.3544 11.3628 55.3275 12.0522L62.9044 17.4203C63.192 17.6241 63.0571 18.0641 62.701 18.0834L22.7098 20.2584C21.4996 20.3242 20.305 19.9687 19.3427 19.2562L13.7863 15.1425ZM20.8341 27.0768C20.8341 25.7776 21.8837 24.7044 23.2258 24.6313L65.5078 22.3286C66.8158 22.2574 67.917 23.2633 67.917 24.5295V62.7132C67.917 64.01 66.8711 65.082 65.5316 65.1583L23.5174 67.5488C22.0616 67.6316 20.8341 66.513 20.8341 65.1037V27.0768Z" fill="black"/>
</svg>
