<svg width="66" height="66" viewBox="0 0 66 66" fill="none" xmlns="http://www.w3.org/2000/svg">
<path d="M59.2505 30.4994C62.702 30.4994 65.5 27.7014 65.5 24.25V24.25C65.5 20.7985 62.7018 18.0005 59.2503 18.0005V18.0005C55.7985 18.0005 53 20.7987 53 24.2505V30.4994H59.2505ZM41.75 30.4994C45.2018 30.4994 48 27.7012 48 24.2494V6.75049C48 3.29871 45.2018 0.500488 41.75 0.500488V0.500488C38.2982 0.500488 35.5 3.29871 35.5 6.75049V24.2494C35.5 27.7012 38.2982 30.4994 41.75 30.4994V30.4994Z" fill="#2EB67D"/>
<path d="M6.74947 35.5006C3.29798 35.5006 0.500005 38.2986 0.500005 41.75V41.75C0.500005 45.2015 3.29825 47.9995 6.74974 47.9995V47.9995C10.2015 47.9995 13 45.2013 13 41.7495V35.5006H6.74947ZM24.25 35.5006C20.7982 35.5006 18 38.2988 18 41.7506V59.2495C18 62.7013 20.7982 65.4995 24.25 65.4995V65.4995C27.7018 65.4995 30.5 62.7013 30.5 59.2495V41.7506C30.5 38.2988 27.7018 35.5006 24.25 35.5006V35.5006Z" fill="#E01E5A"/>
<path d="M35.5005 59.2505C35.5005 62.702 38.2984 65.5 41.7499 65.5V65.5C45.2014 65.5 47.9994 62.7017 47.9994 59.2503V59.2503C47.9994 55.7985 45.2012 53 41.7494 53L35.5005 53L35.5005 59.2505ZM35.5005 41.75C35.5005 45.2018 38.2987 48 41.7505 48L59.2494 48C62.7012 48 65.4994 45.2018 65.4994 41.75V41.75C65.4994 38.2982 62.7012 35.5 59.2494 35.5L41.7505 35.5C38.2987 35.5 35.5005 38.2982 35.5005 41.75V41.75Z" fill="#ECB22E"/>
<path d="M30.4994 6.74947C30.4994 3.29798 27.7014 0.500004 24.2499 0.500003V0.500003C20.7984 0.500003 18.0005 3.29825 18.0005 6.74973V6.74973C18.0005 10.2015 20.7987 13 24.2505 13L30.4994 13L30.4994 6.74947ZM30.4994 24.25C30.4994 20.7982 27.7012 18 24.2494 18L6.75046 18C3.29868 18 0.500458 20.7982 0.500458 24.25V24.25C0.500458 27.7018 3.29868 30.5 6.75046 30.5L24.2494 30.5C27.7012 30.5 30.4994 27.7018 30.4994 24.25V24.25Z" fill="#36C5F0"/>
</svg>
