<svg width="24" height="25" viewBox="0 0 24 25" fill="none" xmlns="http://www.w3.org/2000/svg">
<g clip-path="url(#clip0_1_25821)">
<path fill-rule="evenodd" clip-rule="evenodd" d="M12 0.954102C5.3724 0.954102 0 6.3349 0 12.9745C0 18.2845 3.438 22.7905 8.2068 24.3793C8.8068 24.4897 9.0252 24.1189 9.0252 23.7997C9.0252 23.5153 9.0156 22.7581 9.0096 21.7561C5.6712 22.4821 4.9668 20.1445 4.9668 20.1445C4.422 18.7549 3.6348 18.3853 3.6348 18.3853C2.5452 17.6413 3.7176 17.6557 3.7176 17.6557C4.9212 17.7397 5.5548 18.8941 5.5548 18.8941C6.6252 20.7301 8.364 20.1997 9.0468 19.8925C9.1572 19.1161 9.4668 18.5869 9.81 18.2869C7.146 17.9833 4.344 16.9513 4.344 12.3457C4.344 11.0341 4.812 9.9601 5.5788 9.1201C5.4552 8.8165 5.0436 7.5937 5.6964 5.9401C5.6964 5.9401 6.7044 5.6161 8.9964 7.1713C9.97532 6.90432 10.9853 6.76833 12 6.7669C13.02 6.7717 14.046 6.9049 15.0048 7.1713C17.2956 5.6161 18.3012 5.9389 18.3012 5.9389C18.9564 7.5937 18.5436 8.8165 18.4212 9.1201C19.1892 9.9601 19.6548 11.0341 19.6548 12.3457C19.6548 16.9633 16.848 17.9797 14.1756 18.2773C14.6064 18.6481 14.9892 19.3813 14.9892 20.5033C14.9892 22.1089 14.9748 23.4061 14.9748 23.7997C14.9748 24.1213 15.1908 24.4957 15.8004 24.3781C18.19 23.5766 20.2672 22.0445 21.7386 19.9982C23.2099 17.9518 24.001 15.4949 24 12.9745C24 6.3349 18.6264 0.954102 12 0.954102Z" fill="#98A2B3"/>
</g>
<defs>
<clipPath id="clip0_1_25821">
<rect width="24" height="24" fill="white" transform="translate(0 0.954102)"/>
</clipPath>
</defs>
</svg>
