<svg width="131" height="13" viewBox="0 0 131 13" fill="none" xmlns="http://www.w3.org/2000/svg">
<path d="M20.4775 10.8411C18.04 10.8411 16.1743 8.97541 16.1743 6.50781C16.1743 4.10041 17.9798 2.17448 20.3872 2.17448C21.621 2.17448 22.7043 2.71615 23.4567 3.46846L25.0215 1.81337C23.878 0.699942 22.2831 0.0078125 20.3872 0.0078125C16.4451 0.0078125 13.7067 2.86661 13.7067 6.50781C13.7067 10.149 16.4752 13.0078 20.4173 13.0078C22.7344 13.0078 24.6002 12.0148 25.7437 10.6004L24.0585 9.09577C23.3363 10.0587 22.1326 10.8411 20.4775 10.8411Z" fill="white"/>
<path d="M33.7474 10.8411C31.3099 10.8411 29.4442 8.97541 29.4442 6.50781C29.4442 4.10041 31.2497 2.17448 33.6571 2.17448C34.8909 2.17448 35.9742 2.71615 36.7266 3.46846L38.2914 1.81337C37.1479 0.699942 35.5529 0.0078125 33.6571 0.0078125C29.715 0.0078125 27.0067 2.86661 27.0067 6.50781C27.0067 10.149 29.7752 13.0078 33.7173 13.0078C36.0344 13.0078 37.9002 12.0148 39.0437 10.6004L37.3585 9.09577C36.6062 10.0587 35.4025 10.8411 33.7474 10.8411Z" fill="white"/>
<path d="M43.9797 7.14084H48.1325V4.97417H43.9797V2.35612H49.3963V0.189453H41.5422V12.8283H49.5769V10.6617H43.9797V7.14084Z" fill="white"/>
<path d="M54.5425 3.55874C54.5425 2.59578 55.5657 2.17448 56.4985 2.17448C57.3411 2.17448 58.1837 2.53559 58.6953 3.01707L59.9592 1.21152C58.7555 0.338831 57.5819 0.0078125 56.2879 0.0078125C54.1814 0.0078125 52.105 1.3018 52.105 3.55874C52.105 4.97309 52.8874 5.84578 53.8805 6.41754C55.5657 7.41059 57.9129 7.62124 57.9129 9.24624C57.9129 10.1791 57.1606 10.8411 56.0772 10.8411C54.9337 10.8411 53.8203 10.2393 53.0981 9.45689L51.5032 11.112C52.7972 12.3157 54.362 13.0078 56.0772 13.0078C58.3643 13.0078 60.3504 11.443 60.3504 9.21615C60.3805 4.97309 54.5425 5.60504 54.5425 3.55874Z" fill="white"/>
<path d="M64.9544 3.55874C64.9544 2.59578 65.9775 2.17448 66.9104 2.17448C67.753 2.17448 68.5956 2.53559 69.1072 3.01707L70.3711 1.21152C69.1674 0.338831 67.9937 0.0078125 66.6998 0.0078125C64.5933 0.0078125 62.5169 1.3018 62.5169 3.55874C62.5169 4.97309 63.2993 5.84578 64.2924 6.41754C65.9775 7.41059 68.3248 7.62124 68.3248 9.24624C68.3248 10.1791 67.5724 10.8411 66.4891 10.8411C65.3456 10.8411 64.2322 10.2393 63.5099 9.45689L61.915 11.112C63.209 12.3157 64.7738 13.0078 66.4891 13.0078C68.7762 13.0078 70.7623 11.443 70.7623 9.21615C70.7924 4.97309 64.9544 5.60504 64.9544 3.55874Z" fill="white"/>
<path d="M72.176 2.35612H75.5163V12.8283H77.9538V2.35612H81.2941V0.189453H72.176V2.35612Z" fill="white"/>
<path d="M117.014 1.39316C115.991 0.640842 114.666 0.189453 112.65 0.189453H108.828V12.8283H112.65C114.666 12.8283 115.96 12.407 117.014 11.6246C118.578 10.4811 119.511 8.58528 119.511 6.4788C119.511 4.43251 118.548 2.53667 117.014 1.39316ZM116.171 9.24732C115.479 10.12 114.426 10.6617 112.951 10.6617H111.266V2.35612H112.921C114.426 2.35612 115.449 2.86769 116.141 3.77047C116.713 4.49269 117.074 5.45566 117.074 6.5089C117.074 7.56214 116.743 8.5251 116.171 9.24732Z" fill="white"/>
<path d="M124.658 10.6617V7.14084H128.81V4.97417H124.658V2.35612H130.074V0.189453H122.22V12.8283H130.255V10.6617H124.658Z" fill="white"/>
<path d="M7.77841 0.189453H6.03304L5.61175 1.2126L0.827026 12.8283H3.3548L4.28767 10.4209H9.4636L10.3965 12.8283H13.0145L8.16962 1.09223L7.77841 0.189453ZM8.50064 8.25426H5.25064L6.87564 4.25195L8.50064 8.25426Z" fill="white"/>
<path d="M101.517 0.189453H99.7718L99.3505 1.2126L94.5658 12.8584H97.0936L98.0264 10.451H103.202L104.135 12.8584H106.753L101.908 1.12232L101.517 0.189453ZM102.239 8.25426H98.9593L100.584 4.25195L102.239 8.25426Z" fill="white"/>
<path d="M92.519 3.71028C92.519 1.66399 90.9842 0.189453 88.637 0.189453H83.7319V12.8283H86.1694V7.23112H87.6741L90.6532 12.8283H93.3616L89.9611 6.96028C91.225 6.62927 92.519 5.63621 92.519 3.71028ZM86.1393 2.35612H88.4565C89.4194 2.35612 90.0514 2.95797 90.0514 3.74037C90.0514 4.49269 89.5097 5.06445 88.4565 5.06445H86.1393V2.35612Z" fill="white"/>
</svg>
