<svg width="24" height="25" viewBox="0 0 24 25" fill="none" xmlns="http://www.w3.org/2000/svg">
<g clip-path="url(#clip0_33_41513)">
<path d="M24 12.5078C24 5.88039 18.6274 0.507812 12 0.507812C5.37258 0.507812 0 5.88039 0 12.5078C0 18.4973 4.3882 23.4618 10.125 24.362V15.9766H7.07812V12.5078H10.125V9.86406C10.125 6.85656 11.9166 5.19531 14.6576 5.19531C15.9701 5.19531 17.3438 5.42969 17.3438 5.42969V8.38281H15.8306C14.34 8.38281 13.875 9.30789 13.875 10.2578V12.5078H17.2031L16.6711 15.9766H13.875V24.362C19.6118 23.4618 24 18.4973 24 12.5078Z" fill="#98A2B3"/>
</g>
<defs>
<clipPath id="clip0_33_41513">
<rect width="24" height="24" fill="white" transform="translate(0 0.507812)"/>
</clipPath>
</defs>
</svg>
