<svg width="131" height="14" viewBox="0 0 131 14" fill="none" xmlns="http://www.w3.org/2000/svg">
<path d="M20.4775 11.3841C18.04 11.3841 16.1743 9.51838 16.1743 7.05078C16.1743 4.64338 17.9798 2.71745 20.3872 2.71745C21.621 2.71745 22.7043 3.25911 23.4567 4.01143L25.0215 2.35634C23.878 1.24291 22.2831 0.550781 20.3872 0.550781C16.4451 0.550781 13.7067 3.40958 13.7067 7.05078C13.7067 10.692 16.4752 13.5508 20.4173 13.5508C22.7344 13.5508 24.6002 12.5577 25.7437 11.1434L24.0585 9.63874C23.3363 10.6017 22.1326 11.3841 20.4775 11.3841Z" fill="white"/>
<path d="M33.7474 11.3841C31.3099 11.3841 29.4442 9.51838 29.4442 7.05078C29.4442 4.64338 31.2497 2.71745 33.6571 2.71745C34.8909 2.71745 35.9742 3.25911 36.7266 4.01143L38.2914 2.35634C37.1479 1.24291 35.5529 0.550781 33.6571 0.550781C29.715 0.550781 27.0067 3.40958 27.0067 7.05078C27.0067 10.692 29.7752 13.5508 33.7173 13.5508C36.0344 13.5508 37.9002 12.5577 39.0437 11.1434L37.3585 9.63874C36.6062 10.6017 35.4025 11.3841 33.7474 11.3841Z" fill="white"/>
<path d="M43.9797 7.68381H48.1325V5.51714H43.9797V2.89909H49.3963V0.732422H41.5422V13.3713H49.5769V11.2046H43.9797V7.68381Z" fill="white"/>
<path d="M54.5425 4.10171C54.5425 3.13875 55.5657 2.71745 56.4985 2.71745C57.3411 2.71745 58.1837 3.07856 58.6953 3.56004L59.9592 1.75449C58.7555 0.8818 57.5819 0.550781 56.2879 0.550781C54.1814 0.550781 52.105 1.84476 52.105 4.10171C52.105 5.51606 52.8874 6.38875 53.8805 6.9605C55.5657 7.95356 57.9129 8.16421 57.9129 9.78921C57.9129 10.7221 57.1606 11.3841 56.0772 11.3841C54.9337 11.3841 53.8203 10.7823 53.0981 9.99985L51.5032 11.6549C52.7972 12.8587 54.362 13.5508 56.0772 13.5508C58.3643 13.5508 60.3504 11.986 60.3504 9.75912C60.3805 5.51606 54.5425 6.148 54.5425 4.10171Z" fill="white"/>
<path d="M64.9544 4.10171C64.9544 3.13875 65.9775 2.71745 66.9104 2.71745C67.753 2.71745 68.5956 3.07856 69.1072 3.56004L70.3711 1.75449C69.1674 0.8818 67.9937 0.550781 66.6998 0.550781C64.5933 0.550781 62.5169 1.84476 62.5169 4.10171C62.5169 5.51606 63.2993 6.38875 64.2924 6.9605C65.9775 7.95356 68.3248 8.16421 68.3248 9.78921C68.3248 10.7221 67.5724 11.3841 66.4891 11.3841C65.3456 11.3841 64.2322 10.7823 63.5099 9.99985L61.915 11.6549C63.209 12.8587 64.7738 13.5508 66.4891 13.5508C68.7762 13.5508 70.7623 11.986 70.7623 9.75912C70.7924 5.51606 64.9544 6.148 64.9544 4.10171Z" fill="white"/>
<path d="M72.176 2.89909H75.5163V13.3713H77.9538V2.89909H81.2941V0.732422H72.176V2.89909Z" fill="white"/>
<path d="M117.014 1.93613C115.991 1.18381 114.666 0.732422 112.65 0.732422H108.828V13.3713H112.65C114.666 13.3713 115.96 12.95 117.014 12.1676C118.578 11.0241 119.511 9.12825 119.511 7.02177C119.511 4.97547 118.548 3.07964 117.014 1.93613ZM116.171 9.79029C115.479 10.663 114.426 11.2046 112.951 11.2046H111.266V2.89909H112.921C114.426 2.89909 115.449 3.41066 116.141 4.31344C116.713 5.03566 117.074 5.99862 117.074 7.05186C117.074 8.1051 116.743 9.06806 116.171 9.79029Z" fill="white"/>
<path d="M124.658 11.2046V7.68381H128.81V5.51714H124.658V2.89909H130.074V0.732422H122.22V13.3713H130.255V11.2046H124.658Z" fill="white"/>
<path d="M7.77841 0.732422H6.03304L5.61175 1.75557L0.827026 13.3713H3.3548L4.28767 10.9639H9.4636L10.3965 13.3713H13.0145L8.16962 1.6352L7.77841 0.732422ZM8.50064 8.79723H5.25064L6.87564 4.79492L8.50064 8.79723Z" fill="white"/>
<path d="M101.517 0.732422H99.7718L99.3505 1.75557L94.5658 13.4014H97.0936L98.0264 10.994H103.202L104.135 13.4014H106.753L101.908 1.66529L101.517 0.732422ZM102.239 8.79723H98.9593L100.584 4.79492L102.239 8.79723Z" fill="white"/>
<path d="M92.519 4.25325C92.519 2.20696 90.9842 0.732422 88.637 0.732422H83.7319V13.3713H86.1694V7.77408H87.6741L90.6532 13.3713H93.3616L89.9611 7.50325C91.225 7.17223 92.519 6.17918 92.519 4.25325ZM86.1393 2.89909H88.4565C89.4194 2.89909 90.0514 3.50094 90.0514 4.28334C90.0514 5.03566 89.5097 5.60742 88.4565 5.60742H86.1393V2.89909Z" fill="white"/>
</svg>
