<svg width="24" height="25" viewBox="0 0 24 25" fill="none" xmlns="http://www.w3.org/2000/svg">
<g clip-path="url(#clip0_33_40509)">
<path d="M24 12.0508C24 5.42336 18.6274 0.0507812 12 0.0507812C5.37258 0.0507812 0 5.42336 0 12.0508C0 18.0402 4.3882 23.0048 10.125 23.905V15.5195H7.07812V12.0508H10.125V9.40703C10.125 6.39953 11.9166 4.73828 14.6576 4.73828C15.9701 4.73828 17.3438 4.97266 17.3438 4.97266V7.92578H15.8306C14.34 7.92578 13.875 8.85086 13.875 9.80078V12.0508H17.2031L16.6711 15.5195H13.875V23.905C19.6118 23.0048 24 18.0402 24 12.0508Z" fill="#98A2B3"/>
</g>
<defs>
<clipPath id="clip0_33_40509">
<rect width="24" height="24" fill="white" transform="translate(0 0.0507812)"/>
</clipPath>
</defs>
</svg>
