<svg width="21" height="21" viewBox="0 0 21 21" fill="none" xmlns="http://www.w3.org/2000/svg">
<path d="M7.33317 16.2826H6.9165C3.58317 16.2826 1.9165 15.4493 1.9165 11.2826V7.11597C1.9165 3.78263 3.58317 2.11597 6.9165 2.11597H13.5832C16.9165 2.11597 18.5832 3.78263 18.5832 7.11597V11.2826C18.5832 14.616 16.9165 16.2826 13.5832 16.2826H13.1665C12.9082 16.2826 12.6582 16.4076 12.4998 16.616L11.2498 18.2826C10.6998 19.016 9.79984 19.016 9.24984 18.2826L7.99984 16.616C7.8665 16.4326 7.55817 16.2826 7.33317 16.2826Z" stroke="#101828" stroke-width="1.5" stroke-miterlimit="10" stroke-linecap="round" stroke-linejoin="round"/>
<path d="M13.5805 9.61589H13.588" stroke="#101828" stroke-width="2" stroke-linecap="round" stroke-linejoin="round"/>
<path d="M10.2461 9.61589H10.2536" stroke="#101828" stroke-width="2" stroke-linecap="round" stroke-linejoin="round"/>
<path d="M6.91209 9.61589H6.91957" stroke="#101828" stroke-width="2" stroke-linecap="round" stroke-linejoin="round"/>
</svg>
