<svg width="21" height="21" viewBox="0 0 21 21" fill="none" xmlns="http://www.w3.org/2000/svg">
<path d="M7.83366 16.2826H7.41699C4.08366 16.2826 2.41699 15.4493 2.41699 11.2826V7.11597C2.41699 3.78263 4.08366 2.11597 7.41699 2.11597H14.0837C17.417 2.11597 19.0837 3.78263 19.0837 7.11597V11.2826C19.0837 14.616 17.417 16.2826 14.0837 16.2826H13.667C13.4087 16.2826 13.1587 16.4076 13.0003 16.616L11.7503 18.2826C11.2003 19.016 10.3003 19.016 9.75033 18.2826L8.50033 16.616C8.36699 16.4326 8.05866 16.2826 7.83366 16.2826Z" stroke="#101828" stroke-width="1.5" stroke-miterlimit="10" stroke-linecap="round" stroke-linejoin="round"/>
<path d="M14.0801 9.61589H14.0875" stroke="#101828" stroke-width="2" stroke-linecap="round" stroke-linejoin="round"/>
<path d="M10.7461 9.61589H10.7536" stroke="#101828" stroke-width="2" stroke-linecap="round" stroke-linejoin="round"/>
<path d="M7.41209 9.61589H7.41957" stroke="#101828" stroke-width="2" stroke-linecap="round" stroke-linejoin="round"/>
</svg>
