<svg width="131" height="14" viewBox="0 0 131 14" fill="none" xmlns="http://www.w3.org/2000/svg">
<path d="M20.4776 11.1439C18.0401 11.1439 16.1744 9.27814 16.1744 6.81055C16.1744 4.40314 17.9799 2.47721 20.3873 2.47721C21.6211 2.47721 22.7045 3.01888 23.4568 3.7712L25.0216 2.1161C23.8781 1.00268 22.2832 0.310547 20.3873 0.310547C16.4452 0.310547 13.7068 3.16935 13.7068 6.81055C13.7068 10.4518 16.4753 13.3105 20.4174 13.3105C22.7346 13.3105 24.6003 12.3175 25.7438 10.9031L24.0586 9.39851C23.3364 10.3615 22.1327 11.1439 20.4776 11.1439Z" fill="white"/>
<path d="M33.7476 11.1439C31.3101 11.1439 29.4443 9.27814 29.4443 6.81055C29.4443 4.40314 31.2499 2.47721 33.6573 2.47721C34.8911 2.47721 35.9744 3.01888 36.7267 3.7712L38.2916 2.1161C37.148 1.00268 35.5531 0.310547 33.6573 0.310547C29.7152 0.310547 27.0068 3.16935 27.0068 6.81055C27.0068 10.4518 29.7754 13.3105 33.7175 13.3105C36.0346 13.3105 37.9003 12.3175 39.0439 10.9031L37.3587 9.39851C36.6064 10.3615 35.4027 11.1439 33.7476 11.1439Z" fill="white"/>
<path d="M43.9797 7.44357H48.1325V5.27691H43.9797V2.65885H49.3964V0.492188H41.5422V13.1311H49.577V10.9644H43.9797V7.44357Z" fill="white"/>
<path d="M54.5428 3.86147C54.5428 2.89851 55.5659 2.47721 56.4988 2.47721C57.3414 2.47721 58.184 2.83832 58.6955 3.31981L59.9594 1.51425C58.7557 0.641565 57.5821 0.310547 56.2881 0.310547C54.1817 0.310547 52.1053 1.60453 52.1053 3.86147C52.1053 5.27583 52.8877 6.14851 53.8807 6.72027C55.5659 7.71333 57.9131 7.92397 57.9131 9.54897C57.9131 10.4818 57.1608 11.1439 56.0775 11.1439C54.934 11.1439 53.8205 10.542 53.0983 9.75962L51.5034 11.4147C52.7974 12.6184 54.3622 13.3105 56.0775 13.3105C58.3645 13.3105 60.3506 11.7457 60.3506 9.51888C60.3807 5.27583 54.5428 5.90777 54.5428 3.86147Z" fill="white"/>
<path d="M64.9544 3.86147C64.9544 2.89851 65.9775 2.47721 66.9104 2.47721C67.753 2.47721 68.5956 2.83832 69.1072 3.31981L70.3711 1.51425C69.1674 0.641565 67.9937 0.310547 66.6998 0.310547C64.5933 0.310547 62.5169 1.60453 62.5169 3.86147C62.5169 5.27583 63.2993 6.14851 64.2924 6.72027C65.9775 7.71333 68.3248 7.92397 68.3248 9.54897C68.3248 10.4818 67.5724 11.1439 66.4891 11.1439C65.3456 11.1439 64.2322 10.542 63.5099 9.75962L61.915 11.4147C63.209 12.6184 64.7738 13.3105 66.4891 13.3105C68.7762 13.3105 70.7623 11.7457 70.7623 9.51888C70.7924 5.27583 64.9544 5.90777 64.9544 3.86147Z" fill="white"/>
<path d="M72.1763 2.65885H75.5165V13.1311H77.954V2.65885H81.2943V0.492188H72.1763V2.65885Z" fill="white"/>
<path d="M117.014 1.69589C115.991 0.943576 114.667 0.492188 112.65 0.492188H108.829V13.1311H112.65C114.667 13.1311 115.961 12.7098 117.014 11.9274C118.579 10.7839 119.511 8.88802 119.511 6.78154C119.511 4.73524 118.549 2.83941 117.014 1.69589ZM116.171 9.55005C115.479 10.4227 114.426 10.9644 112.951 10.9644H111.266V2.65885H112.921C114.426 2.65885 115.449 3.17043 116.141 4.0732C116.713 4.79542 117.074 5.75839 117.074 6.81163C117.074 7.86487 116.743 8.82783 116.171 9.55005Z" fill="white"/>
<path d="M124.658 10.9644V7.44357H128.81V5.27691H124.658V2.65885H130.074V0.492188H122.22V13.1311H130.255V10.9644H124.658Z" fill="white"/>
<path d="M7.77854 0.492188H6.03317L5.61187 1.51533L0.827148 13.1311H3.35493L4.2878 10.7237H9.46372L10.3966 13.1311H13.0146L8.16974 1.39496L7.77854 0.492188ZM8.50076 8.557H5.25076L6.87576 4.55469L8.50076 8.557Z" fill="white"/>
<path d="M101.517 0.492188H99.7719L99.3506 1.51533L94.5659 13.1612H97.0937L98.0266 10.7538H103.202L104.135 13.1612H106.753L101.909 1.42505L101.517 0.492188ZM102.24 8.55699H98.9594L100.584 4.55468L102.24 8.55699Z" fill="white"/>
<path d="M92.5192 4.01302C92.5192 1.96672 90.9845 0.492188 88.6373 0.492188H83.7322V13.1311H86.1697V7.53385H87.6743L90.6535 13.1311H93.3618L89.9613 7.26302C91.2252 6.932 92.5192 5.93894 92.5192 4.01302ZM86.1396 2.65885H88.4567C89.4197 2.65885 90.0516 3.2607 90.0516 4.04311C90.0516 4.79542 89.51 5.36719 88.4567 5.36719H86.1396V2.65885Z" fill="white"/>
</svg>
