<svg width="117" height="12" viewBox="0 0 117 12" fill="none" xmlns="http://www.w3.org/2000/svg">
<path d="M18.4649 9.88944C16.277 9.88944 14.6023 8.21477 14.6023 5.99988C14.6023 3.83901 16.223 2.11031 18.3839 2.11031C19.4913 2.11031 20.4637 2.59651 21.139 3.27178L22.5435 1.78618C21.5171 0.786777 20.0855 0.165527 18.3839 0.165527C14.8454 0.165527 12.3875 2.73156 12.3875 5.99988C12.3875 9.26819 14.8724 11.8342 18.4109 11.8342C20.4907 11.8342 22.1654 10.9429 23.1918 9.67335L21.6792 8.32281C21.0309 9.18715 19.9505 9.88944 18.4649 9.88944Z" fill="black"/>
<path d="M30.3756 9.88944C28.1877 9.88944 26.5131 8.21477 26.5131 5.99988C26.5131 3.83901 28.1337 2.11031 30.2946 2.11031C31.402 2.11031 32.3744 2.59651 33.0497 3.27178L34.4543 1.78618C33.4279 0.786777 31.9963 0.165527 30.2946 0.165527C26.7562 0.165527 24.3252 2.73156 24.3252 5.99988C24.3252 9.26819 26.8102 11.8342 30.3486 11.8342C32.4285 11.8342 34.1031 10.9429 35.1295 9.67335L33.6169 8.32281C32.9417 9.18715 31.8612 9.88944 30.3756 9.88944Z" fill="black"/>
<path d="M39.5602 6.56812H43.2877V4.62334H39.5602V2.27339H44.4222V0.328613H37.3723V11.6732H44.5842V9.72839H39.5602V6.56812Z" fill="black"/>
<path d="M49.0413 3.35281C49.0413 2.48846 49.9597 2.11031 50.797 2.11031C51.5533 2.11031 52.3096 2.43444 52.7688 2.86661L53.9033 1.24596C52.8228 0.462647 51.7694 0.165527 50.608 0.165527C48.7172 0.165527 46.8534 1.327 46.8534 3.35281C46.8534 4.62232 47.5557 5.40564 48.4471 5.91884C49.9597 6.8102 52.0665 6.99928 52.0665 8.45786C52.0665 9.2952 51.3913 9.88944 50.4189 9.88944C49.3925 9.88944 48.3931 9.34922 47.7448 8.64694L46.3132 10.1325C47.4747 11.213 48.8793 11.8342 50.4189 11.8342C52.4717 11.8342 54.2544 10.4297 54.2544 8.43085C54.2814 4.62232 49.0413 5.18955 49.0413 3.35281Z" fill="black"/>
<path d="M58.3868 3.35281C58.3868 2.48846 59.3052 2.11031 60.1425 2.11031C60.8988 2.11031 61.6551 2.43444 62.1143 2.86661L63.2487 1.24596C62.1683 0.462647 61.1149 0.165527 59.9534 0.165527C58.0627 0.165527 56.1989 1.327 56.1989 3.35281C56.1989 4.62232 56.9012 5.40564 57.7925 5.91884C59.3052 6.8102 61.412 6.99928 61.412 8.45786C61.412 9.2952 60.7367 9.88944 59.7643 9.88944C58.7379 9.88944 57.7385 9.34922 57.0903 8.64694L55.6587 10.1325C56.8202 11.213 58.2247 11.8342 59.7643 11.8342C61.8172 11.8342 63.5999 10.4297 63.5999 8.43085C63.6269 4.62232 58.3868 5.18955 58.3868 3.35281Z" fill="black"/>
<path d="M64.8689 2.27339H67.8671V11.6732H70.055V2.27339H73.0532V0.328613H64.8689V2.27339Z" fill="black"/>
<path d="M105.115 1.40905C104.196 0.733776 103.008 0.328613 101.198 0.328613H97.7678V11.6732H101.198C103.008 11.6732 104.169 11.295 105.115 10.5927C106.519 9.56633 107.357 7.86464 107.357 5.97388C107.357 4.13714 106.492 2.43546 105.115 1.40905ZM104.358 8.45888C103.737 9.24219 102.792 9.72839 101.468 9.72839H99.9557V2.27339H101.441C102.792 2.27339 103.71 2.73258 104.331 3.5429C104.845 4.19116 105.169 5.05551 105.169 6.00089C105.169 6.94627 104.872 7.81062 104.358 8.45888Z" fill="black"/>
<path d="M111.976 9.72839V6.56812H115.703V4.62334H111.976V2.27339H116.838V0.328613H109.788V11.6732H117V9.72839H111.976Z" fill="black"/>
<path d="M7.06617 0.328613H5.49954L5.12139 1.24698L0.82666 11.6732H3.09557L3.93291 9.5123H8.57878L9.41611 11.6732H11.7661L7.41731 1.13894L7.06617 0.328613ZM7.71443 7.56752H4.79726L6.25584 3.97508L7.71443 7.56752Z" fill="black"/>
<path d="M91.2053 0.328613H89.6387L89.2605 1.24698L84.9658 11.7002H87.2347L88.0721 9.53931H92.7179L93.5553 11.7002H95.9052L91.5565 1.16595L91.2053 0.328613ZM91.8536 7.56752H88.9094L90.368 3.97508L91.8536 7.56752Z" fill="black"/>
<path d="M83.1286 3.48888C83.1286 1.65214 81.7511 0.328613 79.6442 0.328613H75.2415V11.6732H77.4293V6.64915H78.7799L81.454 11.6732H83.8849L80.8327 6.40606C81.9672 6.10894 83.1286 5.21758 83.1286 3.48888ZM77.4023 2.27339H79.4822C80.3465 2.27339 80.9137 2.81361 80.9137 3.51589C80.9137 4.19116 80.4275 4.70437 79.4822 4.70437H77.4023V2.27339Z" fill="black"/>
</svg>
