<svg width="131" height="14" viewBox="0 0 131 14" fill="none" xmlns="http://www.w3.org/2000/svg">
<path d="M20.4775 11.0072C18.04 11.0072 16.1743 9.14142 16.1743 6.67383C16.1743 4.26642 17.9798 2.34049 20.3872 2.34049C21.621 2.34049 22.7043 2.88216 23.4567 3.63448L25.0215 1.97938C23.878 0.865958 22.2831 0.173828 20.3872 0.173828C16.4451 0.173828 13.7067 3.03263 13.7067 6.67383C13.7067 10.315 16.4752 13.1738 20.4173 13.1738C22.7344 13.1738 24.6002 12.1808 25.7437 10.7664L24.0585 9.26179C23.3363 10.2248 22.1326 11.0072 20.4775 11.0072Z" fill="white"/>
<path d="M33.7474 11.0072C31.3099 11.0072 29.4442 9.14142 29.4442 6.67383C29.4442 4.26642 31.2497 2.34049 33.6571 2.34049C34.8909 2.34049 35.9742 2.88216 36.7266 3.63448L38.2914 1.97938C37.1479 0.865958 35.5529 0.173828 33.6571 0.173828C29.715 0.173828 27.0067 3.03263 27.0067 6.67383C27.0067 10.315 29.7752 13.1738 33.7173 13.1738C36.0344 13.1738 37.9002 12.1808 39.0437 10.7664L37.3585 9.26179C36.6062 10.2248 35.4025 11.0072 33.7474 11.0072Z" fill="white"/>
<path d="M43.9797 7.30685H48.1325V5.14019H43.9797V2.52213H49.3963V0.355469H41.5422V12.9944H49.5769V10.8277H43.9797V7.30685Z" fill="white"/>
<path d="M54.5425 3.72476C54.5425 2.76179 55.5657 2.34049 56.4985 2.34049C57.3411 2.34049 58.1837 2.70161 58.6953 3.18309L59.9592 1.37753C58.7555 0.504847 57.5819 0.173828 56.2879 0.173828C54.1814 0.173828 52.105 1.46781 52.105 3.72476C52.105 5.13911 52.8874 6.01179 53.8805 6.58355C55.5657 7.57661 57.9129 7.78725 57.9129 9.41225C57.9129 10.3451 57.1606 11.0072 56.0772 11.0072C54.9337 11.0072 53.8203 10.4053 53.0981 9.6229L51.5032 11.278C52.7972 12.4817 54.362 13.1738 56.0772 13.1738C58.3643 13.1738 60.3504 11.609 60.3504 9.38216C60.3805 5.13911 54.5425 5.77105 54.5425 3.72476Z" fill="white"/>
<path d="M64.9544 3.72476C64.9544 2.76179 65.9775 2.34049 66.9104 2.34049C67.753 2.34049 68.5956 2.70161 69.1072 3.18309L70.3711 1.37753C69.1674 0.504847 67.9937 0.173828 66.6998 0.173828C64.5933 0.173828 62.5169 1.46781 62.5169 3.72476C62.5169 5.13911 63.2993 6.01179 64.2924 6.58355C65.9775 7.57661 68.3248 7.78725 68.3248 9.41225C68.3248 10.3451 67.5724 11.0072 66.4891 11.0072C65.3456 11.0072 64.2322 10.4053 63.5099 9.6229L61.915 11.278C63.209 12.4817 64.7738 13.1738 66.4891 13.1738C68.7762 13.1738 70.7623 11.609 70.7623 9.38216C70.7924 5.13911 64.9544 5.77105 64.9544 3.72476Z" fill="white"/>
<path d="M72.176 2.52213H75.5163V12.9944H77.9538V2.52213H81.2941V0.355469H72.176V2.52213Z" fill="white"/>
<path d="M117.014 1.55917C115.991 0.806857 114.666 0.355469 112.65 0.355469H108.828V12.9944H112.65C114.666 12.9944 115.96 12.5731 117.014 11.7906C118.578 10.6471 119.511 8.7513 119.511 6.64482C119.511 4.59852 118.548 2.70269 117.014 1.55917ZM116.171 9.41333C115.479 10.286 114.426 10.8277 112.951 10.8277H111.266V2.52213H112.921C114.426 2.52213 115.449 3.03371 116.141 3.93648C116.713 4.65871 117.074 5.62167 117.074 6.67491C117.074 7.72815 116.743 8.69111 116.171 9.41333Z" fill="white"/>
<path d="M124.658 10.8277V7.30685H128.81V5.14019H124.658V2.52213H130.074V0.355469H122.22V12.9944H130.255V10.8277H124.658Z" fill="white"/>
<path d="M7.77841 0.355469H6.03304L5.61175 1.37861L0.827026 12.9944H3.3548L4.28767 10.5869H9.4636L10.3965 12.9944H13.0145L8.16962 1.25825L7.77841 0.355469ZM8.50064 8.42028H5.25064L6.87564 4.41797L8.50064 8.42028Z" fill="white"/>
<path d="M101.517 0.355469H99.7718L99.3505 1.37861L94.5658 13.0244H97.0936L98.0265 10.617H103.202L104.135 13.0244H106.753L101.908 1.28834L101.517 0.355469ZM102.239 8.42027H98.9593L100.584 4.41797L102.239 8.42027Z" fill="white"/>
<path d="M92.519 3.8763C92.519 1.83 90.9842 0.355469 88.637 0.355469H83.7319V12.9944H86.1694V7.39713H87.6741L90.6532 12.9944H93.3616L89.9611 7.1263C91.225 6.79528 92.519 5.80223 92.519 3.8763ZM86.1393 2.52213H88.4565C89.4194 2.52213 90.0514 3.12398 90.0514 3.90639C90.0514 4.6587 89.5097 5.23047 88.4565 5.23047H86.1393V2.52213Z" fill="white"/>
</svg>
