<svg width="24" height="25" viewBox="0 0 24 25" fill="none" xmlns="http://www.w3.org/2000/svg">
<g clip-path="url(#clip0_5_40849)">
<path d="M24 12.9736C24 6.34621 18.6274 0.973633 12 0.973633C5.37258 0.973633 0 6.34621 0 12.9736C0 18.9631 4.3882 23.9276 10.125 24.8279V16.4424H7.07812V12.9736H10.125V10.3299C10.125 7.32238 11.9166 5.66113 14.6576 5.66113C15.9701 5.66113 17.3438 5.89551 17.3438 5.89551V8.84863H15.8306C14.34 8.84863 13.875 9.77371 13.875 10.7236V12.9736H17.2031L16.6711 16.4424H13.875V24.8279C19.6118 23.9276 24 18.9631 24 12.9736Z" fill="#98A2B3"/>
</g>
<defs>
<clipPath id="clip0_5_40849">
<rect width="24" height="24" fill="white" transform="translate(0 0.973633)"/>
</clipPath>
</defs>
</svg>
