<svg width="117" height="12" viewBox="0 0 117 12" fill="none" xmlns="http://www.w3.org/2000/svg">
<path d="M18.4646 9.88944C16.2768 9.88944 14.6021 8.21477 14.6021 5.99988C14.6021 3.83901 16.2227 2.11031 18.3836 2.11031C19.4911 2.11031 20.4635 2.59651 21.1387 3.27178L22.5433 1.78618C21.5169 0.786777 20.0853 0.165527 18.3836 0.165527C14.8452 0.165527 12.3872 2.73156 12.3872 5.99988C12.3872 9.26819 14.8722 11.8342 18.4106 11.8342C20.4905 11.8342 22.1651 10.9429 23.1915 9.67335L21.6789 8.32281C21.0307 9.18716 19.9502 9.88944 18.4646 9.88944Z" fill="black"/>
<path d="M30.3756 9.88944C28.1877 9.88944 26.5131 8.21477 26.5131 5.99988C26.5131 3.83901 28.1337 2.11031 30.2946 2.11031C31.402 2.11031 32.3744 2.59651 33.0497 3.27178L34.4543 1.78618C33.4279 0.786777 31.9963 0.165527 30.2946 0.165527C26.7562 0.165527 24.3252 2.73156 24.3252 5.99988C24.3252 9.26819 26.8102 11.8342 30.3486 11.8342C32.4285 11.8342 34.1031 10.9429 35.1295 9.67335L33.6169 8.32281C32.9417 9.18716 31.8612 9.88944 30.3756 9.88944Z" fill="black"/>
<path d="M39.5599 6.56763H43.2875V4.62285H39.5599V2.27291H44.4219V0.328125H37.3721V11.6727H44.584V9.7279H39.5599V6.56763Z" fill="black"/>
<path d="M49.0411 3.35281C49.0411 2.48846 49.9595 2.11031 50.7968 2.11031C51.5531 2.11031 52.3094 2.43444 52.7686 2.86661L53.903 1.24596C52.8226 0.462647 51.7692 0.165527 50.6077 0.165527C48.717 0.165527 46.8532 1.327 46.8532 3.35281C46.8532 4.62232 47.5555 5.40564 48.4468 5.91884C49.9595 6.8102 52.0663 6.99928 52.0663 8.45786C52.0663 9.2952 51.391 9.88944 50.4186 9.88944C49.3922 9.88944 48.3928 9.34922 47.7446 8.64694L46.313 10.1325C47.4745 11.213 48.879 11.8342 50.4186 11.8342C52.4715 11.8342 54.2542 10.4297 54.2542 8.43085C54.2812 4.62232 49.0411 5.18955 49.0411 3.35281Z" fill="black"/>
<path d="M58.3868 3.35281C58.3868 2.48846 59.3052 2.11031 60.1425 2.11031C60.8988 2.11031 61.6551 2.43444 62.1143 2.86661L63.2487 1.24596C62.1683 0.462647 61.1149 0.165527 59.9534 0.165527C58.0627 0.165527 56.1989 1.327 56.1989 3.35281C56.1989 4.62232 56.9012 5.40564 57.7925 5.91884C59.3052 6.8102 61.412 6.99928 61.412 8.45786C61.412 9.2952 60.7367 9.88944 59.7643 9.88944C58.7379 9.88944 57.7385 9.34922 57.0903 8.64694L55.6587 10.1325C56.8202 11.213 58.2247 11.8342 59.7643 11.8342C61.8172 11.8342 63.5999 10.4297 63.5999 8.43085C63.6269 4.62232 58.3868 5.18955 58.3868 3.35281Z" fill="black"/>
<path d="M64.8691 2.27291H67.8673V11.6727H70.0552V2.27291H73.0534V0.328125H64.8691V2.27291Z" fill="black"/>
<path d="M105.115 1.40856C104.197 0.733288 103.008 0.328125 101.198 0.328125H97.7681V11.6727H101.198C103.008 11.6727 104.17 11.2945 105.115 10.5922C106.52 9.56584 107.357 7.86415 107.357 5.97339C107.357 4.13665 106.493 2.43497 105.115 1.40856ZM104.359 8.45839C103.737 9.2417 102.792 9.7279 101.469 9.7279H99.9559V2.27291H101.442C102.792 2.27291 103.71 2.73209 104.332 3.54242C104.845 4.19068 105.169 5.05502 105.169 6.0004C105.169 6.94578 104.872 7.81013 104.359 8.45839Z" fill="black"/>
<path d="M111.976 9.7279V6.56763H115.703V4.62285H111.976V2.27291H116.838V0.328125H109.788V11.6727H117V9.7279H111.976Z" fill="black"/>
<path d="M7.06617 0.328125H5.49954L5.12139 1.24649L0.82666 11.6727H3.09557L3.93291 9.51182H8.57878L9.41611 11.6727H11.7661L7.41731 1.13845L7.06617 0.328125ZM7.71443 7.56703H4.79726L6.25584 3.97459L7.71443 7.56703Z" fill="black"/>
<path d="M91.2053 0.328125H89.6387L89.2605 1.24649L84.9658 11.6997H87.2347L88.0721 9.53882H92.7179L93.5553 11.6997H95.9052L91.5565 1.16546L91.2053 0.328125ZM91.8536 7.56703H88.9094L90.368 3.97459L91.8536 7.56703Z" fill="black"/>
<path d="M83.1284 3.48839C83.1284 1.65166 81.7508 0.328125 79.644 0.328125H75.2412V11.6727H77.4291V6.64866H78.7796L81.4537 11.6727H83.8847L80.8325 6.40557C81.9669 6.10845 83.1284 5.21709 83.1284 3.48839ZM77.4021 2.27291H79.4819C80.3463 2.27291 80.9135 2.81312 80.9135 3.5154C80.9135 4.19067 80.4273 4.70388 79.4819 4.70388H77.4021V2.27291Z" fill="black"/>
</svg>
