<svg width="131" height="14" viewBox="0 0 131 14" fill="none" xmlns="http://www.w3.org/2000/svg">
<path d="M20.4774 11.307C18.0399 11.307 16.1741 9.44123 16.1741 6.97363C16.1741 4.56623 17.9797 2.6403 20.3871 2.6403C21.6209 2.6403 22.7042 3.18197 23.4565 3.93428L25.0214 2.27919C23.8778 1.16576 22.2829 0.473633 20.3871 0.473633C16.445 0.473633 13.7065 3.33243 13.7065 6.97363C13.7065 10.6148 16.4751 13.4736 20.4172 13.4736C22.7343 13.4736 24.6001 12.4806 25.7436 11.0662L24.0584 9.5616C23.3362 10.5246 22.1325 11.307 20.4774 11.307Z" fill="white"/>
<path d="M33.7476 11.307C31.3101 11.307 29.4443 9.44123 29.4443 6.97363C29.4443 4.56623 31.2499 2.6403 33.6573 2.6403C34.8911 2.6403 35.9744 3.18197 36.7267 3.93428L38.2916 2.27919C37.148 1.16576 35.5531 0.473633 33.6573 0.473633C29.7152 0.473633 27.0068 3.33243 27.0068 6.97363C27.0068 10.6148 29.7754 13.4736 33.7175 13.4736C36.0346 13.4736 37.9003 12.4806 39.0439 11.0662L37.3587 9.5616C36.6064 10.5246 35.4027 11.307 33.7476 11.307Z" fill="white"/>
<path d="M43.98 7.60617H48.1328V5.4395H43.98V2.82145H49.3966V0.654785H41.5425V13.2937H49.5772V11.127H43.98V7.60617Z" fill="white"/>
<path d="M54.5428 4.02456C54.5428 3.0616 55.5659 2.6403 56.4988 2.6403C57.3414 2.6403 58.184 3.00141 58.6955 3.48289L59.9594 1.67734C58.7557 0.804651 57.5821 0.473633 56.2881 0.473633C54.1817 0.473633 52.1053 1.76762 52.1053 4.02456C52.1053 5.43891 52.8877 6.3116 53.8807 6.88336C55.5659 7.87641 57.9131 8.08706 57.9131 9.71206C57.9131 10.6449 57.1608 11.307 56.0775 11.307C54.934 11.307 53.8205 10.7051 53.0983 9.92271L51.5034 11.5778C52.7974 12.7815 54.3622 13.4736 56.0775 13.4736C58.3645 13.4736 60.3506 11.9088 60.3506 9.68197C60.3807 5.43891 54.5428 6.07086 54.5428 4.02456Z" fill="white"/>
<path d="M64.9544 4.02456C64.9544 3.0616 65.9775 2.6403 66.9104 2.6403C67.753 2.6403 68.5956 3.00141 69.1072 3.48289L70.3711 1.67734C69.1674 0.804651 67.9937 0.473633 66.6998 0.473633C64.5933 0.473633 62.5169 1.76762 62.5169 4.02456C62.5169 5.43891 63.2993 6.3116 64.2924 6.88336C65.9775 7.87641 68.3248 8.08706 68.3248 9.71206C68.3248 10.6449 67.5724 11.307 66.4891 11.307C65.3456 11.307 64.2322 10.7051 63.5099 9.92271L61.915 11.5778C63.209 12.7815 64.7738 13.4736 66.4891 13.4736C68.7762 13.4736 70.7623 11.9088 70.7623 9.68197C70.7924 5.43891 64.9544 6.07086 64.9544 4.02456Z" fill="white"/>
<path d="M72.1763 2.82145H75.5165V13.2937H77.954V2.82145H81.2943V0.654785H72.1763V2.82145Z" fill="white"/>
<path d="M117.014 1.85849C115.991 1.10617 114.667 0.654785 112.65 0.654785H108.829V13.2937H112.65C114.667 13.2937 115.961 12.8724 117.014 12.09C118.579 10.9464 119.511 9.05061 119.511 6.94413C119.511 4.89784 118.549 3.00201 117.014 1.85849ZM116.171 9.71265C115.479 10.5853 114.426 11.127 112.951 11.127H111.266V2.82145H112.921C114.426 2.82145 115.449 3.33302 116.141 4.2358C116.713 4.95802 117.074 5.92099 117.074 6.97423C117.074 8.02747 116.743 8.99043 116.171 9.71265Z" fill="white"/>
<path d="M124.658 11.127V7.60617H128.81V5.4395H124.658V2.82145H130.074V0.654785H122.22V13.2937H130.255V11.127H124.658Z" fill="white"/>
<path d="M7.77854 0.654785H6.03317L5.61187 1.67793L0.827148 13.2937H3.35493L4.2878 10.8863H9.46372L10.3966 13.2937H13.0146L8.16974 1.55756L7.77854 0.654785ZM8.50076 8.71959H5.25076L6.87576 4.71728L8.50076 8.71959Z" fill="white"/>
<path d="M101.517 0.654785H99.7719L99.3506 1.67793L94.5659 13.3238H97.0937L98.0266 10.9163H103.202L104.135 13.3238H106.753L101.909 1.58765L101.517 0.654785ZM102.24 8.71959H98.9594L100.584 4.71728L102.24 8.71959Z" fill="white"/>
<path d="M92.519 4.17562C92.519 2.12932 90.9842 0.654785 88.637 0.654785H83.7319V13.2937H86.1694V7.69645H87.6741L90.6532 13.2937H93.3616L89.9611 7.42562C91.225 7.0946 92.519 6.10154 92.519 4.17562ZM86.1393 2.82145H88.4565C89.4194 2.82145 90.0514 3.4233 90.0514 4.20571C90.0514 4.95802 89.5097 5.52978 88.4565 5.52978H86.1393V2.82145Z" fill="white"/>
</svg>
