<svg width="117" height="12" viewBox="0 0 117 12" fill="none" xmlns="http://www.w3.org/2000/svg">
<path d="M18.4649 9.88993C16.277 9.88993 14.6023 8.21525 14.6023 6.00036C14.6023 3.83949 16.223 2.1108 18.3839 2.1108C19.4913 2.1108 20.4637 2.59699 21.139 3.27226L22.5435 1.78667C21.5171 0.787265 20.0855 0.166016 18.3839 0.166016C14.8454 0.166016 12.3875 2.73205 12.3875 6.00036C12.3875 9.26868 14.8724 11.8347 18.4109 11.8347C20.4907 11.8347 22.1654 10.9433 23.1918 9.67384L21.6792 8.3233C21.0309 9.18764 19.9505 9.88993 18.4649 9.88993Z" fill="black"/>
<path d="M30.3757 9.88993C28.1879 9.88993 26.5132 8.21525 26.5132 6.00036C26.5132 3.83949 28.1338 2.1108 30.2947 2.1108C31.4022 2.1108 32.3746 2.59699 33.0498 3.27226L34.4544 1.78667C33.428 0.787265 31.9964 0.166016 30.2947 0.166016C26.7563 0.166016 24.3253 2.73205 24.3253 6.00036C24.3253 9.26868 26.8103 11.8347 30.3487 11.8347C32.4286 11.8347 34.1032 10.9433 35.1297 9.67384L33.6171 8.3233C32.9418 9.18764 31.8613 9.88993 30.3757 9.88993Z" fill="black"/>
<path d="M39.5602 6.56861H43.2877V4.62383H39.5602V2.27388H44.4222V0.329102H37.3723V11.6737H44.5842V9.72888H39.5602V6.56861Z" fill="black"/>
<path d="M49.0413 3.3533C49.0413 2.48895 49.9597 2.1108 50.797 2.1108C51.5533 2.1108 52.3096 2.43493 52.7688 2.8671L53.9033 1.24645C52.8228 0.463135 51.7694 0.166016 50.608 0.166016C48.7172 0.166016 46.8534 1.32748 46.8534 3.3533C46.8534 4.62281 47.5557 5.40612 48.4471 5.91933C49.9597 6.81069 52.0665 6.99976 52.0665 8.45835C52.0665 9.29569 51.3913 9.88993 50.4189 9.88993C49.3925 9.88993 48.3931 9.34971 47.7448 8.64743L46.3132 10.133C47.4747 11.2135 48.8793 11.8347 50.4189 11.8347C52.4717 11.8347 54.2544 10.4301 54.2544 8.43134C54.2814 4.62281 49.0413 5.19004 49.0413 3.3533Z" fill="black"/>
<path d="M58.3869 3.3533C58.3869 2.48895 59.3053 2.1108 60.1426 2.1108C60.8989 2.1108 61.6552 2.43493 62.1144 2.8671L63.2489 1.24645C62.1684 0.463135 61.115 0.166016 59.9535 0.166016C58.0628 0.166016 56.199 1.32748 56.199 3.3533C56.199 4.62281 56.9013 5.40612 57.7927 5.91933C59.3053 6.81069 61.4121 6.99976 61.4121 8.45835C61.4121 9.29569 60.7369 9.88993 59.7645 9.88993C58.7381 9.88993 57.7387 9.34971 57.0904 8.64743L55.6588 10.133C56.8203 11.2135 58.2248 11.8347 59.7645 11.8347C61.8173 11.8347 63.6 10.4301 63.6 8.43134C63.627 4.62281 58.3869 5.19004 58.3869 3.3533Z" fill="black"/>
<path d="M64.869 2.27388H67.8672V11.6737H70.0551V2.27388H73.0533V0.329102H64.869V2.27388Z" fill="black"/>
<path d="M105.115 1.40954C104.197 0.734264 103.008 0.329102 101.198 0.329102H97.7679V11.6737H101.198C103.008 11.6737 104.17 11.2955 105.115 10.5932C106.519 9.56681 107.357 7.86513 107.357 5.97437C107.357 4.13763 106.492 2.43595 105.115 1.40954ZM104.359 8.45937C103.737 9.24268 102.792 9.72888 101.468 9.72888H99.9558V2.27388H101.441C102.792 2.27388 103.71 2.73307 104.332 3.54339C104.845 4.19165 105.169 5.056 105.169 6.00138C105.169 6.94676 104.872 7.81111 104.359 8.45937Z" fill="black"/>
<path d="M111.976 9.72888V6.56861H115.703V4.62383H111.976V2.27388H116.838V0.329102H109.788V11.6737H117V9.72888H111.976Z" fill="black"/>
<path d="M7.06629 0.329102H5.49966L5.12151 1.24747L0.826782 11.6737H3.09569L3.93303 9.51279H8.5789L9.41623 11.6737H11.7662L7.41743 1.13943L7.06629 0.329102ZM7.71455 7.56801H4.79738L6.25596 3.97557L7.71455 7.56801Z" fill="black"/>
<path d="M91.2053 0.329102H89.6387L89.2605 1.24747L84.9658 11.7007H87.2347L88.0721 9.5398H92.7179L93.5553 11.7007H95.9052L91.5565 1.16644L91.2053 0.329102ZM91.8536 7.568H88.9094L90.368 3.97557L91.8536 7.568Z" fill="black"/>
<path d="M83.1286 3.48937C83.1286 1.65263 81.7511 0.329102 79.6442 0.329102H75.2415V11.6737H77.4293V6.64964H78.7799L81.454 11.6737H83.8849L80.8327 6.40654C81.9672 6.10942 83.1286 5.21807 83.1286 3.48937ZM77.4023 2.27388H79.4822C80.3465 2.27388 80.9137 2.8141 80.9137 3.51638C80.9137 4.19165 80.4275 4.70486 79.4822 4.70486H77.4023V2.27388Z" fill="black"/>
</svg>
