<svg width="131" height="14" viewBox="0 0 131 14" fill="none" xmlns="http://www.w3.org/2000/svg">
<path d="M20.4775 11.5286C18.04 11.5286 16.1743 9.66291 16.1743 7.19531C16.1743 4.78791 17.9798 2.86198 20.3872 2.86198C21.621 2.86198 22.7043 3.40365 23.4567 4.15596L25.0215 2.50087C23.878 1.38744 22.2831 0.695312 20.3872 0.695312C16.4451 0.695312 13.7067 3.55411 13.7067 7.19531C13.7067 10.8365 16.4752 13.6953 20.4173 13.6953C22.7344 13.6953 24.6002 12.7023 25.7437 11.2879L24.0585 9.78327C23.3363 10.7462 22.1326 11.5286 20.4775 11.5286Z" fill="white"/>
<path d="M33.7473 11.5286C31.3098 11.5286 29.4441 9.66291 29.4441 7.19531C29.4441 4.78791 31.2496 2.86198 33.6571 2.86198C34.8908 2.86198 35.9742 3.40365 36.7265 4.15596L38.2913 2.50087C37.1478 1.38744 35.5529 0.695312 33.6571 0.695312C29.7149 0.695312 27.0066 3.55411 27.0066 7.19531C27.0066 10.8365 29.7751 13.6953 33.7172 13.6953C36.0344 13.6953 37.9001 12.7023 39.0436 11.2879L37.3584 9.78327C36.6061 10.7462 35.4024 11.5286 33.7473 11.5286Z" fill="white"/>
<path d="M43.9797 7.82785H48.1325V5.66118H43.9797V3.04313H49.3964V0.876465H41.5422V13.5153H49.577V11.3487H43.9797V7.82785Z" fill="white"/>
<path d="M54.5425 4.24624C54.5425 3.28328 55.5657 2.86198 56.4985 2.86198C57.3411 2.86198 58.1837 3.22309 58.6953 3.70457L59.9592 1.89902C58.7555 1.02633 57.5819 0.695312 56.2879 0.695312C54.1814 0.695312 52.105 1.9893 52.105 4.24624C52.105 5.66059 52.8874 6.53328 53.8805 7.10504C55.5657 8.09809 57.9129 8.30874 57.9129 9.93374C57.9129 10.8666 57.1606 11.5286 56.0772 11.5286C54.9337 11.5286 53.8203 10.9268 53.0981 10.1444L51.5032 11.7995C52.7972 13.0032 54.362 13.6953 56.0772 13.6953C58.3643 13.6953 60.3504 12.1305 60.3504 9.90365C60.3805 5.66059 54.5425 6.29254 54.5425 4.24624Z" fill="white"/>
<path d="M64.9544 4.24624C64.9544 3.28328 65.9775 2.86198 66.9104 2.86198C67.753 2.86198 68.5956 3.22309 69.1072 3.70457L70.3711 1.89902C69.1674 1.02633 67.9937 0.695312 66.6998 0.695312C64.5933 0.695312 62.5169 1.9893 62.5169 4.24624C62.5169 5.66059 63.2993 6.53328 64.2924 7.10504C65.9775 8.09809 68.3248 8.30874 68.3248 9.93374C68.3248 10.8666 67.5724 11.5286 66.4891 11.5286C65.3456 11.5286 64.2322 10.9268 63.5099 10.1444L61.915 11.7995C63.209 13.0032 64.7738 13.6953 66.4891 13.6953C68.7762 13.6953 70.7623 12.1305 70.7623 9.90365C70.7924 5.66059 64.9544 6.29254 64.9544 4.24624Z" fill="white"/>
<path d="M72.176 3.04313H75.5163V13.5153H77.9538V3.04313H81.2941V0.876465H72.176V3.04313Z" fill="white"/>
<path d="M117.014 2.08017C115.991 1.32785 114.666 0.876465 112.65 0.876465H108.828V13.5153H112.65C114.666 13.5153 115.96 13.0941 117.014 12.3116C118.578 11.1681 119.511 9.27229 119.511 7.16581C119.511 5.11952 118.548 3.22369 117.014 2.08017ZM116.171 9.93433C115.479 10.807 114.426 11.3487 112.951 11.3487H111.266V3.04313H112.921C114.426 3.04313 115.449 3.5547 116.141 4.45748C116.713 5.1797 117.074 6.14267 117.074 7.19591C117.074 8.24915 116.743 9.21211 116.171 9.93433Z" fill="white"/>
<path d="M124.657 11.3487V7.82785H128.81V5.66118H124.657V3.04313H130.074V0.876465H122.22V13.5153H130.255V11.3487H124.657Z" fill="white"/>
<path d="M7.77841 0.876465H6.03304L5.61175 1.89961L0.827026 13.5153H3.3548L4.28767 11.1079H9.4636L10.3965 13.5153H13.0145L8.16962 1.77924L7.77841 0.876465ZM8.50064 8.94127H5.25064L6.87564 4.93896L8.50064 8.94127Z" fill="white"/>
<path d="M101.517 0.876465H99.7718L99.3505 1.89961L94.5658 13.5454H97.0936L98.0264 11.138H103.202L104.135 13.5454H106.753L101.908 1.80933L101.517 0.876465ZM102.239 8.94127H98.9593L100.584 4.93896L102.239 8.94127Z" fill="white"/>
<path d="M92.519 4.3973C92.519 2.351 90.9842 0.876465 88.637 0.876465H83.7319V13.5153H86.1694V7.91813H87.6741L90.6532 13.5153H93.3616L89.9611 7.6473C91.225 7.31628 92.519 6.32322 92.519 4.3973ZM86.1393 3.04313H88.4565C89.4194 3.04313 90.0514 3.64498 90.0514 4.42739C90.0514 5.1797 89.5097 5.75146 88.4565 5.75146H86.1393V3.04313Z" fill="white"/>
</svg>
