<svg width="24" height="25" viewBox="0 0 24 25" fill="none" xmlns="http://www.w3.org/2000/svg">
<g clip-path="url(#clip0_33_41011)">
<path d="M24 12.1953C24 5.56789 18.6274 0.195312 12 0.195312C5.37258 0.195312 0 5.56789 0 12.1953C0 18.1848 4.3882 23.1493 10.125 24.0495V15.6641H7.07812V12.1953H10.125V9.55156C10.125 6.54406 11.9166 4.88281 14.6576 4.88281C15.9701 4.88281 17.3438 5.11719 17.3438 5.11719V8.07031H15.8306C14.34 8.07031 13.875 8.99539 13.875 9.94531V12.1953H17.2031L16.6711 15.6641H13.875V24.0495C19.6118 23.1493 24 18.1848 24 12.1953Z" fill="#98A2B3"/>
</g>
<defs>
<clipPath id="clip0_33_41011">
<rect width="24" height="24" fill="white" transform="translate(0 0.195312)"/>
</clipPath>
</defs>
</svg>
